/* XPM */
static char *result[] = {
/* columns rows colors chars-per-pixel */
"64 64 241 2 ",
"   c #1D2E23",
".  c #1D3025",
"X  c #262C25",
"o  c #28362C",
"O  c #373528",
"+  c #293E33",
"@  c #253935",
"#  c #363735",
"$  c #2F2B32",
"%  c #181E23",
"&  c #553312",
"*  c #593615",
"=  c #5D3916",
"-  c #5C3D1D",
";  c #57381B",
":  c #623B17",
">  c #643D19",
",  c #683F19",
"<  c #78231D",
"1  c #53332F",
"2  c #6C2D2E",
"3  c #2D4236",
"4  c #36483A",
"5  c #3A513F",
"6  c #39492A",
"7  c #64401B",
"8  c #6B421B",
"9  c #6E481E",
"0  c #72461D",
"q  c #74491E",
"w  c #7B4C1F",
"e  c #5E4020",
"r  c #5A472A",
"t  c #494637",
"y  c #584938",
"u  c #4E4E31",
"i  c #614221",
"p  c #64432A",
"a  c #6A4A26",
"s  c #744C21",
"d  c #7B4D21",
"f  c #724A26",
"g  c #6D532B",
"h  c #7C5324",
"j  c #74542D",
"k  c #765934",
"l  c #645436",
"z  c #566B2F",
"x  c #796637",
"c  c #736930",
"v  c #5C411E",
"b  c #1A3252",
"n  c #2B3A4A",
"m  c #393A45",
"M  c #293D59",
"N  c #363349",
"B  c #1E3F68",
"V  c #1E3D65",
"C  c #243E63",
"Z  c #423E48",
"A  c #49374F",
"S  c #753941",
"D  c #3B5240",
"F  c #3F524B",
"G  c #364651",
"H  c #294569",
"J  c #344864",
"K  c #2A4E7B",
"L  c #2A4A73",
"P  c #395577",
"I  c #345271",
"U  c #1E4068",
"Y  c #475348",
"T  c #585649",
"R  c #595A55",
"E  c #494D51",
"W  c #665A46",
"Q  c #6C5B4D",
"!  c #5A6350",
"~  c #77674A",
"^  c #686756",
"/  c #746857",
"(  c #727252",
")  c #465E78",
"_  c #505A6C",
"`  c #486579",
"'  c #58646F",
"]  c #696A66",
"[  c #72736F",
"{  c #89221B",
"}  c #982A24",
"|  c #882E29",
" . c #A42F29",
".. c #A22E27",
"X. c #804F21",
"o. c #835424",
"O. c #8A5524",
"+. c #845927",
"@. c #895927",
"#. c #845A29",
"$. c #8B5D29",
"%. c #855428",
"&. c #935E2A",
"*. c #985B24",
"=. c #825C3A",
"-. c #8C612D",
";. c #896127",
":. c #92652D",
">. c #9A6A2E",
",. c #8A6836",
"<. c #946931",
"1. c #9B6D33",
"2. c #926433",
"3. c #8A763C",
"4. c #977835",
"5. c #93712E",
"6. c #A76928",
"7. c #A9742D",
"8. c #B37A2E",
"9. c #A47336",
"0. c #A3753B",
"q. c #A97A39",
"w. c #AC7831",
"e. c #996B46",
"r. c #867649",
"t. c #9E7246",
"y. c #997648",
"u. c #867756",
"i. c #8C7150",
"p. c #AA7C43",
"a. c #A3784E",
"s. c #A47945",
"d. c #A37950",
"f. c #867B6A",
"g. c #8A7771",
"h. c #6D8537",
"j. c #74847C",
"k. c #9B833A",
"l. c #A7883B",
"z. c #BB8432",
"x. c #B88634",
"c. c #B7913B",
"v. c #C5973B",
"b. c #C18E36",
"n. c #CAA03E",
"m. c #998547",
"M. c #928852",
"N. c #A88844",
"B. c #B69946",
"V. c #A69659",
"C. c #BC9453",
"Z. c #B49858",
"A. c #AD8D4A",
"S. c #B5A350",
"D. c #948668",
"F. c #86827B",
"G. c #94897C",
"H. c #908C6A",
"J. c #A89770",
"K. c #ADA370",
"L. c #C39C5A",
"P. c #C19E45",
"I. c #C8A847",
"U. c #D3AD45",
"Y. c #D3AF48",
"T. c #D4B247",
"R. c #D5B549",
"E. c #D6B94B",
"W. c #D9BB4B",
"Q. c #D9B548",
"!. c #C7A25B",
"~. c #D0B452",
"^. c #CDA764",
"/. c #D2AD6B",
"(. c #E1BF4D",
"). c #DEC050",
"_. c #E1C14F",
"`. c #E3C551",
"'. c #EACC53",
"]. c #E5C854",
"[. c #EED256",
"{. c #EBD75C",
"}. c #F3DA5A",
"|. c #F7E45E",
" X c #FAED62",
".X c #FDF364",
"XX c #FEF866",
"oX c #CFC364",
"OX c #2D5484",
"+X c #345A8A",
"@X c #365F93",
"#X c #386399",
"$X c #386296",
"%X c #3E618C",
"&X c #3C6AA5",
"*X c #547087",
"=X c #6B798A",
"-X c #4176B8",
";X c #576EAE",
":X c #445CA8",
">X c #8D6CA9",
",X c #7B8489",
"<X c #6E8B95",
"1X c #7AA7B2",
"2X c #5F899F",
"3X c #61AED4",
"4X c #76C7E6",
"5X c #968B87",
"6X c #99958C",
"7X c #9B9794",
"8X c #898B8A",
"9X c #A79789",
"0X c #A6998E",
"qX c #AAA39C",
"wX c #B6A98F",
"eX c #899AA8",
"rX c #90ACAF",
"tX c #BDB5AC",
"yX c #B8B5AB",
"uX c #B2AFAD",
"iX c #9DA197",
"pX c #C3BCB6",
"aX c #C0B7AD",
"sX c #AEC7AE",
"dX c #C8C1BA",
"fX c #CCC489",
"gX c #B696C5",
"hX c #CC8FD5",
"jX c #B0D3CE",
"kX c #BAF1F0",
"lX c #A1D1D3",
"zX c #CEC8C2",
"xX c #D2CCC6",
"cX c #D7D3CB",
"vX c #DCD7D1",
"bX c #DCDAD2",
"nX c #CDD4D5",
"mX c #F5F1D7",
"MX c #C2FBFC",
"NX c #F3F1E3",
"BX c None",
/* pixels */
"BXBXBXBXBXBXBXBXBXBXBXBXBXBXBXBXBXBXBXBXBXBXBXBXBXBXBXBXBXBXBXBXBXBXBXBXBXBXBXBXBXBXBXBXBXBXBXBXBXBXBXBXBXBXBXBXBXBXBXBXBXBXBXBX",
"BXBXBXBXBXBXBXBXBXBXBXBXBXBXBXBXBXBXBXBXBXBXBXBXBXBXBXBXBXBXBXBXBXBXBXBXBXBXBXBXBXBXBXBXBXBXBXBXBXBXBXBXBXBXBXBXBXBXBXBXBXBXBXBX",
"BXBX,.&.1.0.p.p.p.N.p.q.p.q.p.p.p.p.p.p.p.p.s.p.p.p.p.N.p.p.N.p.p.A.p.p.0.9.q.0.0.s.q.s.q.s.0.0.1.0.0.0.0.0.q.s.p.p.s.2.,.=.BXBX",
"BXBX=.2.p.C.!.^././.^.!.L.L.!.^./.^.^.^.^.^.L.!.L.^./././././././././.L.L.C.C.L.C.L.L.!.L.C.C.C.C.C.C.C.C.L.L.L.!.L.L.C.p.2.BXBX",
"BXBXa.$.@.:.1.0.p.q.N.N.A.A.A.8.N.q.p.N.q.0.0.9.9.0.0.s.0.0.0.0.0.s.0.0.1.0.9.1.9.0.0.0.0.0.1.9.0.1.0.1.0.9.0.0.0.1.2.@.h f BXBX",
"BXBXs.&.X.q q w h %.O.%.*.@.-.&.h +.+.+.h o.h h %.X.o.X.h o.h o.o.X.X.X.X.h X.h h h d d d o.h h o.h d d s s d s 0 0 d d f p BXBX",
"BXBXt.:.O.> & & & & & & & : : : : , > : , > > > > > : > > > > > > : > > : : > > , : > > : : > : : : * * & & & & & & 8 h h p BXBX",
"BXBXd.0.<.8 & & & & : , , 0 , f 0 0 0 0 0 0 0 q 0 0 0 0 0 0 0 0 0 0 0 d , d f , 0 0 0 0 0 0 q q f 0 0 , > * & & & & f #.#.p BXBX",
"BXBXa.q.1.9 & & & = , 0 d O.o.$.;.;.;.-.-.;.;.-.;.-.-.-.-.-.-.-.$.-.$.-.;.-.$.-.;.-.-.;.-.$.#.@.@.o.o.w 0 , = & & & a ;.+.p BXBX",
"BXBXa.9.1.8 & * = , 8 0 d %.$.-.:.:.2.:.:.:.:.-.:.:.:.-.:.:.:.2.:.:.:.:.:.:.:.:.:.:.:.:.:.:.-.-.$.@.O.d 0 8 : * & * s -.+.p BXBX",
"BXBXa.q.1.7 * : , 0 : * * = > , : v : : 7 7 7 7 7 7 , > 7 7 7 7 7 8 7 8 7 7 8 a 7 7 7 7 > > > p > - = * & , 0 : * = d -.#.p BXBX",
"BXBXa.0.1.9 * : 0 X., * 5 D 3 + 3 3 3 4 5 3 3 + 5 D 5 Y 5 5 ^ D 3 F.' P j.jXMXrXkXkX1X` ` ) *X<XeXrXiX,X* , w , * = d -.#.p BXBX",
"BXBXa.9.1.8 ; 8 d O.7 ; 5 3 3 + + + + 6 6 3 3 4 5 Y 5 ! Y Y ;X! T :X[ R ;X8XsXiXjXjXkX` ` *X=X<XuXnXcXjX; f X., : : h -.k p BXBX",
"BXBXt.q.1.8 = 0 d O.8 ; D 5 4 3 + + 6 z h.6 3 5 Y ! ^ _ ' l ] ( ! F.[ ( ,XH.=X=XiXjXkX1X<X<XrXuXnXNXmXNX> s %.8 : 9 o.-.@.p BXBX",
"BXBXt.q.1.8 : 0 o.O.7 ; 5 5 D D 5 + 3 6 h.h.5 5 D ! ' r.H.( J.K.M.K.V.H.wXj.6Xj.=XkXkXlX2X*X<XeXpXbXmXmX> d O.9 = 8 +.$.h p BXBX",
"BXBXe.9.1.f : 0 X.O.7 ; D D D D D 5 3 6 c z O 5 D Y H.J.V.Z.V.c k.m.A.m.k.V.V.K.eXeX<XrX*X` *X<XeXrXfXtXa h $.0 > 0 o.@.+.p BXBX",
"BXBXe.9.1.s , 0 X.O.8 ; 5 5 5 5 5 u m.~.E.E.S.3.u 6 h.r.y.l.P.E._.[.|.[.'.S.A.x 3.B.S.B.x Y ` ` *X=XZ.6Xf o.$.s 8 0 o.@.h p BXBX",
"BXBX1.9.1.f , q o.&.9 ; 5 D 5 5 6 N.).|. X X|.{.).c x B.Y.E.Q.).'.|.XXXX|.].).k.k.W.].|.{.S.l I %X' B.D.9 o.O.0 , 0 o.$.+.p BXBX",
"BXBXa.9.1.d , s o.:.f - 5 D D 4 3.W.'. X.X.XXX.X[.W.W.E.E.E.E.).`.|. X X|.`._._.l.c.`.|.XX}.A.G J G B.V.f X.o.0 , 8 %.$.h p BXBX",
"BXBXa.9.1.d , 0 O.:.f - 5 D 4 l Y.W.).'.[.}.}.|.}.(.W.W.E.E.).E._.`.'.'.'.`.}.[.).4.n.[..X X~.T G n S.V.a X.O.q , 0 o.@.h p BXBX",
"BXBXd.9.1.s , 0 O.O.0 - 5 5 o k.E.E.).).W.T.T._.(.(.E.W.E.E.W.W.W.).).).).`.].}.`.k.x.W.}.|.).u M n S.l.9 h o.0 , 0 o.$.h p BXBX",
"BXBXa.9.1.d , 0 X.O.0 - 5 5 l I.W.E.Q.Q.v.z.z.b.T.W.W.W.W.E.T.B.E.W.W.Q.W.E.B.).).k.7.U._.'.E.u J G S.k.s h $.w , 0 o.$.%.p BXBX",
"BXBXt.9.1.s , s o.$.9 e 5 D c I.W.E.E.U.z.x.z.z.v.W.E.E.E.E.k.E.W.E.W.W.E.E.I.c.E.k.4.n.).'.S.u 5 h.K.h.a +.;.w 8 f o.@.h p BXBX",
"BXBXe.9.1.d , 0 o.-.9 e 5 D c Y.W.W.E.U.x.x.8.z.c.E.E.E.E.T.S.).Q.T.T.T.T.U.E.B.E.4.x.Q.).'.m.Y z h.h.h.a @.;.w , 0 %.-.h p BXBX",
"BXBXe.1.<.q 8 q X.@.q 7 5 5 r B.W.).W.U.b.x.z.z.x.T.E.W.W.E.T.c.U.U.Q.Q.Q.T.c.U.R.,.v.W.W.I.j.lX_ ! ~.l.a #.:.d , 0 +.-.+.p BXBX",
"BXBXe.:.-.9 7 0 o.&.s e 5 # O 5.n.n.T.U.v.z.8.7.6.v.E.W.W.T.c.P.U.T.`.[.'.T.c.c.I.5.R.E.I.5.sXkX2X^ ~.I.s #.5.s , 0 @.:.h p BXBX",
"BXBXe.:.:.q , q %.:.q i o # @ - x.z.b.v.b.8.6.6.*.z.E.W.T.W.U.U.U.Q.'..X|.(.W.U.x v.v.v.q.j.kXMXj.z B.~.s $.:.h 8 0 %.-.#.p BXBX",
"BXBXe.6.1.s , q o.:.s i # # # O s x.z.z.z.8.8.6.6.7.R.E.).E.Q.T.T.).[.XX|.'.W.l.o.z.z.z.j rXkX<XD z h.B.g #.<.h 8 0 o.:.#.p BXBX",
"BXBXe.9.1.s , q O.:.s i # # # X X g 4.x.8.z.z.8.7.6.U.W.W.W.E.W.W._.[..XXX[.(.5.O.8.b.6.4 <XlXF 5 z h.h.s #.<.d 8 0 #.1.#.p BXBX",
"BXBXs.9.1.s , w O.:.s - # # X o 3 o ; 9 @.6.8.z.8.b.v.W.Q.E.W.E.W._.[..XXX[.W.;.X.6.6., n P 1X+ 4 k.c z a $.<.h 8 0 $.1.-.p BXBX",
"BXBXa.q.1.s , 0 O.:.s i o X o + 3 . 3   O 0 *.8.b.z.z.n.E.W.c.Q.W.W.'.|..X'.v.X.X.*.O.O M J ` 3 r c ;.c s #.<.d 8 0 $.1.-.p BXBX",
"BXBXd.9.1.d , q o.&.q i X o 3 + 3 3 3 3 o t f *.6.b.6.*.n.T.c.l.W.(.'.}.XX'.;.O.X.*.f A M H J D u 4.9.4.a #.<.d 8 0 $.1.-.p BXBX",
"BXBXa.9.1.w 8 q o.:.s e . + 3 + + + + + R qX5X2 *.6.>.* >.B.V.k T.W._.[.|.W.r W X.O.1 hX%XA J ` M.B.5.,.g $.:.d 8 9 $.1.-.p BXBX",
"BXBXa.q.1.w , q O.:.s e . @ + + + 3 3 ,XxXtXtXG.- O.X.1 9 2X4X*XU.W.W._._.W.<X1Xh r g.gXhXH J _ S.B.5.u f $.:.h 8 9 ;.1.-.p BXBX",
"BXBXa.9.1.s , q o.:.w v   . o + + 4 uXcXvXvXdXaX6XW / 7X[ 3X3X3Xl.W.W.W.E.).j.2X1 7X5X7XhX>XM ^ `.c.M.lXs #.5.s 8 0 O.1.-.p BXBX",
"BXBXa.q.1.s 8 q O.:.q v         n ' zX7XvXdX7XxXuXuXdX6XqX8X2X4X~ Q.W.W.).].M.,X0XqXxXvXdXgX_ i.).l.K.kXa #.<.h 8 0 $.1.$.p BXBX",
"BXBXs.9.1.s 8 q o.:.w >       X J %XxXvXvXvXvXvXcXvXvXvXcXzX5X1 5.U.W.W._.[.'.f.aXvXxXvXpXpX5XA.B.k.J.sXa h <.s , 0 $.1.-.p BXBX",
"BXBXs.0.1.q 7 q o.:.s e %   O d W P 8XxXvXdXxXvXvXaXpXvXvXzXg.5Xf.k T.W._.[.|.k.6XvXpXpXzX7X%Xu.S.A.B.B.g ;.<.h 8 f $.1.-.p BXBX",
"BXBXt.1.<.w , w O.:.s e b # r.0.s.) L ,XaX0XzXvXvXxXvXvXtXvXaXqXG.^ ~ B.W._.{.{.D.zXpXuX=X%X#X&X) r.l.c.s #.:.s 8 0 $.1.2.p BXBX",
"BXBXs.1.-.f , q o.:.s - t k k N.P.] @XOX*XtXaXzXcXvXvXxXqXzXaXqX0X5Xg.^ l.).'.|.~./ aXF.OX:X#X-X&X%Xl.S.s ;.5.d , 0 $.1.$.p BXBX",
"BXBXt.1.:.q > q O.$.q 7 3.3.i.V.oXV.#X&X+X) 7XtX5XxXcXxXdXaXaXF.uXg.f.8XT 9.Q.`.`.A.[ J K $X#X#X#X#XY 4.a #.<.h 8 0 $.1.$.p BXBX",
"BXBXt.1.:.9 8 q O.:.q i 1.y.t.p.Z.Z.] &X#XOXI 7XtXuXF.aXaX5XaXaXqXg.F.G.[ ^ 6.T.W.W.x L B OX$X#XK _ l t s #.-.h 8 0 $.1.2.p BXBX",
"BXBXd.1.-.q 8 q %.:.s v k.M.2.9.V.!.r.J +X+XK C [ qXqXaXaXqXtXaX5X5XpXG.g.g./ 2.x.c.x.G H OXOX@X] A.I.x 9 #.<.s 8 0 @.1.-.p BXBX",
"BXBXa.1.:.q , 0 O.:.s - 3.m.y.D.i.P.1.E H C C K K H _ =X8X8XF.[ 7XpXdXqXd.D.[ m M N y y H L L u.~. X{.M.9 h <.h 8 0 $.1.$.p BXBX",
"BXBXt.1.:.q 7 w O.&.f v X 7.l.r.p =.%.< 2 B OXK K K K OXK L T 5XyXdXpXD.J.9Xg._ +X@X@XK L H ^ B.].{.H.^ 9 +.:.d , 0 $.1.-.p BXBX",
"BXBXt.1.-.q 7 q O.:.q - $ l Z.~ y 1 < { < L L OXOXOXOXOX+XOXi.qXaXdXG.wXi.J.J.Q ] #X#X#X@XE <.x.!.D.R ^ a #.:.h , f -.1.-.p BXBX",
"BXBXt.1.:.9 7 q %.:.d - Z Z 1 m A 1 { { 1 L OX@X#X#X#X$X$X) f.uXdXdXJ.wXi.f.K.i.+X&X-X:X$XR w.q.u.[ u.~.i +.2.h 8 0 $.1.-.p BXBX",
"BXBXt.1.1.w 8 q %.:.s - # $ $ $ $ 1 { { 1 OXOX@X#X&X-X-X#X_ g.qXdXdXyXD.J.9X0XD.` #X-X-X#Xn 2./ ] ( S.fXi h :.d , 0 $.1.-.p BXBX",
"BXBXe.0.1.s 7 q o.:.s v m # Z Z E 2 ..} 1 L OX@X@X#X&X&X@X] Q i.g.5X0X5Xg.g.g.i.R @X#X&X$XA 1 ' ~ c.3.V.i h <.h 7 9 $.1.$.p BXBX",
"BXBXe.9.1.q 7 w o.:.q v m Z Z Z Z | ....2 OXOX@X@X#X#X:X@Xu.$ A S 2 S S 2 1 $ t u.*X#X$X$XA < 1 3.V.3.v.7 h 5.d 8 0 $.1.-.p BXBX",
"BXBX2.9.1.w 8 q X.@.q - Z m m Z 1 }  ...2 OXOX+X#X#X#X#X@Xr.b V B B V V V V U G R $X$X$X$XA } 2 E r.A.k.i h :.h 8 0 $.1.-.p BXBX",
"BXBXe.9.1.w , 0 X.O.8 = # Z Z N 1  . ...< E L OX#X#X#X#XP r.b V B B B V V V U n T ' @X*X+X2  .| M D Y n = d -.d 8 0 $.1.-.p BXBX",
"BXBXt.9.1.0 > 0 d O.i - $ m $ % <  . ...< t W I @X#X+X/ ^ ~ V V B B B V U U U b W y.' ) Q |  . .1 ) P I = q @.w 7 8 #.1.$.p BXBX",
"BXBXt.1.:.0 : 7 s %.8 - m N % % } .. ...{ b N l R ` _ N.Z.n B B B V b b U U U V n ~ ~ ~ p { .. .| M Y ^ i q X.0 , > %.1.2.p BXBX",
"BXBXd.1.-.8 = - 0 s : * ; - 1 a 9 r r a a g g g g g j j g g g g g f 2 k k k k g a g f j g g a a a a r v - 7 q , = = h 1.-.p BXBX",
"BXBXa.1.-.8 * = , , > , 7 8 8 0 9 9 9 9 9 q s q d s s s w w s s d d f f s d q s d d s w a 9 9 9 a 0 9 8 8 9 8 = * : h 1.$.p BXBX",
"BXBXt.:.;.7 & & * > , w O.&.&.<.1.1.1.1.5.1.1.1.1.1.1.>.1.>.1.>.1.1.1.1.1.1.1.1.1.1.1.1.1.>.>.1.1.1.:.&.@.w - * & = h 1.$.p BXBX",
"BXBXe.>.-.7 & & & * * : > , 9 f q q q h o.o.o.+.o.o.h o.h o.h o.%.%.X.o.h o.o.h o.X.h h h o.d w 9 q q 8 > = * & & * s :.#.p BXBX",
"BXBXe.:.O.7 * * * * : : : , 0 0 0 w w w X.d X.X.h X.X.X.h X.X.X.d X.X.X.X.X.d o.X.X.o.w X.X.w q q 0 8 , : = = * * * a o.h p BXBX",
"BXBXe.O.h 8 : 7 , 0 s d X.%.&.&.&.&.&.:.&.&.&.&.&.&.&.&.&.&.&.:.&.&.&.&.&.&.&.&.&.&.&.:.:.&.&.&.&.$.+.h d q 9 8 , = 8 w s p BXBX",
"BXBXe.w w w o.@.-.-.1.1.9.9.9.9.q.9.9.0.9.q.9.9.9.9.9.q.0.9.9.q.9.0.9.0.9.9.9.9.0.q.9.9.9.q.9.9.0.9.9.9.1.1.-.-.@.o.d s f p BXBX",
"BXBXk , 7 8 0 q s d h h h h h h h h h h h h h h h h h h h h h h h +.h h h h h h h h h h h h h h h h h h h h d s s f , , = - BXBX",
"BXBXBXBXBXBXBXBXBXBXBXBXBXBXBXBXBXBXBXBXBXBXBXBXBXBXBXBXBXBXBXBXBXBXBXBXBXBXBXBXBXBXBXBXBXBXBXBXBXBXBXBXBXBXBXBXBXBXBXBXBXBXBXBX",
"BXBXBXBXBXBXBXBXBXBXBXBXBXBXBXBXBXBXBXBXBXBXBXBXBXBXBXBXBXBXBXBXBXBXBXBXBXBXBXBXBXBXBXBXBXBXBXBXBXBXBXBXBXBXBXBXBXBXBXBXBXBXBXBX"
};
