/* XPM */
static char *c67809be3d2043468e76dcb48d0137aeOz0RNyET8utBCtu3[] = {
/* columns rows colors chars-per-pixel */
"64 64 121 2 ",
"   c black",
".  c #010000",
"X  c #000100",
"o  c #010101",
"O  c #000201",
"+  c #000002",
"@  c #0F1E0B",
"#  c #101F0C",
"$  c #1B3512",
"%  c #2B0036",
"&  c #2C0036",
"*  c #2C0136",
"=  c #2D0136",
"-  c #2D0037",
";  c #2C0137",
":  c #2E0036",
">  c #2F0037",
",  c #2D0039",
"<  c #2E0138",
"1  c #4E025D",
"2  c #4D005E",
"3  c #4E015F",
"4  c #4D025F",
"5  c #50005F",
"6  c #4E0161",
"7  c #4D0261",
"8  c #4F0260",
"9  c #5E116F",
"0  c #5D126F",
"q  c #5F136E",
"w  c #5E1171",
"e  c #5F1270",
"r  c #5E1370",
"t  c #5F1272",
"y  c #60106F",
"u  c #611170",
"i  c #601371",
"p  c #611172",
"a  c #A90000",
"s  c #A90100",
"d  c #AA0000",
"f  c #AA0100",
"g  c #AA0001",
"h  c #AC0000",
"j  c #FC0000",
"k  c #FD0100",
"l  c #FE0000",
"z  c #FE0002",
"x  c #936100",
"c  c #906200",
"v  c #926200",
"b  c #936301",
"n  c #9C6E00",
"m  c #9D6F00",
"M  c #9E6E00",
"N  c #9F6F01",
"B  c #9D6E02",
"V  c #9B7000",
"C  c #9E7001",
"Z  c #EB9A00",
"A  c #EC9B01",
"S  c #EC9B03",
"D  c #EC9C00",
"F  c #ED9C02",
"G  c #D1A400",
"H  c #D2A501",
"J  c #D1A601",
"K  c #D2A600",
"L  c #D2A502",
"P  c #D4A501",
"I  c #C1953E",
"U  c #C1943F",
"Y  c #C2963F",
"T  c #C29540",
"R  c #C39540",
"E  c #C09640",
"W  c #C39641",
"Q  c #FFCF76",
"!  c #FFD076",
"~  c #FFD177",
"^  c #FFD277",
"/  c #722681",
"(  c #712482",
")  c #722583",
"_  c #712683",
"`  c #742483",
"'  c #722585",
"]  c #732684",
"[  c #7B2B8A",
"{  c #7A2E89",
"}  c #792C8A",
"|  c #7A2D8B",
" . c #792E8B",
".. c #7B2E8C",
"X. c #7B2E8E",
"o. c #D9BB87",
"O. c #DABC86",
"+. c #DABC88",
"@. c #DBBD89",
"#. c #D8BC8A",
"$. c #EBDCBF",
"%. c #ECDDBE",
"&. c #EDDCC0",
"*. c #ECDDC0",
"=. c #EDDEC1",
"-. c #ECDCC2",
";. c #EDDDC3",
":. c #F6F6F4",
">. c #F7F7F5",
",. c #F7F5F6",
"<. c #F6F6F6",
"1. c gray97",
"2. c #F8F7F5",
"3. c #F8F6F7",
"4. c #F6F8F5",
"5. c #F6F8F7",
"6. c #F8F8F6",
"7. c #F7F7F9",
"8. c #F7F9F8",
"9. c #F8F8F8",
"0. c #F8F8FA",
/* pixels */
"1.1.1.1.1.1.1.1.1.1.1.1.1.1.1.1.1.1.1.1.      M M M $ $ $ @ @ @ d d d #.#.#.Y Y W             7.1.1.1.1.1.1.1.1.1.1.1.1.1.1.1.1.",
"1.1.1.1.1.1.1.1.1.1.1.1.1.1.1.1.1.1.1.3.9.1.1.      $ $ $ # @ @ l l l l l l             3.5.1.1.1.1.1.1.1.1.1.1.1.1.1.1.1.1.1.1.",
"1.1.1.1.1.1.1.1.1.1.1.1.1.1.1.1.1.1.1.1.1.1.1.      $ $ $ @ @ @ l l l l l l             1.1.1.1.1.1.1.1.1.1.1.1.1.1.1.1.1.1.1.1.",
"1.1.1.1.1.1.1.1.1.1.1.1.1.1.1.1.1.1.1.1.1.1.1.      $ $ $ @ @ # l l l l l l             1.1.1.1.1.1.1.1.1.1.1.1.1.1.1.1.1.1.1.1.",
"1.1.1.1.1.1.1.1.1.1.1.1.1.1.1.1.1.1.1.1.1.1.1.1.5.9.                  d d d d d d       3.7.1.1.1.1.1.1.1.1.1.1.1.1.1.1.1.1.1.1.",
"1.1.1.1.1.1.1.1.1.1.1.1.1.1.1.1.1.1.1.1.1.1.1.1.5.1.                  d d d d d d       1.1.1.1.1.1.1.1.1.1.1.1.1.1.1.1.1.1.1.1.",
"1.1.1.1.1.1.1.1.1.1.1.1.1.1.1.1.1.1.6.5.1.1.1.1.1.1.                  d d d d d h       1.1.3.1.1.1.1.1.1.1.1.1.1.1.1.1.1.1.1.1.",
"1.1.1.1.1.1.1.1.1.1.1.1.1.1.1.1.1.1.1.1.1.1.1.1.1.1.1.1.1.3.1.1.6.9.8.            1.1.1.1.1.1.3.1.1.1.1.1.1.1.1.1.1.1.1.1.1.1.1.",
"1.1.1.1.1.1.1.1.1.1.1.1.1.1.1.1.1.1.1.1.1.1.1.1.3.7.5.5.3.1.1.5.8.1.1.            9.9.8.1.1.1.1.1.1.1.1.1.1.1.1.1.1.1.1.1.1.1.1.",
"1.1.1.1.1.1.1.1.1.1.1.1.1.1.1.1.1.1.1.1.1.1.1.1.1.8.3.3.5.1.1.9.1.1.1.            9.1.1.1.1.1.1.1.1.1.1.1.1.1.1.1.1.1.1.1.1.1.1.",
"1.1.1.1.1.1.1.1.1.1.1.1.1.1.1.1.1.1.1.1.1.1.1.1.1.1.3.5.3.                  9.5.5.3.1.1.1.1.9.3.1.1.1.1.1.1.1.1.1.1.1.1.1.1.1.1.",
"1.1.1.1.1.1.1.1.1.1.1.1.1.1.1.1.1.1.1.1.1.1.1.1.3.1.5.3.5.                  3.3.3.5.3.7.5.3.5.5.1.1.1.1.1.1.1.1.1.1.1.1.1.1.1.1.",
"1.1.1.1.1.1.1.1.1.1.1.1.1.1.1.1.5.3.5.1.3.5.3.5.5.3.5.3.3.                  3.5.5.3.5.3.5.3.5.3.1.1.1.1.1.1.1.1.1.1.1.1.1.1.1.1.",
"1.1.1.1.1.1.1.1.1.1.1.1.1.1.1.1.3.5.3.1.5.3.5.            ) ` ' ' ' ) i y i       5.3.9.3.5.3.5.1.1.1.1.1.1.1.1.1.1.1.1.1.1.1.1.",
"1.1.1.1.1.1.1.1.1.1.1.1.1.1.1.1.9.3.3.5.3.5.3.            ` ) ) ) ' ) r 9 9       5.3.9.5.3.5.9.1.1.1.1.1.1.1.1.1.1.1.1.1.1.1.1.",
"1.1.1.1.1.1.1.1.1.1.1.1.1.1.1.1.5.3.5.3.5.3.5.            ' ) ) ) ) ) i r i       3.5.9.3.5.3.9.1.1.1.1.1.1.1.1.1.1.1.1.1.1.1.1.",
"1.1.1.1.1.1.1.1.1.8.7.3.5.3.1.1.1.            i i 9 ) ) ) i 9 i ) ) ) ) ( ) 9 i i       1.9.9.3.1.1.1.1.1.1.1.1.1.3.1.1.1.1.7.1.",
"1.1.1.1.1.1.1.1.1.1.3.5.3.5.1.1.1.            9 9 i ) ) ) 9 9 i ) ) ) ) ) ) i 9 9       1.9.1.5.1.1.1.1.1.1.1.1.1.1.1.1.1.1.1.5.",
"1.1.1.1.1.1.1.1.1.1.1.8.3.5.3.8.1.            i 9 9 ) ) ) 9 i 9 ) ) ) ) ) ( i 9 i       1.1.1.1.1.1.1.1.5.1.5.3.1.3.1.1.1.1.7.1.",
"1.1.1.1.1.1.1.1.1.1.1.            r r 9 9 i 9 ) ) ) i 9 i ) ) ) 9 i 9 ) ) ) 9 i i r r r       1.1.1.1.1.3.5.3.5.1.1.1.          ",
"1.1.1.1.1.1.1.1.6.7.7.            9 i i r i 9 ) ) ) 9 i i ) ) ) i 9 i ) ) ) i 9 i 9 9 i       1.1.1.5.3.5.3.5.3.1.1.1.          ",
"1.1.1.1.1.1.1.1.9.9.3.            i 9 r i 9 r ) ) ) i 9 9 ) ) ) 9 i 9 ) ) ) 9 i 9 i i 9       9.1.1.9.3.3.5.3.5.1.1.1.          ",
"1.1.1.1.1.1.1.1.      9 i 9 i 9 9 9 r i ` / ) y 9 i ) ) ) 9 i 9 9 9 i 9 9 i 9 i 9 i 9 i 9 i r       3.5.5.3.5.3.      D A A A A ",
"1.1.1.1.1.1.1.1.      i 9 i i 9 9 i i r / ) ) 9 i 9 ) ) ) i 9 i i i 9 i i 9 i 9 i 9 i 9 i 9 i       5.3.3.5.3.5.      A A A A A ",
"1.1.1.1.1.1.1.1.      i r r i i y 9 i y ) ) ) i 9 i ) ) ) i 9 9 9 i i i 9 i 9 i i 9 i 9 i 9 i       7.6.3.5.3.5.      A D A A A ",
"    1.1.1.1.1.1.      | ..| 9 9 9 C C N 9 i i 9 i 9 9 i 9 i i 9 9 9 9 9 i 9 i 9 9 i 9 i ` ) ) r i r       3.5.3.      ~ Q ~ A Z ",
"    1.1.1.1.1.1.      | | | r r 9 C M C y r i 9 9 i i 9 i 9 i 9 i 9 i i 9 i 9 i y 9 r i ) ) ) i i 9       6.3.5.      ~ ~ Q S A ",
"    1.1.1.1.1.1.      | | [ i r r n C C 9 i r 9 i i 9 i 9 i 9 i 9 i 9 i i 9 i 9 i 9 i r ) ) ] r r i       1.5.9.      ~ Q ~ A A ",
"    1.1.1.1.1.1.      3 3 3 C n C 9 r i 9 y 9 i 9 i 9 i 9 i i 9 9 i 9 ) ) ) i 9 y 0 y i r 9 y 9 i r i 9 i             v v v M M ",
"    1.1.1.1.1.1.      3 3 3 M C M r r r i r i 9 9 9 i 9 i 9 9 i i 9 i ) ) ) i i i r i 0 i i 9 i 9 y 9 i i             v v v M C ",
"    1.1.1.1.1.1.      3 3 3 M V C 0 i 9 9 i 9 i i 9 i i 9 i 9 9 9 i 9 ) ) ) 9 9 9 r 0 y 9 i i 9 9 i i 9 r             v v v V M ",
"1.1.1.1.1.1.1.1.      3 3 3 H H H | | | i 9 i 9 9 i 9 i i 9 i 9 ) ) ) i 9 i ) ) ) 0 i 0 i y 9 i r i & & ,             v v v H H ",
"5.3.5.3.9.5.3.5.      3 3 7 H P H | |  .p r i r i 9 r r y i r y ) ) ` i r y ( ' ) r i y y 9 y r r y & & &             v v v H H ",
"3.5.3.5.3.3.5.3.      3 3 3 H H H | | | r r y r i 9 i r r 0 i i ) ) ( i i i ) ) ) 9 9 i 9 i i y i i & , &             v v b H H ",
"    5.3.5.3.3.5.      3 3 3 H H H 3 3 3 [ ....r 9 9 C n C 0 i 0 9 i i ( ) ) r i 9 9 i y & & & < & & R W W             v v v H H ",
"    3.5.3.5.5.9.      3 3 7 H P H 7 3 7 ..[ [ r r 9 C C C i r y i r r ( ) ( 9 9 i r y i & , , & , & W W W             v v b H H ",
"    5.3.3.5.3.3.      3 3 7 H H H 3 3 3 | | | r i 9 M n C 9 y i 9 i 9 ) ) ) r r i i i i , % & & & & R R W             v v b H H ",
"    3.5.9.9.5.9.5.3.9.      M C M 3 3 3 3 3 3 M M M 9 r 9 i 0 y i 9 i i i p & & & , & & W W W *.=.=.=.&.=.      1.1.6.      C M ",
"    5.3.3.5.3.5.3.5.5.      C M M 3 3 3 3 3 2 M M C r r i 9 y i r i i 9 i i > & & & & & U W U &.=.%.$.=.=.      1.1.1.      V M ",
"    3.5.5.3.5.3.5.3.5.      M V C 3 7 3 3 3 7 n C M r y y i r y i r 9 i 9 i & & & , & % U E W =.%.=.=.$.$.      1.1.5.      C V ",
"5.3.5.3.5.3.5.3.1.1.1.1.1.1.      3 3 3 3 3 3 H H H | | | 9 y i & , & & & , Y U U =.&.=.*.*.*.o.o.#.W U W       1.1.1.1.1.1.    ",
"3.5.3.5.3.5.3.5.1.1.1.1.1.1.      3 3 3 3 3 3 H H H | | | y i i & & & , & , R W U %.=.&.*.=.*.+.@.O.U W U       1.1.1.1.1.1.    ",
"5.3.5.3.5.3.5.3.1.1.1.1.1.9.      8 7 3 3 7 5 H H H ..| | y y i & & > & , & W U W %.*.*.$.%.=.@.O.O.W U W       1.1.1.1.1.9.    ",
"3.5.3.5.3.5.3.5.1.1.1.1.1.1.1.1.5.      3 5 7 H H H 7 3 3 & & & W W R =.$.=.$.=.=.o.+.+.W U W             5.8.3.1.1.1.1.1.1.1.1.",
"5.3.5.3.5.3.5.3.1.1.1.1.1.1.1.1.9.      3 3 7 H H H 3 3 3 < & < R W U =.%.=.=.$.$.+.#.O.U Y U             8.7.5.1.1.1.1.1.1.1.1.",
"3.5.3.5.3.5.3.5.1.1.1.1.1.1.1.6.1.      5 3 3 H H H 7 3 5 & < & U W W %.=.&.=.%.=.+.@.#.W R W             1.1.1.1.1.1.1.1.1.1.9.",
"5.3.5.3.5.3.5.3.1.1.1.1.1.1.1.1.1.1.7.3.      M M C 3 5 3 & < > d d d @.o.+.U W U             9.1.1.3.6.1.1.1.1.1.1.1.1.1.1.1.1.",
"3.5.3.5.3.5.3.5.1.1.1.1.1.1.1.1.1.5.6.9.      M C M 3 3 8 & & < d d h #.+.o.W U U             6.3.1.1.7.1.7.3.1.1.1.1.1.1.1.1.1.",
"5.3.5.3.5.3.5.3.5.3.5.3.5.3.5.3.1.9.1.1.      M C M 3 3 3 & > & d d h #.#.#.W W U             7.1.1.1.1.1.1.1.1.1.1.1.1.1.1.1.1.",
"3.5.3.5.3.5.3.5.3.5.3.5.3.5.3.5.1.1.1.3.9.1.1.      3 3 3 , & < l l l l l l             1.1.1.1.1.1.1.1.1.1.1.1.1.1.1.1.1.1.1.1.",
"5.3.5.3.5.3.5.3.5.3.5.3.5.3.5.3.1.1.1.1.1.1.1.      3 3 3 & , & l l l l l l             1.1.1.1.1.1.1.1.1.1.1.1.1.1.1.1.1.1.1.1.",
"3.5.3.5.3.5.3.5.3.5.3.5.3.5.3.5.1.1.1.3.1.1.1.      3 3 5 > & & l l l l l l             1.1.1.1.1.1.1.1.1.1.1.1.1.1.1.1.1.1.1.1.",
"5.3.5.3.5.3.5.3.5.3.5.3.5.3.5.3.1.1.1.5.1.1.3.1.9.9.                  d d d d d d       3.8.1.1.1.1.1.1.1.1.1.1.1.1.1.1.1.1.1.1.",
"3.5.3.5.3.5.3.5.3.5.3.5.3.5.3.5.1.1.1.1.1.1.1.1.5.8.                  d d d d d d       1.1.1.1.1.1.1.1.1.1.1.1.1.1.1.1.1.1.1.1.",
"5.3.5.3.5.3.5.3.5.3.5.3.5.3.5.3.1.1.6.5.1.1.1.1.3.5.                  d d d d d h       1.1.3.1.1.1.1.1.1.1.1.1.1.1.1.1.1.1.1.1.",
"3.5.3.5.3.5.3.5.3.5.3.5.3.5.3.5.1.1.1.1.1.1.1.5.5.3.3.5.3.5.3.5.8.9.8.            6.5.9.1.1.1.3.1.1.1.1.1.1.1.1.1.1.1.1.1.1.1.1.",
"5.3.5.3.5.3.5.3.5.3.5.3.5.3.5.3.1.1.1.1.1.1.1.1.1.1.1.1.1.1.1.1.5.3.1.            1.1.1.1.1.1.1.1.1.1.1.1.1.1.1.1.1.1.1.1.1.1.1.",
"3.5.3.5.3.5.3.5.3.5.3.5.3.5.3.5.1.1.1.1.1.1.1.1.1.1.1.1.1.1.1.1.3.5.9.            1.1.1.1.1.1.1.1.1.1.1.1.1.1.1.1.1.1.1.1.1.1.1.",
"5.3.5.3.5.3.5.3.5.3.5.3.5.3.5.3.1.1.1.1.1.1.1.1.1.1.1.1.1.1.1.1.5.3.1.1.1.1.1.1.1.1.1.1.1.1.1.1.1.1.1.1.1.1.1.1.1.1.1.1.1.1.1.1.",
"3.5.3.5.3.5.3.5.3.5.3.5.3.5.3.5.1.1.1.1.1.1.1.1.1.1.1.1.1.1.1.1.3.5.1.1.1.1.1.1.1.1.1.1.1.1.1.1.1.1.1.1.1.1.1.1.1.1.1.1.1.1.1.1.",
"5.3.5.3.5.3.5.3.5.3.5.3.5.3.5.3.1.1.1.1.1.1.1.1.1.1.1.1.1.1.1.1.1.1.1.1.1.1.1.1.1.1.1.1.1.1.1.9.1.1.1.1.1.1.1.1.1.1.1.1.1.1.1.1.",
"3.5.3.5.3.5.3.5.3.5.3.5.3.5.3.5.1.1.1.1.1.1.1.1.1.1.1.1.1.1.1.1.1.1.1.1.1.1.1.1.1.1.1.1.1.1.1.1.1.1.1.1.1.1.1.1.1.1.1.1.1.1.1.1.",
"5.3.5.3.5.3.5.3.5.3.5.3.5.3.5.3.1.1.1.1.1.1.1.1.1.1.1.1.1.1.1.1.1.1.1.1.1.1.1.1.1.1.1.1.1.1.1.1.1.1.1.1.1.1.1.1.1.1.1.1.1.1.1.1.",
"3.5.3.5.3.5.3.5.3.5.3.5.3.5.3.5.1.1.1.1.1.1.1.1.1.1.1.1.1.1.1.1.1.1.1.1.1.1.1.1.1.1.1.1.1.1.1.1.1.1.1.1.1.1.1.1.1.1.1.1.1.1.1.1."
};
