/* XPM */
static char *result[] = {
/* columns rows colors chars-per-pixel */
"64 64 129 2 ",
"   c #4B2E11",
".  c #4D3415",
"X  c #523514",
"o  c #533817",
"O  c #5A3A16",
"+  c #513718",
"@  c #553A1A",
"#  c #5A3D1A",
"$  c #57401F",
"%  c #5C411D",
"&  c #63441E",
"*  c #69451C",
"=  c #67481F",
"-  c #6B491F",
";  c #70491D",
":  c #574120",
">  c #5B4321",
",  c #644620",
"<  c #674821",
"1  c #6C4B22",
"2  c #714E23",
"3  c #755225",
"4  c #7A5526",
"5  c #745529",
"6  c #7B5728",
"7  c #76592A",
"8  c #7D592A",
"9  c #7D602F",
"0  c #7C6231",
"q  c #835C2B",
"w  c #885F2C",
"e  c #85612E",
"r  c #8C622E",
"t  c #90662F",
"y  c #836431",
"u  c #8C6631",
"i  c #856835",
"p  c #8C6A34",
"a  c #876D39",
"s  c #8B6D3A",
"d  c #916630",
"f  c #936A32",
"g  c #986E35",
"h  c #916F3B",
"j  c #8C713C",
"k  c #957036",
"l  c #9A7237",
"z  c #93743C",
"x  c #9B7438",
"c  c #9F7839",
"v  c #A1773A",
"b  c #A57B3B",
"n  c #8E7441",
"m  c #917541",
"M  c #957A44",
"N  c #997E45",
"B  c #997F49",
"V  c #A27E44",
"C  c #9B8147",
"Z  c #9D834B",
"A  c #A68146",
"S  c #A88247",
"D  c #A1864C",
"F  c #AB8549",
"G  c #A4894D",
"H  c #AC8A4C",
"J  c #A58D53",
"K  c #A98D52",
"L  c #A68F59",
"P  c #AB9256",
"I  c #AD955B",
"U  c #AF985E",
"Y  c #B19555",
"T  c #B79855",
"R  c #B0965C",
"E  c #B39B5D",
"W  c #B89F5E",
"Q  c #B9A05F",
"!  c #AF9760",
"~  c #B49D61",
"^  c #B89F61",
"/  c #B7A063",
"(  c #BBA363",
")  c #BDA669",
"_  c #BEA96C",
"`  c #C79D50",
"'  c #C0A35F",
"]  c #C8A55D",
"[  c #CEA85D",
"{  c #C0A664",
"}  c #C3A966",
"|  c #CCAC66",
" . c #C3AC6B",
".. c #C9AE6C",
"X. c #C7B06E",
"o. c #CBB26E",
"O. c #D4B56E",
"+. c #C5AD75",
"@. c #C7B171",
"#. c #CBB473",
"$. c #CFB875",
"%. c #CDB67B",
"&. c #CEB97A",
"*. c #D0B673",
"=. c #D9B770",
"-. c #D3BA74",
";. c #DBB973",
":. c #D0B77E",
">. c #D2BC7B",
",. c #DCBE7B",
"<. c #D7C17B",
"1. c #DBC47D",
"2. c #CDBA80",
"3. c #D2BC81",
"4. c #D6C182",
"5. c #DCC683",
"6. c #DEC985",
"7. c #D7C488",
"8. c #DAC68A",
"9. c #DECA8B",
"0. c #DFCE94",
"q. c #E1C484",
"w. c #E1CC85",
"e. c #E2C688",
"r. c #E2CD8B",
"t. c #E4D08E",
"y. c #E0CE92",
"u. c #E5D292",
"i. c None",
/* pixels */
"i.i.i.i.i.i.i.i.i.i.i.i.i.i.i.i.i.i.i.i.i.` [ O.,.q.q.e.6.w.w.5.q.q.9.e.q.q.q.q.q.e.e.r.e.e.e.q.q.5.q.e.5.8.5.,.,.;.=.O.O.| ] ..",
"i.i.i.i.i.i.i.i.i.i.i.i.i.i.i.i.i.i.i.i.| O.<.5.r.9.9.9.w.1.5.5.8.9.9.5.5.5.5.5.9.8.9.9.9.0.9.9.5.6.5.9.0.9.r.9.5.1.<.<.>.$.@.h ",
"i.i.i.i.i.i.i.i.i.i.i.i.i.i.i.i.i.i.i.T P G M Z I Q Q Y C j a a j m M M M N N N C C C Z C Z B M M n z B K Q / E G m M L Y ( V ; ",
"i.i.i.i.i.i.i.i.i.i.i.i.i.i.i.i.i.i.} ^ C 0 n U  . ./ C 9 7 9 9 y y y i i i i i i i i i i i i 0 0 8 i Z ) X._ P i 0 C E  .S w * ",
"i.i.i.i.i.i.i.i.i.i.i.i.i.i.i.i.i.-.@.G n D _ #.@. .K j C G Y Q / Q Q Q ( ( ( Q Q Q Q ( Q Q E Y G D I X.#.X.Q m s K  .o.F w q * ",
"i.i.i.i.i.i.i.i.i.i.i.i.i.i.i.i.5.-.P N L @.$.} ) P C K ) X.$.<.1.1.1.5.5.1.1.1.1.1.1.1.<.&.$.} R ) &.X.) R C m P +.*.H p q q O ",
"i.i.i.i.i.i.i.i.i.i.i.i.i.i.i.8.3.I C I %.4.>.o.R Z I X.<.1.1.1.1.w.w.w.w.w.w.w.t.w.t.w.5.1.$._ @.5.1.*.Q C M U #.&.H f w q - O ",
"i.i.i.i.i.i.i.i.i.i.i.i.i.i.8.3.! B I &.6.5.>.W Z G ) -.<.1.6.6.w.w.e.r.w.w.w.w.6.6.5.5.1.$.@.&.9.w.1.} Z C E &.>.H f r w 2 1 O ",
"i.i.i.i.i.i.i.i.i.i.i.i.i.8.3.I M I 2.9.w.>./ M C P Q X.#.#.<.&.>.>.>.&.&.&.&.$.#.o.| } (  .&.9.t.q. .C M ~ %.-.S f d p 2 3 5 O ",
"i.i.i.i.i.i.i.i.i.i.i.i.9.3.R N I 2.t.r.1./ Z Z Q o.<.<.7.7.8.8.8.8.8.8.8.8.7.4.<.*.o.) _ &.u.t.r.@.D B ~ %.>.F d d d 8 5 w 3 X ",
"i.i.i.i.i.i.i.i.i.i.i.9.>.I Z R 3.u.t.7.) Z P X.<.6.t.t.u.u.u.u.u.u.u.u.u.u.u.t.6.<.$.X.<.0.u.t.#.J C ~ %.>.V t f t q 8 u 6 1 X ",
"i.i.i.i.i.i.i.i.i.i.e.>.I D E 4.u.u.6.) Z P @.1.w.w.w.t.t.u.t.t.u.t.t.t.t.t.w.w.5.<.@.<.0.u.t.#.J C / &.-.V f r f q w p q 2 - X ",
"i.i.i.i.i.i.i.i.i.9.>.R D R 4.u.t.6.) Z P #.1.w.t.t.t.w.t.t.t.t.t.t.r.w.w.w.w.1.<.$.<.9.u.r.&.J M ~ $.&.A t t t 8 u f w q 4 *   ",
"i.i.i.i.i.i.i.i.9.3.! C I 3.r.r.5.) C J _ <.6.6.6.r.r.r.9.9.9.9.r.6.w.1.1.1.-.$.X.&.9.t.6.@.Z M ~ &.>.V f d t 8 u g p w w 1 o X ",
"i.i.i.i.i.i.i.5.>.I M L &.r.w.5./ j j G Q Q _ X.%.#.#.#.%.#.#.#.@...Q ( Q R Y / &.9.t.6.X.C j I &.-.A d d d 3 u c f d d 6 o , O ",
"i.i.i.i.i.i.,.-.R B L &.9.w.1.E m Z ) <.1.6.0.0.0.0.0.0.0.0.u.0.9.6.1.<.*..._ $.6.6.1.X.C z I #.$.F f t u 8 8 c g d d q & * 2 X ",
"i.i.i.i.i.=.$.I B L @.-.*.-.I a Z X.1.6.w.t.t.t.u.t.t.u.u.u.t.t.w.1.1.<.o.'  .,.>.-.{ N z P ..*.S f d d 8 e k f r r q * < 8 - . ",
"i.i.i.i.O...P m D  .../ _ P j Z _ $.1.1.w.w.t.t.r.r.w.w.r.w.w.w.1.1.1.o.) ( $. .( T M j D } #.F f d d q r k t q e 6 = 1 q 8 % X ",
"i.i.i.{ ) P z C I / ^ ^ J M Z ~ _ X.X.@.#.@.X.X. .X. . .} } ) ( } Q ~ L K ~ ^ ~ K m s N R  .V f t p q p x r 8 q q % 5 e e - # X ",
"i.i.@.@.) E R E ~ ~ ) ~ ~ / ) _ _ _ _ _ _ _ ) ) ) ) ( ( Q E E E R E ! I ~ ~ ~ ! I I R Y ( N r t f q d l r q q q = 5 r q q * &   ",
"i.%.4.8.6.5.9.9.e.y.9.e.r.y.y.y.y.y.y.r.9.9.9.9.r.9.8.5.q.8.5.e.r.y.y.r.r.r.y.e.5.,.*.H N q w t q d v d w q q 3 5 u q 6 3 - o . ",
"K { +.+.%.%.%.%.3.3.3.3.3.3.3.>.:.:.:.:.%.%.%.%.:.:.:.:.3.3.3.>.3.3.3.3.3.>.:.#...' A 4 q q q 4 u c f t q q 3 e f q q 3 2 O & X ",
"6 q q q q w d d d d d d d d t d t t f t r d d d d r t d d d f f f d r r r w w w q q 3 4 5 6 2 e k d t e q 4 u x e 4 3 2 # * - X ",
"< 6 q 6 q w d d d d g d d d f f d d d f f d p d r r t d d t p d t u w w q q q q 8 4 - - 3 < 8 g p r t q 6 d l u 3 3 1 # 2 2 % X ",
"2 3 6 3 6 q q r r d d d r d d r d t t d d t r r d t t f d d d d d d d p w r w q q 4 2 - & 2 u d u w w 6 p l w q 3 1 # 1 3 * # i.",
"# # # # , 1 1 2 3 6 q 6 4 8 8 8 4 3 3 4 3 1 1 1 3 3 4 3 4 4 4 4 6 4 1 , , < < & & & % & 1 q r r w q 4 y l q q q 3 # 2 4 & : i.i.",
"1 3 6 4 y p p d p h g l x x x l k g g g d i e r p k k k g p p u p p y 8 0 8 6 5 2 1 * & 8 8 w q 6 , y l w 4 6 6 % 7 5 , # i.i.i.",
"q e w w p d g g g h g l c v v v x v x l x x x v b b b b b v x g g f f p p u r r 8 4 1 ; 6 3 q 4 , 6 g w 6 3 3 & 7 w 1 # i.i.i.i.",
"3 4 6 6 6 q r r r w r w w r t r u w w q q q q q e r r t t t t t q q 4 q 5 4 2 2 2 1 & - 1 3 2 , 3 g 8 q 4 3 & 6 y 1 > i.i.i.i.i.",
"# 1 2 2 q q w q u r t t t d t t u w q q q q q q 8 6 q q r t t t t t t r r q 4 2 1 # o & 1 1 % 5 h r 3 4 4 & 6 e 2 > i.i.i.i.i.i.",
", 1 2 2 4 q q q q q w r r w r w q q q q q q q w q e w w e w t w t d r w q q 6 3 1 & O & 1 # 1 f d q 3 2 , 7 y 3 , i.i.i.i.i.i.i.",
", 2 2 1 1 2 1 3 2 3 4 4 6 q w q w w q q q q q q q q q q q 2 3 q 6 q q q 2 2 * % , & o # # 1 w u w 5 3 # 7 u 2 , i.i.i.i.i.i.i.i.",
"+ + @ + @ + o @ @ @ o # # 1 2 2 2 2 4 5 5 4 3 1 1 , : # # @ @ # O @ # # + + . . + . . X * 8 6 w 4 2 & 5 u 3 : i.i.i.i.i.i.i.i.i.",
"2 2 2 3 5 7 e y y y y y y h h g k k x l c x l g g p p y 9 9 y 0 6 4 6 6 3 2 2 1 2 1 > # 4 8 4 6 1 % 5 r 1 , i.i.i.i.i.i.i.i.i.i.",
"5 6 q q w u g l g l x x x g g l x g g l l l g g x v c l f f f d d y r u r w w 8 3 1 * ; 3 4 3 2 : 7 w 2 > i.i.i.i.i.i.i.i.i.i.i.",
"2 2 4 6 2 2 6 q w w w w q 4 2 6 q q q q 5 2 3 q w w q 6 4 3 4 q q q q q q 6 4 1 * , # 2 1 4 2 # 4 e 1 , i.i.i.i.i.i.i.i.i.i.i.i.",
"# 1 3 6 4 4 q w u q q q 6 4 3 4 q q 6 3 4 3 q q q q 4 1 2 4 6 6 6 5 6 6 4 < & & & + o # * 2 # 3 8 1 > i.i.i.i.i.i.i.i.i.i.i.i.i.",
"O 1 2 6 4 4 3 4 2 3 3 2 3 3 4 4 3 3 4 4 3 2 3 q q q 6 4 3 4 2 2 2 2 3 4 4 2 1 * % + O O & % 1 5 1 : i.i.i.i.i.i.i.i.i.i.i.i.i.i.",
"@ & 1 2 1 1 1 1 < 1 1 2 2 4 2 2 2 3 4 4 4 2 3 2 6 3 4 2 1 1 1 1 2 1 1 1 1 1 < * * & % X + 1 3 & : i.i.i.i.i.i.i.i.i.i.i.i.i.i.i.",
". . X X + + + X @ @ + + @ @ @ + + @ @ O @ @ @ O @ @ @ @ o + + + + X + . + + + . . . . . * 2 * $ i.i.i.i.i.i.i.i.i.i.i.i.i.i.i.i.",
"1 2 2 5 6 q 6 q u u u p s u u u p s s p u s s d u p u p s y u q q 8 6 5 8 5 4 3 2 * # X - * $ i.i.i.i.i.i.i.i.i.i.i.i.i.i.i.i.i.",
"& & * 2 2 3 2 2 3 3 5 8 8 6 6 w q w w q w e w q q w q q 8 q 6 4 3 3 3 2 1 2 2 2 * & # O % > i.i.i.i.i.i.i.i.i.i.i.i.i.i.i.i.i.i.",
"o # & & & # O o , & & , # , & 1 1 1 , < , 1 1 < 1 1 1 1 , , , , & * # O @ # % & % # + X $ i.i.i.i.i.i.i.i.i.i.i.i.i.i.i.i.i.i.i.",
": : : : > : : : > : : > : : : > > > : : > : # : > > : > > > : : $ $ $ $ $ # $ : : @ # o i.i.i.i.i.i.i.i.i.i.i.i.i.i.i.i.i.i.i.i.",
"i.i.i.i.i.i.i.i.i.i.i.i.i.i.i.i.i.i.i.i.i.i.i.i.i.i.i.i.i.i.i.i.i.i.i.i.i.i.i.i.i.i.i.i.i.i.i.i.i.i.i.i.i.i.i.i.i.i.i.i.i.i.i.i.",
"i.i.i.i.i.i.i.i.i.i.i.i.i.i.i.i.i.i.i.i.i.i.i.i.i.i.i.i.i.i.i.i.i.i.i.i.i.i.i.i.i.i.i.i.i.i.i.i.i.i.i.i.i.i.i.i.i.i.i.i.i.i.i.i.",
"i.i.i.i.i.i.i.i.i.i.i.i.i.i.i.i.i.i.i.i.i.i.i.i.i.i.i.i.i.i.i.i.i.i.i.i.i.i.i.i.i.i.i.i.i.i.i.i.i.i.i.i.i.i.i.i.i.i.i.i.i.i.i.i.",
"i.i.i.i.i.i.i.i.i.i.i.i.i.i.i.i.i.i.i.i.i.i.i.i.i.i.i.i.i.i.i.i.i.i.i.i.i.i.i.i.i.i.i.i.i.i.i.i.i.i.i.i.i.i.i.i.i.i.i.i.i.i.i.i.",
"i.i.i.i.i.i.i.i.i.i.i.i.i.i.i.i.i.i.i.i.i.i.i.i.i.i.i.i.i.i.i.i.i.i.i.i.i.i.i.i.i.i.i.i.i.i.i.i.i.i.i.i.i.i.i.i.i.i.i.i.i.i.i.i.",
"i.i.i.i.i.i.i.i.i.i.i.i.i.i.i.i.i.i.i.i.i.i.i.i.i.i.i.i.i.i.i.i.i.i.i.i.i.i.i.i.i.i.i.i.i.i.i.i.i.i.i.i.i.i.i.i.i.i.i.i.i.i.i.i.",
"i.i.i.i.i.i.i.i.i.i.i.i.i.i.i.i.i.i.i.i.i.i.i.i.i.i.i.i.i.i.i.i.i.i.i.i.i.i.i.i.i.i.i.i.i.i.i.i.i.i.i.i.i.i.i.i.i.i.i.i.i.i.i.i.",
"i.i.i.i.i.i.i.i.i.i.i.i.i.i.i.i.i.i.i.i.i.i.i.i.i.i.i.i.i.i.i.i.i.i.i.i.i.i.i.i.i.i.i.i.i.i.i.i.i.i.i.i.i.i.i.i.i.i.i.i.i.i.i.i.",
"i.i.i.i.i.i.i.i.i.i.i.i.i.i.i.i.i.i.i.i.i.i.i.i.i.i.i.i.i.i.i.i.i.i.i.i.i.i.i.i.i.i.i.i.i.i.i.i.i.i.i.i.i.i.i.i.i.i.i.i.i.i.i.i.",
"i.i.i.i.i.i.i.i.i.i.i.i.i.i.i.i.i.i.i.i.i.i.i.i.i.i.i.i.i.i.i.i.i.i.i.i.i.i.i.i.i.i.i.i.i.i.i.i.i.i.i.i.i.i.i.i.i.i.i.i.i.i.i.i.",
"i.i.i.i.i.i.i.i.i.i.i.i.i.i.i.i.i.i.i.i.i.i.i.i.i.i.i.i.i.i.i.i.i.i.i.i.i.i.i.i.i.i.i.i.i.i.i.i.i.i.i.i.i.i.i.i.i.i.i.i.i.i.i.i.",
"i.i.i.i.i.i.i.i.i.i.i.i.i.i.i.i.i.i.i.i.i.i.i.i.i.i.i.i.i.i.i.i.i.i.i.i.i.i.i.i.i.i.i.i.i.i.i.i.i.i.i.i.i.i.i.i.i.i.i.i.i.i.i.i.",
"i.i.i.i.i.i.i.i.i.i.i.i.i.i.i.i.i.i.i.i.i.i.i.i.i.i.i.i.i.i.i.i.i.i.i.i.i.i.i.i.i.i.i.i.i.i.i.i.i.i.i.i.i.i.i.i.i.i.i.i.i.i.i.i.",
"i.i.i.i.i.i.i.i.i.i.i.i.i.i.i.i.i.i.i.i.i.i.i.i.i.i.i.i.i.i.i.i.i.i.i.i.i.i.i.i.i.i.i.i.i.i.i.i.i.i.i.i.i.i.i.i.i.i.i.i.i.i.i.i.",
"i.i.i.i.i.i.i.i.i.i.i.i.i.i.i.i.i.i.i.i.i.i.i.i.i.i.i.i.i.i.i.i.i.i.i.i.i.i.i.i.i.i.i.i.i.i.i.i.i.i.i.i.i.i.i.i.i.i.i.i.i.i.i.i.",
"i.i.i.i.i.i.i.i.i.i.i.i.i.i.i.i.i.i.i.i.i.i.i.i.i.i.i.i.i.i.i.i.i.i.i.i.i.i.i.i.i.i.i.i.i.i.i.i.i.i.i.i.i.i.i.i.i.i.i.i.i.i.i.i.",
"i.i.i.i.i.i.i.i.i.i.i.i.i.i.i.i.i.i.i.i.i.i.i.i.i.i.i.i.i.i.i.i.i.i.i.i.i.i.i.i.i.i.i.i.i.i.i.i.i.i.i.i.i.i.i.i.i.i.i.i.i.i.i.i.",
"i.i.i.i.i.i.i.i.i.i.i.i.i.i.i.i.i.i.i.i.i.i.i.i.i.i.i.i.i.i.i.i.i.i.i.i.i.i.i.i.i.i.i.i.i.i.i.i.i.i.i.i.i.i.i.i.i.i.i.i.i.i.i.i.",
"i.i.i.i.i.i.i.i.i.i.i.i.i.i.i.i.i.i.i.i.i.i.i.i.i.i.i.i.i.i.i.i.i.i.i.i.i.i.i.i.i.i.i.i.i.i.i.i.i.i.i.i.i.i.i.i.i.i.i.i.i.i.i.i.",
"i.i.i.i.i.i.i.i.i.i.i.i.i.i.i.i.i.i.i.i.i.i.i.i.i.i.i.i.i.i.i.i.i.i.i.i.i.i.i.i.i.i.i.i.i.i.i.i.i.i.i.i.i.i.i.i.i.i.i.i.i.i.i.i."
};
