/* XPM */
static char *_ab9fc05a02b4f758ade13dd6af64b61iUGnbyu9E5o28Ag1[] = {
/* columns rows colors chars-per-pixel */
"64 64 198 2 ",
"   c None",
".  c #160602",
"X  c #160802",
"o  c #180801",
"O  c #1E0F08",
"+  c #230F06",
"@  c #200F09",
"#  c #251106",
"$  c #251209",
"%  c #2A150A",
"&  c #2E190E",
"*  c #341C0C",
"=  c #3B1F0B",
"-  c #231712",
";  c #341F11",
":  c #381F11",
">  c #3E210F",
",  c #3C2413",
"<  c #3D2A1A",
"1  c #3B2614",
"2  c #2F2622",
"3  c #412612",
"4  c #442915",
"5  c #4C2D16",
"6  c #422A18",
"7  c #4C2E19",
"8  c #502F16",
"9  c #512E19",
"0  c #4F3017",
"q  c #4D321A",
"w  c #47331D",
"e  c #523117",
"r  c #54341A",
"t  c #59371B",
"y  c #55391E",
"u  c #5C3A1D",
"i  c #623E1D",
"p  c #473525",
"a  c #4E3827",
"s  c #4A392B",
"d  c #4A3325",
"f  c #553720",
"g  c #563B23",
"h  c #5D3D21",
"j  c #553E2C",
"k  c #453C38",
"l  c #613E21",
"z  c #723F21",
"x  c #65411B",
"c  c #6B461C",
"v  c #734C1F",
"b  c #79511F",
"n  c #5D412A",
"m  c #5F4324",
"M  c #514133",
"N  c #54483B",
"B  c #654222",
"V  c #6B4524",
"C  c #6E4925",
"Z  c #64492B",
"A  c #6E4C2A",
"S  c #734424",
"D  c #724B26",
"F  c #744D29",
"G  c #784F2A",
"H  c #775121",
"J  c #7B5222",
"K  c #7F5823",
"L  c #76512B",
"P  c #7A532D",
"I  c #7D5A2F",
"U  c #75582F",
"Y  c #6D4F33",
"T  c #604E38",
"R  c #644B33",
"E  c #6C5234",
"W  c #6D593F",
"Q  c #6F523E",
"!  c #725332",
"~  c #7A5431",
"^  c #745933",
"/  c #7D5A31",
"(  c #735A3B",
")  c #795C3D",
"_  c #765739",
"`  c #7F6133",
"'  c #615B45",
"]  c #645F48",
"[  c #755F42",
"{  c #67634C",
"}  c #6B654D",
"|  c #6F694F",
" . c #73664B",
".. c #73684E",
"X. c #7A6547",
"o. c #6C6751",
"O. c #6D6850",
"+. c #736C52",
"@. c #864F2A",
"#. c #855F2A",
"$. c #825D33",
"%. c #835F3F",
"&. c #955F34",
"*. c #89662D",
"=. c #856235",
"-. c #896436",
";. c #83643B",
":. c #8A6639",
">. c #876839",
",. c #8B6A3B",
"<. c #8A6B35",
"1. c #926D3D",
"2. c #9D6B3B",
"3. c #8F703D",
"4. c #987130",
"5. c #93723E",
"6. c #9E713E",
"7. c #9D7A3B",
"8. c #977436",
"9. c #A37D3F",
"0. c #A27A36",
"q. c #826B4D",
"w. c #896845",
"e. c #86714C",
"r. c #89724D",
"t. c #8E784F",
"y. c #967341",
"u. c #9B7642",
"i. c #957844",
"p. c #9E7A44",
"a. c #937449",
"s. c #967B4C",
"d. c #9D7C4A",
"f. c #9B7748",
"g. c #856750",
"h. c #986E55",
"j. c #937C52",
"k. c #A17C45",
"l. c #A87846",
"z. c #A37F4A",
"x. c #B57A52",
"c. c #BB7B56",
"v. c #BD7C59",
"b. c #BC7653",
"n. c #A6823C",
"m. c #A9853D",
"M. c #9E8148",
"N. c #9E8456",
"B. c #A38244",
"V. c #A98443",
"C. c #AC8A42",
"Z. c #A4834A",
"A. c #A88149",
"S. c #A9864A",
"D. c #A9864A",
"F. c #AA854C",
"G. c #AB824F",
"H. c #AA884B",
"J. c #A48455",
"K. c #AB8353",
"L. c #AA8C5B",
"P. c #A5885A",
"I. c #B68557",
"U. c #AE915A",
"Y. c #B09152",
"T. c #A98C61",
"R. c #A88868",
"E. c #A58F63",
"W. c #BF8F6D",
"Q. c #AF9167",
"!. c #A6976F",
"~. c #AC946C",
"^. c #B69A6D",
"/. c #A49474",
"(. c #AC9574",
"). c #AB9B73",
"_. c #AA9A7A",
"`. c #A59E7A",
"'. c #B29475",
"]. c #B49B75",
"[. c #B79D7B",
"{. c #ADA37F",
"}. c #B4A07E",
"|. c #BBA278",
" X c #C28462",
".X c #C28B69",
"XX c #AAA685",
"oX c #AEAC8D",
"OX c #B5A484",
"+X c #B8A786",
"@X c #B7A887",
"#X c #B2AD8D",
"$X c #BCAA8A",
"%X c #B3B191",
"&X c #BBB292",
"*X c #C2A687",
"=X c #C2B08F",
"-X c #C5B393",
/* pixels */
"                                                                                                                                ",
"                                                                                                                                ",
"                                                                                                                                ",
"                                          t.e.                                                                                  ",
"                                      e.Z.H.H.B.Z.M.s.r.q.                                                                      ",
"                                  e.Z.F.F.K.Y.x.G.K.S.S.S.S.Z.M.d.s.r.                                                          ",
"                            X.a.s.B.Z.k.K.c.b.W. XI.v.c.K.Z.G.D.H.H.C.H.C.C.B.M.i.                                              ",
"                          N ^ >.y.p.Z.Z.z.x.x.v..X.Xv.v.K.Z.Z.D.D.D.Y.C.C.m.C.C.H.A.Z.l.f.a.r.                                  ",
"                              s 3 f ^ ` 3.i.p.M.Z.K.G.B.M.Z.B.M.B.B.m.C.C.C.C.B.S.S.S.S.B.A.Z.l.l.l.k.f.a.q.                    ",
"                            M 4 & @ $ $ 1 g ^ ` p.B.M.M.B.B.p.p.B.m.m.m.C.B.p.M.M.Z.Z.B.Z.Z.Z.D.S.F.A.Z.l.y.u Y                 ",
"                          ;.$.L A h r 5 , , , 7 Z ^ >.i.u.M.M.m.m.m.m.m.B.p.u.k.p.M.M.p.M.p.B.M.B.Z.Z.S.k.F B ~                 ",
"                        u.p.p.7.p.u.,.>.$.P C m y q q m m A >.*.<.8.7.M.J.Q.W.].P.p.M.p.p.p.p.M.p.p.p.u.! h P P                 ",
"                      p.k.p.k.k.p.k.p.k.k.k.k.u.1.-.I F V u t r y y f g n R Q %.q.w.;.;.=.,.3.5.3.5.,.m 9 F ~ / ~               ",
"                    5.6.k.k.k.k.K.Z.p.k.k.k.k.k.k.z.k.u.5.:.U C x y r q q 6 6 , & 1 1 1 < 7 q g m C w 1 t G P @.L               ",
"                  p.p.p.k.k.k.T.OX@X}.(.~.T.L.K.z.k.k.k.9.m.m.n.n.7.3.a.'.(.h.g.q.Q 4 : % O X . X . + > V ~ L / L               ",
"                u.p.k.p.k.k.J.OX@XOX$X-X=X-X@X@X@X}.~.L.D.m.0.n.n.B.k.k.J.$X*X[.'.R.;.u e 0 5 1 & # > u P P P @.P ~             ",
"              p.k.k.p.k.k.k.(.OX/././.`._.OX-X-X-X!.(.OX^.m.n.n.9.k.k.k.p.z.p.k.k.2.2.2.&.@.F i t e 4 F P P P @.L /             ",
"            a.p.k.k.k.E.).(.#X$XOXOX_._._.OX-X-X=X=X@X}.B.n.0.9.k.u.k.k.p.k.k.k.k.k.p.6.2.2.2.&.-.t u L G P J P P ~ _           ",
"          w.p.p.p.p.N.XXXXXXoX%X%X&X&X$X#X$X-X-X-X-X*XU.n.n.n.9.k.k.k.k.k.k.u.k.k.p.p.p.k.u.u.p.$.8 L L P P U P @.P /           ",
"        ;.p.p.1.1.5.j.`.#XXXoX%XoX#X%XoXOX].+X$X=X$X|.m.n.n.9.u.6.p.u.p.p.p.k.k.k.p.k.p.u.7.u.5.y V P P P P P ~ ~ / $.)         ",
"        B y i C L $.:.5.a.J.!.XXXX%X#X`.Z.k.d.J.Y.^.Y.m.m.V.k.p.u.u.u.k.u.u.u.u.5.y.p.p.u.p.k.^ 4 L F F L P P @.P ~ ~ $.        ",
"        B h B B l B C D L P $.,.u.M.J.i.p.k.z.V.m.m.m.m.m.n.k.k.k.k.k.p.p.p.p.u.k.6.u.u.p.u.5.0 B P L F P L P P P L @.$.)       ",
"        A r y f h A C C D V C A L L / =.1.u.m.m.n.m.m.n.m.k.k.k.k.Z.k.k.p.p.6.p.k.u.k.p.u.u.C u G F F F L P P P L G P $.$.[     ",
"        A y h y r h h B V C C C C C V V D J *.4.0.n.n.m.k.k.k.k.k.p.Z.k.k.k.u.p.k.k.k.k.k.y.y D P D F F P P P P G G L / $.:.    ",
"        B h y y q l h h l B V C D F F D D S H H K K #.#.=.,.y.u.p.k.k.k.p.k.k.k.p.p.p.k.k./ B P F D F F L P L G G F F P $.:.[   ",
"      N d F h y q l l h u B V V C D F F G F J J K J b D V B V A / :.,.p.5.u.u.u.p.p.u.p.3.B F F F C C F P P P F C F F U $.:.:.  ",
"      N 1 G Z B h h h B l i i l V D F G L G K b J J J H C B h B B V L / P =.:.5.u.p.p.p.A V P F F C C F P P P G F F F ~ $.$.-.  ",
"      M O G V V B C B l u u i V V D F F F F K K J J J P F C V C A C V C C V V C V C I i.>.$.L F A A D F G P L G C F F ~ $.-.(   ",
"      p . G F F F F V D V V V V S C F F F G @.b @.b J P D F L ^  .[ ( ! F C V V V h r F F G P F F A C F P G L P L C L / -./     ",
"      < . A G S S F D D C V V V C C D F F G J J b b K J F D F ) ..} +... .[ ( E A B r B Z V P L F C C F G L L L L L L P =.(     ",
"    M & . h F S S z S S D D D D D D D D F F J J #.J K J F C F _ ..{ o.{ o.{ { +...L B C y r L L F C C F F F P L L U L I )       ",
"    p @ . q G F S S S S S S F D D D D F D F J J b b b F C F C ! ..} o.{ o.] { +...E V F y , F F F D A C F P L P P U I $.        ",
"    6 o o 5 G F z G G G F S F F F D D F D D J b b H J H D D l A (  .+.} } ] ' +.} A V F t & V L F F C C F F P I I U / /         ",
"    & o -   S S S z z G S F G F F F D V D D J J J b b S C D F D F F C F E E W ..+.A Z F 0 $ y U F F C F F F L / $.P / W         ",
"  M - 2     V F ~ G F G G G G F F D F C V D J J b F H G D F F F F F G G F L F A A C x L 7 # , A F L F C F L P I $.$./           ",
"  s k       V D F G G F G F F G F D D D D D J b b b H F F F F F G F F F F F F F F B u L , # > B P F F C F L P I $.-.)           ",
"            A F G G G A F F F S D F C C D C J b b b b H F F F F F F F D F F F L F C C P > # * y L F F C F U $.I $.;.            ",
"            Y F ~ G G G F F F F F S C C C C F b b v b S D V F D F F F F F F L D L F F P 3 # * 4 B P F D F $.=.$.$.              ",
"            Y A F F G G F F F F F C C C C C D b v v v D A V C D D D F F F F D L L F L L 3 = , , w L F P L $.-.=./               ",
"              z S A F F F F F F F C D C C c C v v v v v z V V S V V D D F G F D F F C P 4 > 4 3 4 B L P / $.=.-.                ",
"              B V V F F F F F D F D D V S V c v v F v v V V V V D V D D C D F D F D D L 0 4 0 0 q 0 P U U =.=.w.                ",
"              B V V V D D D C D D D V D C V V v v b v v V V V V V D C F F C F F F F L L q r w 0 u t t L I =.,.                  ",
"              l V V V V z C V V l V V V V i B c c S v D V V V D V V V F C D C F C L D L u t 0 r x t 4 A $.-.>.                  ",
"              l V V l z l l B V z V V V V V l V V V V V V V V V D V C D C C L F L F F L l y y y c t 1 B $.=.                    ",
"              h l V l l l l i l V l V V z V i z B V V V V V V V V V D D V F F F D L C A l y e i c r   u $.                      ",
"              h l z l l l l u i i i l V B l V l z l V V z l V V V D D V F F F C D C C C x y t u c g   4 )                       ",
"              h l l l t f i t t u f i u x B l z l V z V V l V V V D V D C F F F L C C C h q y u c     w                         ",
"              n l l l i f i t r t i u h u C c C V l h l l V z V V V V D C F F F D L F C u t r t Z                               ",
"              j i u t t f u t t r t i h u x c v c v i i i i c V V V V V D F F F F F C C u t r t                                 ",
"              j u u t t t t r 9 r r t t u i x c i x i t i i l V V D V D V V V D C F C B u t e g                                 ",
"              s r t t t t e r 8 7 7 r r r i i x x i t t t t i i V V V l l V l V V C C l u r 5                                   ",
"                  h f t t t e r r 7 r 9 8 i i i x i i e t t e i l l l l l l l l B B V l t r d                                   ",
"                        j f r 9 r 0 0 7 e t x B x i t e t t t i u i u l l i l i l B u i r 8                                     ",
"                                j y r r 0 t x x c i e t t e t i u u i t u h u h u y t y r r                                     ",
"                                        j u x x i i t e e t e e r t t t t t u t t t 8 t 8                                       ",
"                                              Z c i t t e t e t r r r r r r t t r 5 5 t 7                                       ",
"                                                      j f t r r e e e e e e e e e 5 4 e                                         ",
"                                                              j f r e 8 e e 8 8 8 5 3 8                                         ",
"                                                                    j y 5 5 8 8 5 8 , q                                         ",
"                                                                            f 4 4 4 >                                           ",
"                                                                                    s                                           ",
"                                                                                                                                ",
"                                                                                                                                ",
"                                                                                                                                "
};
