/* XPM */
static char *c4505bda1b5b4b66baceba4c32068abfzlfYMd1YxaW7SVK5[] = {
/* columns rows colors chars-per-pixel */
"64 64 171 2 ",
"   c gray13",
".  c #353535",
"X  c gray8",
"o  c #434343",
"O  c gray26",
"+  c #0E0E0E",
"@  c black",
"#  c gray1",
"$  c #090909",
"%  c gray4",
"&  c gray5",
"*  c #111111",
"=  c #0C0C0C",
"-  c #0B0B0B",
";  c gray6",
":  c #2A2A2A",
">  c #3E3E3E",
",  c #101010",
"<  c #535353",
"1  c gray12",
"2  c #070707",
"3  c gray2",
"4  c #131313",
"5  c #060606",
"6  c #323233",
"7  c gray23",
"8  c #181818",
"9  c gray31",
"0  c gray3",
"q  c gray7",
"w  c gray24",
"e  c gray11",
"r  c gray34",
"t  c #040404",
"y  c #3B3B3C",
"u  c #464646",
"i  c #1D1D1D",
"p  c #4E4E4E",
"a  c #515152",
"s  c #5A5A5B",
"d  c gray21",
"f  c #020202",
"g  c #010101",
"h  c gray9",
"j  c #5F5F60",
"k  c #5E5E5F",
"l  c #151515",
"z  c #191919",
"x  c gray10",
"c  c #59595A",
"v  c #707071",
"b  c #515151",
"n  c #777778",
"m  c #535354",
"M  c #757576",
"N  c #414142",
"B  c #5A5A5A",
"V  c #5B5B5C",
"C  c #818182",
"Z  c #4D4D4E",
"A  c gray32",
"S  c #525253",
"D  c #454546",
"F  c #555555",
"G  c #5C5C5D",
"H  c #717172",
"J  c #4E4E4F",
"K  c #0D0D0C",
"L  c #141413",
"P  c #606061",
"I  c #8E8E8F",
"U  c #49494A",
"Y  c #5F5F5F",
"T  c #888889",
"R  c #464647",
"E  c #0C0C0B",
"W  c #1B1B1A",
"Q  c #202020",
"!  c #5D5D5E",
"~  c #646464",
"^  c #1C1D1D",
"/  c #252525",
"(  c #272727",
")  c #232423",
"_  c #1F1F1E",
"`  c #585859",
"'  c #4C4C4D",
"]  c gray40",
"[  c #131312",
"{  c #1C1C1B",
"}  c #1A1A19",
"|  c #20201F",
" . c #242423",
".. c #403F3D",
"X. c #2F3030",
"o. c #565657",
"O. c gray39",
"+. c gray20",
"@. c #414140",
"#. c #464644",
"$. c #4F4F4D",
"%. c #525352",
"&. c #565756",
"*. c #565656",
"=. c #535452",
"-. c #4F4F4E",
";. c #4C4C4C",
":. c #454746",
">. c #585A5A",
",. c #4F4F50",
"<. c #727273",
"1. c #2E2E2F",
"2. c #676767",
"3. c #1F2020",
"4. c #2D2D2C",
"5. c #434341",
"6. c #464645",
"7. c #444442",
"8. c #535351",
"9. c #595957",
"0. c #6B6866",
"q. c #6F6E6D",
"w. c #6A6B69",
"e. c #5B5A58",
"r. c #82817F",
"t. c #8E8B88",
"y. c #83807D",
"u. c #343434",
"i. c gray38",
"p. c #8B8884",
"a. c #878480",
"s. c #9C9994",
"d. c #3D3C3A",
"f. c #95918E",
"g. c #A9A5A1",
"h. c #A6A29D",
"j. c #96928D",
"k. c #827E7B",
"l. c #85827F",
"z. c #A9A5A0",
"x. c #A8A3A0",
"c. c #96928E",
"v. c #918F8A",
"b. c #4F4D4B",
"n. c #938F8B",
"m. c #A5A09C",
"M. c #A9A4A0",
"N. c #484848",
"B. c gray15",
"V. c #6A6A6B",
"C. c #767676",
"Z. c gray42",
"A. c #717171",
"S. c gray47",
"D. c gray48",
"F. c #818181",
"G. c #7B7B7B",
"H. c #7E7E7E",
"J. c #7C7C7C",
"K. c #747474",
"L. c gray51",
"P. c #7A7A7B",
"I. c #3D3D3E",
"U. c #313131",
"Y. c #373737",
"T. c #2D2D2D",
"R. c gray25",
"E. c #393939",
"W. c #414141",
"Q. c #3C3C3C",
"!. c #323232",
/* pixels */
"      . . . X X X o o O O O + + + @ @ @ @ @ @ # # # $ $ $ % % % & & & & & & + + * * * & & & = = = = = = - - - * * * + + + ; ; ; ",
"      . . . X X X o o O O O + + + @ @ @ @ @ @ # # # $ $ $ % % % & & & & & & + + * * * & & & = = = = = = - - - * * * + + + ; ; ; ",
"      . . . X X X o o O O O + + + @ @ @ @ @ @ # # # $ $ $ % % % & & & & & & + + * * * & & & = = = = = = - - - * * * + + + ; ; ; ",
": : : > > > , , , < < 1 1 1 @ @ @ @ @ @ 2 2 2 3 3 3 % % % $ $ $ = = = + + + - - + + + + + + 4 4 4 2 2 2 5 5 5 = = = = = = = = = ",
": : : > > > , , , < < 1 1 1 @ @ @ @ @ @ 2 2 2 3 3 3 % % % $ $ $ = = = + + + - - + + + + + + 4 4 4 2 2 2 5 5 5 = = = = = = = = = ",
": : : > > > , , , < < 1 1 1 @ @ @ @ @ @ 2 2 2 3 3 3 % % % $ $ $ = = = + + + - - + + + + + + 4 4 4 2 2 2 5 5 5 = = = = = = = = = ",
"6 6 6 7 7 7 8 8 8 9 9 = = = @ @ @ 5 5 5 # # # 0 0 0 % % % - - - - - - ; ; ; 4 4 q q q , , , + + + 4 4 4 + + + + + + + + + % % % ",
"6 6 6 7 7 7 8 8 8 9 9 = = = @ @ @ 5 5 5 # # # 0 0 0 % % % - - - - - - ; ; ; 4 4 q q q , , , + + + 4 4 4 + + + + + + + + + % % % ",
"6 6 6 7 7 7 8 8 8 9 9 = = = @ @ @ 5 5 5 # # # 0 0 0 % % % - - - - - - ; ; ; 4 4 q q q , , , + + + 4 4 4 + + + + + + + + + % % % ",
"6 6 6 w w w e e e r r t t t @ @ @ t t t 0 0 0 2 2 2 = = = q q q = = = , , , & & & & & + + + = = = , , , q q q q q q X X X 5 5 5 ",
"6 6 6 w w w e e e r r t t t @ @ @ t t t 0 0 0 2 2 2 = = = q q q = = = , , , & & & & & + + + = = = , , , q q q q q q X X X 5 5 5 ",
"6 6 6 w w w e e e r r t t t @ @ @ t t t 0 0 0 2 2 2 = = = q q q = = = , , , & & & & & + + + = = = , , , q q q q q q X X X 5 5 5 ",
"y y y u u u i i i p p @ @ @ @ @ @ 2 2 2 t t t t t t % % % & & & & & & & & & ; ; & & & + + + + + + + + + X X X , , , q q q 5 5 5 ",
"y y y u u u i i i p p @ @ @ @ @ @ 2 2 2 t t t t t t % % % & & & & & & & & & ; ; & & & + + + + + + + + + X X X , , , q q q 5 5 5 ",
"y y y u u u i i i p p @ @ @ @ @ @ 2 2 2 t t t t t t % % % & & & & & & & & & ; ; & & & + + + + + + + + + X X X , , , q q q 5 5 5 ",
"a a a s s s d d d 9 9 f f f g g g t t t 3 3 3 $ $ $ 5 5 5 $ $ $ 0 0 0 2 2 2 $ $ & & & - - - $ $ $ $ $ $ X X X h h h h h h - - - ",
"a a a s s s d d d 9 9 f f f g g g t t t 3 3 3 $ $ $ 5 5 5 $ $ $ 0 0 0 2 2 2 $ $ & & & - - - $ $ $ $ $ $ X X X h h h h h h - - - ",
"a a a s s s d d d 9 9 f f f g g g t t t 3 3 3 $ $ $ 5 5 5 $ $ $ 0 0 0 2 2 2 $ $ & & & - - - $ $ $ $ $ $ X X X h h h h h h - - - ",
"j j j k k k y y y r r @ @ @ # # # 3 3 3 3 3 3 2 2 2 3 3 3 3 3 3 5 5 5 2 2 2 ; ; 4 4 4 X X X ; ; ; 0 0 0 l l l z z z x x x l l l ",
"j j j k k k y y y r r @ @ @ # # # 3 3 3 3 3 3 2 2 2 3 3 3 3 3 3 5 5 5 2 2 2 ; ; 4 4 4 X X X ; ; ; 0 0 0 l l l z z z x x x l l l ",
"c c c v v v y y y b b g g g 3 3 3 5 5 5 3 3 3 5 5 5 5 5 5 2 2 2 = = = $ $ $ 4 4 X X X z z z & & & 0 0 0 + + + + + + = = = ; ; ; ",
"c c c v v v y y y b b g g g 3 3 3 5 5 5 3 3 3 5 5 5 5 5 5 2 2 2 = = = $ $ $ 4 4 X X X z z z & & & 0 0 0 + + + + + + = = = ; ; ; ",
"c c c v v v y y y b b g g g 3 3 3 5 5 5 3 3 3 5 5 5 5 5 5 2 2 2 = = = $ $ $ 4 4 X X X z z z & & & 0 0 0 + + + + + + = = = ; ; ; ",
"k k k n n n m m m < < % % % 3 3 3 5 5 5 5 5 5 3 3 3 3 3 3 3 3 3 2 2 2 g g g % % 2 2 2 % % % + + + & & & % % % = = = 5 5 5 = = = ",
"k k k n n n m m m < < % % % 3 3 3 5 5 5 5 5 5 3 3 3 3 3 3 3 3 3 2 2 2 g g g % % 2 2 2 % % % + + + & & & % % % = = = 5 5 5 = = = ",
"k k k n n n m m m < < % % % 3 3 3 5 5 5 5 5 5 3 3 3 3 3 3 3 3 3 2 2 2 g g g % % 2 2 2 % % % + + + & & & % % % = = = 5 5 5 = = = ",
"c c c M M M N N N B B f f f 5 5 5 5 5 5 2 2 2 3 3 3 3 3 3 3 3 3 2 2 2 5 5 5 $ $ 5 5 5 3 3 3 f f f f f f 3 3 3 5 5 5 t t t f f f ",
"c c c M M M N N N B B f f f 5 5 5 5 5 5 2 2 2 3 3 3 3 3 3 3 3 3 2 2 2 5 5 5 $ $ 5 5 5 3 3 3 f f f f f f 3 3 3 5 5 5 t t t f f f ",
"c c c M M M N N N B B f f f 5 5 5 5 5 5 2 2 2 3 3 3 3 3 3 3 3 3 2 2 2 5 5 5 $ $ 5 5 5 3 3 3 f f f f f f 3 3 3 5 5 5 t t t f f f ",
"V V V C C C Z Z Z A A # # # 5 5 5 5 5 5 t t t 3 3 3 5 5 5 0 0 0 5 5 5 2 2 2 t t # # # # # # # # # t t t t t t t t t 3 3 3 t t t ",
"V V V C C C Z Z Z A A # # # 5 5 5 5 5 5 t t t 3 3 3 5 5 5 0 0 0 5 5 5 2 2 2 t t # # # # # # # # # t t t t t t t t t 3 3 3 t t t ",
"V V V C C C Z Z Z A A # # # 5 5 5 5 5 5 t t t 3 3 3 5 5 5 0 0 0 5 5 5 2 2 2 t t # # # # # # # # # t t t t t t t t t 3 3 3 t t t ",
"S S S M M M D D D F F 5 5 5 5 5 5 5 5 5 3 3 3 5 5 5 0 0 0 5 5 5 2 2 2 5 5 5 5 5 5 5 5 3 3 3 $ $ $ % % % = = = 0 0 0 % % % 2 2 2 ",
"S S S M M M D D D F F 5 5 5 5 5 5 5 5 5 3 3 3 5 5 5 0 0 0 5 5 5 2 2 2 5 5 5 5 5 5 5 5 3 3 3 $ $ $ % % % = = = 0 0 0 % % % 2 2 2 ",
"S S S M M M D D D F F 5 5 5 5 5 5 5 5 5 3 3 3 5 5 5 0 0 0 5 5 5 2 2 2 5 5 5 5 5 5 5 5 3 3 3 $ $ $ % % % = = = 0 0 0 % % % 2 2 2 ",
"G G G H H H J J J F F t t t 5 5 5 3 3 3 5 5 5 5 5 5 5 5 5 0 0 0 $ $ $ 0 0 0 $ $ $ $ $ K K K X X X L L L L L L l l l = = = ; ; ; ",
"G G G H H H J J J F F t t t 5 5 5 3 3 3 5 5 5 5 5 5 5 5 5 0 0 0 $ $ $ 0 0 0 $ $ $ $ $ K K K X X X L L L L L L l l l = = = ; ; ; ",
"G G G H H H J J J F F t t t 5 5 5 3 3 3 5 5 5 5 5 5 5 5 5 0 0 0 $ $ $ 0 0 0 $ $ $ $ $ K K K X X X L L L L L L l l l = = = ; ; ; ",
"P P P I I I U U U Y Y 5 5 5 3 3 3 3 3 3 3 3 3 3 3 3 3 3 3 3 3 3 3 3 3 0 0 0 2 2 & & & - - - % % % % % % q q q h h h & & & q q q ",
"P P P I I I U U U Y Y 5 5 5 3 3 3 3 3 3 3 3 3 3 3 3 3 3 3 3 3 3 3 3 3 0 0 0 2 2 & & & - - - % % % % % % q q q h h h & & & q q q ",
"P P P I I I U U U Y Y 5 5 5 3 3 3 3 3 3 3 3 3 3 3 3 3 3 3 3 3 3 3 3 3 0 0 0 2 2 & & & - - - % % % % % % q q q h h h & & & q q q ",
"j j j T T T R R R F F f f f # # # t t t 5 5 5 3 3 3 0 0 0 0 0 0 - - - , , , = = E E E q q q W W W Q Q Q e e e x x x = = = 8 8 8 ",
"j j j T T T R R R F F f f f # # # t t t 5 5 5 3 3 3 0 0 0 0 0 0 - - - , , , = = E E E q q q W W W Q Q Q e e e x x x = = = 8 8 8 ",
"j j j T T T R R R F F f f f # # # t t t 5 5 5 3 3 3 0 0 0 0 0 0 - - - , , , = = E E E q q q W W W Q Q Q e e e x x x = = = 8 8 8 ",
"! ! ! v v v y y y ~ ~ 5 5 5 3 3 3 2 2 2 0 0 0 % % % 5 5 5 $ $ $ + + + + + + ; ; % % % ^ ^ ^ i i i / / / ( ( ( ) ) ) _ _ _ Q Q Q ",
"! ! ! v v v y y y ~ ~ 5 5 5 3 3 3 2 2 2 0 0 0 % % % 5 5 5 $ $ $ + + + + + + ; ; % % % ^ ^ ^ i i i / / / ( ( ( ) ) ) _ _ _ Q Q Q ",
"! ! ! v v v y y y ~ ~ 5 5 5 3 3 3 2 2 2 0 0 0 % % % 5 5 5 $ $ $ + + + + + + ; ; % % % ^ ^ ^ i i i / / / ( ( ( ) ) ) _ _ _ Q Q Q ",
"` ` ` H H H ' ' ' ] ] 5 5 5 $ $ $ ; ; ; % % % 0 0 0 & & & & & & [ [ [ { { { L L h h h } } } | | |  . . .............X.X.X./ / / ",
"` ` ` H H H ' ' ' ] ] 5 5 5 $ $ $ ; ; ; % % % 0 0 0 & & & & & & [ [ [ { { { L L h h h } } } | | |  . . .............X.X.X./ / / ",
"o.o.o.n n n y y y O.O.h h h * * * , , , 4 4 4 h h h ) ) ) +.+.+.@.@.@.#.#.#.$.$.%.%.%.&.&.&.*.*.*.=.=.=.-.-.-.;.;.;.:.:.:.>.>.>.",
"o.o.o.n n n y y y O.O.h h h * * * , , , 4 4 4 h h h ) ) ) +.+.+.@.@.@.#.#.#.$.$.%.%.%.&.&.&.*.*.*.=.=.=.-.-.-.;.;.;.:.:.:.>.>.>.",
"o.o.o.n n n y y y O.O.h h h * * * , , , 4 4 4 h h h ) ) ) +.+.+.@.@.@.#.#.#.$.$.%.%.%.&.&.&.*.*.*.=.=.=.-.-.-.;.;.;.:.:.:.>.>.>.",
",.,.,.<.<.<.1.1.1.2.2.- - - X X X X X X h h h 3.3.3.4.4.4.5.5.5.6.6.6.7.7.7.8.8.9.9.9.0.0.0.q.q.q.w.w.w.e.e.e.r.r.r.t.t.t.y.y.y.",
",.,.,.<.<.<.1.1.1.2.2.- - - X X X X X X h h h 3.3.3.4.4.4.5.5.5.6.6.6.7.7.7.8.8.9.9.9.0.0.0.q.q.q.w.w.w.e.e.e.r.r.r.t.t.t.y.y.y.",
",.,.,.<.<.<.1.1.1.2.2.- - - X X X X X X h h h 3.3.3.4.4.4.5.5.5.6.6.6.7.7.7.8.8.9.9.9.0.0.0.q.q.q.w.w.w.e.e.e.r.r.r.t.t.t.y.y.y.",
"J J J P P P u.u.u.i.i.p.p.p.a.a.a.s.s.s.d.d.d.f.f.f.g.g.g.h.h.h.j.j.j.k.k.k.l.l.z.z.z.x.x.x.c.c.c.v.v.v.b.b.b.n.n.n.m.m.m.M.M.M.",
"J J J P P P u.u.u.i.i.p.p.p.a.a.a.s.s.s.d.d.d.f.f.f.g.g.g.h.h.h.j.j.j.k.k.k.l.l.z.z.z.x.x.x.c.c.c.v.v.v.b.b.b.n.n.n.m.m.m.M.M.M.",
"J J J P P P u.u.u.i.i.p.p.p.a.a.a.s.s.s.d.d.d.f.f.f.g.g.g.h.h.h.j.j.j.k.k.k.l.l.z.z.z.x.x.x.c.c.c.v.v.v.b.b.b.n.n.n.m.m.m.M.M.M.",
"N.N.N.m m m B.B.B.V.V.C.C.C.Y Y Y A A A O.O.O.Z.Z.Z.A.A.A.S.S.S.A.A.A.D.D.D.S.S.F.F.F.G.G.G.H.H.H.J.J.J.J.J.J.K.K.K.L.L.L.P.P.P.",
"N.N.N.m m m B.B.B.V.V.C.C.C.Y Y Y A A A O.O.O.Z.Z.Z.A.A.A.S.S.S.A.A.A.D.D.D.S.S.F.F.F.G.G.G.H.H.H.J.J.J.J.J.J.K.K.K.L.L.L.P.P.P.",
"N.N.N.m m m B.B.B.V.V.C.C.C.Y Y Y A A A O.O.O.Z.Z.Z.A.A.A.S.S.S.A.A.A.D.D.D.S.S.F.F.F.G.G.G.H.H.H.J.J.J.J.J.J.K.K.K.L.L.L.P.P.P.",
"I.I.I.U.U.U.x x x U.U.Y.Y.Y.T.T.T.R.R.R.E.E.E.7 7 7 +.+.+.7 7 7 d d d d d d W.W.R.R.R.d d d 7 7 7 Q.Q.Q.> > > Y.Y.Y.d d d !.!.!.",
"I.I.I.U.U.U.x x x U.U.Y.Y.Y.T.T.T.R.R.R.E.E.E.7 7 7 +.+.+.7 7 7 d d d d d d W.W.R.R.R.d d d 7 7 7 Q.Q.Q.> > > Y.Y.Y.d d d !.!.!.",
"I.I.I.U.U.U.x x x U.U.Y.Y.Y.T.T.T.R.R.R.E.E.E.7 7 7 +.+.+.7 7 7 d d d d d d W.W.R.R.R.d d d 7 7 7 Q.Q.Q.> > > Y.Y.Y.d d d !.!.!."
};
