/* XPM */
static char *b6bf52410fd4485afe090dbd05a54319TsTlcBMZCXJ9L7UM[] = {
/* columns rows colors chars-per-pixel */
"64 64 141 2 ",
"   c None",
".  c black",
"X  c #010101",
"o  c gray1",
"O  c #040404",
"+  c gray2",
"@  c #060606",
"#  c #070707",
"$  c gray3",
"%  c #090909",
"&  c gray4",
"*  c #0B0B0B",
"=  c #0C0C0C",
"-  c gray5",
";  c #0E0E0E",
":  c gray6",
">  c #101010",
",  c #111111",
"<  c gray7",
"1  c #131313",
"2  c gray8",
"3  c #151515",
"4  c #161616",
"5  c gray9",
"6  c #191919",
"7  c #1B1B1B",
"8  c #1E1E1F",
"9  c gray12",
"0  c #20201F",
"q  c #202020",
"w  c gray13",
"e  c #222222",
"r  c #222223",
"t  c #232323",
"y  c gray15",
"u  c #272728",
"i  c #282829",
"p  c gray16",
"a  c #29292A",
"s  c #2A2A2A",
"d  c #2A2A2B",
"f  c #2B2B2C",
"g  c #2C2C2D",
"h  c #2D2D2D",
"j  c #2D2D2E",
"k  c #2E2E2F",
"l  c #2F2F30",
"z  c gray19",
"x  c #303031",
"c  c #313132",
"v  c #323232",
"b  c #343434",
"n  c #343435",
"m  c #343535",
"M  c #353535",
"N  c #353536",
"B  c gray21",
"V  c #373737",
"C  c #373738",
"Z  c gray22",
"A  c #393939",
"S  c #39393A",
"D  c #3A3A3A",
"F  c #3A3A3B",
"G  c gray23",
"H  c #3C3C3C",
"J  c #3C3D3D",
"K  c gray24",
"L  c #3D3D3E",
"P  c #3E3E3F",
"I  c #3F4040",
"U  c gray25",
"Y  c #404041",
"T  c #414141",
"R  c #414242",
"E  c gray26",
"W  c #444445",
"Q  c #454646",
"!  c #464647",
"~  c gray29",
"^  c #494C4B",
"/  c #4D4D4E",
"(  c #4E4E4F",
")  c #4F4F50",
"_  c #4F5050",
"`  c #515151",
"'  c gray32",
"]  c #525353",
"[  c #535555",
"{  c #555555",
"}  c #545656",
"|  c #575959",
" . c #585858",
".. c #59595A",
"X. c #5B5B5B",
"o. c #5C5F5F",
"O. c #5F5F60",
"+. c #5E6060",
"@. c #606061",
"#. c gray38",
"$. c #646260",
"%. c #646462",
"&. c #636364",
"*. c #646464",
"=. c #646465",
"-. c #656566",
";. c #666667",
":. c #6A6865",
">. c #676768",
",. c #686869",
"<. c #69696A",
"1. c #6A6A6B",
"2. c gray42",
"3. c #6D6C6B",
"4. c #6B6B6C",
"5. c #6C6C6C",
"6. c #6C6C6D",
"7. c #6D6D6E",
"8. c #6E6E6F",
"9. c #6F6F6F",
"0. c #6F6F70",
"q. c #707071",
"w. c #737270",
"e. c #717172",
"r. c #727273",
"t. c #737374",
"y. c #747475",
"u. c #79797A",
"i. c #7E7D7B",
"p. c gray49",
"a. c #7E7E7F",
"s. c #81817F",
"d. c #848485",
"f. c #878788",
"g. c #8A8A8B",
"h. c #96938F",
"j. c #9B9793",
"k. c #9D9894",
"l. c #A9A5A0",
"z. c #B1ACA7",
"x. c #B4AFAB",
/* pixels */
", , , : : , 2 2 O o o o o o ( _ ` { { { q q q B B b 8 8 8 4.4.4.y.y.r.r.r.*.*.*.=.=.=.L L L                                     ",
", , , : : 2 2 , o o o o o o ` ` ` { { { q q 9 B b B 9 9 q 4.4.4.y.y.r.r.r.-.*.*.=.=.=.L L L                                     ",
", : , : : , , , o o o o o o ` ` ` { { { q q q B B B 9 9 8 4.1.1.y.y.r.r.t.=.*.-.=.=.=.L H L                                     ",
": : : , , * : : , : , : : : y y y *.*.*.6 6 6 T T T e e e 0.0.0.r.r.y.y.t.=.-.*.=.=.=.T T P                                     ",
"* : : : , * * * , : , : : , y y y %.*.*.6 6 6 T T T e e e 9.9.9.t.t.y.y.t.=.=.=.=.=.=.T I T                                     ",
": * : , , * * * : , : , : : y y y -.*.*.6 6 6 T E E e e e 9.9.9.t.t.y.y.y.-.=.=.=.=.=.P T T                                     ",
", , , : : : : : : : * : , , 2 2 2 9.5.5.h h h G G G 8 9 9 r.r.r.1.1.1.1.1.q.0.q.=.=.=.P P P                                     ",
", , , : : : * : : * : , : , 6 2 2 5.5.3.h h h G G G 8 9 9 r.0.r.1.1.1.0.1.q.q.q.=.=.=.P P P                                     ",
", , : : : : * : * : : : : , 2 2 2 3.3.9.h h h G G G 8 8 8 e.e.e.1.1.1.1.1.q.q.q.-.=.=.P L P                                     ",
": : : : : * : : * * : , , 2 * * $ #.#.#.e e t Z C C r r r 1.0.1.0.0.<.<.<.t.t.t.t.t.t.W W W                                     ",
": : : : : * : * * * * 2 , 2 O * $ #.#.#.t t t Z C C r r r 1.1.0.0.1.>.<.>.t.t.t.t.t.t.W W W                                     ",
": : : : : : : : * : * , 2 , * O $ #.#.#.t t t Z B G r r r 0.1.0.0.0.<.>.>.t.t.t.t.t.t.W W W                                     ",
"O * O O O O O O o o o o o o o o o 1.1.1.Y Y Y L L L e e w e.e.e.t.t.<.<.<.t.q.t.t.y.y.C C G                                     ",
"* O O O O O * O o o o o o o o o o 1.1.1.Y Y Y L L L e q w e.e.e.t.t.<.<.>.t.t.t.y.y.y.C C C                                     ",
"O * * O O O O O o o O o o o o o o 1.4.1.Y Y Y L L L q e w e.e.0.y.t.<.<.<.t.q.q.y.y.y.C C G                                     ",
"6 2 2 2 2 , , , 2 2 2 6 2 6 O O $ #.#.#.W W W X. . .x x l t.t.t.t.t.<.<.<.>.>.>.y.y.y.n x v                                     ",
"2 2 2 2 2 , , : 6 6 2 6 6 6 O O * #.#.#.W W W  .X.| c c c t.t.e.q.t.<.1.>.>.>.>.y.y.t.b b x                                     ",
"2 6 2 , 6 , : , 2 6 6 6 6 6 * O O #.#.#.W W W  .X. .c c c e.e.t.t.t.<.1.<.>.*.>.y.t.t.z x b                                     ",
", : : : , 2 2 2 2 , 2 , , , , , ,  . . .) ) ` #.O.#.e e r e.e.e.t.t.1.1.1.0.t.0.y.y.t.b b x                                     ",
": : : * : 2 2 2 2 , 2 , , , , : ,  . . .) ) ) #.#.#.r e r e.e.e.y.t.1.1.1.0.0.0.y.y.t.b z b                                     ",
"* O O * * : : : , 2 , 2 2 2 o o o X.X.X.! ! ! O.O.O.x z l r.r.r.t.0.t.y.t.0.0.4.-.-.-.x b z                                     ",
"* * * * * : * : , , , 6 6 , o o o X.X.X.! ! ! O.O.O.z z x r.r.r.q.t.y.y.t.0.9.9.%.-.-.x x b                                     ",
"* O * * * : : : , , , 2 2 2 o o o  .X.X.! ! ! O.O.O.z x x r.r.r.0.t.y.y.t.0.9.9.%.-.-.x b x                                     ",
"O O O * * * * * : : : * * * o o o ` ' ' W W W t.t.r.d d d 9.0.0.=.-.y.y.t.=.=.*.-.-.%.b x b                                     ",
"* * O * * * * * : : * * * * o o o ` ` ` W W W t.t.t.a a a r.0.0.=.=.y.y.y.=.=.=.-.-.*.x b x                                     ",
"O O O * * : : * : : : O O * o o o ( ` ` W W W t.t.t.a a a 0.0.0.=.=.y.t.y.-.=.=.%.-.*.x x b                                     ",
"O * * * * O O * * * * * * * * O O G H G C C n =.=.=.n l x y.y.y.>.<.t.0.t.=.=.=.r.r.r.b b x                                     ",
"* O * O * O * O O O * * * : O * * G G G C C C =.=.=.l l x y.y.y.<.>.0.t.0.=.=.=.r.r.r.x x b                                     ",
"* O * O * * * * * * * * * * * * O G G G B B C =.=.=.l l x y.t.t.<.>.t.q.t.=.=.=.t.w.r.b x b                                     ",
"O O O * O O O O O O o * * O O O O ~ ~ ~ G G G -.=.=.n B B t.t.t.1.1.1.0.1.=.=.=.y.y.y.x b x                                     ",
"* * O O * O * * O O O * O * O O O ~ ~ ~ C G C -.=.>.n n B t.t.t.1.1.1.1.1.=.=.=.y.y.t.b x b                                     ",
"O O O * O O O O O O O * * O O O O / ~ ~ G C G =.=.=.n B B r.t.t.1.1.0.1.0.=.=.=.y.t.t.x b x                                     ",
"$ $ * O O # # # O # # # # # * * = ` ` ` F F G =.=.=.l l h =.=.=.t.t.=.=.=.=.=.=.y.y.y.v v v                                     ",
"$ $ $ O O # # # # # O O O O * * = ` ` ` F C G =.=.=.g h l =.=.=.q.t.=.=.=.=.=.=.y.y.y.x v v                                     ",
"$ $ $ O O * # # # O O # # # * * = ` ` ` F F G =.=.=.l l h =.=.=.t.t.=.=.=.=.=.=.y.y.y.v v v                                     ",
": : : : : > > > : : : : : : $ $ $ ` ' ` F F G r.t.0.l l l t.t.t.>.-.t.t.t.0.t.q.>.>.1.v v v                                     ",
": : : : : > > > : : = : : : $ $ $ ` ' ' F F H r.0.t.l l l t.t.t.>.>.t.t.y.q.t.0.>.>.>.v b x                                     ",
": : : : : , > > : : : : : : $ $ $ ` ' ' F F F r.t.0.l l l t.t.t.>.>.y.t.y.t.0.t.>.:.>.x x b                                     ",
"2 5 2 2 2 5 2 5 2 2 1 : : : O O O ~ ~ ~ n N n 0.4.0.8 8 8 0.0.0.0.0.1.0.0.t.t.t.-.-.-.z b x                                     ",
"5 5 5 2 2 5 5 2 2 2 1 : > , O O O ~ ~ ~ C b n 0.0.0.8 8 8 0.0.9.0.0.0.0.1.t.t.t.-.-.-.b z b                                     ",
"5 2 5 2 2 5 5 2 2 2 2 : : : O O # ~ ~ ~ B b B 0.0.0.8 8 8 0.9.9.q.q.0.0.0.t.t.t.-.>.-.n b x                                     ",
"9 e 0 9 9 9 9 9 7 7 7 9 9 9 : = : T T T u u u 1.4.9.l l l 1.1.1.>.>.t.t.t.=.=.=.1.1.1.x x b                                     ",
"0 0 0 9 9 9 9 9 7 7 7 9 9 9 : = : T T T u u u 0.9.4.x x x 1.>.>.>.>.t.t.t.-.=.=.1.9.1.n b x                                     ",
"0 0 0 9 9 9 9 9 7 7 7 9 9 9 = : = T T T u u u 4.4.9.x l x 1.1.1.>.>.y.y.t.=.=.=.1.1.1.x x b                                     ",
"E I E ^ ^ } } } o.o.o.+.+.+.t t e G C G b n n g.g.g.a l a t.t.t.0.0.0.0.0.=.=.=.y.y.y.x b x                                     ",
"E E E ^ ^ } } } o.o.o.+.+.+.t e e C G C N n n g.g.g.a a a t.t.t.0.0.0.0.0.=.=.=.y.y.y.b x b                                     ",
"I E E ^ ^ } } } o.o.o.+.+.+.e e e G C G n C n g.g.g.l a l t.t.t.0.0.0.0.0.=.=.=.y.y.y.x b x                                     ",
"%.%.%.3.3.w.w.t.~ ~ ~ H L L h h g B C b l a l d.d.d.l a l 0.0.0.0.0.=.=.=.=.=.=.x n x                                           ",
"%.%.%.5.3.w.w.w.^ ^ ~ H H L h h h B B B h h g d.d.d.h h a 0.0.0.9.9.%.-.-.-.-.-.v v v                                           ",
"[ [ [ Q Q m m m _ _ _ [ [ [ X.} | B B B l h l g.g.g.l l l 0.0.0.0.9.y.t.t.v x v                                                 ",
"[ _ [ E Q m m b _ _ _ [ [ [ | | | B B B l l h g.g.g.l l l 0.0.0.0.0.t.t.t.x v v                                                 ",
"_ [ [ Q Q m m b _ _ _ { [ [ | | | B B B h l l g.g.g.l l l 4.0.0.0.0.t.t.t.v v v                                                 ",
"h.h.h.o.o.I I I :.:.:.i.i.i.s.s.s.G H H x b x f.f.f.a a a 0.0.4.4.9.x x v                                                       ",
"h.h.h.o.o.I I I :.:.:.i.i.i.s.s.s.L H H x x x f.f.f.a a a 1.4.0.4.4.x b v                                                       ",
"h.h.h.o.o.I I I :.:.:.i.i.i.s.s.s.G H L n x x f.f.f.i a a 4.0.4.4.9.v v v                                                       ",
"z.z.z.k.k.$.$.$.l.l.l.x.x.x.j.j.j.T I I g h h 4.1.0.u u u 0.4.0.x v                                                             ",
"z.z.z.k.k.$.$.$.l.l.l.x.x.x.j.j.j.I U U h g g 4.4.1.u u u 4.9.4.v v                                                             ",
"z.z.z.k.k.$.$.$.l.l.l.x.x.x.j.j.j.I U U g g f 5.9.9.u d u 9.4.9.v v                                                             ",
"u.u.u.s.s.t.t.t.p.p.p.9.9.9.5.5.5.>.-.>.l l l ( / / x x x x x l                                                                 ",
"u.u.u.p.p.t.t.t.p.p.p.9.9.9.5.5.5.-.>.>.l l l ( / / B x x x x h                                                                 ",
"u.u.u.p.p.t.t.t.p.p.p.9.9.9.5.5.3.-.>.:.h x h ( / / x x x l l x                                                                 ",
"x x x d f Z Z m z z z b v B v v b u u u y y y ( ( ( i d d                                                                       ",
"z z z d f m Z Z z z z b v B v v v d d d y y y ( ( ( i i i                                                                       ",
"z z z d h m Z m z z x v B v v v v u u d y y y ( ( ( i i d                                                                       "
};
