/* XPM */
static char *_08dc864e8c140c48f80236739489749Ci3HPuEotzsBS8k1[] = {
/* columns rows colors chars-per-pixel */
"64 64 122 2 ",
"   c None",
".  c black",
"X  c #010101",
"o  c #020202",
"O  c #040404",
"+  c gray2",
"@  c #070707",
"#  c #0B0B0B",
"$  c #0E0E0E",
"%  c gray6",
"&  c #101011",
"*  c gray7",
"=  c #191919",
"-  c gray10",
";  c gray12",
":  c gray16",
">  c #2A2A2A",
",  c gray19",
"<  c #313132",
"1  c #323232",
"2  c #323233",
"3  c #353536",
"4  c gray21",
"5  c #363637",
"6  c #373738",
"7  c gray22",
"8  c #3A3A3B",
"9  c #3B3B3C",
"0  c #3C3C3D",
"q  c gray24",
"w  c #3E3E3F",
"e  c #3F3F3F",
"r  c #404041",
"t  c #414142",
"y  c #424243",
"u  c #434343",
"i  c #434344",
"p  c #444445",
"a  c #454546",
"s  c #464646",
"d  c #464647",
"f  c #474748",
"g  c #484849",
"h  c #49494A",
"j  c gray29",
"k  c #4A4A4B",
"l  c #4B4B4C",
"z  c #4C4C4C",
"x  c #4C4C4D",
"c  c #4D4D4E",
"v  c #4F4F50",
"b  c #515152",
"n  c #525253",
"m  c #535354",
"M  c #545455",
"N  c #565657",
"B  c #575758",
"V  c #585859",
"C  c #59595A",
"Z  c #5A5A5B",
"A  c #5B5B5C",
"S  c gray36",
"D  c #5C5C5D",
"F  c #5D5D5E",
"G  c gray37",
"H  c #5E5E5F",
"J  c #5F5F60",
"K  c #606060",
"L  c #616162",
"P  c #626263",
"I  c #636364",
"U  c #646465",
"Y  c #656565",
"T  c #656566",
"R  c #666667",
"E  c #676768",
"W  c #69696A",
"Q  c #6A6A6A",
"!  c #6A6A6B",
"~  c #6B6B6C",
"^  c #6D6D6E",
"/  c #6E6E6F",
"(  c #6F6F70",
")  c #707071",
"_  c #717172",
"`  c #727273",
"'  c #737374",
"]  c #747475",
"[  c #757576",
"{  c #767677",
"}  c #777778",
"|  c #787879",
" . c #79797A",
".. c #7A7A7B",
"X. c #7B7B7B",
"o. c #7B7B7C",
"O. c #7C7C7D",
"+. c #7D7D7E",
"@. c #7E7E7F",
"#. c #808081",
"$. c #818182",
"%. c #828283",
"&. c #858586",
"*. c #888889",
"=. c #A0A0A1",
"-. c #A1A1A2",
";. c #A8A8A9",
":. c #ACACAD",
">. c #BCBCBD",
",. c #BEBEBF",
"<. c #BFBFC0",
"1. c #C5C5C6",
"2. c #C8C8C9",
"3. c #CBCBCC",
"4. c #CECECF",
"5. c #CFCFD0",
"6. c #D0D0D1",
"7. c #D5D5D6",
"8. c #D7D7D8",
"9. c #DADADB",
"0. c #DEDEDF",
"q. c #E7E7E8",
/* pixels */
"} } } ~ ~ F F F F F F N N N 5 5 5                                                                                               ",
"} } } ~ ~ F F F F F F N N N 5 5 5                                                                                               ",
"} } } ~ ~ F F F F F F N N N 5 5 5                                                                                               ",
"( ( (  . .F F F x x x 9 8 8 5 5 5                                                                                               ",
"( ( (  . .F F F x x x 9 9 9 5 5 5                                                                                               ",
"( ( (  . .F F F x x x 9 9 9 2 5 5                                                                                               ",
"C C C v v f f f 0 0 0 i i i 2 2 2                                                                                               ",
"C C C v v f f f 0 0 0 i i i 2 2 2                                                                                               ",
"C C C v v f f f 0 0 0 i i i 2 2 2                                                                                               ",
"J J J M M f p f B B B k k k 2 2 2                                                                                               ",
"J J J M M f p f B B B k k k 2 , 2                                                                                               ",
"J J J M N p f f B B B k k k , 2 2                                                                                               ",
"U E U J J i i p C B C x l x 5 5 5 U U E W W U F F F C F S F Z Z F Z F F Z p p p                                                 ",
"U U U J J i p p B C B x l x 2 5 5 E W U U U W F F Z F C C F F F F F Z F F p f p                                                 ",
"U U U J J i i i C B B x l l 5 5 5 U E U W U U F Z F C F C F F F Z F F F F p p p                                                 ",
"U U U Z C l l k J J J f f f 8 8 8 ( ^ ^ [ [ [ W W W L L L W W W W W p p p k k p                                                 ",
"U U U Z Z k k k J F J f f f 8 8 8 ^ ^ ( ' ' ' W W W L L L W W W W W f p p f f f                                                 ",
"U U U C Z l k k F J F f f f 8 8 9 ^ ( ^ ' ' ' W W ^ L L L W W W W W p p p f f k                                                 ",
"l k k l l b b M x v x L U U *.*.*.;.;.;.;.;.;.;.;.;.;.;.;.;.;.;.p f o. .o.p p p                                                 ",
"l l k l l M b b x v x L L L *.*.*.;.;.;.;.;.;.;.;.;.;.;.;.;.;.;.p p  .o.O.p f p                                                 ",
"k l l l l b M b x x v U U L *.*.*.;.;.;.;.;.;.;.;.;.;.;.;.;.;.;.f p o.o.o.p p p                                                 ",
"p f p b b F F F o.o.o.=.=.=.,.,.,.2.2.2.<.<.<.:.:.:.2.2.2.p p p o. .o. .o.p p f                                                 ",
"f f f b b F F F o.o. .=.=.=.,.,.,.2.2.2.<.<.<.:.:.:.2.2.2.p p k  .o. .o.o.p p p                                                 ",
"f p p b b F F F o.o.o.=.=.=.<.<.,.2.2.2.<.<.<.:.:.:.2.2.2.p p p o. .o. .o.p f p                                                 ",
"2.2.2.3.3.<.<.<.5.6.6.1.1.1.5.5.5.<.<.<.:.:.:.2.2.2.p f p O.O.X. .o. .o. .J J J b M b p p p                                     ",
"2.2.2.3.3.<.<.<.6.6.6.1.1.1.5.5.5.<.<.<.:.:.:.2.2.2.p p p  . .X.o. .o. .o.J J J N b N p f p                                     ",
"8.8.8.9.9.3.3.3.1.1.1.7.7.7.q.q.q.0.0.0.1.1.1.p f p o.o. .} [ } ` ` J J J J J J k f k r t r                                     ",
"8.8.8.9.9.3.3.3.1.1.1.7.7.7.q.q.q.0.0.0.1.1.1.f p p  .o.o.[ } [ ` ` J J J J J J k f k t t r                                     ",
"8.8.8.9.9.3.3.3.1.1.1.7.7.7.q.q.q.0.0.0.1.1.1.p p f o. .o.[ [ } ` ' F L J F L F k k k t t t                                     ",
"9.9.9.3.3.1.1.1.7.7.7.q.q.q.0.0.0.1.1.1.p p p  . .o. .o.o.' ' ' J F L F J k k k U U L t t p                                     ",
"9.9.9.3.3.1.1.1.7.7.7.q.q.q.0.0.0.1.1.1.p p f o.o. .o. . .' ' ' J J F L F f k k U U U i t i                                     ",
"9.9.9.3.3.1.1.1.7.7.7.q.q.q.0.0.0.1.1.1.f p p o. .o. .o.o.' ' ' J J L F L k k f U U U t i t                                     ",
"^ ^ ^ ` [ O.O.O. .}  .}  . .} [ } p p p  .o. .o. .o. .o. .L F L J J k k k U U U U U U t 0 e                                     ",
"^ ^ ^ [ ` O.O.O.}  .}  .}  .[ } [ p p p o. .o. .o. .o. . .F L F J J k k k U U U U U U 0 t 0                                     ",
"^ ^ ^ [ ` O.O.O. .}  .}  .} } [ } p p p  .o. . . .o. .o. .L L L J F k k k U U U U U Y e 0 t                                     ",
" . . .O.#.O.#.O.&.&.&.O.O. .[ [ [ p t p  . . .[ ` [ W W W U U E k k ^ ( ^ ( ( ` L Y Y e 0 0                                     ",
" . . .O.O.#.O.#.&.&.&. .O. .[ [ [ p p t  . . .` ` ` W W W U U U k k ^ ^ ( ( ` ( U U U 0 0 0                                     ",
" . . .#.#.O.#.O.&.&.&.O.O. .[ [ [ t p p  . . .` [ ` W W W U U U f k ( ^ ^ ` ` ( U U U 0 e 0                                     ",
"%.%.#.O.O. . . .O.O.O.[ [ ' } [ [ r t r >.>.,.4.4.5.=.=.=.k f k }  .U U U ` ( ( U U U t t t                                     ",
"%.%.#.O. . . . .O.O.o.[ [ [ [ } [ r r r >.>.>.4.4.6.-.=.=.k k k  .} U U U ( ( ` U U U t t t                                     ",
"%.%.#.O.O. . . .o.O.O.[ [ ' } [ [ t t t >.,.,.4.4.4.=.=.=.k k k }  .U U U ( ` ` U U U t t t                                     ",
"[  . .O.O.` ` ^  .[ [  .}  .O.#.O.N N N p p f p k p k k l  .o. .W ~ U U U ( ( ( U U U 9 0 0                                     ",
" .[  .O. .` ( ` [  .[  . .} O.O.O.N N N k p p k p k k k k o. .o.~ W U U U ` ` ( U U U 9 0 0                                     ",
"[  .[ O.O.( ` ^  .[  .} }  .O.O.O.C N N p p k p k p k k k  .o. .W W U U U ( ( ( U U U 0 0 0                                     ",
"5 5 7 b N ^ W ^ ` ` ( [ ' [ O.O.O.[ } [ [ [ [ ` ^ ` U U U [ [ [ ` ` U U U ` ` ` U U U r 0 r                                     ",
"5 8 5 N b W ^ W ( ` ` ` [ [ O.O.O.} [ } [ [ [ ^ ^ ` U U U [ [ [ ` ` U U U ` ` ` U U U 0 r 0                                     ",
"8 5 7 b N W W ^ ` ` ` [ ' [ O.O.O.} [ [ [ [ [ ^ ` ^ U U U [ [ [ ( ` U U U ` ` ` U U U r 0 e                                     ",
"5 5 7 p p 7 7 7 N N N [ [ [ [ [ [ #.#.#.#.#.#.#.O.#.F J F o. .o.' [ U U U ^ ^ ^ [ ' [ 0 t 0                                     ",
"5 5 5 s s 7 7 7 N N N { { { ' { [ #.#.#.#.#.#.#.O.#.F J J  .o. .[ ` U U U ^ ^ ^ [ ' [ t e e                                     ",
"1 7 1 s s 7 7 7 N N N { { { } ' [ #.#.#.#.#.#.O.#.O.J F F o. .o.[ [ U U U ^ ^ ^ ' [ ' 0 e e                                     ",
"Q Q ~ K K e 9 e 4 4 4 e e e ( / (  .[  .}  .} O.#.O.C Z Z [ [ [ W W W ^ W W W W [ ' [ 9 0 0                                     ",
"Q Q ~ K K 9 e 9 4 4 4 e e e / / ^ [  .[  .}  .O.O.O.Z Z C [ [ [ W W W W ^ W W W ' [ [ 0 0 0                                     ",
"Q Q W K K 0 9 e 4 4 4 e e e / / ^  .[  . . . .O.O.O.Z Z Z [ [ [ ^ W W W W W W W [ ' [ 9 0 0                                     ",
"; ; ; x j S S S s s s > > > 9 9 8 ` ' `  .O.O. .o.O.F F F  .[  .^ ` ^ ` ( ` ` ` ' [ [ 0 t 0                                     ",
"; ; ; j x S S S s s s > > > 9 9 0 ` ` ` X.O.O.X. .o.F F F  .[ [ ` ^ ( ( ( ` ` ` ` [ [ 0 t 0                                     ",
"X X X X O O @ O u u u G G G : : > p k k #.#.#.O.O.O.U L L [ [ [ ` [ ^ ^ ^ U U U [ [ [ e 0 t                                     ",
"X X X X X O O @ u u u S G G : : : j j j #.#.#.O.O.O.U L Y ` ` [ ` ` ^ ^ ^ U U U [ ` [ 0 t 0                                     ",
"X X X X X O @ @ u u s G G G : : : j p k #.#.#.O.O.O.U U L [ [ [ ` ` ^ ^ ` L U U [ [ [ 0 t 0                                     ",
"@ @ @ @ O X X X O + + > > > j j j 1 1 , [ } [ ( ` ^ F J F o. .O.` ' ` ` ` ( ` ^ U U U 0 0 0                                     ",
"@ @ @ X @ X O X O + + > > > j j j 1 1 2 } [ } ` ( ` J F J  . .O.` ' ^ ` ^ ( ( ( U U U t t 0                                     ",
"@ @ @ @ X X O X O @ O > > > j j k 2 , 2 [ [ [ ` ` ` F F L  . .O.` ` ^ ` ` ^ ` ^ U U U 0 0 t                                     ",
"$ $ $ $ $ * * * # # # * % % Y E Y , , , - - - $ $ $ - - - O.O.O.` ` ^ ~ W W E E U U U p t t                                     ",
"$ * $ $ $ * * * # # # * * % Y Y Y , 2 2 - = - $ % % - - - O.O.O.` ` ~ ~ ~ E E E U U U t p t                                     ",
"$ $ $ $ $ * * * # # # % * % Y Y Y , , > = = - % % $ - - - #.O.O.^ ` ~ ~ ~ E E E U U U t p t                                     "
};
