/* XPM */
static char *_eabbbd52a124146f8ea349c66065a05bDQ7JA8BWTi6mLd1[] = {
/* columns rows colors chars-per-pixel */
"64 64 67 1 ",
"  c None",
". c #383839",
"X c #3B3B3C",
"o c #3C3C3D",
"O c #3D3D3E",
"+ c #3E3E3F",
"@ c #3F3F40",
"# c #404041",
"$ c #414142",
"% c #434344",
"& c #444445",
"* c #464647",
"= c #474748",
"- c #484849",
"; c #4A4A4B",
": c #4C4C4D",
"> c #4D4D4E",
", c #4F4F50",
"< c #525253",
"1 c #545455",
"2 c #565657",
"3 c #575758",
"4 c #585859",
"5 c #59595A",
"6 c #5A5A5B",
"7 c #5B5B5C",
"8 c #5C5C5D",
"9 c #5D5D5E",
"0 c #5E5E5F",
"q c #5F5F60",
"w c #606061",
"e c #626263",
"r c #646465",
"t c #656566",
"y c #666667",
"u c #686869",
"i c #69696A",
"p c #6B6B6C",
"a c #6C6C6D",
"s c #717172",
"d c #727273",
"f c #747475",
"g c #757576",
"h c #767677",
"j c #777778",
"k c #79797A",
"l c #7B7B7C",
"z c #7D7D7E",
"x c #7E7E7F",
"c c #848485",
"v c #8A8A8B",
"b c #8B8B8C",
"n c #8D8D8E",
"m c #8E8E8F",
"M c #909091",
"N c #919192",
"B c #969697",
"V c #979798",
"C c #9B9B9C",
"Z c #9D9D9E",
"A c #AEAEAF",
"S c #B4B4B5",
"D c #C6C6C7",
"F c #CACACB",
"G c #CCCCCD",
"H c #CECECF",
"J c #D7D7D8",
/* pixels */
"                                                                ",
"                                                                ",
"                                                                ",
"                                                                ",
"                                                                ",
"                                                                ",
"                                                                ",
"                                                                ",
"                                                                ",
"                                                                ",
"                                                                ",
"                                                                ",
"zzzzkxxxzzzCCCrrr                                               ",
"zzzkzxxxzzzCCCrrr                                               ",
"zzzzkzxzzzzCCCrrr                                               ",
"cccvmmmmVVVGGGppp                                               ",
"cccvvmmmVVVGGGppp                                               ",
"cccvbmmmVVVGGGppp                                               ",
"mbmAASSSJJJZZZqqq                                               ",
"mmmAASSSJJJZZZqqq                                               ",
"mmmAASSSJJJZZZqqq                                               ",
"FFGHGDDDNNNddd>>>                                               ",
"FFFGHDDDNNNddd>>>                                               ",
"FFGHHDDDNNNddd>>>                                               ",
"jkkuuiapiii666***                                               ",
"kkkuiappiii666***                                               ",
"kkkuuipiiii666***                                               ",
"00033000uui,,,%%%                                               ",
"00033007uuu><>%%%                                               ",
"00063000uui,,,%$%                                               ",
"666wq000*==******                                               ",
"666ww000===***%%%                                               ",
"@$@12666urr%%%===                                               ",
"$@$11666rrr%%%===                                               ",
"@$$11676rrr*%%===                                               ",
"vvvddfjfdfdwrw,,,                                               ",
"vvvddfffdddrrw<,,                                               ",
"vvvddffjdddwww,,,                                               ",
"BBBffdddrrr>::OXO                                               ",
"BVVffssdrrr>:>XOX                                               ",
"BBBffdddrrr>::OOO                                               ",
"NNNqw636:::*=*O@O                                               ",
"mmNq0366::>===OOO                                               ",
"NNN0q663:::===O@@                                               ",
"$@$XX222070=--$$$                                               ",
"@$@XX222070*--$$$                                               ",
"$@@XX322000=--$$$                                               ",
"66670rurrrr122-:-                                               ",
"66370rrurrr111--:                                               ",
"36600rurrrr211-:-                                               ",
"jjf00rrrrur,,>OOO                                               ",
"jjj00rrruru,,<OOO                                               ",
"jjj00rrrurr,,,OOO                                               ",
"aaaqq333233...$$$                                               ",
"aaaqq333222...$$$                                               ",
"aaaqq333222...$$$                                               ",
"111<<---<<<OXO$$$                                               ",
"111<<---<<<XOX$$$                                               ",
"112<<-*=<<<XXO$$$                                               ",
"iiipi000000:>>@O@                                               ",
"iiipi000000>:>O@@                                               ",
"dffrr077676767---                                               ",
"fffrr777677777---                                               ",
"fffrr700777777---                                               "
};
