/* XPM */
static char *b6aed28897b24347e1f9830feb93abf5bL9b7mBRVhAasujS[] = {
/* columns rows colors chars-per-pixel */
"64 64 88 1 ",
"  c None",
". c #3C3C3D",
"X c #3E3E3F",
"o c #4F4F50",
"O c #505051",
"+ c #545455",
"@ c #585859",
"# c #5B5B5C",
"$ c #676768",
"% c #69696A",
"& c #6B6B6C",
"* c #717172",
"= c #737374",
"- c #767677",
"; c #787879",
": c #79797A",
"> c #7B7B7C",
", c #7C7C7D",
"< c #7D7D7E",
"1 c #7F7F80",
"2 c #808081",
"3 c #818182",
"4 c #838384",
"5 c #868687",
"6 c #888889",
"7 c #89898A",
"8 c #8A8A8B",
"9 c #8B8B8C",
"0 c #8C8C8D",
"q c #8D8D8E",
"w c #8E8E8F",
"e c #8F8F90",
"r c #909091",
"t c #929293",
"y c #939394",
"u c #949495",
"i c #959596",
"p c #969697",
"a c #979798",
"s c #989899",
"d c #99999A",
"f c #9A9A9B",
"g c #9B9B9C",
"h c #9C9C9D",
"j c #9D9D9E",
"k c #9E9E9F",
"l c #9F9FA0",
"z c #A0A0A1",
"x c #A1A1A2",
"c c #A2A2A3",
"v c #A3A3A4",
"b c #A4A4A5",
"n c #A5A5A6",
"m c #A6A6A7",
"M c #A7A7A8",
"N c #A8A8A9",
"B c #A9A9AA",
"V c #AAAAAB",
"C c #ABABAC",
"Z c #ACACAD",
"A c #ADADAE",
"S c #AEAEAF",
"D c #AFAFB0",
"F c #B0B0B1",
"G c #B1B1B2",
"H c #B2B2B3",
"J c #B3B3B4",
"K c #B4B4B5",
"L c #B5B5B6",
"P c #B6B6B7",
"I c #B8B8B9",
"U c #B9B9BA",
"Y c #BABABB",
"T c #BCBCBD",
"R c #BDBDBE",
"E c #BEBEBF",
"W c #C0C0C1",
"Q c #C1C1C2",
"! c #C2C2C3",
"~ c #C4C4C5",
"^ c #C5C5C6",
"/ c #C6C6C7",
"( c #C7C7C8",
") c #C9C9CA",
"_ c #CDCDCE",
"` c #CECECF",
"' c #D0D0D1",
"] c #D4D4D5",
/* pixels */
"                                                                ",
"                                                                ",
"                                                                ",
"                                                                ",
"                                                                ",
"                                                                ",
"                                                                ",
"                                                                ",
"                                                                ",
"                                                                ",
"                                                                ",
"                                                                ",
"                                   uuuvv<<<444><<886wwwrrr888444",
"                                   uuuvv<<<444<>>868wwwrrr888444",
"                                   uuuvv<<<444<<<886wwwrrr888444",
"                                   CCC~~KKKCCCghgdddaau999aau222",
"                                   CCC~~KKJACChghgdgaua999uaa222",
"                                   CCC~~KKKNCChghdgdaua999auu222",
"                                   MnMRR)))```QQQGGGggdww98889w8",
"                                   nMnRR))(__`QQQGGGghdwww888999",
"                                   nnMRR)))```QQQGGGgggwww888999",
"                                   yyyuuKKJ''']]]```(~~YIYYYY~~~",
"                                   ryruuKKK''']]]```((~YYIYYY~~~",
"                                   yyruuKKK''']]]```~((YIYYYY~~~",
"                                   aaaeeryyyryCCNNNNJGJAAAGDG444",
"                                   aaaeeyyryryNCCNNNGJGDDADGD444",
"                                   aadeeyryryrCCCNNNJGGAAAGDG544",
"                                   yrrMnaua898ANCMMNxxxnnnvnvuuu",
"                                   yyyMnaua888CCCMMMxxxvvnvnnuua",
"                                   ryrnMaua888CCCMMMxxxnnvnvvuuu",
"                                   xlxdd111###nnnNNNnvnNMNvnv688",
"                                   lxlda111###nnnNNNvnvNNNnvn666",
"                                   xxxDDrrr***%%%$$$;;;>>>===...",
"                                   xxxDDrrr***%%%$$$;;;>>>===...",
"                                   xxxDDrrr***%%%$$$;;;>>>==-...",
"                                   nvnAAMnMGGJRTTAAA***KKKnvvxvx",
"                                   vnvAAnMnJJGTTTAAA***KKKvnvxvx",
"                                   nvnAAMnMGGGTRTAAA***JKJnnnxxv",
"                                   wwwdduuynnnnMnnMn;;;IYInxnnnn",
"                                   wwwdduuuvnvMnnMnM;>>YIIxnxnnn",
"                                   wwwddyuunnvnnMMMM;;;YIInxnnnn",
"                                   xlxw9<<<MNNnnnuuu%$$CNNlhhnnx",
"                                   xxl99<<<NNNvnvuua$$$NCCllhnxn",
"                                   lllww<<<NNMnnnuuu$$%NCNhllxnx",
"                                   vxvnvDDD---;;;@@@OOO;;;&&&&&&",
"                                   xvxvnDDD---;;;@@@OOO;;;&&&&&&",
"                                   vxnnnDDD---;;;@@@OOO;;;&&&&&&",
"                                   hhhxxKKK===REE!!!GGGNNNJJJddd",
"                                   hhhxvKKK*=*EEE!!!DGDNNNJJJddd",
"                                   hlhvvKKK-=-EEE!!!GGGNNCJJJddd",
"                                   9w8nnKIKwww~(~ADAMnnnnvvvvlll",
"                                   998nnIKKw9w~~~DADnMnxvvvvvlll",
"                                   w99nnKIKwww~~(DAAMnnnvvvvvlll",
"                                   99922+++655YYYAACJKJnnnnnnggg",
"                                   w9w22+++555YYYACAJJJnnnnnnggg",
"                                   9ww22+++555YYYCACJJJnnnnnnggg",
"                                   nvn1222299wdggllhuuu222>>>+++",
"                                   nnv22222w99gddhlluuu222>>>+++",
"                                   vnv22221wwwddghhluuy222>><+++",
"                                   nvnyyQEQKKKAGD)((lxxvxvaaaXX.",
"                                   vnvruQEQKKKDDD)((xlxxxxaaa.XX",
"                                   99wAAJGGTTTNCN!!QnnnvnnxxxoOO",
"                                   w9wCAGJGYYYNCC!!!nnnvnvxxxooo",
"                                   w99ACJGJYYYCCN!!!nnnnvnxxxooo"
};
