/* XPM */
static char *result[] = {
/* columns rows colors chars-per-pixel */
"64 64 69 1 ",
"  c #040404",
". c #0C0C0C",
"X c #131313",
"o c #1C1C1C",
"O c #20201F",
"+ c #1F2020",
"@ c #232323",
"# c #272728",
"$ c #2C2C2C",
"% c #2F2F30",
"& c #2F3030",
"* c #333333",
"= c #373738",
"- c #3C3C3C",
"; c #403F3D",
": c #3F4040",
"> c #434344",
", c #474748",
"< c #4C4C4C",
"1 c #4F4F50",
"2 c #4F5050",
"3 c #535454",
"4 c #595957",
"5 c #575959",
"6 c #5C5C5C",
"7 c #5F5F60",
"8 c #5E6060",
"9 c #646464",
"0 c #6B6866",
"q c #676768",
"w c #6C6B6C",
"e c #6F6F70",
"r c #737374",
"t c #777778",
"y c #7B7B7C",
"u c #827E7B",
"i c #83817F",
"p c #7F7F80",
"a c #828182",
"s c #8B8884",
"d c #878788",
"f c #8B8B8C",
"g c #928F8B",
"h c #96928E",
"j c #8F8F90",
"k c #949495",
"l c #9B9793",
"z c #9D9994",
"x c #979798",
"c c #9C9C9D",
"v c #A6A19D",
"b c #A1A1A2",
"n c #A9A4A0",
"m c #ACACAD",
"M c #B1ACA7",
"N c #B4AFAB",
"B c #BCBCBD",
"V c #BFBFC0",
"C c #C4C4C4",
"Z c #C7C7C8",
"A c #CBCBCC",
"S c #CFCFD0",
"D c #D4D4D5",
"F c #D7D7D8",
"G c #DBDBDC",
"H c #E3E3E4",
"J c #E7E7E8",
"K c #E9E9EA",
"L c None",
/* pixels */
"LLLLLkkDDDDZZVVCCZDFBBppqq533,<111,,,277yyxxffBVZVVmmZZ>,pt1LLLL",
"LLLLLxkDDDDZZVVBCCFDBBppqq633,,21,<>>377yyxxfjVVZVVmmAA>>tp1LLLL",
"LLLLcAAKKHHFFDDGHHHHGGSSDDSBBBBBVSSDDDDFGFAAZZDFJGHCC>>yppt>LLLL",
"LLjjfjjparrttrrrrtqqwettrtrttrrytttrrtptewrryyttttt>>yyyttp>LLLL",
"LLjjfjfpprrtytrrttqwwwtrttrttttypttettptwerryyttttt>>yyyypy,LLLL",
"LLxxdffppyyytyyyppyyyyrtrtypppppppppppppytpypyddytr>>ytreqq9<<:>",
"LLxkdffppyyttyyyppyyyytrttyppppppppppppptypppyddyrt>>tterqw9,,::",
"LLkkkffffyyttppyttrryyttyypyypppppppppptaayytyyyrtt::VVSSbb,yt>>",
"LLkkxfffjyyttypyttrryyttyypyypiappppaiyyaayyttypeep::VVASbb<tt>>",
"DSjkjypapppyyyytrtrrppyprrtttyyttpppttyyttyyeettppp53,>,>1,t99::",
"SDkkfppaappyyyyyrrttpipprrtttyyytpptttyyttyyerttrpp15,>,,1,p99-:",
"rrwwryyppttttytp88:;****==***=**=%%%&***==33wwereppeprtee99r99:-",
"trwwrypaayyrtytp88;;*********=**=%$&&***==33wwrerpprttree79e99:-",
"qqrrpppttyyww--==*===*-=>,>2<,,,><<,>3====,,==34rrrpppppp77p99:>",
"ewppypyrr33====,33qq99erw00qqww9qq9rr0wwww67--==:eeptttpp77e9q--",
"wwppayyrr33====,33q099eeqw0q9ww9qqqreweeww77-;*=:wwrtttpp37t99--",
"ewtypty33>>,<776##..                    Oo<<66,>#--rrptpt77t99-:",
"weyypty33>:<<776##..                    oo<<66>,#--eepptt77t99:-",
"eetrprr--<<99%%                               >>9##,,appp99r99::",
"errtprr--<<07&$                               >>7$#,,pppt99e99::",
"eeqw797>>23XX        .       ..      ... .      #<<%%ttee77r99--",
"eewq789>>32XX             .   ..   . . .        #<<%*tree76p99-:",
"+++oX**>,$#        ....XX.X.X... X.XX..X.X..XX..Xq9%%oXX.oop99:-",
"+oo+X**,,$$        ...X...XX... ...XX.X.X.X.XX. .qq%%oo..oop9q-:",
"++**X>>>>..       ......X.X........X..X.XX..XX   1333++*=oo999--",
"$$;:X31Oo       ... ..X.....XXX.. ........XX..X.X##9qXo>>@@9q9->",
"#$;:.33oo       ... ......X..XX   ........XX..XXX@#99oo::@@999::",
"*%--o11..      .......XXXXXX.X.XX...X...XX..X...XXXww$%--ooq99>>",
"%*--X11..        .......XXXXX.XXX....X..XX.X.X..XXXew%$==o+999>>",
"%*--o55       . ..XX..XX........XXXXXX  ..X.....X  97@@==@@999--",
"*%::o33      .. ..XX...X....X..XXXXXXX  XXXX....X .99@@==#@999:-",
":->,O11         .........X.X..X..XXX.X.            qq:>:-+@999>:",
"--,,o1<         .......X.X..X.X..XXXXX   .         ww>:::O+q99::",
"1346=<<        .  ....  . X.. . .XXXXo..oXXXXXoXX  99>>55%*999::",
"3164=1<        .  .. .. . ... ...XXXXo..oXXX.XoXo  97>>55%*999-:",
"7767=43        .        .XXXXX.. XooooXX..X.XXXX.XX351177@@999,>",
"65ee-31       . . . ....XXXoo..  XX...X.... X.XXX  44,,79%%999==",
"55ee-<3            ... .XXXoo..........X .....XXX  44,,77%%999-=",
"77yt333..    .   .   .  .. .......... .. ........  33>>rr#$999*%",
"77tt313..  .  .          . ...X.........  ....X.   <3>>rr$#9q9**",
"55tr>46    . ..     ..   .               . . .  .. ====99%%999%*",
"55rt:65                ...              .  ...... .--==99%%9q9%*",
"66pp111         .. .   .                   .       <<==qq**q99**",
"66aa131  . ..     .  .                  . . .   .  <<==qq*=99q*%",
"33tt>33   .     .  ..  .     . ..... . . .  .  . ..11--99%%99q%*",
"33rt,33. .   .   .   .  . .   ......... .   .    X.11-=q9$%999*%",
"57ee143   .  ..  .. ... . ...XXXXXXXX.X...XXXX.X.. 31--ee%%q99*%",
"77gj,77                .. .......XXXX.XXXoXXXXXXX  <,==ee+o9q9**",
"77jj<77                .  X... ..XXXX.XXXXXXoXXX.  <,*=weoO999*%",
"77dd,33      .   ......X...XXooOOoooo.oXOOOOOOoo+..>:#$ee%%999**",
"77df,33       . . . ..XX...XXooO+oooo.ooOOOOOOooO..>>##ee%%999%*",
"77ee-9q      . .  ..X...X..oooO@@@#@OOOO>><<33687@@--*%ff$$7q9%*",
"67er-9q     .. .. ....XX.X.oooO@###@@OOO>:<<43667@@-=*%ff$%999**",
"53er<qq  ...X ..X...XXooXXoXoOO@@;;;;&@@99wwre<,-%$-*%%da%%999*%",
"55ee<qq  . XX. ....XXXOOXXXooOO@@;;;;&@@99w0rr<<-%$**%%aa%%999**",
"35tt-99XoXXX.XXX@@**;;><22343342322<<<4423,,**22355*=%%df%%999*%",
"34tt=99XXXXXXXXo@@**;;<;222444422232<<4433,>*=22355==%$ff%%999**",
"3<rr&00..XXXXXXO&&;>><;>32400eww044iiiiihh88::00yau--%*fd#$999*%",
"<177*99ssiszl;;hnnvviviiiinnvhhgg22hivnnMMzz97vvNzl::$$ww##9**LL",
"1<89*77ssaizl=;hnnvvziiiiinnvhhgg2<izvnnMMzz79vMNll::$$ww##9**LL",
"<,33#0wtr7631990eetteryyytiuyyyyyyurtiuytyiyrryywww9q%%1<**%LLLL",
",,33#00tr7733990rettretyttiyyiiyuuyrtityytyurryyrwwqq$%<<**%LLLL",
"--%*o&&==%$>;=--**--**=*>::**-----;*==&*&&$#==$****###@11##LLLLL",
":-*%o&&==%$>;==-*&-;====:::=*----;;===*&&&$$==*****####11#$LLLLL"
};
