/* XPM */
static char *result[] = {
/* columns rows colors chars-per-pixel */
"64 64 149 2 ",
"   c #313132",
".  c #323233",
"X  c #353536",
"o  c #363637",
"O  c #383839",
"+  c #3A3A3B",
"@  c #3B3B3C",
"#  c #3C3C3D",
"$  c #3D3D3E",
"%  c #3E3E3F",
"&  c #3F3F40",
"*  c #404041",
"=  c #414142",
"-  c #434344",
";  c #444445",
":  c #454546",
">  c #464647",
",  c #474748",
"<  c #484849",
"1  c #4A4A4B",
"2  c #4B4B4C",
"3  c #4C4C4D",
"4  c #4D4D4E",
"5  c #4F4F50",
"6  c #505051",
"7  c #515152",
"8  c #525253",
"9  c #535354",
"0  c #545455",
"q  c #555556",
"w  c #565657",
"e  c #575758",
"r  c #585859",
"t  c #59595A",
"y  c #5A5A5B",
"u  c #5B5B5C",
"i  c #5C5C5D",
"p  c #5D5D5E",
"a  c #5E5E5F",
"s  c #5F5F60",
"d  c #606061",
"f  c #616162",
"g  c #626263",
"h  c #636364",
"j  c #646465",
"k  c #656566",
"l  c #666667",
"z  c #676768",
"x  c #686869",
"c  c #69696A",
"v  c #6B6B6C",
"b  c #6C6C6D",
"n  c #6E6E6F",
"m  c #6F6F70",
"M  c #707071",
"N  c #717172",
"B  c #727273",
"V  c #737374",
"C  c #747475",
"Z  c #757576",
"A  c #767677",
"S  c #777778",
"D  c #787879",
"F  c #79797A",
"G  c #7A7A7B",
"H  c #7B7B7C",
"J  c #7C7C7D",
"K  c #7D7D7E",
"L  c #7E7E7F",
"P  c #7F7F80",
"I  c #808081",
"U  c #818182",
"Y  c #838384",
"T  c #848485",
"R  c #868687",
"E  c #888889",
"W  c #89898A",
"Q  c #8A8A8B",
"!  c #8B8B8C",
"~  c #8C8C8D",
"^  c #8D8D8E",
"/  c #8E8E8F",
"(  c #8F8F90",
")  c #909091",
"_  c #919192",
"`  c #929293",
"'  c #939394",
"]  c #949495",
"[  c #959596",
"{  c #969697",
"}  c #979798",
"|  c #989899",
" . c #99999A",
".. c #9A9A9B",
"X. c #9B9B9C",
"o. c #9C9C9D",
"O. c #9D9D9E",
"+. c #9E9E9F",
"@. c #9F9FA0",
"#. c #A0A0A1",
"$. c #A1A1A2",
"%. c #A2A2A3",
"&. c #A3A3A4",
"*. c #A4A4A5",
"=. c #A5A5A6",
"-. c #A6A6A7",
";. c #A7A7A8",
":. c #A8A8A9",
">. c #A9A9AA",
",. c #AAAAAB",
"<. c #ABABAC",
"1. c #ACACAD",
"2. c #ADADAE",
"3. c #AEAEAF",
"4. c #AFAFB0",
"5. c #B0B0B1",
"6. c #B1B1B2",
"7. c #B2B2B3",
"8. c #B3B3B4",
"9. c #B4B4B5",
"0. c #B5B5B6",
"q. c #B6B6B7",
"w. c #B8B8B9",
"e. c #B9B9BA",
"r. c #BABABB",
"t. c #BCBCBD",
"y. c #BDBDBE",
"u. c #BEBEBF",
"i. c #BFBFC0",
"p. c #C0C0C0",
"a. c #C0C0C1",
"s. c #C1C1C2",
"d. c #C2C2C3",
"f. c #C4C4C5",
"g. c #C5C5C6",
"h. c #C6C6C7",
"j. c #C7C7C8",
"k. c #C8C8C9",
"l. c #C9C9CA",
"z. c #CACACB",
"x. c #CCCCCD",
"c. c #CDCDCE",
"v. c #CECECF",
"b. c #D0D0D1",
"n. c #D3D3D4",
"m. c #D4D4D5",
"M. c #D5D5D6",
"N. c #D7D7D8",
"B. c None",
/* pixels */
"B.B.B.B.B.B.B.B.B.B.B.B.B.B.B.B.B.B.B.B.B.B.B.B.B.B.B.B.B.B.B.B.B.B.B.B.B.B.B.B.B.B.B.B.B.B.B.B.B.B.B.B.B.B.B.B.B.B.B.B.B.B.B.B.",
"B.B.B.B.B.B.B.B.B.B.B.B.B.B.B.B.B.B.B.B.B.B.B.B.B.B.B.B.B.B.B.B.B.B.B.B.B.B.B.B.B.B.B.B.B.B.B.B.B.B.B.B.B.B.B.B.B.B.B.B.B.B.B.B.",
"B.B.B.B.B.B.B.B.B.B.B.B.B.B.B.B.B.B.B.B.B.B.B.B.B.B.B.B.B.B.B.B.B.B.B.B.B.B.B.B.B.B.B.B.B.B.B.B.B.B.B.B.B.B.B.B.B.B.B.B.B.B.B.B.",
"B.B.B.B.B.B.B.B.B.B.B.B.B.B.B.B.B.B.B.B.B.B.B.B.B.B.B.B.B.B.B.B.B.B.B.B.B.B.B.B.B.B.B.B.B.B.B.B.B.B.B.B.B.B.B.B.B.B.B.B.B.B.B.B.",
"B.B.B.B.B.B.B.B.B.B.B.B.B.B.B.B.B.B.B.B.B.B.B.B.B.B.B.B.B.B.B.B.B.B.B.B.B.B.B.B.B.B.B.B.B.B.B.B.B.B.B.B.B.B.B.B.B.B.B.B.B.B.B.B.",
"B.B.B.B.B.B.B.B.B.B.B.B.B.B.B.B.B.B.B.B.B.B.B.B.B.B.B.B.B.B.B.B.B.B.B.B.B.B.B.B.B.B.B.B.B.B.B.B.B.B.B.B.B.B.B.B.B.B.B.B.B.B.B.B.",
"B.B.B.B.B.B.B.B.B.B.B.B.B.B.B.B.B.B.B.B.B.B.B.B.B.B.B.B.B.B.B.B.B.B.B.B.B.B.B.B.B.B.B.B.B.B.B.B.B.B.B.B.B.B.B.B.B.B.B.B.B.B.B.B.",
"B.B.B.B.B.B.B.B.B.B.B.B.B.B.B.B.B.B.B.B.B.B.B.B.B.B.B.B.B.B.B.B.B.B.B.B.B.B.B.B.B.B.B.B.B.B.B.B.B.B.B.B.B.B.B.B.B.B.B.B.B.B.B.B.",
"B.B.B.B.B.B.B.B.B.B.B.B.B.B.B.B.B.B.B.B.B.B.B.B.B.B.B.B.B.B.B.B.B.B.B.B.B.B.B.B.B.B.B.B.B.B.B.B.B.B.B.B.B.B.B.B.B.B.B.B.B.B.B.B.",
"B.B.B.B.B.B.B.B.B.B.B.B.B.B.B.B.B.B.B.B.B.B.B.B.B.B.B.B.B.B.B.B.B.B.B.B.B.B.B.B.B.B.B.B.B.B.B.B.B.B.B.B.B.B.B.B.B.B.B.B.B.B.B.B.",
"B.B.B.B.B.B.B.B.B.B.B.B.B.B.B.B.B.B.B.B.B.B.B.B.B.B.B.B.B.B.B.B.B.B.B.B.B.B.B.B.B.B.B.B.B.B.B.B.B.B.B.B.B.B.B.B.B.B.B.B.B.B.B.B.",
"B.B.B.B.B.B.B.B.B.B.B.B.B.B.B.B.B.B.B.B.B.B.B.B.B.B.B.B.B.B.B.B.B.B.B.B.B.B.B.B.B.B.B.B.B.B.B.B.B.B.B.B.B.B.B.B.B.B.B.B.B.B.B.B.",
"B.B.B.B.B.B.B.B.B.B.B.B.B.B.B.B.B.B.B.B.B.B.B.B.B.B.B.B.B.B.B.B.B.B.B.B.B.B.B.B.B.B.B.B.B.B.B.B.B.B.B.B.B.B.B.B.B.B.B.B.B.B.B.B.",
"B.B.B.B.B.B.B.B.B.B.B.B.B.B.B.B.B.B.B.B.B.B.B.B.B.B.B.B.B.B.B.B.B.B.B.B.B.B.B.B.B.B.B.B.B.B.B.B.B.B.B.B.B.B.B.B.B.B.B.B.B.B.B.B.",
"B.B.B.B.B.B.B.B.B.B.B.B.B.B.B.B.B.B.B.B.B.B.B.B.B.B.B.B.B.B.B.B.B.B.B.B.B.B.B.B.B.B.B.B.B.B.B.B.B.B.B.B.B.B.B.B.B.B.B.B.B.B.B.B.",
"B.B.B.B.B.B.B.B.B.B.B.B.B.B.B.B.B.B.B.B.B.B.B.B.B.B.B.B.B.B.B.B.B.B.B.B.B.B.B.B.B.B.B.B.B.B.B.B.B.B.B.B.B.B.B.B.B.B.B.B.B.B.B.B.",
"B.B.B.B.B.B.B.B.B.B.B.B.B.B.B.B.B.B.B.B.B.B.B.B.B.B.B.B.B.B.B.B.B.B.B.B.B.B.B.B.B.B.B.B.B.B.B.B.B.B.B.B.B.B.B.B.B.B.B.B.B.B.B.B.",
"B.B.B.B.B.B.B.B.B.B.B.B.B.B.B.B.] ] &.&.K K Y Y J J W / / ) ) Q Q Y Y K K H L L K K X.X.j j B.B.B.B.B.B.B.B.B.B.B.B.B.B.B.B.B.B.",
"B.B.B.B.B.B.B.B.B.B.B.B.B.B.B.B.] ] &.&.K K Y Y J J W / / ) ) Q Q Y Y K K H L L K K X.X.j j B.B.B.B.B.B.B.B.B.B.B.B.B.B.B.B.B.B.",
"B.B.B.B.B.B.B.B.B.B.B.B.B.B.B.B.<.<.f.f.9.9.<.<.o.o...{ { ! ! { { I I T T ! / / } } x.x.v v B.B.B.B.B.B.B.B.B.B.B.B.B.B.B.B.B.B.",
"B.B.B.B.B.B.B.B.B.B.B.B.B.B.B.B.<.<.f.f.9.9.<.<.o.o...{ { ! ! { { I I T T ! / / } } x.x.v v B.B.B.B.B.B.B.B.B.B.B.B.B.B.B.B.B.B.",
"B.B.B.B.B.B.B.B.B.B.B.B.B.B.B.B.-.-.y.y.l.l.c.c.s.s.6.X.X.^ ^ Q Q ! ! ^ ^ 3.9.9.N.N.O.O.s s B.B.B.B.B.B.B.B.B.B.B.B.B.B.B.B.B.B.",
"B.B.B.B.B.B.B.B.B.B.B.B.B.B.B.B.-.-.y.y.l.l.c.c.s.s.6.X.X.^ ^ Q Q ! ! ^ ^ 3.9.9.N.N.O.O.s s B.B.B.B.B.B.B.B.B.B.B.B.B.B.B.B.B.B.",
"B.B.B.B.B.B.B.B.B.B.B.B.B.B.B.B.` ` ] ] 9.9.b.b.m.m.v.h.h.e.e.r.r.f.f.z.z.v.h.h._ _ B B 4 4 B.B.B.B.B.B.B.B.B.B.B.B.B.B.B.B.B.B.",
"B.B.B.B.B.B.B.B.B.B.B.B.B.B.B.B.} } ( ( ` ` ` ` ,.,.:.7.7.3.3.5.5.Y Y F F x v v c c y y > > B.B.B.B.B.B.B.B.B.B.B.B.B.B.B.B.B.B.",
"B.B.B.B.B.B.B.B.B.B.B.B.B.B.B.B.} } ( ( ` ` ` ` ,.,.:.7.7.3.3.5.5.Y Y F F x v v c c y y > > B.B.B.B.B.B.B.B.B.B.B.B.B.B.B.B.B.B.",
"B.B.B.B.B.B.B.B.B.B.B.B.B.B.B.B.` ` -.-.{ { Q Q <.<.;.$.$.*.*.*.*.[ [ a a r p p x x 5 5 - - B.B.B.B.B.B.B.B.B.B.B.B.B.B.B.B.B.B.",
"B.B.B.B.B.B.B.B.B.B.B.B.B.B.B.B.` ` -.-.{ { Q Q <.<.;.$.$.*.*.*.*.[ [ a a r p p x x 5 5 - - B.B.B.B.B.B.B.B.B.B.B.B.B.B.B.B.B.B.",
"B.B.B.B.B.B.B.B.B.B.B.B.B.B.B.B.#.#.| | P P u u =.=.:.*.*.:.:.*.*.E E y y d a a , , > > ; ; B.B.B.B.B.B.B.B.B.B.B.B.B.B.B.B.B.B.",
"B.B.B.B.B.B.B.B.B.B.B.B.B.B.B.B.#.#.| | P P u u =.=.:.*.*.:.:.*.*.E E y y d a a , , > > ; ; B.B.B.B.B.B.B.B.B.B.B.B.B.B.B.B.B.B.",
"B.B.B.B.B.B.B.B.B.B.B.B.B.B.B.B.$.$.4.4.) ) N N c c z D D H H V V # # * * 0 y y k k - - , , B.B.B.B.B.B.B.B.B.B.B.B.B.B.B.B.B.B.",
"B.B.B.B.B.B.B.B.B.B.B.B.B.B.B.B.$.$.4.4.) ) N N c c z D D H H V V # # * * 0 y y k k - - , , B.B.B.B.B.B.B.B.B.B.B.B.B.B.B.B.B.B.",
"B.B.B.B.B.B.B.B.B.B.B.B.B.B.B.B.*.*.2.2.-.-.7.7.t.t.2.N N 9.9.*.*.%.%.Q Q B Z Z B B g g 5 5 B.B.B.B.B.B.B.B.B.B.B.B.B.B.B.B.B.B.",
"B.B.B.B.B.B.B.B.B.B.B.B.B.B.B.B.*.*.2.2.-.-.7.7.t.t.2.N N 9.9.*.*.%.%.Q Q B Z Z B B g g 5 5 B.B.B.B.B.B.B.B.B.B.B.B.B.B.B.B.B.B.",
"B.B.B.B.B.B.B.B.B.B.B.B.B.B.B.B./ /  . .] ] *.*.-.-.-.F F w.w.&.&.=.=.{ { A N N j j 3 3 # # B.B.B.B.B.B.B.B.B.B.B.B.B.B.B.B.B.B.",
"B.B.B.B.B.B.B.B.B.B.B.B.B.B.B.B.#.#.~ ~ K K :.:.*.*.[ z z ,.,.+.+.&.&.) ) s t t 3 3 , , % % B.B.B.B.B.B.B.B.B.B.B.B.B.B.B.B.B.B.",
"B.B.B.B.B.B.B.B.B.B.B.B.B.B.B.B.#.#.~ ~ K K :.:.*.*.[ z z ,.,.+.+.&.&.) ) s t t 3 3 , , % % B.B.B.B.B.B.B.B.B.B.B.B.B.B.B.B.B.B.",
"B.B.B.B.B.B.B.B.B.B.B.B.B.B.B.B.%.%.*.*.4.4.A A D D r 6 6 D D v v v v * * @ w w p p < < = = B.B.B.B.B.B.B.B.B.B.B.B.B.B.B.B.B.B.",
"B.B.B.B.B.B.B.B.B.B.B.B.B.B.B.B.%.%.*.*.4.4.A A D D r 6 6 D D v v v v * * @ w w p p < < = = B.B.B.B.B.B.B.B.B.B.B.B.B.B.B.B.B.B.",
"B.B.B.B.B.B.B.B.B.B.B.B.B.B.B.B.O.O.%.%.9.9.V V u.u.d.5.5.>.>.8.8. . .t t i l l j j 0 0 1 1 B.B.B.B.B.B.B.B.B.B.B.B.B.B.B.B.B.B.",
"B.B.B.B.B.B.B.B.B.B.B.B.B.B.B.B.O.O.%.%.9.9.V V u.u.d.5.5.>.>.8.8. . .t t i l l j j 0 0 1 1 B.B.B.B.B.B.B.B.B.B.B.B.B.B.B.B.B.B.",
"B.B.B.B.B.B.B.B.B.B.B.B.B.B.B.B.! ! =.=.q.q.^ ^ g.g.3.-.-.&.&.&.&.@.@.S S a j j l l 5 5 $ $ B.B.B.B.B.B.B.B.B.B.B.B.B.B.B.B.B.B.",
"B.B.B.B.B.B.B.B.B.B.B.B.B.B.B.B.! ! =.=.q.q.^ ^ g.g.3.-.-.&.&.&.&.@.@.S S a j j l l 5 5 $ $ B.B.B.B.B.B.B.B.B.B.B.B.B.B.B.B.B.B.",
"B.B.B.B.B.B.B.B.B.B.B.B.B.B.B.B.~ ~ U U 0 0 R R r.r.1.8.8.=.=.=.=.X.X.b b s e e w w O O = = B.B.B.B.B.B.B.B.B.B.B.B.B.B.B.B.B.B.",
"B.B.B.B.B.B.B.B.B.B.B.B.B.B.B.B.~ ~ U U 0 0 R R r.r.1.8.8.=.=.=.=.X.X.b b s e e w w O O = = B.B.B.B.B.B.B.B.B.B.B.B.B.B.B.B.B.B.",
"B.B.B.B.B.B.B.B.B.B.B.B.B.B.B.B.*.*.I I I I ~ ~ ....+.] ] I I H H 0 0 0 0 8 < < 8 8 # # = = B.B.B.B.B.B.B.B.B.B.B.B.B.B.B.B.B.B.",
"B.B.B.B.B.B.B.B.B.B.B.B.B.B.B.B.*.*.' ' a.a.0.0.4.4.j.#.#.%.%.} } % % c c v p p p p 3 3 & & B.B.B.B.B.B.B.B.B.B.B.B.B.B.B.B.B.B.",
"B.B.B.B.B.B.B.B.B.B.B.B.B.B.B.B.*.*.' ' a.a.0.0.4.4.j.#.#.%.%.} } % % c c v p p p p 3 3 & & B.B.B.B.B.B.B.B.B.B.B.B.B.B.B.B.B.B.",
"B.B.B.B.B.B.B.B.B.B.B.B.B.B.B.B.~ ~ 1.1.7.7.r.r.,.,.d.=.=.*.*.$.$.5 5 C C j i i u u u u < < B.B.B.B.B.B.B.B.B.B.B.B.B.B.B.B.B.B.",
"B.B.B.B.B.B.B.B.B.B.B.B.B.B.B.B.~ ~ 1.1.7.7.r.r.,.,.d.=.=.*.*.$.$.5 5 C C j i i u u u u < < B.B.B.B.B.B.B.B.B.B.B.B.B.B.B.B.B.B.",
"B.B.B.B.B.B.B.B.B.B.B.B.B.B.B.B.Q Q ` ` 4.4.$.$.*.*.0.1.1.>.>.@.@.Z Z S S v p p p p w w o o B.B.B.B.B.B.B.B.B.B.B.B.B.B.B.B.B.B.",
"B.B.B.B.B.B.B.B.B.B.B.B.B.B.B.B.Q Q ` ` 4.4.$.$.*.*.0.1.1.>.>.@.@.Z Z S S v p p p p w w o o B.B.B.B.B.B.B.B.B.B.B.B.B.B.B.B.B.B.",
"B.B.B.B.B.B.B.B.B.B.B.B.B.B.B.B.X.X.} } $.$.I I c c ' } } ( ( / / n n m m F p p 3 3 @ @ X X B.B.B.B.B.B.B.B.B.B.B.B.B.B.B.B.B.B.",
"B.B.B.B.B.B.B.B.B.B.B.B.B.B.B.B.X.X.} } $.$.I I c c ' } } ( ( / / n n m m F p p 3 3 @ @ X X B.B.B.B.B.B.B.B.B.B.B.B.B.B.B.B.B.B.",
"B.B.B.B.B.B.B.B.B.B.B.B.B.B.B.B.$.$.,.,.2.2.;.;.:.:.I 0 0 ; ; 8 8 1 1 t t 5 , , # # - - . . B.B.B.B.B.B.B.B.B.B.B.B.B.B.B.B.B.B.",
"B.B.B.B.B.B.B.B.B.B.B.B.B.B.B.B.$.$.,.,.2.2.;.;.:.:.I 0 0 ; ; 8 8 1 1 t t 5 , , # # - - . . B.B.B.B.B.B.B.B.B.B.B.B.B.B.B.B.B.B.",
"B.B.B.B.B.B.B.B.B.B.B.B.B.B.B.B.K K 2.2.t.t.=.=.%.%.-.a a v v o.o.M M s s 0 > > e e 1 1     B.B.B.B.B.B.B.B.B.B.B.B.B.B.B.B.B.B.",
"B.B.B.B.B.B.B.B.B.B.B.B.B.B.B.B.j j ( ( O.O.&.&.,.,.1.n n F F @.@.v v k k a ; ; r r 3 3 X X B.B.B.B.B.B.B.B.B.B.B.B.B.B.B.B.B.B.",
"B.B.B.B.B.B.B.B.B.B.B.B.B.B.B.B.j j ( ( O.O.&.&.,.,.1.n n F F @.@.v v k k a ; ; r r 3 3 X X B.B.B.B.B.B.B.B.B.B.B.B.B.B.B.B.B.B.",
"B.B.B.B.B.B.B.B.B.( ( &.&.#.#.&.z z h h J J ....( ( N G G T T / / c c j j y 1 1 a a , , + + l l z i i u u i i i i i i : B.B.B.B.",
"B.B.B.B.B.B.B.B.B.( ( &.&.#.#.&.z z h h J J ....( ( N G G T T / / c c j j y 1 1 a a , , + + l l z i i u u i i i i i i : B.B.B.B.",
"B.B.B.B.B.B.B.&.&.g.g.>.>.:.:.:.R R j j m m C C S S V q q a a g g e e 1 1 2 8 8 4 4 g g z z n n V c c f f c c c c : : , B.B.B.B.",
"B.B.B.B.B.B.B.&.&.g.g.>.>.:.:.:.R R j j m m C C S S V q q a a g g e e 1 1 2 8 8 4 4 g g z z n n V c c f f c c c c : : , B.B.B.B.",
"B.B.B.B.B.[ [ m.m.n.n.j.j.i.i.p.f.f.M.M.t.t.I I l l y 9 9 1 1 5 5 1 1 > > 7 p p H H { { ^ ^ u.u.k.i.i.1.1.k.k.: : G G 5 B.B.B.B."
};
