/* XPM */
static char *result[] = {
/* columns rows colors chars-per-pixel */
"64 64 69 1 ",
"  c #040404",
". c #0C0C0C",
"X c #131313",
"o c #1C1C1C",
"O c #20201F",
"+ c #1F2020",
"@ c #232323",
"# c #272728",
"$ c #2B2B2C",
"% c #2F2F30",
"& c #2F3030",
"* c #333333",
"= c #373738",
"- c #3B3B3C",
"; c #403F3D",
": c #3F4040",
"> c #444444",
", c #474748",
"< c #4B4B4C",
"1 c #4F4F50",
"2 c #4F5050",
"3 c #535454",
"4 c #595957",
"5 c #575758",
"6 c #575959",
"7 c #5C5C5C",
"8 c #5F5F60",
"9 c #5E6060",
"0 c #646464",
"q c #6B6866",
"w c #676768",
"e c #6B6B6C",
"r c #6F6F70",
"t c #737374",
"y c #777778",
"u c #7B7B7C",
"i c #827E7B",
"p c #83817E",
"a c #7F7F80",
"s c #818182",
"d c #8B8884",
"f c #878788",
"g c #8B8B8B",
"h c #928F8B",
"j c #96928E",
"k c #8F8F90",
"l c #959596",
"z c #9B9793",
"x c #9D9994",
"c c #9C9C9D",
"v c #A6A19D",
"b c #A1A1A2",
"n c #A9A4A0",
"m c #A9A9AA",
"M c #B1ACA7",
"N c #B4AFAB",
"B c #BBBBBC",
"V c #BFBFC0",
"C c #C5C5C6",
"Z c #C7C7C8",
"A c #CBCBCC",
"S c #CFCFD0",
"D c #D3D3D4",
"F c #D7D7D8",
"G c #DBDBDC",
"H c #E3E3E4",
"J c #E7E7E8",
"K c #E9E9EA",
"L c None",
/* pixels */
"LLLLLLLLLLlgmmmmmmmmff00rtyyyt3388855<<<,31,88fmmmmmmmmm,aa::LLL",
"LLLLLLLLllDDDZZBVSASCCDDBsaqw733<<1<<>,118aabbVZZVVmAZ>>taa>>LLL",
"LLLLLLLLgkDDDZZVVSSSCCDDBaaww633<<1<<,,118aabcVAAVVmZZ>:aat:>LLL",
"LLLLLLbbDDDDDSDASDSSSDSDSSSSSZVVVVSDDZZAAVSSCCSVVmmA>>aataa8835,",
"LLLLLLbbDFDDDDAASSSSDDDDSSASSCVVVVSDDZZASVSVFDJGHZZ>aattt8888,,:",
"LLLLLlAAKKHHFDFGGHGHGGSSDSABBBBBASDDFFFGFAZZDDJGHVV:taatt88881<:",
"LLLccAKKHHFFFGGHHHHGSSDDSBBBBBAADDFFFGGAAZDDKKHZC>>aattt888,<00>",
"LLLccAKKHJFFFFGHHHGGSSDDSBBBBBAADDDFFFGAAZFDJJGZC>,atatt888<,00:",
"LLLeekaattuytrryyweetytytyuttuuytyayaerttatytyt>-araaa888<,0000:",
"LLLeekaattyutrttywerytyytuyttuyyytyayrettayyaty>:aaara888,<0w00:",
"LLL76gaauuuuuuuaauuutyyyuaaaasaaaaaaayyaaafsaay::aarwww0<rrrr00-",
"L<<66gkguutyauuyytauyyuuuaaaaaasaaayassyyyaatty:-VVAbb,,a88tr0w:",
"L,<66gkkuutyauuyuruuyyuuaauaaasaaaayaasaayaattt::VVAbb,,awwrrw0:",
"1,,55assaauuuuutytaaaattyyyuuyasyayaaytaaryyyya53,>,<<aaw8wrrww-",
"1,,55usaaauuuuutttaaaattyyyuuupayyyayyyaaryyyaa53,,,,,raw08rr08:",
"0eetyuaauyytuau89:*****=**=***&&%%*&&==31wtrttytarae88aar08ar00:",
"wttaaayyauer-====-**-->>>1<,,><<>,3====,,=53tytaaaaa88aaw80rrra=",
"wttaaayuuuee-=====**-=>>>22,,,<<>>3===*>,=33yyyaaaaa88aaa80reaa=",
"0aaaautt33==->,33q00rrqeww0wqwqqtteeeew00-==::ryaraa55ea0eew8ar=",
"waaaautt33*=->>33q00rreewwwwewwqtrerrqe78-==:-ryrara51arwwwe0ra=",
"wuuuay35>;,<087@@.                   oo,<7,>#$-traaa35ra0awaaar=",
"wuuaay33;>,<877@$.                        >>87#,,aaa08araee08ra-",
"ettaat-:<<80%                             >>88$,,aaa08awwwe08ar-",
"0we888>>33XX            .  .  .     .       $#<%%aaw88aaearrr00-",
"0ew888,>13Xo              ...     ....      $$1%%aaa85aaa0awe00:",
"+o+XX*,,$$        ..XX..X.... X.XX.X..X..X..X.0%%X..o.aaawe0000:",
"+o+XX*,>$$       ...XXX.X.....X.XX.....X.X..X.0%%Xo.ooaawww0w00:",
"+*=XX>>>..       .......X.X......X.XXXX..X    355++*+owwawa800w:",
"$;:XX1OO       ............XX.  .......XX.XXXX#00Xo>+@a0waa8000:",
"#::XX3O+       . ........X.XX . .......XX..X..#00oX>++waawa500w:",
"*--XX1..     . .....X.XXX.XX.X..X... XX.....X.Xre%%=++aw80waa00:",
"*--XX3..      .......XXXXX..XX.X.....XXXX...XXXee%%=oowaew8aw0w-",
"*--oo3      .  ..X...X..X....XXXXXX. ..X....XX 08@@=@@eerwwtttt,",
"-,,Oo,     .   .......X...X..XXXXXX  .         ee;>-O+rttwwtttt=",
"->,oo3         ......X.X......XX.XX   .        ee:>-@+rrywettyt=",
"376==<       ..  .. . . ......XXoXX..oXXXXXoXo 70>>6%*tttwww0tt*",
"376==<       .   . .  ........XXXXo..oXXXXoXoX 88>>7*%tttewwwty*",
"778--5       ..  .  . .XXXXX..XXoooXX.X..XXXXXX55118@@rttwerrtt%",
"888--6        .      .XXXoo......X........XXXX 67,>8%%trtttrr00*",
"5rr-=<       .   ... .XXXXo.. X....X.. ...XXXo 66,,8%%tttttrr00*",
"8yy333..  . .      .   ... .X........  ....... 33,>t$$rr0tt0000*",
"8yy333..         ..    . ......... .. .. ..X . <1>>t##rr0tt0000*",
"5ty:>6  . . .  .  .   ...             . . .....--==0*%tywtr08rt*",
"6yt>:3             .. .              . . .. .. ====0%%ttwtt00tt*",
"7ss1<3  .        ..  .                 ..   .  ,<=-0**tywrr00yt*",
"3yt>>3.    .  . .       .  ........  ..   .   .31--0$%00t0000yt*",
"3tt>,3  . .  . .  .   .    . ... ......     . .31=-0%%00t0800yt*",
"7rt113        .  . .. .....XXXXXXX......XX.X.X 33--t%%ty0ttttw0%",
"7tt113           ... .. ...XXXXXXX..X..XXX...X.33--r%%ttwttttww%",
"8kk,,8 .     ..     . . ......XXoo.XXoXXXXXXX. <<**r++rrreett0w*",
"8ff,,3      .  .. ..X....XXooOoooo.oXOOOO+oo++.::##r%%wewty00ee%",
"8ff,>3          . ...X...XXooOoOoX.XoOOO++oo++.;:##r%%ewwttw0ee*",
"8rr--0    . ...  .....XX.oOoo@##@@OOO;><,39999@-=*=g$$ttrrr00tt*",
"8rt--0.    . .. ...XXX.X.oooO@#@@@OOO;><<37999+-==*g$$ttrrr00tt*",
"5rt<<0  ..X..  ...XXooXXXooOO@;;;;&@#0qeer<,;-&*=%%s$%rrr0000**L",
"5tr<10.  .........XXooXXXooOO@;;;:&@O00eer<<--6=*%%f%%errtt**LLL",
"3yy-=0oXXXX.XoX@@*;;,><224344422<2,6633:>=22336=*%%g%%rrrtt**LLL",
"2tt$&q..XXXXoo@$&;,,,;334qqrqq44ppdppjz99;qqaup--*%f$$eer**LLLLL",
"2tt&&q..XXXXX+O$&;>>>;434qqrrq44ppdppjj99;qwaap--*%f##erw**LLLLL",
"<08**8ddsdxx-jjnnnjjppppnnnjjh22hhvnnMMxxqvnMMz;:$%e##re*LLLLLLL",
"<00**0pdppxx;jjnnvjjiippnvvjjh<<hhvnnMMxx0vnNNz::%$e@#ee*LLLLLLL",
",33@#qyy89330ewtrytruuuupiupauuuttpuuuyaitiutee0w%%1***%LLLLLLLL",
"-%*oo&==&$;;=--**-=**=::;===--;;===&&&&$#=%%**%$##@1##LLLLLLLLLL",
"-**Xo&==$&>;-=-*&;===*::;==---;;===*&&&$$=&%=**$##@1#$LLLLLLLLLL"
};
