/* XPM */
static char *_3997842e6a140a3fbfb2abcd8296dfa1PEhfERLaMRyZA63[] = {
/* columns rows colors chars-per-pixel */
"64 64 162 2 ",
"   c None",
".  c black",
"X  c #010101",
"o  c #020202",
"O  c gray1",
"+  c #040404",
"@  c gray2",
"#  c #060606",
"$  c #070707",
"%  c gray3",
"&  c #090909",
"*  c gray4",
"=  c #0C0C0C",
"-  c gray5",
";  c #0E0E0E",
":  c gray6",
">  c #101010",
",  c #111111",
"<  c #151515",
"1  c gray9",
"2  c #1D1D1D",
"3  c #1E1E1E",
"4  c #282828",
"5  c #2D2D2D",
"6  c gray18",
"7  c gray19",
"8  c #323232",
"9  c gray20",
"0  c #343434",
"q  c #353535",
"w  c gray21",
"e  c #373737",
"r  c gray22",
"t  c #393939",
"y  c #3A3A3A",
"u  c #3C3C3C",
"i  c gray24",
"p  c gray25",
"a  c #414141",
"s  c #434343",
"d  c #444445",
"f  c gray27",
"g  c #464646",
"h  c gray28",
"j  c #474748",
"k  c #49494A",
"l  c gray29",
"z  c #4A4A4B",
"x  c #4C4C4C",
"c  c #4E4E4E",
"v  c #4E4E4F",
"b  c #4F4F50",
"n  c gray32",
"m  c #525253",
"M  c #535353",
"N  c #535354",
"B  c #545455",
"V  c #555556",
"C  c #575758",
"Z  c #59595A",
"A  c #5A5A5B",
"S  c #5D5D5D",
"D  c #5E5E5F",
"F  c gray38",
"G  c #616162",
"H  c #626262",
"J  c #626263",
"K  c gray39",
"L  c #636364",
"P  c #646465",
"I  c #656566",
"U  c gray40",
"Y  c #666667",
"T  c #676767",
"R  c #676768",
"E  c #686868",
"W  c DimGray",
"Q  c #69696A",
"!  c #6A6A6A",
"~  c #6B6B6C",
"^  c #6C6C6C",
"/  c #6C6C6D",
"(  c gray43",
")  c #6E6E6F",
"_  c #6F6F70",
"`  c gray44",
"'  c #707071",
"]  c #717172",
"[  c #727272",
"{  c #727273",
"}  c #737374",
"|  c #747475",
" . c #757576",
".. c #767677",
"X. c #777778",
"o. c #787879",
"O. c #79797A",
"+. c #7A7A7B",
"@. c #7B7B7C",
"#. c #7C7C7D",
"$. c #7D7D7E",
"%. c #7E7E7F",
"&. c #7F7F80",
"*. c #808081",
"=. c #818182",
"-. c #848485",
";. c #868687",
":. c #8A8A8B",
">. c #8C8C8D",
",. c #8D8D8E",
"<. c #8E8E8F",
"1. c #8F8F90",
"2. c #929293",
"3. c #939394",
"4. c #959596",
"5. c #979798",
"6. c #9A9A9B",
"7. c #9B9B9C",
"8. c #9C9C9D",
"9. c #9D9D9E",
"0. c #9F9FA0",
"q. c #A1A1A2",
"w. c #A2A2A3",
"e. c #A3A3A4",
"r. c #A4A4A5",
"t. c #A5A5A6",
"y. c #A6A6A7",
"u. c #A7A7A8",
"i. c #A8A8A9",
"p. c #A9A9AA",
"a. c #AAAAAB",
"s. c #ACACAD",
"d. c #ADADAE",
"f. c #AFAFB0",
"g. c #B5B5B6",
"h. c #B9B9BA",
"j. c #BABABB",
"k. c #BBBBBC",
"l. c #BCBCBD",
"z. c #BFBFC0",
"x. c #C4C4C5",
"c. c #C7C7C8",
"v. c #CBCBCC",
"b. c #CCCCCD",
"n. c #CDCDCE",
"m. c #CECECE",
"M. c #CFCFD0",
"N. c #D0D0D1",
"B. c #D1D1D2",
"V. c #D2D2D3",
"C. c #D3D3D4",
"Z. c #D4D4D5",
"A. c #D5D5D6",
"S. c #D6D6D7",
"D. c #D7D7D8",
"F. c #D8D8D9",
"G. c #DADADB",
"H. c #DEDEDF",
"J. c #E1E1E2",
"K. c #E3E3E4",
"L. c #E4E4E5",
"P. c #E9E9EA",
/* pixels */
"                                                                      :.:.:.2.2.f.f.f.q.q.q.t.e.t.g.g.g.s.s.s.i.i.i.0.0.0.....} ",
"                                                                      :.:.:.2.2.f.f.f.q.q.q.e.t.e.g.g.g.s.s.s.i.i.s.0.q.0.......",
"                                                                      :.:.:.2.2.f.f.f.q.q.q.t.e.t.g.g.g.d.s.d.i.i.i.q.8.0...} ..",
"                                                                      7.7.7.5.5.q.q.q.*.*.*.Q Q Q 3.3.3.5.5.5.1.2.<.<.<.<.( ( ( ",
"                                                                      7.7.7.5.5.q.q.q.*.*.*.Q Q Q 2.3.3.5.5.5.1.1.1.1.1.<._ ( _ ",
"                                                                      7.7.7.5.5.q.q.q.*.*.*.Q Q Q 3.3.3.5.5.5.1.1.1.>.>.<.( _ / ",
"                                                                      q.q.q.i.s.d.d.d.u.u.u.i.i.i.*.*.*.B B B d d d b B B k k k ",
"                                                                      q.q.q.s.i.d.d.d.u.u.u.i.i.i.*.*.*.B B B d d d B B B k k k ",
"                                                                      q.q.q.i.s.d.d.d.u.u.u.i.i.u.&.&.&.B B B d d d B B B k k k ",
"                                                                      $.$.$.d.d.l.l.l.t.t.t.q.e.e.u.u.r.D D S / / / 7.7.7._ } _ ",
"                                                                      $.$.$.d.d.l.l.l.t.t.t.q.e.e.u.u.u.D D D / / / 7.7.7._ _ _ ",
"                                                                      $.$.$.d.d.l.l.l.t.t.t.e.e.0.u.r.u.D D D / Q / 7.7.0._ } _ ",
"                                              1.1.1.1.1.1.1.1.1.1.1.1.P P P 1.1.8.8.8.t.e.e.s.i.s.s.s.s._ _ / O.O.X.0.0.0./ / Q ",
"                                              1.1.1.1.1.1.1.1.1.1.1.1.P P P 1.1.0.8.8.e.e.e.i.s.s.s.s.s._ _ _ X.O.X.0.0.0./ / / ",
"                                              1.1.1.1.1.2.<.<.2.1.1.1.P P P 1.1.8.8.8.e.e.e.i.i.s.s.s.s._ _ _ O.O.O.0.0.0./ Q / ",
"                                        1.1.1.......' ' ' ' ' ' 4.4.4.R R R L L $.$.$.7.6.6.2.<.1.} _ _ O.O.O.-.-.-.1.1.>./ R R ",
"                                        1.1.1......._ ' ' ' ' } 4.4.4.R R R L L &.O.&.7.6.6.1.1.1._ } _ &.o.o.-.-.-.1.1.1.R R R ",
"                                        1.1.1.....X.' ' ' ' ' } 4.4.4.R R R L L O.&.O.7.6.6.1.1.1._ _ } O.O.O.-.-.-.1.1.1.I R / ",
"                                  1.1.1.i.i.i.i.i.i.i.i.i.i.i.i.i.i.i.;.-.;.I L _ _ _ X.} } X.X.X.} } } V V V D D D I L I C C C ",
"                                  1.1.1.i.i.i.i.i.i.i.i.i.i.i.i.i.i.i.;.;.;.I I _ _ _ } } } X.X.X.} } } V V V D D D D I D C C C ",
"                                  1.1.1.i.i.i.i.i.i.i.i.i.i.i.i.i.i.i.;.;.;.I I _ _ _ } } } o.o.X.} } } V V V D D D L D I C C C ",
"                            1.1.1.Z.Z.Z.C.C.C.c.c.c.z.z.z.M.M.M.M.M.M.x.x.x.C.D.z.j.z.&.&.-.R R I S C S B V V k k k b b b k b k ",
"                            1.1.1.Z.Z.Z.C.C.C.c.c.c.z.z.z.M.M.M.M.M.M.x.x.x.D.C.z.h.j.&.&.&.I I R C S C b B b k b k b b b b k k ",
"                            1.1.1.Z.Z.Z.C.C.C.c.c.c.z.z.z.M.M.m.M.M.M.x.x.x.C.C.h.z.z.&.&.&.I I I S C S V B V k k k b b b k k k ",
"                      e.e.e.Z.Z.Z.C.C.C.C.C.C.M.M.M.m.m.m.B.M.B.M.M.M.M.C.M.C.M.M.M.M.M.M.M.M.M.M.c.c.x.z.z.z.z.z.z.M.M.C.C.D.C.",
"                      e.e.e.Z.Z.Z.C.C.C.C.C.C.M.M.M.m.m.m.B.B.M.M.M.M.C.C.C.M.C.M.M.v.M.M.M.M.M.M.c.c.v.z.z.z.z.z.z.M.M.M.C.C.C.",
"                  4.4.v.v.v.P.P.P.L.L.L.F.F.F.D.Z.D.F.G.G.L.K.K.J.J.J.H.H.H.M.M.C.C.C.M.M.M.h.h.h.h.h.h.h.j.h.M.M.v.M.C.C.D.D.D.",
"                  4.4.v.v.v.P.P.P.L.L.L.F.F.F.D.D.D.G.G.F.K.K.K.J.J.J.H.H.J.M.M.C.D.C.M.M.M.h.h.h.j.h.h.z.j.h.M.v.M.C.C.C.C.D.C.",
"                  4.4.v.v.v.P.P.P.L.L.L.F.F.F.Z.D.Z.F.G.G.L.K.K.J.J.J.H.H.H.M.M.C.C.C.M.M.M.h.h.h.h.h.h.j.j.z.M.v.M.C.C.C.D.C.D.",
"            8.8.8.v.v.P.P.P.L.L.L.F.F.F.D.Z.D.G.G.G.K.K.L.J.J.J.H.H.H.M.M.M.C.C.M.M.M.j.h.h.j.j.j.z.z.j.v.v.v.M.C.C.D.C.C.D.D.D.",
"            8.8.8.v.v.P.P.P.L.L.L.F.F.F.D.D.Z.G.G.G.L.K.K.J.J.J.H.H.H.M.M.M.C.C.M.M.M.h.h.h.j.j.h.j.h.j.M.v.M.C.C.C.C.D.C.D.D.D.",
"            8.8.8.v.v.P.P.P.L.L.L.F.F.F.Z.D.D.G.G.G.L.K.K.J.J.J.H.H.H.M.M.M.D.C.M.M.M.h.h.h.j.j.j.h.z.j.v.v.v.C.C.C.D.C.D.D.D.D.",
"            / / / 1.1.&.&.&.} ' ..O.O.O.} ...._ ( ( ......Q Q Q _ _ _ } } X.X.X...' ..O.O.O.} ..} $.O.$.o.o.o.....} O.$.O.O.O.$.",
"            / / / 1.1.&.&.&.} } ' O.O.O.} } } _ ( [ ......Q Q Q _ R _ X.} } o.} ' ..' o.O.O.} ..} O.$.O.o.o.o.......$.O.$.o.O.O.",
"            / R Q 1.1.&.&.&.} } } o.o.O...} ..( ' _ ......Q Q Q / / / } X.} X.} ..' } o.O.o...} ..O.O.$.o.o.X...} ..o.$.$.o.O.$.",
"            S C Z :.:.&.&.&.$.O.$.o.o.o.$.O.$.O.$.$.*.$.*.@.@.@.o.&.o.} } } X.o.$.O.$.&.&.&.&.&.&.*.*.*.$.&.$.&.$.&.$.$.$.&.$.&.",
"            S S S :.:.&.&.&.O.$.O.o.o.O.$.$.O.$.O.$.$.&.*.@.@.@.&.o.&.} X.} o.X.$.$.$.&.&.$.&.&.&.*.*.*.&.$.&.$.$.&.$.$.$.&.$.&.",
"            S C Z :.:.&.&.&.O.O.$.o.O.O.$.$.$.$.$.$.&.&.*.$.@.@.o.&.O.} } X.} X.O.$.O.&.$.&.&.&.&.*.*.*.$.&.$.&.&.$.$.$.$.$.&.$.",
"      l j k Z Z C >.>.>.<.<.$.O.O...o.X.&.$.$.$.O.$.o.o.o.' ' ' &.O.O.X.X.o.&.&.$.$.$.$.$.$.&.&.&.*.*.*.*.*.*.*.&.*.&.&.&.$.O.$.",
"      l l l Z Z Z >.>.<.<.1.O.$.$.......$.&.$.O.$.O.o.o.o.' } ' O.&.&.X.X.} &.O.$.$.$.$.$.$.&.&.&.*.*.*.*.*.*.*.*.*.&.&.&.O.$.O.",
"      l j l Z Z Z >.>.<.<.<.O.O.O.X.....$.&.$.$.$.@.o.X.X.' ' ' &.O.&.} } X.&.&.&.&.O.&.$.$.&.&.*.*.*.*.*.*.*.*.*.*.*.*.&.$.O.$.",
"c b b j j j C C C $.$.*.*.&.&.$.$.$.$.O.$.O.O.o.o.@...........} &.&.&.&.&.&._ } X.o.o.X.X.X.O.$.@.@.o.o.*.*.*.o.o.o.o.o.o.O.$.O.",
"b c b j j j C C C $.&.*.*.*.&.&.$.$.O.$.O.$.$.o.o.o.........} } &.&.&.&.&.&.} } O.O.o.X.X.X.$.O.@.o.o.@.*.*.*.o.O.O.o.o.o.$.O.$.",
"c b c j j j C C C $.$.*.-.*.&.$.&.O.$.O.$.O.$.o.o.o.} ..} } } ..&.&.&.&.&.&.} } O.O.o.X.X.o.O.$.$.o.o.@.*.*.*.o.O.O.o.o.o.O.$.O.",
"P L L / / / } } } $.$.&.&.&.O.O.o.......o.o.O.&.$.$.D D D a i a 8 8 0 0 0 0 w 0 8 8 8 q q 8 q 8 q q q q 6 6 6 7 8 6 8 8 8 8 8 8 ",
"P L L / / / } } ..$.$.&.&.&.O.O.o.......O.$.O.$.$.$.D D D a a a 0 0 0 0 0 0 0 w 8 8 8 8 q q q 8 q q q q 6 6 6 7 6 8 8 8 8 8 8 8 ",
"P P L / / / } } } $.&.&.&.&.o.o.o.X.....o.o.O.&.$.$.D D D i a a 0 0 0 0 0 0 0 0 8 8 8 q 8 8 q q q q q q 6 6 6 8 8 6 8 8 8 8 8 8 ",
"R R R } } } &.&.&.&.&.O.O.O.$.$.O.( ( ( i i i r q r r r r r r r 0 w 0 y t t j d d d d k b b j j h h d d x x x d d d n n B r r r ",
"R R R } } } &.&.&.&.&.o.O.O.O.&.$./ / / r i i r r r r r r r r r q q q r r r f f f a f b c c h h h h h d x x x d d h M M M r r r ",
"R R R } } } &.&.&.&.&.X.O.O.&.O.$.( / / i i i r q r r r r r r r q q q r y r f f a f a b c b h d h d h h x x x d f f M M M r r r ",
"R L R &.&.&.$.&.$.&.$.} } } B B B q q r r y y d d d n M M Q Q T K K K [ ' [ Q Q T T T T P T ^ ^ ^ T T T T T T } } [ T ! ! ( ( ( ",
"L R P &.&.&.&.$.&.O.$.} ' } B B B r q q r y y d d d M M M T T Q K K H ( [ [ Q Q T ^ Q T P T ^ ^ ^ T T T T T T ' [ [ ^ ! ! ( ( ( ",
"R L R &.&.&.$.&.&.&.&.} } } B B B q q q r r r f h f n n n Q Q P K H H [ ( ( Q Q ! T T T P P ^ Q ^ T P Q T T P ' ' ' Q Q ! ( ( ( ",
"R R R O.O.O.&.&.$.o.o.B B B p p p l x l H H H S S S 4 4 4 : & : o o o o o o o o O O O o o o o o o o o o o o o o o o o o o O O O ",
"R R R O.O.O.&.&.&.X.O.B B B p p p l l l H H D D S S 4 4 4 : = : o o o o o o o o o o o o o o o o o o o o o o o o o o o o o O O + ",
"/ / / } X.X.O.&.$.} } i i i k c x H H H 6 6 6 o o o o o o o o o o o o o o o o o + + O o o o o o o o O + o o o o o o o o o o o o ",
"( Q Q ....} $.$.$.} } i i i k c c H H H 6 6 6 o o o o o o o o o o o o o o o o o + + + o o o o o o + + + o o o o o o o o o o o o ",
"Q ( Q ......$.$.$.} } i i i c k c H H H 6 6 6 o o o o o o o o o o o o o o o o o & + + o o o o o o + + + o o o + o o o o o o o o ",
"P P P Q T Q F F H L H d d d n n n 1 1 1 o o o o o o + + o o o o + + & o o o o o & & & + + + & & & + + & + + + + o + & & & & & & ",
"P P P Q Q Q F F H D D d p p n n n 1 1 < o o o o o o + + + o o o + & & o o o o o & & & + + + & & & + & & + + & + + + & & & & & & ",
"P P P Q Q Q F F F H F f d f n n n < < < o o o o o o o + + o o o + + + o o o o o & & & & + + & & & + & & o + + + + + & & & & & & ",
"3 3 3 3 2 2 < < < 8 8 f d h 6 6 5 o o o o o o o o o + o + & + & : : : > : > : : > > > > > : : & : & + & : : > > > > : > > : > > ",
"3 3 3 3 2 2 < < < 8 q f h d 5 5 5 o o o o o o o o o o + + + & & : & : > > > : : > < > : : : : : : & & & : : > > > > > > > : : : ",
"3 3 3 3 2 2 < < < q q h d d 5 5 5 o o o o o o o o o + o o & + + & : : > > > : & > > > : : : & : : + & & : : : > > < > > > : : : "
};
