/* XPM */
static char *result[] = {
/* columns rows colors chars-per-pixel */
"64 64 109 2 ",
"   c #030100",
".  c #0A0502",
"X  c #0C0905",
"o  c #120C06",
"O  c #130F08",
"+  c #151007",
"@  c #191204",
"#  c #15110A",
"$  c #1A150C",
"%  c #1F190E",
"&  c #141413",
"*  c #171816",
"=  c #1D1B14",
"-  c #1D1C19",
";  c #211B0F",
":  c #221D12",
">  c #201F1B",
",  c #262113",
"<  c #2B2415",
"1  c #2F2817",
"2  c #262219",
"3  c #2A261C",
"4  c #2E281A",
"5  c #302915",
"6  c #332C1B",
"7  c #3A311E",
"8  c #2A2721",
"9  c #322F28",
"0  c #35322B",
"q  c #38332A",
"w  c #2D2F30",
"e  c #333535",
"r  c #353838",
"t  c #383C3C",
"y  c #41361F",
"u  c #473C24",
"i  c #423E35",
"p  c #4F4329",
"a  c #53472B",
"s  c #574A2D",
"d  c #594C2E",
"f  c #454035",
"g  c #45443B",
"h  c #49463E",
"j  c #4C493E",
"k  c #5D4F31",
"l  c #5E5132",
"z  c #5F543A",
"x  c #65593E",
"c  c #685C3E",
"v  c #3D4041",
"b  c #424546",
"n  c #494741",
"m  c #444A45",
"M  c #4C4A42",
"N  c #454848",
"B  c #4B4E4F",
"V  c #524F43",
"C  c #535146",
"Z  c #5B574D",
"A  c #4A4F50",
"S  c #505651",
"D  c #575957",
"F  c #5C5A54",
"G  c #535758",
"H  c #525859",
"J  c #5C5F5D",
"K  c #675B40",
"L  c #6A5D41",
"P  c #6D6246",
"I  c #716346",
"U  c #64615B",
"Y  c #7A6F52",
"T  c #7D7052",
"R  c #5B6162",
"E  c #6E6B66",
"W  c #656A6C",
"Q  c #716F6A",
"!  c #6F716F",
"~  c #71726E",
"^  c #6A7171",
"/  c #6A7A7D",
"(  c #757573",
")  c #797976",
"_  c #757B7B",
"`  c #7E7D7B",
"'  c #8B7E61",
"]  c #7C8283",
"[  c #7F8E8F",
"{  c #808585",
"}  c #858C8D",
"|  c #8C9495",
" . c #8F999B",
".. c #909595",
"X. c #909B9D",
"o. c #95A2A5",
"O. c #9AA3A3",
"+. c #9BA7AB",
"@. c #9DABAE",
"#. c #9FADB1",
"$. c #A5A9AA",
"%. c #A2AEB1",
"&. c #ABB2B3",
"*. c #B1B0B0",
"=. c #B2BABB",
"-. c #C3C3C3",
";. c #CECDCC",
":. c #D5D5D4",
">. c None",
/* pixels */
"' '  ... .| } V V Y Y T T T P P I I L L L K K L K x x x V z K x L L x x x x x L c x x L L L L c x x x x K K K O.O.o.o.D D D k k ",
"' ' .. ...} ..z V Y Y Y T T P P I L L L L x K L L x L k k K K K L L x x x x x K x x x c L L L c x x x x K L K O.O.o.o.G D D l >.",
"' '  ... .| | C V Y Y Y T Y P P ' z L L L L K L L L L k K k K K L L x x x x K K c x x I L I c c x L x x L L L O.O.o.o.G D J >.>.",
"u p .. .|  . .j h k k k l k d d d d k k k d d a s d d d k u s s d d d d d s s d d d d d a a k k d l u u s u u %.+.+.+.J J >.>.>.",
"u u |  . . .| j j k k k k k d d d d k k k k d d s d d s u k k k d d s k d d a d d d d u a a k k d d u u d u u %.#.+.+.J >.>.>.>.",
", % | | | O.O.j h ; : ; ; ; < , < < , , , < < 6 1 1 1 < < < < 4 < < < < < 1 1 6 6 6 6 6 6 6 6 1 1 5 < < < 6 > %.#.#.%.>.>.>.>.>.",
": : | | | O.o.h j : ; ; : ; , < < < , < < < < 6 6 1 1 < < < < < 1 2 1 < < 1 1 6 5 5 6 6 6 6 1 1 1 1 < < < < < %.%.#.>.>.>.>.>.>.",
"% : X. .X.@.@.h h X X + + + % % $ $ $ $ $ % % , , , , , ; ; < < < < ; ; ; ; ; ; ; ; ; : ; ; ; ; : : @ $ $ # # $.@.>.>.>.>.>.>.>.",
"; ;  . . .@.@.h j X X O O O % % $ $ $ $ $ : % : , : , ; ; ; < < < < ; ; : % % : ; % % ; $ ; ; ; , : $ # $ @ # @.>.>.>.>.>.>.>.>.",
"; , X.X. .%.%.i i O O $ $ * = : : % : : = : : : : 2 : 2 2 2 6 6 8 8 1 8 3 2 2 : : : > : > : > > 3 3 = = = * * >.>.>.>.>.>.>.>.>.",
"; ; X.X. .%.%.f i O O $ $ * , = % : : : : : : : : : : 2 2 2 8 9 8 6 3 3 3 > 2 : > % % > : > > > 8 3 = = * % >.>.>.>.>.>.>.>.>.>.",
"; ; X.X.X.%.%.f i O X * * * = , % - : : = : = : : 2 , 2 2 2 8 9 6 8 3 3 8 2 2 - ; > : % : : < > 8 3 = = = >.>.>.>.>.>.>.>.>.>.>.",
"7 7 X.X.X.&.&.f g h h m m m S S D Z F F F U J E E Q Q ' ( ( ' ` ' _ ` ` ` ` ` ( ( ~ ( ~ ~ ~ ! ! _ _ ^ ^ >.>.>.>.>.>.>.>.>.>.>.>.",
"7 y X.X.X.&.&.f f h h m m m S S D F F F F U U E E Q ! ! ( ) ] ] ) _ ` ` ` ` ` ( ( ~ ~ ~ Q ~ ! ! ] _ ^ >.>.>.>.>.>.>.>.>.>.>.>.>.",
"l l X.X.X.$.%.j j _ _ / / / [ [ $.$.*.*.*.-.-.:.:.:.:.:.:.:.:.:.:.:.:.:.:.;.:.:.:.:.:.;.;.;.=.=.@.#.>.>.>.>.>.>.>.>.>.>.>.>.>.>.",
"l l X.X.X.$.%.j j _ _ / / / [ [ $.$.*.*.*.-.-.:.:.:.:.:.:.:.:.:.:.:.:.:.:.:.:.:.:.:.:.;.;.;.=.=.@.>.>.>.>.>.>.>.>.>.>.>.>.>.>.>.",
"y y  . . .X.$.i i n i M M n h h h h h h h n M M M M M C C C M M Z Z C C V j n M m j j h h h j j >.>.>.>.>.>.>.>.>.>.>.>.>.>.>.>.",
"y y X.X.X.O.X.i i i g M M n n n h g h h h n M M M M V C C C n M Z Z C C C j n M V V V h h g j >.>.>.>.>.>.>.>.>.>.>.>.>.>.>.>.>.",
"y y  .X...O.$.i i i i M n M n n g g h h n M M M M M M V C C n M Z Z V C C j n V V m j h h h >.>.>.>.>.>.>.>.>.>.>.>.>.>.>.>.>.>.",
"5 5 | | ......q q $ # o o o O O O O O O O o o # o $ ; $ ; % : : 1 1 < < < : : ; ; $ $ % % >.>.>.>.>.>.>.>.>.>.>.>.>.>.>.>.>.>.>.",
"1 1 |  .| ....q q o @ o o o o o o O O o O o o O o ; $ ; ; ; : : < 1 < : < : : ; ; $ % $ >.>.>.>.>.>.>.>.>.>.>.>.>.>.>.>.>.>.>.>.",
"1 3 } } } } } q q @ @ $ + $ ; $ ; : : < : ; : $ $ $ $ $ # $ $ $ $ $ $ $ # $ $ $ $ $ $ >.>.>.>.>.>.>.>.>.>.>.>.>.>.>.>.>.>.>.>.>.",
"1 1 } } } { } q q @ @ $ $ # ; $ ; ; : : : ; $ $ ; $ $ ; $ $ $ $ $ ; $ + $ $ $ $ $ $ >.>.>.>.>.>.>.>.>.>.>.>.>.>.>.>.>.>.>.>.>.>.",
"5 < ] ] ] { { 9 9 @ @ o o o + $ $ ; < 1 < 1 1 : : 5 5 9 6 6 7 6 6 7 7 9 7 7 7 7 6 >.>.>.>.>.>.>.>.>.>.>.>.>.>.>.>.>.>.>.>.>.>.>.",
"< < ] ] ] { { 9 9 @ @ o o o + $ $ $ < < < < < < : < < 7 6 9 6 7 7 7 7 7 7 6 7 6 >.>.>.>.>.>.>.>.>.>.>.>.>.>.>.>.>.>.>.>.>.>.>.>.",
"; ; _ _ _ ] ` 8 8 . . . . . . o $ # ; ; ; : : : < < < 1 1 1 5 5 5 5 5 6 6 6 6 >.>.>.>.>.>.>.>.>.>.>.>.>.>.>.>.>.>.>.>.>.>.>.>.>.",
"; % _ _ _ ] ] 8 4 . . . . . o o $ # ; ; % ; : < : : < 1 1 1 1 1 6 5 6 1 6 6 >.>.>.>.>.>.>.>.>.>.>.>.>.>.>.>.>.>.>.>.>.>.>.>.>.>.",
"; $ _ _ _ ] ] 8 8 o . . . . . . $ # ; $ ; : : : < < < 1 1 1 1 1 5 6 6 6 6 >.>.>.>.>.>.>.>.>.>.>.>.>.>.>.>.>.>.>.>.>.>.>.>.>.>.>.",
"$ $ ^ ^ ^ _ _ > > . .   .   . . O O O @ $ $ $ ; : ; $ ; ; ; ; ; 5 1 1 5 >.>.>.>.>.>.>.>.>.>.>.>.>.>.>.>.>.>.>.>.>.>.>.>.>.>.>.>.",
"% % ^ / ^ _ _ > > . .     . . . O O $ O + $ @ ; ; ; ; ; ; ; ; = 5 6 1 >.>.>.>.>.>.>.>.>.>.>.>.>.>.>.>.>.>.>.>.>.>.>.>.>.>.>.>.>.",
"$ $ R R W ( _ - > .   .     . . o X O # # $ $ % ; ; ; ; ; ; O # $ $ >.>.>.>.>.>.>.>.>.>.>.>.>.>.>.>.>.>.>.>.>.>.>.>.>.>.>.>.>.>.",
"$ $ W W W ^ ^ 2 >       .   . . o o O # O $ $ % $ ; ; ; ; $ # & $ >.>.>.>.>.>.>.>.>.>.>.>.>.>.>.>.>.>.>.>.>.>.>.>.>.>.>.>.>.>.>.",
", , R R R W W - >   .   .   .   . . X o o O + < < 6 6 6 6 6 6 9 >.>.>.>.>.>.>.>.>.>.>.>.>.>.>.>.>.>.>.>.>.>.>.>.>.>.>.>.>.>.>.>.",
", , R R R ^ W - >             . . . X X X $ $ < < 6 6 6 6 6 9 >.>.>.>.>.>.>.>.>.>.>.>.>.>.>.>.>.>.>.>.>.>.>.>.>.>.>.>.>.>.>.>.>.",
", , R R R W W - -   .       .   . . o o X $ + < < 6 6 6 6 6 >.>.>.>.>.>.>.>.>.>.>.>.>.>.>.>.>.>.>.>.>.>.>.>.>.>.>.>.>.>.>.>.>.>.",
"< < G G G W R - -         .     . . . . . . o ; ; 6 7 6 7 >.>.>.>.>.>.>.>.>.>.>.>.>.>.>.>.>.>.>.>.>.>.>.>.>.>.>.>.>.>.>.>.>.>.>.",
"< 5 Z H G R R - -   .               . . . X o : ; 7 7 6 >.>.>.>.>.>.>.>.>.>.>.>.>.>.>.>.>.>.>.>.>.>.>.>.>.>.>.>.>.>.>.>.>.>.>.>.",
"; ; A A A G G - -     . .     .   . . . . . . O @ : : >.>.>.>.>.>.>.>.>.>.>.>.>.>.>.>.>.>.>.>.>.>.>.>.>.>.>.>.>.>.>.>.>.>.>.>.>.",
", , A A B G G - -         .       . . . . X X O @ : >.>.>.>.>.>.>.>.>.>.>.>.>.>.>.>.>.>.>.>.>.>.>.>.>.>.>.>.>.>.>.>.>.>.>.>.>.>.",
"; $ m m N B B * *                         . . o o >.>.>.>.>.>.>.>.>.>.>.>.>.>.>.>.>.>.>.>.>.>.>.>.>.>.>.>.>.>.>.>.>.>.>.>.>.>.>.",
"; @ m N N B B * *                         X . X >.>.>.>.>.>.>.>.>.>.>.>.>.>.>.>.>.>.>.>.>.>.>.>.>.>.>.>.>.>.>.>.>.>.>.>.>.>.>.>.",
"$ @ v v v b b * *                             >.>.>.>.>.>.>.>.>.>.>.>.>.>.>.>.>.>.>.>.>.>.>.>.>.>.>.>.>.>.>.>.>.>.>.>.>.>.>.>.>.",
"@ + v v v b b * *                         . >.>.>.>.>.>.>.>.>.>.>.>.>.>.>.>.>.>.>.>.>.>.>.>.>.>.>.>.>.>.>.>.>.>.>.>.>.>.>.>.>.>.",
"# $ v v v b b & *                         >.>.>.>.>.>.>.>.>.>.>.>.>.>.>.>.>.>.>.>.>.>.>.>.>.>.>.>.>.>.>.>.>.>.>.>.>.>.>.>.>.>.>.",
"O O r r r t t & &                       >.>.>.>.>.>.>.>.>.>.>.>.>.>.>.>.>.>.>.>.>.>.>.>.>.>.>.>.>.>.>.>.>.>.>.>.>.>.>.>.>.>.>.>.",
"O O r r r t t O &                     >.>.>.>.>.>.>.>.>.>.>.>.>.>.>.>.>.>.>.>.>.>.>.>.>.>.>.>.>.>.>.>.>.>.>.>.>.>.>.>.>.>.>.>.>.",
"X X w w w e e & &   X X X . . X X . >.>.>.>.>.>.>.>.>.>.>.>.>.>.>.>.>.>.>.>.>.>.>.>.>.>.>.>.>.>.>.>.>.>.>.>.>.>.>.>.>.>.>.>.>.>.",
"X X w w w e e X &   X X X . X X X >.>.>.>.>.>.>.>.>.>.>.>.>.>.>.>.>.>.>.>.>.>.>.>.>.>.>.>.>.>.>.>.>.>.>.>.>.>.>.>.>.>.>.>.>.>.>.",
">.>.>.>.>.>.>.>.>.>.>.>.>.>.>.>.>.>.>.>.>.>.>.>.>.>.>.>.>.>.>.>.>.>.>.>.>.>.>.>.>.>.>.>.>.>.>.>.>.>.>.>.>.>.>.>.>.>.>.>.>.>.>.>.",
">.>.>.>.>.>.>.>.>.>.>.>.>.>.>.>.>.>.>.>.>.>.>.>.>.>.>.>.>.>.>.>.>.>.>.>.>.>.>.>.>.>.>.>.>.>.>.>.>.>.>.>.>.>.>.>.>.>.>.>.>.>.>.>.",
">.>.>.>.>.>.>.>.>.>.>.>.>.>.>.>.>.>.>.>.>.>.>.>.>.>.>.>.>.>.>.>.>.>.>.>.>.>.>.>.>.>.>.>.>.>.>.>.>.>.>.>.>.>.>.>.>.>.>.>.>.>.>.>.",
">.>.>.>.>.>.>.>.>.>.>.>.>.>.>.>.>.>.>.>.>.>.>.>.>.>.>.>.>.>.>.>.>.>.>.>.>.>.>.>.>.>.>.>.>.>.>.>.>.>.>.>.>.>.>.>.>.>.>.>.>.>.>.>.",
">.>.>.>.>.>.>.>.>.>.>.>.>.>.>.>.>.>.>.>.>.>.>.>.>.>.>.>.>.>.>.>.>.>.>.>.>.>.>.>.>.>.>.>.>.>.>.>.>.>.>.>.>.>.>.>.>.>.>.>.>.>.>.>.",
">.>.>.>.>.>.>.>.>.>.>.>.>.>.>.>.>.>.>.>.>.>.>.>.>.>.>.>.>.>.>.>.>.>.>.>.>.>.>.>.>.>.>.>.>.>.>.>.>.>.>.>.>.>.>.>.>.>.>.>.>.>.>.>.",
">.>.>.>.>.>.>.>.>.>.>.>.>.>.>.>.>.>.>.>.>.>.>.>.>.>.>.>.>.>.>.>.>.>.>.>.>.>.>.>.>.>.>.>.>.>.>.>.>.>.>.>.>.>.>.>.>.>.>.>.>.>.>.>.",
">.>.>.>.>.>.>.>.>.>.>.>.>.>.>.>.>.>.>.>.>.>.>.>.>.>.>.>.>.>.>.>.>.>.>.>.>.>.>.>.>.>.>.>.>.>.>.>.>.>.>.>.>.>.>.>.>.>.>.>.>.>.>.>.",
">.>.>.>.>.>.>.>.>.>.>.>.>.>.>.>.>.>.>.>.>.>.>.>.>.>.>.>.>.>.>.>.>.>.>.>.>.>.>.>.>.>.>.>.>.>.>.>.>.>.>.>.>.>.>.>.>.>.>.>.>.>.>.>.",
">.>.>.>.>.>.>.>.>.>.>.>.>.>.>.>.>.>.>.>.>.>.>.>.>.>.>.>.>.>.>.>.>.>.>.>.>.>.>.>.>.>.>.>.>.>.>.>.>.>.>.>.>.>.>.>.>.>.>.>.>.>.>.>.",
">.>.>.>.>.>.>.>.>.>.>.>.>.>.>.>.>.>.>.>.>.>.>.>.>.>.>.>.>.>.>.>.>.>.>.>.>.>.>.>.>.>.>.>.>.>.>.>.>.>.>.>.>.>.>.>.>.>.>.>.>.>.>.>.",
">.>.>.>.>.>.>.>.>.>.>.>.>.>.>.>.>.>.>.>.>.>.>.>.>.>.>.>.>.>.>.>.>.>.>.>.>.>.>.>.>.>.>.>.>.>.>.>.>.>.>.>.>.>.>.>.>.>.>.>.>.>.>.>.",
">.>.>.>.>.>.>.>.>.>.>.>.>.>.>.>.>.>.>.>.>.>.>.>.>.>.>.>.>.>.>.>.>.>.>.>.>.>.>.>.>.>.>.>.>.>.>.>.>.>.>.>.>.>.>.>.>.>.>.>.>.>.>.>.",
">.>.>.>.>.>.>.>.>.>.>.>.>.>.>.>.>.>.>.>.>.>.>.>.>.>.>.>.>.>.>.>.>.>.>.>.>.>.>.>.>.>.>.>.>.>.>.>.>.>.>.>.>.>.>.>.>.>.>.>.>.>.>.>.",
">.>.>.>.>.>.>.>.>.>.>.>.>.>.>.>.>.>.>.>.>.>.>.>.>.>.>.>.>.>.>.>.>.>.>.>.>.>.>.>.>.>.>.>.>.>.>.>.>.>.>.>.>.>.>.>.>.>.>.>.>.>.>.>.",
">.>.>.>.>.>.>.>.>.>.>.>.>.>.>.>.>.>.>.>.>.>.>.>.>.>.>.>.>.>.>.>.>.>.>.>.>.>.>.>.>.>.>.>.>.>.>.>.>.>.>.>.>.>.>.>.>.>.>.>.>.>.>.>."
};
