/* XPM */
static char *result[] = {
/* columns rows colors chars-per-pixel */
"64 64 203 2 ",
"   c #0D0B05",
".  c #110E07",
"X  c #120F07",
"o  c #161309",
"O  c #171309",
"+  c #181409",
"@  c #18140A",
"#  c #19140A",
"$  c #19150A",
"%  c #19150B",
"&  c #1A150A",
"*  c #1A150B",
"=  c #1A160B",
"-  c #1B160B",
";  c #19150C",
":  c #1A160D",
">  c #1B170D",
",  c #1C160C",
"<  c #1D170C",
"1  c #1F180B",
"2  c #1D190D",
"3  c #1E180C",
"4  c #1E190D",
"5  c #1F190D",
"6  c #1E1A0C",
"7  c #1F1A0C",
"8  c #1C180F",
"9  c #1F1A0E",
"0  c #1E1A10",
"q  c #1F1B10",
"w  c #1F1C16",
"e  c #211A0C",
"r  c #201A0D",
"t  c #201A0E",
"y  c #211B0F",
"u  c #211C10",
"i  c #231D13",
"p  c #231E12",
"a  c #281F10",
"s  c #272113",
"d  c #272213",
"f  c #292010",
"g  c #282113",
"h  c #2F2412",
"j  c #2A2315",
"k  c #2A2415",
"l  c #2B2515",
"z  c #2D2615",
"x  c #2F2615",
"c  c #2C2516",
"v  c #2D2516",
"b  c #2D2716",
"n  c #2D2717",
"m  c #22201A",
"M  c #22201B",
"N  c #26231C",
"B  c #26231D",
"V  c #2F2818",
"C  c #302715",
"Z  c #322714",
"A  c #322814",
"S  c #332814",
"D  c #302817",
"F  c #352A17",
"G  c #372C17",
"H  c #322918",
"J  c #322A19",
"K  c #302A1B",
"L  c #322B1A",
"P  c #332B1A",
"I  c #332B1B",
"U  c #352C18",
"Y  c #342C19",
"T  c #352C1B",
"R  c #352D1B",
"E  c #362D1B",
"W  c #362E1B",
"Q  c #372E1B",
"!  c #302A1C",
"~  c #352D1C",
"^  c #352F1D",
"/  c #372E1C",
"(  c #362F1C",
")  c #372F1C",
"_  c #352E1E",
"`  c #372F1E",
"'  c #3A2F19",
"]  c #382F1B",
"[  c #382F1D",
"{  c #3A301B",
"}  c #39301C",
"|  c #38301D",
" . c #3A301C",
".. c #3A301D",
"X. c #3A321D",
"o. c #3B321D",
"O. c #38301E",
"+. c #39301E",
"@. c #3A311E",
"#. c #3B321E",
"$. c #3D321C",
"%. c #3D331D",
"&. c #3E321C",
"*. c #3C331E",
"=. c #3D341F",
"-. c #3F341E",
";. c #3E341F",
":. c #282620",
">. c #2A2721",
",. c #302D22",
"<. c #342F21",
"1. c #342F23",
"2. c #373327",
"3. c #383222",
"4. c #393322",
"5. c #3E3623",
"6. c #3C3624",
"7. c #3C372C",
"8. c #40341E",
"9. c #413721",
"0. c #413622",
"q. c #413822",
"w. c #423822",
"e. c #423922",
"r. c #433922",
"t. c #443923",
"y. c #463B23",
"u. c #413926",
"i. c #463C25",
"p. c #483820",
"a. c #483E24",
"s. c #493E25",
"d. c #4A3F25",
"f. c #4B3F27",
"g. c #433C2A",
"h. c #493F2A",
"j. c #4A4026",
"k. c #4B4027",
"l. c #4D4126",
"z. c #4C4027",
"x. c #4D4127",
"c. c #4D4227",
"v. c #4D4128",
"b. c #4F4229",
"n. c #504327",
"m. c #564326",
"M. c #534427",
"N. c #524228",
"B. c #504428",
"V. c #504529",
"C. c #524528",
"Z. c #52452B",
"A. c #52472A",
"S. c #52472B",
"D. c #53472B",
"F. c #554529",
"G. c #56462A",
"H. c #54482A",
"J. c #54482B",
"K. c #55482B",
"L. c #55492B",
"P. c #52482D",
"I. c #55492C",
"U. c #564A2D",
"Y. c #574A2D",
"T. c #564A2E",
"R. c #574B2E",
"E. c #564B2F",
"W. c #574B2F",
"Q. c #574C2F",
"!. c #58492D",
"~. c #584A2C",
"^. c #584B2F",
"/. c #594D2C",
"(. c #584C2E",
"). c #594C2F",
"_. c #584D2F",
"`. c #5A4D2E",
"'. c #5B4D30",
"]. c #5F5032",
"[. c #625235",
"{. c #645436",
"}. c #665638",
"|. c #66583B",
" X c #65583E",
".X c #65593E",
"XX c #66593F",
"oX c #675A3E",
"OX c #675B3E",
"+X c #665A3F",
"@X c #6B5A3B",
"#X c #69593D",
"$X c #685A3E",
"%X c #695A3E",
"&X c #6D5D3D",
"*X c #695D41",
"=X c #6A5D41",
"-X c #6A5E40",
";X c #6A5E42",
":X c #6D6043",
">X c #6F6144",
",X c #726548",
"<X c None",
/* pixels */
"<X<X<X<X<X<X<X<X<X<X<X<X<X<X<X<X<X<X<X<X<X<X<X<X<X<X<X<X<X<X<X<X<X<X<X<X<X<X<X<X<X<X<X<X<X<X<X<X<X<X<X<X<X<X<X<X<X<X<X<X<X<X<X%X",
"<X<X<X<X<X<X<X<X<X<X<X<X<X<X<X<X<X<X<X<X<X<X<X<X<X<X<X<X<X<X<X<X<X<X<X<X<X<X<X<X<X<X<X<X<X<X<X<X<X<X<X<X<X<X<X<X<X<X<X<X<X<X%X%X",
"<X<X<X<X<X<X<X<X<X<X<X<X<X<X<X<X<X<X<X<X<X<X<X<X<X<X<X<X<X<X<X<X<X<X<X<X<X<X<X<X<X<X<X<X<X<X<X<X<X<X<X<X<X<X<X<X<X<X<X<X<X%X%Xm.",
"<X<X<X<X<X<X<X<X<X<X<X<X<X<X<X<X<X<X<X<X<X<X<X<X<X<X<X<X<X<X<X<X<X<X<X<X<X<X<X<X<X<X<X<X<X<X<X<X<X<X<X<X<X<X<X<X<X<X<X<X$X%Xm.m.",
"<X<X<X<X<X<X<X<X<X<X<X<X<X<X<X<X<X<X<X<X<X<X<X<X<X<X<X<X<X<X<X<X<X<X<X<X<X<X<X<X<X<X<X<X<X<X<X<X<X<X<X<X<X<X<X<X<X<X<X$X$Xm.m.m.",
"<X<X<X<X<X<X<X<X<X<X<X<X<X<X<X<X<X<X<X<X<X<X<X<X<X<X<X<X<X<X<X<X<X<X<X<X<X<X<X<X<X<X<X<X<X<X<X<X<X<X<X<X<X<X<X<X<X<X#X$XN.m.m.e ",
"<X<X<X<X<X<X<X<X<X<X<X<X<X<X<X<X<X<X<X<X<X<X<X<X<X<X<X<X<X<X<X<X<X<X<X<X<X<X<X<X<X<X<X<X<X<X<X<X<X<X<X<X<X<X<X<X<X#X#XN.N.m.e e ",
"<X<X<X<X<X<X<X<X<X<X<X<X<X<X<X<X<X<X<X<X<X<X<X<X<X<X<X<X<X<X<X<X<X<X<X<X<X<X<X<X<X<X<X<X<X<X<X<X<X<X<X<X<X<X<X<XXX#Xp.N.N.e e 3 ",
"<X<X<X<X<X<X<X<X<X<X<X<X<X<X<X<X<X<X<X<X<X<X<X<X<X<X<X<X<X<X<X<X<X<X<X<X<X<X<X<X<X<X<X<X<X<X<X<X<X<X<X<X<X<X<XXXXXp.p.N.a e 3 3 ",
"<X<X<X<X<X<X<X<X<X<X<X<X<X<X<X<X<X<X<X<X<X<X<X<X<X<X<X<X<X<X<X<X<X<X<X<X<X<X<X<X<X<X<X<X<X<X<X<X<X<X<X<X<X<X XXX[ p.p.a a 3 3 , ",
"<X<X<X<X<X<X<X<X<X<X<X<X<X<X<X<X<X<X<X<X<X<X<X<X<X<X<X<X<X<X<X<X<X<X<X<X<X<X<X<X<X<X<X<X<X<X<X<X<X<X<X<X<X X X[ [ p.f a t 3 , , ",
"<X<X<X<X<X<X<X<X<X<X<X<X<X<X<X<X<X<X<X<X<X<X<X<X<X<X<X<X<X<X<X<X<X<X<X<X<X<X<X<X<X<X<X<X<X<X<X<X<X<X<X<X X XO.[ [ f f t t , , } ",
"<X<X<X<X<X<X<X<X<X<X<X<X<X<X<X<X<X<X<X<X<X<X<X<X<X<X<X<X<X<X<X<X<X<X<X<X<X<X<X<X<X<X<X<X<X<X<X<X<X<X<X.X XO.O.[ y f r t 5 , } } ",
"<X<X<X<X<X<X<X<X<X<X<X<X<X<X<X<X<X<X<X<X<X<X<X<X<X<X<X<X<X<X<X<X<X<X<X<X<X<X<X<X<X<X<X<X<X<X<X<X<X<X.X.XO.O.O.y y r r 5 5 } } } ",
"<X<X<X<X<X<X<X<X<X<X<X<X<X<X<X<X<X<X<X<X<X<X<X<X<X<X<X<X<X<X<X<X<X<X<X<X<X<X<X<X<X<X<X<X<X<X<X<X<XoX.X9.O.O.j y - r < 5  .} } 8.",
"<X<X<X<X<X<X<X<X<X<X<X<X<X<X<X<X<X<X<X<X<X<X<X<X<X<X<X<X<X<X<X<X<X<X<X<X<X<X<X<X<X<X<X<X<X<X<X<XoXoX9.9.O.j j - - < <  . .} 8.8.",
"<X<X<X<X<X<X<X<X<X<X<X<X<X<X<X<X<X<X<X<X<X<X<X<X<X<X<X<X<X<X<X<X<X<X<X<X<X<X<X<X<X<X<X<X<X<X<XOXoXi.9.9.j j $ - 9 < -. . .8.8.=.",
"<X<X<X<X<X<X<X<X<X<X<X<X<X<X<X<X<X<X<X<X<X<X<X<X<X<X<X<X<X<X<X<X<X<X<X<X<X<X<X<X<X<X<X<X<X<XOXOXi.i.9.k j $ $ 9 9 -.-. .*.8.=.=.",
"<X<X<X<X<X<X<X<X<X<X<X<X<X<X<X<X<X<X<X<X<X<X<X<X<X<X<X<X<X<X<X<X<X<X<X<X<X<X<X<X<X<X<X<X<XOXOXq.i.i.k k $ $ 9 9 { -.-.*.*.=.=.#.",
"<X<X<X<X<X<X<X<X<X<X<X<X<X<X<X<X<X<X<X<X<X<X<X<X<X<X<X<X<X<X<X<X<X<X<X<X<X<X<X<X<X<X<X<Xh.OXq.q.i.l k = $ 9 9 { { -./.*.@.=.#.#.",
"<X<X<X<X<X<X<X<X<X<X<X<X<X<X<X<X<X<X<X<X<X<X<X<X<X<X<X<X<X<X<X<X<X<X<X<X<X<X<X<X<X<X<Xh.h.q.q.q.l l = = 9 9 W { { /./.@.@.#.#.#.",
"<X<X<X<X<X<X<X<X<X<X<X<X<X<X<X<X<X<X<X<X<X<X<X<X<X<X<X<X<X<X<X<X<X<X<X<X<X<X<X<X<X<Xu.h.e.q.q.D l * = 4 9 W W { H./.l.@.X.#.#.| ",
"<X<X<X<X<X<X<X<X<X<X<X<X<X<X<X<X<X<X<X<X<X<X<X<X<X<X<X<X<X<X<X<X<X<X<X<X<X<X<X<X<Xu.u.e.e.q.D D * * 4 4 W W W H.H.l.l.X.X.#.| | ",
"<X<X<X<X<X<X<X<X<X<X<X<X<X<X<X<X<X<X<X<X<X<X<X<X<X<X<X<X<X<X<X<X<X<X<X<X<X<X<X<XF.u.o.e.e.D D $ * $ 4 ( W W ~.H.d.l.t.X.X.| | +.",
"<X<X<X<X<X<X<X<X<X<X<X<X<X<X<X<X<X<X<X<X<X<X<X<X<X<X<X<X<X<X<X<X<X<X<X<X<X<X<XF.F.o.o.e.c D $ $ $ $ ( ( W ~.~.d.d.t.t.X.] | +.+.",
"<X<X<X<X<X<X<X<X<X<X<X<X<X<X<X<X<X<X<X<X<X<X<X<X<X<X<X<X<X<X<X<X<X<X<X<X<X<XF.F.z.o.o.c c $ $ O $ ) ( ( ~.~.`.d.e.t.t.] ] +.+.H ",
"<X<X<X<X<X<X<X<X<X<X<X<X<X<X<X<X<X<X<X<X<X<X<X<X<X<X<X<X<X<X<X<X<X<X<X<X<XF.G.z.z.o.d c @ $ O O ) ) ( M.~.`.`.e.e.t...] %.+.H H ",
"<X<X<X<X<X<X<X<X<X<X<X<X<X<X<X<X<X<X<X<X<X<X<X<X<X<X<X<X<X<X<X<X<X<X<X<X!.F.v.z.z.d d @ @ O O I ) ) M.M.`.`.C.e.e.....%.%.H H 8 ",
"<X<X<X<X<X<X<X<X<X<X<X<X<X<X<X<X<X<X<X<X<X<X<X<X<X<X<X<X<X<X<X<X<X<X<X[.F.z.z.z.x d = @ + O I I ) Y.M.j.`.C.C.e.r...;.%.G H 8 8 ",
"<X<X<X<X<X<X<X<X<X<X<X<X<X<X<X<X<X<X<X<X<X<X<X<X<X<X<X<X<X<X<X<X<X<X}.{.z.z.x.P x = = + + I I I Y.Y.j.j.C.C.C.r.r.;.;.G G 8 8 8 ",
"<X<X<X<X<X<X<X<X<X<X<X<X<X<X<X<X<X<X<X<X<X<X<X<X<X<X<X<X<X<X<X<X<X&X].v.z.z.T P 2 = O + V I I P.(.S.j.w.C.C.V.r.y.;.F G p 8 8 B ",
"<X<X<X<X<X<X<X<X<X<X<X<X<X<X<X<X<X<X<X<X<X<X<X<X<X<X<X<X<X<X<X<X:X@XZ.z.z.T P 2 2 O O V V I P.(.R.S.w.w.C.V.V.y.y.F F p p 8 B B ",
"<X<X<X<X<X<X<X<X<X<X<X<X<X<X<X<X<X<X<X<X<X<X<X<X<X<X<X<X<X<X<X;X|.b.v.z.R P 2 2 $ O V V V (.(.(.S.c.w.w.V.V.B.y.U F q p p B B N ",
"<X<X<X<X<X<X<X<X<X<X<X<X<X<X<X<X<X<X<X<X<X<X<X<X<X<X<X<X<X<X*X;X^.b.z.Q P 2 2 * & V V V (.(.(.A.c.c.w.k.V.B.B.U U q q p M B N N ",
"<X<X<X<X<X<X<X<X<X<X<X<X<X<X<X<X<X<X<X<X<X<X<X<X<X<X<X<X<X*X*X^.^.b.Q P 2 2 $ @ V V V (.(.(.A.Y.c.c.k.k.B.B.' U u q q M M N N ! ",
"<X<X<X<X<X<X<X<X<X<X<X<X<X<X<X<X<X<X<X<X<X<X<X<X<X<X<X<X*X*X^.^.).E P 2 2 $ @ V V V (.(.(.A.Y.Y.c.n.k.c.B.' ' u u q m M ,.N ! ! ",
"<X<X<X<X<X<X<X<X<X<X<X<X<X<X<X<X<X<X<X<X<X<X<X<X<X<X<X-X*X'.^.)./ P 2 2 @ @ L V V (.(.(.D.Y.Y.Y.n.n.c.c.' ' > u u m m ,.,.! ! ! ",
"<X<X<X<X<X<X<X<X<X<X<X<X<X<X<X<X<X<X<X<X<X<X<X<X<X<X*X*X^.^.^.P P 2 2 @ @ ~ v V (.(.(.D.D.Y.Y.I.n.a.c.$.' > > u :.m 1.,.<.! ! b ",
"<X<X<X<X<X<X<X<X<X<X<X<X<X<X<X<X<X<X<X<X<X<X<X<X<X*X*X^.^.).P P 2 2 @ @ @.~ V (.(.(.D.D.D.Y.I.I.a.a.$.$.> > > :.:.1.1.<.<.! b b ",
"<X<X<X<X<X<X<X<X<X<X<X<X<X<X<X<X<X<X<X<X<X<X<X<X+X*Xf.^.^.P P 2 2 @ $ ~ ~ ~ (.(.(.D.D.D.D.J.I.s.a.&.$.; > > >.:.g.1.4.<.<.b b : ",
"<X<X<X<X<X<X<X<X<X<X<X<X<X<X<X<X<X<X<X<X<X<X<X+X+Xf.f.^.C P 2 4 @ & ~ ~ ~ (.(.U.D.D.D.D.D.I.s.s.&.&.; ; > >.>.g.g.4.4.<.^ b : : ",
"<X<X<X<X<X<X<X<X<X<X<X<X<X<X<X<X<X<X<X<X<X<X=X+Xw.f.f.h J 2 4 @ & ~ ~ ~ E.(.(.D.D.D.D.D.D.s.s.G &.% ; ; >.>.7.g.5.4.4.^ ^ : : X ",
"<X<X<X<X<X<X<X<X<X<X<X<X<X<X<X<X<X<X<X<X<X=X=Xw.w.f.P C 2 2 @ # ~ ~ ~ W.E.D.D.D.D.D.D.D.D.s.G G % % ; w >.7.7.5.5.4._ ^ g : X X ",
"<X<X<X<X<X<X<X<X<X<X<X<X<X<X<X<X<X<X<X<X=X=Xw.w.w.P P 6 2 # @ ~ ~ ~ Q.E.D.D.I.D.D.D.D.D.D.G G @ % % w w 7.7.6.5.5._ _ g g X X X ",
"<X<X<X<X<X<X<X<X<X<X<X<X<X<X<X<X<X<X<X>X=Xw.w.w.z P 2 7 @ # ~ ~ ~ _.E.D.D.(.L.D.D.D.D.D.A G @ @ % i w 2.7.6.6.5.` _ n g o X X X ",
"<X<X<X<X<X<X<X<X<X<X<X<X<X<X<X<X<X<X>X>Xw.w.w.z z 2 2 # @ ~ ~ ~ _.E.D.D.(.(.B.D.D.D.D.S Z @ @ @ i i 2.2.6.6.6.` ` n n o o X X X ",
"<X<X<X<X<X<X<X<X<X<X<X<X<X<X<X<X<X,X>X0.w.w.s z 4 2 @ @ ~ ~ ~ E.E.D.D.(.(.T.K.D.D.D.S S $ @ @ K i 0 2.6.6.6.3.` Y n 1 o . X X   ",
"<X<X<X<X<X<X<X<X<X<X<X<X<X<X<X<X,X,X0.0.w.s s 4 4 @ @ ~ ~ ~ E.E.D.D.(.(.T.T.M.D.D.S S $ $ @ K K 0 0 6.6.6.3.3.Y Y 1 1 . . X     ",
"<X<X<X<X<X<X<X<X<X<X<X<X<X<X<X<X<X<X<X<X<X<X<X<X<X<X<X<X<X<X<X<X<X<X<X<X<X<X<X<X<X<X<X<X<X<X<X<X<X<X<X<X<X<X<X<X<X<X<X<X<X<X<X<X",
"<X<X<X<X<X<X<X<X<X<X<X<X<X<X<X<X<X<X<X<X<X<X<X<X<X<X<X<X<X<X<X<X<X<X<X<X<X<X<X<X<X<X<X<X<X<X<X<X<X<X<X<X<X<X<X<X<X<X<X<X<X<X<X<X",
"<X<X<X<X<X<X<X<X<X<X<X<X<X<X<X<X<X<X<X<X<X<X<X<X<X<X<X<X<X<X<X<X<X<X<X<X<X<X<X<X<X<X<X<X<X<X<X<X<X<X<X<X<X<X<X<X<X<X<X<X<X<X<X<X",
"<X<X<X<X<X<X<X<X<X<X<X<X<X<X<X<X<X<X<X<X<X<X<X<X<X<X<X<X<X<X<X<X<X<X<X<X<X<X<X<X<X<X<X<X<X<X<X<X<X<X<X<X<X<X<X<X<X<X<X<X<X<X<X<X",
"<X<X<X<X<X<X<X<X<X<X<X<X<X<X<X<X<X<X<X<X<X<X<X<X<X<X<X<X<X<X<X<X<X<X<X<X<X<X<X<X<X<X<X<X<X<X<X<X<X<X<X<X<X<X<X<X<X<X<X<X<X<X<X<X",
"<X<X<X<X<X<X<X<X<X<X<X<X<X<X<X<X<X<X<X<X<X<X<X<X<X<X<X<X<X<X<X<X<X<X<X<X<X<X<X<X<X<X<X<X<X<X<X<X<X<X<X<X<X<X<X<X<X<X<X<X<X<X<X<X",
"<X<X<X<X<X<X<X<X<X<X<X<X<X<X<X<X<X<X<X<X<X<X<X<X<X<X<X<X<X<X<X<X<X<X<X<X<X<X<X<X<X<X<X<X<X<X<X<X<X<X<X<X<X<X<X<X<X<X<X<X<X<X<X<X",
"<X<X<X<X<X<X<X<X<X<X<X<X<X<X<X<X<X<X<X<X<X<X<X<X<X<X<X<X<X<X<X<X<X<X<X<X<X<X<X<X<X<X<X<X<X<X<X<X<X<X<X<X<X<X<X<X<X<X<X<X<X<X<X<X",
"<X<X<X<X<X<X<X<X<X<X<X<X<X<X<X<X<X<X<X<X<X<X<X<X<X<X<X<X<X<X<X<X<X<X<X<X<X<X<X<X<X<X<X<X<X<X<X<X<X<X<X<X<X<X<X<X<X<X<X<X<X<X<X<X",
"<X<X<X<X<X<X<X<X<X<X<X<X<X<X<X<X<X<X<X<X<X<X<X<X<X<X<X<X<X<X<X<X<X<X<X<X<X<X<X<X<X<X<X<X<X<X<X<X<X<X<X<X<X<X<X<X<X<X<X<X<X<X<X<X",
"<X<X<X<X<X<X<X<X<X<X<X<X<X<X<X<X<X<X<X<X<X<X<X<X<X<X<X<X<X<X<X<X<X<X<X<X<X<X<X<X<X<X<X<X<X<X<X<X<X<X<X<X<X<X<X<X<X<X<X<X<X<X<X<X",
"<X<X<X<X<X<X<X<X<X<X<X<X<X<X<X<X<X<X<X<X<X<X<X<X<X<X<X<X<X<X<X<X<X<X<X<X<X<X<X<X<X<X<X<X<X<X<X<X<X<X<X<X<X<X<X<X<X<X<X<X<X<X<X<X",
"<X<X<X<X<X<X<X<X<X<X<X<X<X<X<X<X<X<X<X<X<X<X<X<X<X<X<X<X<X<X<X<X<X<X<X<X<X<X<X<X<X<X<X<X<X<X<X<X<X<X<X<X<X<X<X<X<X<X<X<X<X<X<X<X",
"<X<X<X<X<X<X<X<X<X<X<X<X<X<X<X<X<X<X<X<X<X<X<X<X<X<X<X<X<X<X<X<X<X<X<X<X<X<X<X<X<X<X<X<X<X<X<X<X<X<X<X<X<X<X<X<X<X<X<X<X<X<X<X<X",
"<X<X<X<X<X<X<X<X<X<X<X<X<X<X<X<X<X<X<X<X<X<X<X<X<X<X<X<X<X<X<X<X<X<X<X<X<X<X<X<X<X<X<X<X<X<X<X<X<X<X<X<X<X<X<X<X<X<X<X<X<X<X<X<X",
"<X<X<X<X<X<X<X<X<X<X<X<X<X<X<X<X<X<X<X<X<X<X<X<X<X<X<X<X<X<X<X<X<X<X<X<X<X<X<X<X<X<X<X<X<X<X<X<X<X<X<X<X<X<X<X<X<X<X<X<X<X<X<X<X"
};
