/* XPM */
static char *_73cd222829d443edee3d724442c6e65ELw7UMQ5ke23LyUX[] = {
/* columns rows colors chars-per-pixel */
"64 64 132 2 ",
"   c None",
".  c #070354",
"X  c #070355",
"o  c #080455",
"O  c #080556",
"+  c #090556",
"@  c #090557",
"#  c #090657",
"$  c #0A0657",
"%  c #0B0758",
"&  c #0C0859",
"*  c #0D095A",
"=  c #0D095B",
"-  c #0E0B5C",
";  c #0F0B5C",
":  c #100C5D",
">  c #100C5E",
",  c #110E5F",
"<  c #120E5F",
"1  c #14105B",
"2  c #130F61",
"3  c #131061",
"4  c #151162",
"5  c #151163",
"6  c #161364",
"7  c #171364",
"8  c #181566",
"9  c #191566",
"0  c #1A1768",
"q  c #1C196A",
"w  c #1E1A6C",
"e  c #1E1B6C",
"r  c #201D6E",
"t  c #221E70",
"y  c #221F70",
"u  c #242072",
"i  c #242172",
"p  c #262374",
"a  c #282576",
"s  c #282577",
"d  c #2A2778",
"f  c #2A2779",
"g  c #2C297B",
"h  c #2D2A7B",
"j  c #2E2B7D",
"k  c #2F2C7D",
"l  c #302E7F",
"z  c #312E7F",
"x  c #333081",
"c  c #333082",
"v  c #353283",
"b  c #353284",
"n  c #373486",
"m  c #393688",
"M  c #393788",
"N  c #3B388A",
"B  c #3B398A",
"V  c #3D3A8C",
"C  c #3D3B8C",
"Z  c #3F3C8E",
"A  c #3F3D8E",
"S  c #3F3D8F",
"D  c #413E90",
"F  c #413F90",
"G  c #413F91",
"H  c #434092",
"J  c #434192",
"K  c #434193",
"L  c #454294",
"P  c #454394",
"I  c #454395",
"U  c #474496",
"Y  c #474596",
"T  c #494698",
"R  c #4A489A",
"E  c #4B489A",
"W  c #4C4A9B",
"Q  c #4C4A9C",
"!  c #4E4B9D",
"~  c #4E4C9D",
"^  c #4F4D9F",
"/  c #514EA0",
"(  c #514FA0",
")  c #514FA1",
"_  c #5250A2",
"`  c #5351A3",
"'  c #5451A3",
"]  c #5452A3",
"[  c #5553A4",
"{  c #5553A5",
"}  c #5654A6",
"|  c #5755A7",
" . c #5856A8",
".. c #5957A9",
"X. c #5A58AA",
"o. c #9795B0",
"O. c #9795B1",
"+. c #9895B1",
"@. c #9896B1",
"#. c #9996B1",
"$. c #9896B2",
"%. c #9996B2",
"&. c #9997B2",
"*. c #9997B3",
"=. c #9A97B3",
"-. c #9A98B3",
";. c #9A98B4",
":. c #9B98B4",
">. c #9B99B4",
",. c #9B99B5",
"<. c #9C99B5",
"1. c #9C9AB5",
"2. c #9C9AB6",
"3. c #9D9AB6",
"4. c #9D9BB6",
"5. c #9D9BB7",
"6. c #9E9BB7",
"7. c #9E9CB8",
"8. c #9F9DB8",
"9. c #9F9DB9",
"0. c #A09DB9",
"q. c #A09EB9",
"w. c #A09EBA",
"e. c #A19EBA",
"r. c #A19FBB",
"t. c #A29FBB",
"y. c #A2A0BB",
"u. c #A2A0BC",
"i. c #A3A0BC",
"p. c #A3A1BC",
"a. c #A3A1BD",
"s. c #C6C5D2",
/* pixels */
"                                                                                                                                ",
"                                                                                                                                ",
"                                                                                                                                ",
"                                                                                                                                ",
"                                                                                                                                ",
"  s.i.i.i.i.i.i.a.i.i.i.i.i.a.a.a.a.a.a.a.a.a.a.a.a.a.a.a.a.a.a.a.a.a.a.a.a.a.a.a.a.a.a.a.a.a.a.a.a.a.a.a.a.a.a.a.a.a.a.a.a.a.a.",
"  i.X.X.X.X.X.X.X.X.X.X.X.X.X.X.X.X.X.X.X.X.X.X.X.X.X.X.X.X.X.X.X.X.X.X.X.X.X.X.X.X.X.X.X.X.....X.X.X.X.X.X.X.X.X.X.X.X.X.X.X.X.",
"  i.X...X.X.X...X.X.......X.X.X.................................................................................................",
"  t.| ....| ..| .. . . . . . . .| ..| ..| ..| | | ........................} ..............} ....| ....| | ..| ........ . ..... .",
"  a.| | | | | | }  .}  . .} }  .| | | | | | | | | | } | } } } | ..} } } } } } } } } } } } } } } | | } } | | | } }  . .} } } } } ",
"  i.| } } } } } } } } } } } } } } } | | } | | } } } | } [ } } } } } } } } } } } } } } } } } } } } } } } } } } } } } } } } } } } ",
"  t.) } [ } } } { { { { { { { { [ } [ | } ) } } [ [ [ [ [ [ [ } [ } [ [ } [ } } ) } } } } } } } } } } [ } [ [ } } [ [ [ [ [ [ } ",
"  t.` [ [ ) [ [ [ [ [ _ ` ` ` [ ) [ ) ) | ) ) ) ) | ) } ] ] ] ] ) [ ) } ) } ) } { ) { ) { ) { ) ) } ) ) ) } ) } } ) } ) ) [ ) [ ",
"  t.` ) ) ) ) ) ( _ ( _ _ _ _ _ ) ( ) [ ) [ ) ( ) ) ) ) _ _ ( ) ) ) ) ) ) ) ) ) ) ) ) ) ) ) ) ) ) ) } ) ) ) ) ) ) ) ) ) ) ` ) ) ",
"  t.) ) ( ( ( ( ( ( ( ( ( ( ( ( ( ( ( / ) ) ( ( ( ( ) ) ( ( _ ^ ) ) ( ( ) / / / ) / / / ) / / / / / ) / / / / / ) ) / / / ( ) ) ",
"  t.^ ^ ^ ^ ^ ^ ^ ^ ^ ^ ^ ^ ^ ^ / / Q / / / ^ ^ ^ / / / ^ ^ ^ ^ ( ^ ^ ^ / ^ ^ ^ ) / ^ ^ ) / ^ ^ ^ ^ ^ / ^ ^ ^ ^ ^ / ^ ^ ^ ^ ^ / ",
"  t.Q ^ ^ Q ^ ^ ^ ^ Q ^ ^ W Q ^ ^ W Q ! ! ! ! ! ^ ~ ~ ~ W ^ ^ Q ! Q ^ Q Q ^ W ~ ! ! ^ Q ! ! Q ^ Q ^ Q Q Q ! ! ! ! ! Q ! ! ! ! ! ",
"  9.Q Q W Q W W Q Q W Q W W Q Q Q W Q W Q Q Q Q W W R ~ W R Q Q Q Q W Q W W W ~ Q Q Q Q Q Q W W Q Q Q Q W W Q Q W W W Q Q W W W ",
"  w.T Q E E T W R R R R R R W W W E E E W T E E R R R R R R R R W T R R R R R R E T R R W T R R E E Q E W E E E E E T W R R W T ",
"  w.T T T T T T T T T T T T U T U E U E T T T T T T T T T T T T T T T T T T T T T T T T T T R U T T T T T T U T T T T T T T T T ",
"  9.Y Y U U U U Y Y Y Y Y Y Y Y Y Y Y Y U U U U P Y Y Y Y Y Y Y U Y Y Y P Y Y Y U U U U Y I U U U U U U U U U U U T T T U U U U ",
"  9.I I I I Y Y I I I I K Y K Y I P P P I I P Y P P P P P P P P Y I L L P H P P Y I L L L I I L U G I U U G L L G L G L I I L I ",
"  9.K K K H H H K K K K K K H H H H H H H H H H H P J J H H H H H H H H J J J J J J L H L H F L G G I G G L G L L G G L G G G G ",
"  9.G G G H S H G G G G G H F D A G J A J A J J A J A J A J D J J A J J J A J A J D D J F F F F F F F F G G G G D D D G G D G G ",
"  7.A A A A A A A S A A A A A A A A A A D A A A A A A A A A A A C A C A A A A A D V D V D A D V D C D V D V D V D D D m D D D m ",
"  9.V A V V B C C C C C V V V A A B B A V V V V A V C V V V C C C C V V V V V V V V V V V V V V V V V D V V V D D D D m D m m D ",
"  7.V V V V V V V M V V V M M V V V B V M N M V M V V M V M M V V V M V m V V m N N N N M N N N M M V M m M V M n D n D n D m D ",
"  1.M n M M n M M M M M M M M M n n M M M M M M m m m m m m m m n M m m m m m m M M M M M M M M m m m m m m m M n n n m n n n n ",
"  7.n n n n n n b n n n n n n n n n n n n n n n b n n n n n n n m b m m n n n n m b m b v m m m m v m v M m v m n m n m n n n n ",
"  7.b b b b b b b b c n c n b v n c b b b b b b b b v v b v n v v v v v v v b v v v v v v v v v v v v n v v v v n z n z z n z n ",
"  4.c c c c c c c c c c c c c v c c c v c c c c c c c c c c c l x x v z l c c c v z z v v z v z z v z z v z z z z z z n z n z z ",
"  4.z z z z z z l l l l l l l l k l l l z z z z z z z z z z z z z z l l l z z z z z z z z z z z z l l z z z z z z z z z z z z z ",
"  1.k k k l k j k k k k k k k j k k k k k k k k k k k k j j j j j j k g z g k j j j j j j j l g l g l g z g h z g h z g h z g h ",
"  1.g g g g g g g g g g g g g j g g g g g g g g g g g g g g g g g g g g g g g g g g g g g g g g g g g g h h g g g g g g g g g g ",
"  7.f f d g f f f f f f f f f f f f f f f f f f f f f f f f f f s d d d d d s d f f f f s s d d d d d d d d d d g a g a d d g d ",
"  1.f a a p f a f p f a a p a a a a a a a a a a a a a a a a a a s s s s s s s s a a a s s s s s s p s s a a a a a a a a a a a a ",
"  1.p p p p p p p p p p p p p p p p p p p p p p p p p p p p p p p p p p p p p p s p p p p p p p p p a p p p a a y d d y y d a y ",
"  1.u u i i i i u i i i u u i i i i i i i i i i i i i i i i i i i i i i i i i i y y y p u u u u u u t p t t t p y y y y y y y y ",
"  1.u y y y y y y y y y u y y u y y y y y y y y y y y y u y y u r i r i i r r i y y y y y y u y r r y y t t t t y t t t t t y y ",
"  1.r e r r r r r r r r r r e e r r r r r r r r r r r r r r e e r r r r r r r r y e y e y e e e r r r r r r r r t t r r t t t t ",
"  1.q e e e e e e e e e e e w w e e e e e e e e e e e e e e e e r r r q e e e e e e e e e e e e e e e e e e e e r r w w w w w w ",
"  -.q q q q q q q q q q q q q q q q q q q q q q q q q q q q q q 0 0 q 0 q q q q q q q q q q q q q q q q q q q q q q q q q q q q ",
"  1.9 q 9 q q 9 q 0 0 q 0 0 0 0 0 0 0 0 0 0 0 0 q q 0 0 0 q q q 0 0 0 0 q q 0 0 0 q 0 0 q 0 0 q 0 0 0 0 0 0 0 0 q q q q 0 0 9 9 ",
"  -.9 9 7 9 9 9 7 0 7 7 7 0 7 0 8 8 8 8 8 8 8 8 7 9 7 9 7 7 7 7 9 9 9 9 7 9 7 9 7 0 7 7 0 7 7 7 0 7 0 7 0 7 0 7 7 7 7 7 9 9 9 9 ",
"  *.7 7 7 7 7 7 7 7 7 7 7 7 7 7 7 7 7 7 7 7 7 7 7 7 7 7 7 7 7 7 7 7 7 7 7 7 7 7 7 7 7 7 7 7 7 7 6 7 6 6 7 7 7 7 5 7 7 7 6 9 6 6 ",
"  $.7 3 7 5 5 5 7 3 5 5 7 4 4 4 4 4 3 3 3 3 3 7 4 4 4 4 4 4 4 4 4 4 4 4 4 4 4 4 5 3 4 3 4 4 4 3 3 5 5 3 4 3 3 5 3 7 3 2 2 2 7 2 ",
"  *.3 3 3 3 3 3 3 3 3 3 2 3 3 3 3 3 3 3 3 3 3 3 3 3 3 3 3 3 3 3 1 3 3 3 3 3 3 3 3 3 2 2 3 2 2 2 2 3 3 3 2 2 2 2 3 2 2 2 2 2 2 2 ",
"  *.< < < < < 2 < < < < < < < < < 2 2 , 2 , 1 3 < < < < < < 1 : 2 < < < < < < < 2 < < < 2 < < < , , , , , , , , , 2 2 ; 2 > 2 2 ",
"  *.: : : : < : < = < = < : : : < - < : : : : : : : : : : : : : : : : : : : : : : : : : : : : : - < ; < : : : : : : : : : : : : ",
"  *.; ; = : = : : : : = = : = : - - - - : - : = : = : : : - - : - : : : - : - - = : : : : - : - - - ; ; - = - - - - - - - - - - ",
"  O.; & = = = = = = = = = = = = = = & - = = = = = = = = = = - & & & - & & & - = & & & = & & = = = = & = = = = = = = & = - & & = ",
"  *.& % & & & & & & & & & & & & & & & & & & & & & & & & & & & & & & & & & & $ - & & & & & & & = & & & % & & & & & & & & & & & & ",
"  *.& % % % & & $ & $ & & & & % $ & $ & & $ = $ @ & & & & & $ & & & & $ $ $ $ $ & & $ & $ $ & $ % % % % % % % % & & $ & & & & $ ",
"  O.@ @ @ @ @ @ $ $ $ @ @ @ % o $ $ $ $ $ $ @ @ @ @ o o o o $ o o $ $ $ $ $ $ $ $ $ $ o @ @ @ @ @ @ @ @ @ @ @ @ o @ o o o o o o ",
"  O.@ @ @ @ @ @ o o o o o @ o o o O O o @ o o o o o o o o o o o o o o o o o o o o o o o @ . . @ o o o o o o o o o o o o o o o o ",
"  O.. . o o . . o o o o . . o o o . . . . . . o o o o . o o . . . . . . . . . . . . . . . . . o . . . . . . . . . o . . . o o o ",
"  -.1 1 1 1 1 1 1 1 1 1 1 1 1 1 1 1 1 1 1 1 1 1 1 1 1 1 1 1 1 1 1 1 1 1 1 1 1 1 1 1 1 1 1 1 1 1 1 1 1 1 1 1 1 1 1 1 1 1 1 1 1 1 ",
"                                                                                                                                ",
"                                                                                                                                ",
"                                                                                                                                ",
"                                                                                                                                ",
"                                                                                                                                ",
"                                                                                                                                ",
"                                                                                                                                "
};
