/* XPM */
static char *cceeb0de19cc45578e1b1c27aeb7f455069jrRzWpNh4Kpt4[] = {
/* columns rows colors chars-per-pixel */
"64 64 110 2 ",
"   c None",
".  c #070354",
"X  c #080455",
"o  c #090556",
"O  c #0A0657",
"+  c #0A0658",
"@  c #0B0759",
"#  c #0B0859",
"$  c #0C0859",
"%  c #0D095A",
"&  c #0E0A5B",
"*  c #0E0A5C",
"=  c #0F0C5D",
"-  c #130F5A",
";  c #100C5D",
":  c #110D5E",
">  c #110D5F",
",  c #110E5F",
"<  c #14105A",
"1  c #14105B",
"2  c #130F60",
"3  c #141062",
"4  c #141162",
"5  c #151162",
"6  c #161263",
"7  c #161264",
"8  c #161364",
"9  c #181465",
"0  c #181466",
"q  c #191667",
"w  c #1A1667",
"e  c #1A1668",
"r  c #1B1869",
"t  c #1C1869",
"y  c #1D1A6B",
"u  c #1E1A6B",
"i  c #1F1C6D",
"p  c #201C6D",
"a  c #201C6E",
"s  c #211E6F",
"d  c #232071",
"f  c #252273",
"g  c #252274",
"h  c #272475",
"j  c #272476",
"k  c #282476",
"l  c #292678",
"z  c #2A2678",
"x  c #2A2778",
"c  c #2B287A",
"v  c #2C287A",
"b  c #2C297A",
"n  c #2E2A7C",
"m  c #2E2B7C",
"M  c #302D7E",
"N  c #302D7F",
"B  c #322F80",
"V  c #322F81",
"C  c #343183",
"Z  c #343283",
"A  c #363385",
"S  c #363485",
"D  c #373485",
"F  c #383587",
"G  c #383687",
"H  c #393687",
"J  c #3A3789",
"K  c #3A3889",
"L  c #3B3889",
"P  c #3C3A8B",
"I  c #3D3A8B",
"U  c #3D3A8C",
"Y  c #3E3C8D",
"T  c #3F3C8E",
"R  c #403E8F",
"E  c #403E90",
"W  c #413E90",
"Q  c #424092",
"!  c #434092",
"~  c #444294",
"^  c #454294",
"/  c #464495",
"(  c #464496",
")  c #474496",
"_  c #484697",
"`  c #484698",
"'  c #4A4799",
"]  c #4A4899",
"[  c #4A489A",
"{  c #4B499B",
"}  c #4C499B",
"|  c #4D4B9D",
" . c #4F4C9E",
".. c #4F4D9E",
"X. c #4F4D9F",
"o. c #504EA0",
"O. c #524FA1",
"+. c #5250A1",
"@. c #5250A2",
"#. c #5351A3",
"$. c #5452A4",
"%. c #5553A5",
"&. c #5653A5",
"*. c #5654A5",
"=. c #5654A6",
"-. c #5755A7",
";. c #5856A8",
":. c #5957A9",
">. c #5A58AA",
",. c #A3A1BD",
/* pixels */
"                                                                                                                                ",
"                                                                                                                                ",
"                                                                                                                                ",
"                                                                                                                                ",
"                                                                                                                                ",
",.,.,.,.,.,.,.,.,.,.,.,.,.,.,.,.,.,.,.,.,.,.,.,.,.,.,.,.,.,.,.,.,.,.,.,.,.,.,.,.,.,.,.,.,.,.,.,.,.,.,.,.,.,.,.,.,.,.,.,.,.,.,.,.",
">.>.>.>.>.>.>.>.>.>.>.>.>.>.>.>.>.>.>.>.>.>.>.>.>.>.>.>.>.>.>.>.>.>.>.>.>.>.>.>.>.>.>.>.>.>.>.>.>.>.>.>.>.>.>.>.>.>.>.>.>.>.>.>.",
":.:.:.:.:.:.:.:.:.:.:.:.:.:.:.:.:.:.:.:.>.>.:.:.:.:.:.:.:.:.:.:.:.:.:.:.:.:.:.:.:.:.:.:.:.:.:.:.:.:.:.:.:.:.:.:.:.:.:.:.:.:.:.:.",
"-.:.-.-.-.-.-.-.:.-.:.-.:.-.:.-.-.-.-.:.-.:.-.:.-.:.-.-.:.-.:.-.:.-.:.-.-.:.-.:.-.:.-.:.-.:.-.:.-.:.-.:.-.:.-.:.:.-.-.:.-.:.-.:.",
"-.-.-.-.-.-.-.-.-.-.-.-.-.-.-.-.-.-.-.-.-.-.-.-.-.-.-.-.-.-.-.:.-.-.-.-.-.-.-.-.-.-.-.-.-.-.-.-.-.-.-.-.-.-.-.-.-.-.-.:.-.-.-.-.",
"-.-.-.-.-.-.-.-.-.-.$.-.-.-.-.$.*.*.*.*.*.*.*.*.-.-.$.-.$.-.-.$.&.$.$.-.&.&.$.$.&.&.&.&.&.&.&.&.&.&.&.&.&.&.$.$.&.&.&.$.$.-.$.$.",
"#.#.#.%.#.#.#.#.#.$.$.$.#.$.$.$.$.$.$.$.$.$.$.$.$.$.$.$.$.$.$.#.$.$.$.$.$.$.$.$.$.$.$.$.$.$.$.$.$.$.$.$.$.$.$.$.$.$.$.$.$.$.$.$.",
"#.#.#.#.#.#.#.#.#.#.#.#.#.#.#.#.#.#.#.#.$.+.$.$.$.$.$.#.#.#.#.#.$.$.$.O.$.#.$.$.$.$.$.O.$.$.$.O.$.$.$.O.$.$.O.$.O.$.$.$.$.$.$.O.",
"#.#.#.#.#.#.O.#.#.o.#.#.#.O.o.#.+.+.+.+.+.+.+.+.o.+.+.o.O.O.O.O.O.O.O.O.O.O.O.O.O.o.O.O.O.o.O.O.O.O.O.O.O.O.O.O.O.O.o.O.O.O.O.O.",
"X.X...X.X.O...O...o.o.o.o.o.o.o.o.o.o.o.o.o.o.o.o.o.o.o.O.X.X...o.o.o.o.o.o.o.o.o.o.o.o.o.o.o.o.o.o.o.o.o.o.o.o.o.o.o.o.o.o.o.o.",
"X.X.X.X.X.X.X............................... . . . . . .| ...... . . . .|  . . . . . . . . . . . . . . . . . . . . . . . . . . .",
"..| | | | | | | } | | | | | | | | | | | | | | | | | | | | | ....| | | | | ..........| ..| | | | | | | | | | | | | | ....| ..| | ",
"{ { { { | [ } | } ' } } } } | ' | ' { { | ' } | | [ } } } } } } } } } } [ [ [ [ [ [ [ [ { { [ [ } } } [ [ [ [ | [ [ [ [ [ [ [ [ ",
"{ [ [ [ [ [ ' ' ' ' } } ' ' ' ' ' ' ' ' ' ' ' ' ' [ ' ' ' ' [ [ [ _ [ [ ' ' [ _ ' ' [ [ [ [ [ [ ' ' ' ' [ [ [ [ [ [ [ [ [ [ [ [ ",
"` ` ` ` ` ` ) ' ' ' ' } ' ' ` ` ' ` ` ` ` ` ` ' ) ' _ ' _ ' ) ) _ _ _ _ _ _ [ ) ) ) _ _ _ ) ) ` _ _ _ _ _ _ ) ) _ _ ) _ _ _ _ ) ",
") ) ) ) ) _ ~ _ W ' ' ' ' W ' W ) ) ) ) ) ) ) ) ) ) ~ ) ~ ) ~ ) ) ) ) ) ) ) ) ) ) ) ) ) ( ( ( ( ) ) ) ) ( ( ( ( ^ ) ^ ) ) ) ) ^ ",
"^ ^ ^ ) ~ ~ ~ ~ ' ' W W W ' W W ~ ~ ~ ~ ~ ~ ~ ~ ) ) ~ ) ~ ) ~ ) ! ) ) Q ~ ~ ~ ~ ( Q Q ( ~ ~ ~ ~ ~ ~ ~ ~ ~ ~ ~ ~ ~ ~ ~ ~ Q ^ ~ ~ ",
"W W W ~ ~ W W ~ W W W W W ' W W ! ! ! ! ! Q Q Q ~ W W ~ ~ W W W ! Q Q Q ! ! ! Q Q Q Q Q ~ Q Q ~ Q ~ Q Q Q Q Q Q ~ Q Q Q Q Q Q Q ",
"W W W W W W W W W W W W W W R R W W W W W W W W W W W W W W W R W W W R W W W W R Q T Q T Q T T T T T Q T Q T Q R R Q R R R R R ",
"W R R R R R R R R R R J R R R R R U R R T T T T T T T T R U R R R T T T T T T T T T Y Y Y Y T T Y Y T T T T T T Y Y T T Y Y Y Y ",
"R I I I I I F R F R F R I I F R I U U U I I I I I I I I I I I I I I K T P P P P P P P P P P P P P P P P K Y K P P P P P P P P P ",
"H I F F I I I I A R F R F R H R J I J I J J K J I H K I K K K K K K K K K K K K P J J P K P K K K K K K K K K K K K K K K K K K ",
"H I F F F F A F A F F A H H H F H H H A H J J J H H H H K S J S H S J S G G G G K S S S S S S K G G G G G G J S G G S G J S S S ",
"A A F A A A F A A A C A H C A A A A F A A S S S C S A S S S S S S S S A S S S S F A A A A S S S Z S S S A A A A A A A A A A A A ",
"C C V B C A V V C C C C C C C B C C V V C C C C C C C C C C C C C C C C C C C C C C C C C C C C C C C C C C C C C C C C C C C C ",
"B B B V B B B B C C V V V V V V B B B B B B V B C C M C B C B C B B C B B C C B B B B B B B C m C C C V C B B C B B C B B C B B ",
"M M V B V N B B M M M M V V n V M M B B V m V m m M M M m M m M m V M M m M M m m V m V m V C m m m m m m B m M M m m B m m B m ",
"m m m m m m m m m m m m m m m m m m m m m m m m m m m m m m m m m m m m m m m m m m m m m m m m m b m m m m m m m m m m b m m m ",
"b b b b b b b b b b b b b b b b b b b b b b b c b b b b b b b b c c c c c b b b c c b b b b b b b b b b c c c c c c c c b c b x ",
"x x x x x x x x x x x x x x c c c x c k x k c x k b k c k c x x x x x x l x x x k x x x k k c k x k x x x x x x k x x x x k x x ",
"k k k k k k k j k k k k j j k k j j j j k k k k j k j j j k k k j j j j j j j j j j j j k j j j j j j j j j f j j j f j j j j j ",
"d j d j f f f j d j d j h d k d f f j d f f f f d j d f f f f f d j d j g j j d f f f f f d j d d j f f f f f f f f f f d j d j ",
"d d d d d d d d d d d d d d d d d d d d d s d d d d d d d d d d d d d d s s d s d d d d d d d d d s d d d d d d d d d d d d d s ",
"d a a d s s s s s a a d a a a p s s d a s s s s s s s s a a a a a s s s s s s s s s s s s s a d a a s s s s s s s s a s d a a s ",
"i a a i a a p p a a a i p p p p a a a i a i i i i i a a p p p p i a i i i i i a i i i i i a i i a a a a i i i i i i i i i i i a ",
"y y y y p y y p y y y y p y y p y y y y y p y y y y y y p y y y y y y y y y y y y y y y y y y y y y y y y y y y y y y y y y y y ",
"t y t t t t t t r r y t t t t t t t y w t t t t y e t t t t t t y r w y y e t w y w r r r r r r r r r r r r r e r r r r r r r r ",
"w w e e 0 t 0 t w w q r w w w w q w w w t t t 6 w w e e w t w t w w w w w w e e w w w w w w e e e w w 8 w w w w q q q w w w w w ",
"0 0 0 0 0 0 0 6 w 8 w 8 0 0 0 0 w w 6 w 6 0 0 0 w 7 w 7 6 0 6 0 6 w 6 w w 7 w 7 6 w 6 w 8 w 8 8 w 8 w 8 w 8 0 0 w 8 w 8 8 w 8 8 ",
"7 6 7 0 6 6 7 8 8 8 8 8 8 8 7 7 7 7 7 7 6 6 6 7 7 7 7 7 6 6 0 6 6 6 6 6 6 7 7 7 6 7 7 7 7 7 7 7 6 8 7 6 6 6 6 7 6 6 6 6 8 6 6 6 ",
"6 3 6 2 6 2 6 6 3 3 3 3 3 3 3 3 3 3 7 2 6 2 6 6 7 2 2 7 3 3 6 6 3 6 6 6 6 2 2 6 3 6 3 3 3 3 3 3 3 3 3 3 6 6 6 1 3 2 6 6 3 3 3 3 ",
", 3 2 2 2 2 , , 3 , 3 3 3 1 2 2 3 3 2 2 2 2 , , 2 2 2 , , 6 > > , 2 2 > 2 2 2 2 1 2 2 2 3 1 3 2 , 3 3 1 > > > , 2 2 , 2 2 2 1 3 ",
", , , , , , , , > > = > > > , , , = ; 2 2 ; , , 2 ; , , ; , ; , , , , , , ; , ; > > = 2 = , = 2 = 2 = > , , , , , , ; , , , , = ",
"= , * , ; ; ; ; ; ; * ; ; ; ; ; , & , ; ; ; & ; ; ; ; ; = , & , & , = = & , = = , = = & = = = & = = = = & = = = = = * = = = = = ",
"& & & & * * * * & & & & & & & & & & & & & & & & & & & & & & & & & & & & & & & & & & & & & & & & * & & & & & & & & & & & & & & & ",
"$ & & $ & $ $ & & & $ & $ & & & & & & & & & $ & & & & & & # # & & & & & & & & & & $ & & & # & & & # & & & & # & & & & # # & & & ",
"$ $ $ $ $ $ $ $ @ $ $ $ $ $ & o o & o & o & $ $ o o & o # & o & & o # o & o o & & o # # # # # & # # # # # # @ & o # @ @ @ @ @ @ ",
"o @ @ o @ o @ o o $ o o o o o $ o o @ o @ o o @ o & o o o o o o o o o o o o o # o o o @ o @ o o o o o o # o o o o o o o o o o @ ",
"o o o o o o o o o o o o o o o o o o o o o o o o o o o o o o o o o o o o o o o o o o o o o o o o o o o o o o o o o o o o o o o o ",
"X X X X X X X X o X X X X X X X o . . o o . o . . o . o o o . o X o o o X X X X X X o X o . . o o X X X o o X X o o . o o . o o ",
". . . . . . . . . . . . . . . . . . . . . . . . . . . . o . . . . . . . . . . . . . . . . . . . . . . . . . . . . . . . . . . . ",
"1 1 1 1 1 1 1 1 - < 1 1 1 1 1 1 < 1 1 1 1 1 1 < - - - - - - - - - - - - - - - - - - - - - - - - - - - - - - - - < - - - - - - - ",
"                                                                                                                                ",
"                                                                                                                                ",
"                                                                                                                                ",
"                                                                                                                                ",
"                                                                                                                                ",
"                                                                                                                                ",
"                                                                                                                                "
};
