/* XPM */
static char *_e73a6cbe2304c1ad88556df9aa3c5c5qbbwlR4VRolD3U3z[] = {
/* columns rows colors chars-per-pixel */
"64 64 149 2 ",
"   c None",
".  c #070354",
"X  c #080455",
"o  c #090556",
"O  c #0A0657",
"+  c #0B0758",
"@  c #0B0759",
"#  c #0B0859",
"$  c #0C0859",
"%  c #0D095A",
"&  c #0E0A5B",
"*  c #0F0C5D",
"=  c #130F5A",
"-  c #100C5D",
";  c #110D5E",
":  c #110D5F",
">  c #120F60",
",  c #130F60",
"<  c #141062",
"1  c #141162",
"2  c #161263",
"3  c #161264",
"4  c #181465",
"5  c #181466",
"6  c #191667",
"7  c #1A1667",
"8  c #1B1869",
"9  c #1C1869",
"0  c #1D1A6B",
"q  c #1E1A6B",
"w  c #1F1C6D",
"e  c #211D6F",
"r  c #211E6F",
"t  c #232071",
"y  c #252273",
"u  c #272475",
"i  c #272476",
"p  c #292677",
"a  c #292678",
"s  c #2A2678",
"d  c #2B287A",
"f  c #2C287A",
"g  c #2C297A",
"h  c #2D2A7C",
"j  c #2E2A7C",
"k  c #2E2B7C",
"l  c #302D7E",
"z  c #494577",
"x  c #494578",
"c  c #4A4678",
"v  c #4A4679",
"b  c #4B4779",
"n  c #4B487A",
"m  c #4C4879",
"M  c #4C487A",
"N  c #4C497B",
"B  c #4D497B",
"V  c #4D497C",
"C  c #4E4A7C",
"Z  c #4F4B7D",
"A  c #4F4B7E",
"S  c #504C7E",
"D  c #504C7F",
"F  c #514D7F",
"G  c #322F80",
"H  c #322F81",
"J  c #343183",
"K  c #363385",
"L  c #363485",
"P  c #383587",
"I  c #383687",
"U  c #393687",
"Y  c #3A3789",
"T  c #3A3889",
"R  c #3B3889",
"E  c #3C398B",
"W  c #3C3A8B",
"Q  c #3D3A8B",
"!  c #3E3B8D",
"~  c #3E3C8D",
"^  c #3F3C8E",
"/  c #403E8F",
"(  c #403E90",
")  c #413E90",
"_  c #514E80",
"`  c #524E80",
"'  c #524F81",
"]  c #534F82",
"[  c #545082",
"{  c #545183",
"}  c #555184",
"|  c #555284",
" . c #565285",
".. c #575385",
"X. c #575486",
"o. c #585487",
"O. c #595587",
"+. c #595588",
"@. c #5A5689",
"#. c #5A5789",
"$. c #5B578A",
"%. c #5B588A",
"&. c #5C588B",
"*. c #5C598B",
"=. c #5D598C",
"-. c #5D5A8C",
";. c #5D5A8D",
":. c #5E5B8D",
">. c #5F5B8E",
",. c #5F5C8E",
"<. c #5F5C8F",
"1. c #424091",
"2. c #424092",
"3. c #434092",
"4. c #444293",
"5. c #444294",
"6. c #454294",
"7. c #464495",
"8. c #464496",
"9. c #484597",
"0. c #484697",
"q. c #484698",
"w. c #4A4799",
"e. c #4A4899",
"r. c #4B499B",
"t. c #4C499B",
"y. c #4D4B9C",
"u. c #4D4B9D",
"i. c #4E4C9E",
"p. c #4F4C9E",
"a. c #605C8F",
"s. c #605D8F",
"d. c #504EA0",
"f. c #514FA1",
"g. c #524FA1",
"h. c #5250A1",
"j. c #5351A3",
"k. c #5452A4",
"l. c #5553A5",
"z. c #5653A5",
"x. c #5654A5",
"c. c #5754A6",
"v. c #5755A6",
"b. c #5755A7",
"n. c #5856A8",
"m. c #5957A9",
"M. c #5A58AA",
"N. c #9C99B3",
"B. c #A3A1BD",
/* pixels */
"                                                                                                                                ",
"                                                                                                                                ",
"                                                                                                                                ",
"                                                                                                                                ",
"                                                                                                                                ",
"B.B.B.B.B.B.B.B.B.B.B.B.B.B.B.B.B.B.B.B.B.B.B.B.B.B.B.B.B.B.B.B.B.B.B.B.B.B.B.B.B.B.B.B.B.B.B.B.B.B.B.B.B.B.B.B.B.B.B.B.B.B.N.  ",
"M.M.M.M.M.M.M.M.M.M.M.M.M.M.M.M.M.M.M.M.M.M.m.M.M.M.M.M.M.M.M.M.M.M.M.M.M.M.M.M.M.M.M.M.M.M.M.M.M.M.M.M.M.M.M.M.M.M.M.M.M.M.s.  ",
"m.m.m.m.m.m.m.m.m.m.m.m.m.m.m.m.m.m.m.m.m.m.m.m.m.m.m.m.m.m.m.m.m.m.m.m.m.m.m.m.m.m.m.m.M.M.M.M.m.m.m.m.m.m.m.m.m.m.m.m.m.m.s.  ",
"M.c.b.b.m.c.c.m.m.b.n.n.n.n.n.n.m.m.c.b.m.b.n.n.n.n.n.n.n.n.n.n.m.n.n.n.b.n.n.n.n.n.n.n.b.c.c.n.n.b.n.n.n.n.n.n.m.b.b.n.n.m.>.  ",
"b.b.b.b.b.b.m.c.b.b.b.b.b.b.b.b.c.c.m.b.b.b.b.b.b.b.b.b.b.b.b.b.b.b.b.b.b.b.b.b.b.b.b.b.b.b.c.n.b.b.b.b.b.b.l.n.z.b.b.b.b.z.<.  ",
"b.x.b.b.b.z.z.z.z.z.z.z.z.z.z.z.z.z.c.c.z.z.z.z.z.z.z.z.z.z.z.z.z.z.z.z.z.z.z.z.k.b.z.k.b.z.z.z.l.l.l.l.l.l.k.l.z.z.z.k.k.z.<.  ",
"j.j.j.z.j.j.z.j.z.j.k.k.k.k.k.k.z.j.j.j.z.j.k.k.k.k.k.k.k.k.k.k.k.k.k.k.z.j.z.j.j.k.k.j.j.z.j.j.k.k.k.k.k.k.k.k.z.j.k.k.k.z.>.  ",
"j.j.j.j.j.j.j.j.j.j.j.j.j.j.j.j.j.j.j.j.j.j.j.j.j.j.j.j.j.j.j.j.j.j.j.j.j.j.j.j.j.j.j.j.j.j.j.j.j.j.j.j.k.k.j.k.j.j.j.j.j.j.>.  ",
"j.h.h.h.g.g.g.g.g.g.g.f.f.f.f.f.g.g.g.g.g.g.g.f.f.f.f.f.f.j.f.f.f.f.f.f.g.g.g.g.f.j.f.j.f.f.f.f.f.f.f.f.f.f.d.f.f.f.f.d.f.f.>.  ",
"d.p.p.h.d.d.d.d.d.d.d.d.d.d.f.d.d.d.d.d.d.d.d.d.d.d.f.d.d.d.d.d.f.f.d.f.d.d.d.d.p.f.p.f.d.d.d.d.d.d.d.d.d.d.d.d.d.d.d.d.f.p.>.  ",
"p.p.p.p.p.p.p.p.p.p.p.p.p.p.p.p.p.p.p.p.p.p.p.p.p.p.p.p.p.p.p.p.u.p.u.p.p.p.p.p.p.p.p.p.p.p.p.p.p.p.p.p.y.d.y.p.y.p.p.p.p.u.>.  ",
"p.y.y.p.y.p.t.p.u.u.u.u.u.u.u.u.u.u.u.u.u.u.u.u.i.y.i.y.i.y.r.y.p.r.p.p.p.p.t.p.p.r.p.p.p.y.p.y.y.y.y.y.u.u.t.p.y.y.t.u.t.p.*.  ",
"r.r.t.r.r.r.r.r.r.r.t.t.t.t.t.t.t.t.r.r.r.r.r.r.r.r.r.r.r.r.r.r.r.r.r.t.r.r.r.r.r.r.r.t.r.r.r.r.r.r.r.r.t.t.t.t.r.r.t.t.t.t.*.  ",
"r.r.r.r.r.r.r.0.w.w.w.r.w.w.w.w.w.w.w.w.w.w.w.w.q.q.r.r.r.q.q.r.r.0.r.0.0.r.r.0.r.0.r.0.0.r.0.r.r.r.q.r.t.0.0.0.r.0.w.w.w.w.*.  ",
"8.0.8.0.8.0.0.0.q.q.q.w.0.0.0.0.0.0.0.0.0.0.0.0.q.q.8.8.q.q.q.q.0.8.0.0.8.8.0.0.0.8.0.0.8.8.0.0.8.0.q.8.0.0.0.7.8.0.0.0.0.0.%.  ",
"7.7.8.8.8.8.8.8.8.8.8.8.8.7.7.7.8.8.8.8.8.8.8.8.8.8.8.8.8.8.8.8.8.8.8.8.8.8.8.8.8.8.7.7.7.7.7.7.8.7.7.7.7.7.7.7.7.7.7.7.7.7.$.  ",
") 7.7.8.4.4.4.7.7.7.7.) 5.5.5.7.5.5.5.5.7.2.5.7.5.5.5.5.5.5.5.5.4.4.4.4.4.4.4.4.4.4.4.4.4.4.4.4.7.2.7.2.7.2.7.2.4.4.4.4.4.4.$.  ",
") 7.4.) ) 4.4.) ) ) 7.) ) 5.2.2.2.2.5.2.2.5.) 2.2.2.2.2.2.2.5.2.2.2.2.2.2.2.2.2.2.2.2.1.2.2.2.2.1.1.1.1.1.1.1.1.1.1.2.1.2.2.$.  ",
") ) ) ) ) ) ) ) ) ) ) ) ) ) ) 2.) ) ) ) ^ ) ) ^ 2.^ 2.^ 2.^ ^ ^ 2.^ ) / / / / / / / / / / / / / ~ 1.~ 1.~ 1.~ 1./ / / / / ~ $.  ",
") / / / / ! / / ! / / ! ~ ~ ~ ^ ~ ~ ~ ~ W ~ ~ ~ ~ ~ ~ ~ ~ ~ ~ ~ ~ ~ W ~ ~ ~ ~ ~ ~ ~ ~ ~ ~ ~ ~ ~ ~ ~ ~ ~ ~ ~ ~ ! ~ ~ ~ ~ ~ W O.  ",
"E E E R ~ ~ ! R ! R ! R W W W W W W W W W W W W W W W W W W W W W R W W W W W W ! ! ! U R ~ R ! W W W R R R ! ! R ! R ! ! R O.  ",
"R R R R R U R R R U P U R R R R R R R R T T T R T T R R T T Y Y R R R R Y I R R P P ! P U R R R R R R Y R R Y Y P Y Y Y Y Y X.  ",
"R P P P U P P P U U U P I I I L I I I I I I I I I I I I I I I I T L I I I I I I P P P P P P L P I I P P P L P P P P P P P P X.  ",
"K K K K K K P K L L L L L L L L K K K K K K K K L L K K K K K K K K K K K K K K J P J P K K L L K K K K P L L K K K K K K K X.  ",
"K H K H J J J J J J J J J J J J J J J J J J J J J J J H J J J H J J J J J J J J J J J J J J J J J J J J J J J J J J J J J J X.  ",
"H H H H H H H H J J l J J J J J H H H H H H H H G G G G H G G G l J H H H H H H l J J l H H H l H H H H J l l l l J l J H H [   ",
"l l l l l l l l k l l l k k k k k G k G k G k G G G G h G G G h l k H k h G h G l l l l l l l l l l l k l l l l l l l l l l [   ",
"g l h h k k k k k k k k k k k k l h h h k k k k k h k k k k k k k k k h h h h h h h h h h h h l h h h h h h h h h h h h h h [   ",
"g g g h g g g d g g d d g d d d f g g g g g g d g g d d g d d d d d d d g g f g d d d d g g a g f f a f d d d d d d d d d d ]   ",
"f p a a a a a a a a a a a a d a p p a a a a p p a a p a d p p p a a a a a a a a a a a a a a a a a a a a a p p p p p p p p p ]   ",
"u u u u u p u u u p a u u u u u u u u u u u u u y p u u u u u u u u u u u u u u u u u u p y p y y p y p u u u u u u u u u y ]   ",
"y y y y t u t u y y y y y y y y y y y y y y y y y y y y y y y y y y y y y y y y y y y y y y y y y y y y y y y y y y y y y y ]   ",
"t t t t t t t t t t t t t t t t t t t t t t t t y e e y t t t t t t t t t t t t t t t t t t t t e y t t t t t t t t t t t t F   ",
"e e e e w t t w t e e e r r r r e e e e r r r r r e e r r r r r r r e e e e e e e t e e e e e e e e e e e e e e e e e e e e F   ",
"w w w e w w w w w w w w w w w e w e 0 e w w w w w w w e w w w w w w w w w w w e w w w w w w w w e w w w w w w w w w w w w 0 F   ",
"9 w 0 0 e 9 0 0 w 9 w 9 w 9 w 9 9 w 9 w 9 w 9 w 0 0 0 0 0 0 0 0 0 0 0 0 9 w 9 w 9 w 9 w 0 0 0 0 w 9 w 9 0 0 0 0 9 0 8 0 0 0 _   ",
"9 9 9 9 9 9 9 9 9 9 9 9 9 9 9 9 8 8 8 8 8 8 8 8 8 8 8 8 8 8 8 8 8 8 8 8 8 9 8 8 8 8 8 8 8 8 8 8 8 8 8 8 8 8 8 4 8 9 8 7 8 8 Z   ",
"4 7 7 7 7 7 7 7 8 4 4 4 8 4 4 4 4 8 4 8 8 4 4 8 6 6 6 6 6 6 6 6 6 6 6 6 4 8 8 4 4 4 6 6 7 7 7 4 4 8 4 8 6 6 6 6 7 7 7 6 7 4 Z   ",
"4 7 4 4 4 4 4 4 4 4 4 6 6 6 4 4 4 4 4 4 4 1 6 6 2 6 2 6 6 2 4 4 4 4 4 4 4 4 4 4 4 1 6 6 4 4 4 4 2 6 4 1 6 6 6 6 4 4 6 6 4 3 Z   ",
"3 3 3 3 3 3 3 3 3 3 3 3 3 3 3 3 3 3 3 3 1 4 3 3 2 2 6 1 2 2 3 3 2 2 2 2 2 2 1 1 6 1 3 1 3 1 4 3 1 1 3 1 1 2 2 2 3 1 3 1 3 3 B   ",
"1 1 1 , 1 1 1 1 < < < < 1 1 1 1 1 1 1 1 1 1 1 1 < < < < < < < < 1 1 1 1 1 1 1 1 1 1 , 1 1 1 , 1 1 1 1 1 < < < < 1 < < < 1 1 B   ",
", , , , , , 1 : , , , , , , , , , , , , , , , , , , , , < , , , , , , , , , , , , , , , , , , , ; 1 1 ; , , , < < ; , , , , n   ",
"> , : : , ; , ; , ; ; ; ; ; ; ; ; ; ; ; ; ; ; ; ; ; ; ; ; ; ; ; ; ; ; ; ; ; ; ; ; ; ; ; ; ; ; ; ; ; ; ; ; ; * ; ; ; ; ; ; ; n   ",
"& & : : * ; & ; ; & & * ; * ; & * ; & ; * * & * * * * * * * * * * * * * * * * * * * * & * * & & ; * * * & * * * * * & * * * n   ",
"& & & & & & & & & & & & & & & & & & & & & & & & & & & & & & & & & & & & & & & % & & & & & & & & & & & & & & & & & & & & & & b   ",
"& & $ & & # & # & & & & & & & & & # & # & & # & & # & & & # & # % % % % % % % % & % % % & & & & & & & & & & & & & & & & & & b   ",
"+ + + + # + + + # # + + + # # + # # + + + # # # # # # + # # + + @ @ @ @ @ @ + + @ + + + + + O O O + O O + O O O O + O O O O b   ",
"+ + O O O O O O X + X + + + + + O O O O O O O O + O + O O O + O + o + o + + o + + + o + O O O O O O O O O O O O O O O O O O z   ",
"O . O O O . O O X + X + X X X . O O X O O X O O O X X O O X X O o o o o o o o o o o o o . O O O O O . O O O . O O O . O O O b   ",
". . O . . . O . X X X X X X X X X X X X . . X X . X X X . X X X X X X X o . . o . o . . . O . O . . . O . . . O . . . O . O z   ",
". . . . . . . . . . . . . . . . . . . . . . . X . . . . . . . . . . . . . . . . . . . . . . . . . . . . . . . . . . . . . . z   ",
"= = = = = = = = ; = = = = = = = = = = = = = = = = = = = = = = = ; = = = = = = = = = = = = = = = = = = = = = = = = = = = = = B   ",
"                                                                                                                                ",
"                                                                                                                                ",
"                                                                                                                                ",
"                                                                                                                                ",
"                                                                                                                                ",
"                                                                                                                                ",
"                                                                                                                                "
};
