/* XPM */
static char *_3a041e2bf5d492bf0e0b263cd6addb4hTncG6Yy8ptRexXp[] = {
/* columns rows colors chars-per-pixel */
"64 64 70 1 ",
"  c None",
". c #190604",
"X c #1D0905",
"o c #240D05",
"O c #290F05",
"+ c #2A1105",
"@ c #251108",
"# c #361C07",
"$ c #3A2107",
"% c #3B240C",
"& c #4D320E",
"* c #65471D",
"= c #66481E",
"- c #664B22",
"; c #6A4C22",
": c #60482A",
"> c #6D522D",
", c #71562D",
"< c #74592E",
"1 c #775A30",
"2 c #785D32",
"3 c #785E38",
"4 c #82663B",
"5 c #896E46",
"6 c #937445",
"7 c #987847",
"8 c #90754C",
"9 c #967848",
"0 c #9B7C4B",
"q c #9F804E",
"w c #9F8151",
"e c #A2814E",
"r c #A58553",
"t c #A88755",
"y c #AA8956",
"u c #AC8B59",
"i c #B08E5C",
"p c #B3915D",
"a c #B9955F",
"s c #B59462",
"d c #B99662",
"f c #BC9965",
"g c #B59968",
"h c #BE9C69",
"j c #BFA06C",
"k c #C29D67",
"l c #C19E6A",
"z c #C4A26C",
"x c #C9A56E",
"c c #C4A470",
"v c #CAA671",
"b c #CCAA74",
"n c #CDAD79",
"m c #D2AF76",
"M c #D0AE79",
"N c #D3B27C",
"B c #D8B67D",
"V c #D1B682",
"C c #D7B984",
"Z c #D9BB86",
"A c #D6BC8B",
"S c #DBBF8B",
"D c #DDC18E",
"F c #DAC694",
"G c #DECA98",
"H c #E0C38E",
"J c #E3C793",
"K c #E6CD9A",
"L c #E0D2A2",
"P c #EAE0AE",
/* pixels */
"                                                                ",
"                                                                ",
"                                                                ",
"                                                                ",
"                                                                ",
"                                                                ",
"                                                                ",
"                                                                ",
"                                                                ",
"                                                                ",
"                                                                ",
"                                                                ",
"                                                                ",
"                                                                ",
"                                                                ",
"                                                                ",
"                                                                ",
"                                                                ",
"                                                                ",
"                                                                ",
"                                                                ",
"                                                                ",
"                                                                ",
"                                                                ",
"                                                                ",
"                                                                ",
"                                                                ",
"                                                                ",
"                                                                ",
"                                                                ",
"                                                                ",
"                                                                ",
"                                                                ",
"                                                                ",
"                                                                ",
"                                                                ",
"                                                                ",
"suuuyuupppisuiphjjjcjjnjldddsisiaaaauerrrtuupsffffhhc%..        ",
"susuuuuuusisapikjjjVjjjhhsdsdipiaakkyrrerryuiafffdhhv%..        ",
"yuurrttrrtrr0u0uiuu0ruuyttyr0000774rre00000007907rgs%Ooo        ",
"yuuy00ut0iyy0iiiuuutttut0i0i0000777rr000000007708wss$Ooo        ",
"uuuyutu0yi0u0u0auuuttttui0i00000779rr0000000qq0700gg%+oo        ",
"0t0r0y0yy00y00u0000twtwupiiiiu00ipuurrqq070797668g%%+oXX        ",
"t0t0y0y000y0y00y00r0tuwt0i000iiiiiputeeqe77799666g$$+ooX        ",
"yuyyyuy0y00000u00uuisssgsippuu00000rqrttr00999wwb%ooo#Xo        ",
"yu0yy0ty00u0uu000uuisgdddip0u0u00e0rrrtyr00990wwn%++o#oX        ",
"uuuyyyyyiiusllhdlclllllhddddadsddsddddddpuuuppVV%+OO#5.X        ",
"yuuuyyyy0uusdkkdklllllldkdddpdsdsdsdddddsuuupsVV%+oO#5XX        ",
"aasadfddsspddhhzvkxlkkkdllllkkllkfaaaakzxbbbxF%%OO##>4Xo        ",
"kpsahdhdppadfllzxklkkkklldldkklllafaaazkxmbbxF%$OO$#<4XX        ",
"lllvbbbmMNNNBBBNvmbbvvvlzvcvxxlxzzzkzkkzzkfkD%OOo#>,,<.X        ",
"cclvbbbMMNmNBBBNmbbbvzzvzzzvxkxlkzzzzkkzkakfF%OOo#,,><XX        ",
"lllvbnbbMNNNBBBBmvvbvxxxxxxxxxlkzzkzzkzzkakkF%OOo$,,,2XX        ",
"VbbvvlczzczzxzcxvmbmBmmvxxxxxkkkakakazkkkkZD%++O#3<<>2XX        ",
"NbbvcczzzzzzxcvzvvvmMmmvxxxxkkkkkakkfzzzffDD%+OO#3><><XX        ",
"lxcclllllzzxzxzzkkxxxvvbMMmvxkkkaaaafaafaD%$+O##8-;;;<XX        ",
"zzczzjhzlzzzzzzzlzlzvvvvmvMbchksaadddfffdA%%++##8=;;;<XX        ",
"zxzcvbbclhhhzzjklllzzxxvkkkpkbvMnMnNNVMMG%+++#>>2-==->@@        ",
"vzzvbbbzlhhjjzkzlllllvxvxkdphvbMnNMVMVMMG%+++#>>2-=;-;@O        ",
"hhdhddhdhzzzvzzzlllczlkzvbMMVVNNMbbbvbLL%++O%><<;:-==-@@        ",
"hhdhdhdhjjzcvcvzlllclllzvMbVNNNNMbbvbbLL%++O#>,,;:-===@@        ",
"hdddhddhjjzcvcczlklvllllvVbMNNNNMbbbvbLL%+OO$>,,;:==*=@@        ",
"hhjhgdhdhhhcjzzcvVVVZZZZZSSSSHDDJJJKKP##+O##&2,,-;****@@        ",
"hhhhhhdhhzzzjzzvvVvVZZZZZSSSSHHDDJJKKP%%++##&2,,-;****@@        "
};
