/* XPM */
static char *result[] = {
/* columns rows colors chars-per-pixel */
"64 64 84 1 ",
"  c #190604",
". c #1E0905",
"X c #240D05",
"o c #290F05",
"O c #240F08",
"+ c #2B1105",
"@ c #251108",
"# c #361C07",
"$ c #3A2107",
"% c #3B230C",
"& c #4D320E",
"* c #5C3F19",
"= c #64451B",
"- c #65481E",
"; c #664A21",
": c #6A4C23",
"> c #60482A",
", c #6E522B",
"< c #71552C",
"1 c #74592E",
"2 c #765A30",
"3 c #785D33",
"4 c #785E38",
"5 c #82663B",
"6 c #896E46",
"7 c #937546",
"8 c #987847",
"9 c #90754C",
"0 c #977848",
"q c #9B7C4B",
"w c #9F804E",
"e c #9F8151",
"r c #A2814F",
"t c #A58553",
"y c #A88755",
"u c #AA8956",
"i c #AC8B59",
"p c #B08E5C",
"a c #B3915E",
"s c #B9955F",
"d c #B69562",
"f c #B99662",
"g c #BC9965",
"h c #B59968",
"j c #BE9C69",
"k c #BA9E71",
"l c #BFA06C",
"z c #BFA173",
"x c #C29D67",
"c c #C19F69",
"v c #C4A26C",
"b c #C9A56E",
"n c #C4A472",
"m c #C9A672",
"M c #CCAA74",
"N c #C5A678",
"B c #C6A97A",
"V c #CCAD7A",
"C c #D2AF76",
"Z c #D0AE79",
"A c #D3B27D",
"S c #D8B67D",
"D c #CFB282",
"F c #D3B583",
"G c #D6B986",
"H c #D9BA85",
"J c #D6BC8D",
"K c #DABD8A",
"L c #DEC18D",
"P c #DBC494",
"I c #DECA98",
"U c #E0C38E",
"Y c #E1C692",
"T c #E2C894",
"R c #E5CD9A",
"E c #E5D2A1",
"W c #E9D6A4",
"Q c #E9D9A7",
"! c #E9D7A8",
"~ c #EADDAC",
"^ c #EBDFB0",
"/ c #EBE1AF",
"( c #ECE2B1",
") c None",
/* pixels */
"))))))))))))))))))))))))))))))))))))))))))))))))))))))))))))))))",
"))))))))))))))))))))))))))))))))))))))))))))))))))))))))))))))))",
"))))))))))))))))))))))))))))))))))))))))))))))))))))))))))))))))",
"))))))))))))))))))))))))))))))))))))))))))))))))))))))))))))))))",
"))))))))))))))))))))))))))))))))))))))))))))))))))))))))))))))))",
"))))))))))))))))))))))))))))))))))))))))))))))))))))))))))))))))",
"))))))))))))))))))))))))))))))))))))))))))))))))))))))))))))))))",
"))))))))))))))))))))))))))))))))))))))))))))))))))))))))))))))))",
"))))))))))))))))))))))))))))))))))))))))))))))))))))))))))))))))",
"))))))))))))))))))))))))))))))))))))))))))))))))))))))))))))))))",
"))))))))))))))))))))))))))))))))))))))))))))))))))))))))))))))))",
"))))))))))))))))))))))))))))))))))))))))))))))))))))))))))))))))",
"))))))))))))))))))))))))))))))))))))))))))))))))))))))))))))))))",
"))))))))))))))))))))))))))))))))))))))))))))))))))))))))))))))))",
"))))))))))))))))))))))))))))))))))))))))))))))))))))))))))))))))",
"))))))))))))))))))))))))))))))))))))))))))))))))))))))))))))))))",
"))))))))))))))))))))))))))))))))))))))))))))))))))))))))))))))))",
"))))))))))))))))))))))))))))))))))))))))))))))))))))))))))))))))",
"))))))))))))))))))))))))))))))))))))))))))))))))))))))))))))))))",
"))))))))))))))))))))))))))))))))))))))))))))))))))))))))))))))))",
"))))))))))))))))))))))))))))))))))))))))))))))))))))))))))))))))",
"))))))))))))))))))))))))))))))))))))))))))))))))))))))))))))))))",
"))))))))))))))))))))))))))))))))))))))))))))))))))))))))))))))))",
"))))))))))))))))))))))))))))))))))))))))))))))))))))))))))))))))",
"))))))))))))))))))))))))))))))))))))))))))))))))))))))))))))))))",
"))))))))))))))))))))))))))))))))))))))))))))))))))))))))))))))))",
"))))))))))))))))))))))))))))))))))))))))))))))))))))))))))))))))",
"))))))))))))))))))))))))))))))))))))))))))))))))))))))))))))))))",
"))))))))))))))))))))))))))))))))))))))))))))))))))))))))))))))))",
"))))))))))))))))))))))))))))))))))))))))))))))))))))))))))))))))",
"))))))))))))))))))))))))))))))))))))))))))))))))))))))))))))))))",
"))))))))))))))))))))))))))))))))))))))))))))))))))))))))))))))))",
"))))))))))))))))))))))))))))))))))))))))))))))))))))))))))))))))",
"))))))))))))))))))))))))))))))))))))))))))))))))))))))))))))))))",
"))))))))))))))))))))))))))))))))))))))))))))))))))))))))))))))))",
"))))))))))))))))))))))))))))))))))))))))))))))))))))))))))))))))",
"))))))))))))))))))))))))))))))))))))))))))))))))))))))))))))))))",
"))))))))))))))))))))))))))))))))))))))))))))))))))))))))))))))))",
"))))))))))))))))))))))))))))))))))))))))))))))))))))))))))))))))",
"))))))))))))))))))))))))))))))))))))))))))))))))))))))))))))))))",
"))))))))))))))))))))))))))))))))))))))))))))))))))))))))))))))))",
"))))))))))))))))))))))))))))))))))))))))))))))))))))))))))))))))",
"hdpaiiiiiippaadiuihjjnnznknknjhhdaapaaasssitrttryuaiffffjglnn$  ",
"yyuiiyuttytttyttyuiiiiutyyuyyttttqqq0780ttrrwqqqqqqwqqq8red%%oXX",
"tyuiiyytttttytyyttuuiuutuyuuutyttwq8877qrttwwqqqqqrqq0qqetd$%oXX",
"yytttttqtrrtrrrqrrtrtqqtyqyyyyytttyuiipauuttrwq888888776hh$o+X.X",
"yyyyuyyytrtrrrqttttrtiipaaffffpiiuttrrqqwwrttutwqq88qweV%%oXX#.X",
"yyyiyyyitttrrrtqrrtttiipaajffddiiutrtqtqwwttttewqq880etV%%ooX#X.",
"iiiiiiiuuuuiiiajgjffgljjvvjgjffddddddddfdffgffaiiiapdFF%++X##9  ",
"gfhfahfgggfadafgfjbvvvvvgjggjxxjjccjcxxfffffgvbCCMbbP%%@oX$1,4..",
"jgffddffggfaaafgglvbvvbjjxggfxxxjcxxcxxxffsggcbCMMbvI$$+Xo#,<5..",
"gjcxvmmMMMMAAAASSSCSCmMMmmmbbbbbbnbbccxxxvvxxxxgggLL%X+X##<<<2..",
"KHAZZMmnvvvvvvnbvnnbbCmCASCMbbbbbbxvgsgsxxsxxxxglL%%#@+#441,,3  ",
"LHAZMmmbvvvvvvvnvbnbbmmCCSCbMbbbbxvxxggxgxxxxvgxsL%%+@@#441,,3  ",
"ccnvnvvxjllvvvvbbbvvvvvbbbbCCCCbMnxxsgffffsggggJL%+++##9--:::2.X",
"cnbbcmnZMbbjjjjvgvgvxxxcxvbbbxxasjmmVVVAAAAAAVI%$X++$,,3;;:;;:@@",
"vvvvvmmVMmvvjjjlxxcxccccbcmcmxgfsxMMZZVZFAAFAZR$%+++#,,3;-;;;,XX",
"nvcjfffffjgjvlnbMnnvvcvvcccncmZZZZAADZZVMmmMME%++@%%,11:>>----@@",
"vvxcjffhggglvlnMMnncvcvvvccnnMCCZFZZZZZMmmmMME%@++$$,,1:>>;---@@",
"NvkjjcghgghlllvvccmmVVVFHHHHHHLHKLUULLYTRRR(^$@XX#&&3,<-;;----@@",
"JTJJJDDNNMVFFFHKJGGFHUUYYPLYTRRWWQ~/((((~~Q$$o+$$,:,3<<-==---=XX",
"JJJJFDDDNNVFFFGHHJGGHUKYYYUTTRRWW~~~((((~/Q%$o+$$,,,3<,-==-=-=XX",
"kkNNkNNDMBBBBBAGHLTTRERWWW!~~~//~~/~/~~!((%+++#33<<:3,,-======@O",
"kkkkkNNJJTRWW!~~!^^^^^~~~!~~~~////~~~~~($$+++#<33<,:<,,======*.."
};
