/* XPM */
static char *_266feaee5834698e89f8cb1673efa18ug6bqy7u3qwa0wwC[] = {
/* columns rows colors chars-per-pixel */
"64 64 115 2 ",
"   c None",
".  c #0A0101",
"X  c #140202",
"o  c #1B0403",
"O  c #1F0B04",
"+  c #210704",
"@  c #240B04",
"#  c #280F05",
"$  c #240F08",
"%  c #251005",
"&  c #2B1205",
"*  c #251108",
"=  c #321606",
"-  c #351A07",
";  c #381E07",
":  c #3B2107",
">  c #3E2308",
",  c #412608",
"<  c #442909",
"1  c #4A2E0A",
"2  c #4E310A",
"3  c #51340C",
"4  c #56390F",
"5  c #4F3510",
"6  c #513411",
"7  c #563A13",
"8  c #5B3E16",
"9  c #5C3F19",
"0  c #5D4017",
"q  c #5E4119",
"w  c #644517",
"e  c #63451C",
"r  c #66481E",
"t  c #6E4E1F",
"y  c #5F4829",
"u  c #634721",
"i  c #664A22",
"p  c #6A4D24",
"a  c #644A29",
"s  c #694E2A",
"d  c #6C5026",
"f  c #6D522A",
"g  c #735424",
"h  c #785827",
"j  c #72552B",
"k  c #75592E",
"l  c #7C5B2C",
"z  c #6C5331",
"x  c #735730",
"c  c #755A31",
"v  c #7B5E32",
"b  c #7C6137",
"n  c #7D623A",
"m  c #805F2E",
"M  c #81602E",
"N  c #846332",
"B  c #886736",
"V  c #81663C",
"C  c #8A6938",
"Z  c #866B43",
"A  c #8A6F46",
"S  c #8E7349",
"D  c #91774B",
"F  c #967B4D",
"G  c #9E8357",
"H  c #A08557",
"J  c #AA8F61",
"K  c #B09465",
"L  c #BA9E71",
"P  c #C4A97B",
"I  c #D3B98B",
"U  c #DEC495",
"Y  c #E5CE9E",
"T  c #E1D19E",
"R  c #E1D79F",
"E  c #E1D3A0",
"W  c #E2D3A3",
"Q  c #E2D4A2",
"!  c #E2D4A3",
"~  c #E8D4A4",
"^  c #E3D8A7",
"/  c #E9D7A8",
"(  c #E3DAA9",
")  c #E3DBAB",
"_  c #E3DDA8",
"`  c #E3DCAB",
"'  c #E3DCAC",
"]  c #E3DEAD",
"[  c #EADAAA",
"{  c #EADAAB",
"}  c #EADBAB",
"|  c #EADEAB",
" . c #EADBAC",
".. c #EADDAD",
"X. c #EBDDAD",
"o. c #EADEAD",
"O. c #EBDDAF",
"+. c #EBDEAE",
"@. c #EBDFAF",
"#. c #EBDFB0",
"$. c #E4E0AF",
"%. c #E4E1AF",
"&. c #EBE0AE",
"*. c #E4E1B0",
"=. c #E4E1B2",
"-. c #E5E2B4",
";. c #EBE1B0",
":. c #EBE1B1",
">. c #EBE5B0",
",. c #E5E1B8",
"<. c #E6E3BA",
"1. c #E6E3BD",
"2. c #E6E3C1",
"3. c #E6E4C2",
"4. c #E6E3C4",
/* pixels */
"L L L L L P P I Y I Y ~ [ ~ .. .[ X.&.#.#.X... .[ [ [ ..O...X.:.:.:.X.X. .| | &.: : & & & - x c v j d d x f f r e e r e e 9 + O ",
"] ` ` ` ` ) ) ^ Q ~ T T T Q Q W W ) ,.,.3.4.4.2.1.1.,.-.,.] *.*.-.*.%.*.` R Q > # & $ - - c j x j j p p j d d q w r u 9 9 u o O ",
"m m m m M M M M M M M M M M M M M M M M M N N B C C B m M M m M m M M M b : > * $ # - A A u d d d j p d d d p e q 8 8 q q i $ @ ",
"m m m m M M M m M M M M M M M M M M M M M N N B C C N M M M M m m M M M M > > & % % - A A a d d d j p p d d p e q q 9 q q a @ @ ",
"g l l m m m m l l l m m M m M M M M m l v l l l l l l l l l l m l M M l : % & & - - V c c r d d p p d p g p p q 9 9 8 u u f $ $ ",
"o o o o o o o o o o o o o o o o + o o o o O + o + o o o X o X X X X X X X X X = c c n y i y p r p p p p p p p 9 9 9 a p s f & & ",
"o o o o o o o o X o o o o o o o + + o o o o o O o + o o o o X o X X X X X X X = c c b i i y p i r p p p a r p 8 9 q i a s f # & ",
"= & & = & & & & & & & & # & # & # & # # & # % % # # # # # # # # & & & & X X X , k k k u r i r i p p r i r p i e u u a s s p & & ",
"; ; ; ; ; - ; ; ; ; : : ; : ; : : > : : : : : : ; > > > > ; ; > , < < < X X X 1 f f x q e q r r i p e u u e u s z z x p p p * & ",
"; ; ; : ; ; ; : ; ; : : : : : : > > : : : : : : ; ; ; > > ; > > , < > > . X X 1 f s k r r q r r r s e e u u u s z z x d d a & & ",
"n n F F G J J K G G D S A A Z n V V V V b b b Z D S F K J N 1 6 5 2 < < X X . 1 d d r r r q e e r p e q u s s v y q i i a f O O ",
"n n F F G J J K G G D S A Z Z V V V V V n b b V S S F J J v , 6 5 0 < > X X . 5 d d i q e q e e e p e e u s s n q e u i i f O O ",
"k f c c i p p i i i u 7 7 7 7 i p j d d j d d f c x x v c p 1 j j 0 1 1 . X X 5 p p 0 q e q q e e i v v s s s x y q e r r d % % ",
"f i k k r d p i r u o X . . . i r r d f j p s j x x f v c p 1 m v i 5 5 X X . 1 q q 0 q w r q w e j f s a j f a y a u r r r * * ",
"j u c k i d d a u r o . . . . r i p d j j s p j j j j v v s < m v r 5 5 X X X 1 q q q q 0 r 0 e w j s f a d j p y y i r r r * * ",
"j r j k a i r i q r c b b b c k j i f d j p p a j f x v m p , m v g 2 1 X X X 1 q q q r e q w u u s a a x j j e p i w r r r * * ",
"d q q q y i i i e e e e e e r i r r p p p p p u d d d c c t ; m v g 1 < X X X 1 8 8 w q q w u s s s p s c j f i e e r r r w O $ ",
"p r q q r i r r e e e e e e e i r r p t p p p e p p d c x p ; m v s 1 1 X X X 1 8 9 e q q w a s s p s p b j j r e w r u r w O O ",
"q 0 0 0 q d d i w 9 w w w 8 q e e r i i p r i r p p p t p i - m l g < 1 X X X < 8 8 e 9 e u a s s d j j v f f i w w e w e q * * ",
"q q 0 0 0 r r 0 w w w r 8 8 e e e r r e t r r e i p p r e r = g j j < < X X X < 9 9 e r r s f c x j p p k f f u e r e e e q O O ",
"0 0 0 0 4 i r 0 e w q r 9 9 w e e r u e p i r r i t i e e e # h h g < < X X o < 8 9 e e r d f c c j p d k j d e e e e r u 8 O O ",
"0 0 0 0 0 0 q q e e e r e e w w e e q e e e w r r e r r r e @ p p j , , X o o > 7 7 u u i f f x j k d d j p p e e r e q q e O O ",
"r q e e r w r r r r e e w e e r e e 8 8 e q e e e e r e e r @ p p g , > o o o , q u s Z Z y f d d j p p s p d e 9 9 9 9 q , $ + ",
"w q w r r r r w r e e e e e e r r e 0 0 e e e e e w r r e e # p p d > , o o + , u u s Z A q d d d j p p j p d w 9 9 9 q 9 , @ $ ",
"r w e w w e e 0 9 q 8 8 0 0 0 e r e w 8 8 w r w e e w e e 8 - d d i ; , o + o , a a c f x r d d p p d p p p p e 9 9 q 6 6 ; # @ ",
"& % O O @ @ # # = = & # # # & # # @ @ + & + + @ + + + = & = 1 k c e , , o # # , i a c a i y d r r p d d p p u 9 9 q 3 > , > # = ",
"& # + + @ @ @ # = - & # # # & @ # # @ @ & + @ @ + + + = & = 1 c l i , , o # # , i a b i i y p i t p p p p i p 9 9 q 6 > > , # & ",
"h l g g g g g g h h t t t t t t t t t t t t t g m h h h h g w h j i ; > & & & , s s c q q d i r r p r r p a u e 4 4 = > > , & # ",
"3 3 2 2 2 1 1 < < < < 1 2 1 1 1 1 2 2 3 2 < < < , < < < < < , s p y < < & & & > s i x r r q r r r p e u r r r 6 @ @ o > , > # # ",
"2 3 2 1 2 1 1 < < < < 1 2 2 1 1 1 1 3 3 2 1 1 < < < < < , < , p p a > , & & & > a a x r r q r r r p e e i r e 6 # $ X > > > = # ",
"X o o o o X X X X X X X @ @ @ + + @ + + + @ @ & # # # + + o . j d p : : & & & , z f r r r 0 q r r p q u r 4 0 O X o X , ; ,     ",
"o X o o o X X . X X X X + + @ @ + @ + + + @ @ & # # @ @ @ o X p j d : : & & & , f f r q r 0 r r q d r q r 0 4 O o X X , , ,     ",
"x f k k r i a i i i y 7 7 7 7 u r s a s s i p s z x x c c r 1 j j a , , $ # & , s i q w w e 9 e e i m m 4 $ @ o X X X , >       ",
"j u k k i d d i r u X X . . . r r t f g j p s f f j s v m p < x k p < < # & & 1 q e 8 q q e 9 e q j 9 9 $                       ",
"j q k k i p p i r i o X . . X r r p f f f s p f g j s v v p 1 x k p , , $ & & 1 q q 8 w e e 9 e e j 8 8 $                       ",
"x i k f d u r i u e c v b b v k j r f f j p p t j j x v v p , m m d 1 2 X X X 1 9 9 q e w q e u u 7 @ @                         ",
"p r q q u i i i w e e e e e e r r r p i p p p r s d f k k p > m v j < 1 X X X 1 8 9 e q q w p 4 8 +                             ",
"p q q q e r i i e e e w e e r r p r p p p p p i p s f k k t ; m v d 1 1 X X X < 8 9 q q q w i 8 7 O                             ",
"q 0 q q q p p i 0 e q e 0 9 e e e r r r p i i e p p p p p r - l k g 1 < X X X < 8 8 e q e u 0 % @                               ",
"q 0 0 0 7 p r 8 e w e r 0 9 9 e e r r e t r r e i p p e r r # j h j < < X o X < 0 8 q r r 7 %                                   ",
"q 0 0 0 0 r r 0 w w q r 8 w w e e e u u p i r r p p p e e e # h j h < < X X X < 8 q e r r 4 *                                   ",
"0 q 0 0 0 0 q 0 e w e r e q e w w e e e w e w r u i w e r e # p p j , , X o o , 7 7 u 7 7 @                                     ",
"r q r r w r r q r r e e e e e r e e 8 8 e e e e r w e w e e @ p i g > > o o o , u e 7 @ O                                       ",
"e q w r r r r r r e e e e r w r r e 8 8 e q e w e e e e r r @ t p d > , o O + , e e 7 @ $                                       ",
"e e e w q w r 0 0 0 8 8 0 0 w r r e 0 8 q r w r w w e q 0 0 - d g u ; , o + o , , , $                                           ",
"& # + + % % @ % = = & # # # # # # @ @ @ % + + + @ + @ & = = 1 k k i , , o # # , , >                                             ",
"& # + + + @ @ & = = = # # # & # @ @ @ @ & @ @ @ + + @ = & = 1 k l e , , o # # , > ,                                             ",
"h h h h g g g h h h t d t t t t t t g t t t p g h h h h g g w 4 4 < ; > # & & , < >                                             ",
"h h g h g g g h h h t t t t t t t t t t t t t g h h h g h g w 4 4 < : : & & & , , ,                                             ",
"3 3 2 2 1 1 1 < < < < 1 2 2 1 1 1 1 3 3 3 1 1 < < < < < < < , < , , : : & & & > , ,                                             ",
"X o o o o X X X X X X X + + @ @ + @ + + o @ @ & # # @ @ + X X ; : > : : & & & , , ,                                             ",
"X X o o X X X X . X X X + + # + @ @ + + + @ @ & # # @ @ + o . ; : , : : & & & , , ,                                             ",
"                                                              ; - , , > # & & >                                                 ",
"                                                              ; : , < , * & &                                                   ",
"                                                              > ; , < , & & &                                                   ",
"                                                                                                                                ",
"                                                                                                                                ",
"                                                                                                                                ",
"                                                                                                                                ",
"                                                                                                                                ",
"                                                                                                                                ",
"                                                                                                                                ",
"                                                                                                                                ",
"                                                                                                                                "
};
