/* XPM */
static char *_493c6c182d64f62f7db07d58cb4e8e5G3EIwi6FAfyIxzQM[] = {
/* columns rows colors chars-per-pixel */
"64 64 90 1 ",
"  c None",
". c #0D0202",
"X c #130202",
"o c #1C0403",
"O c #200704",
"+ c #240A04",
"@ c #290F05",
"# c #2C1205",
"$ c #311606",
"% c #351A06",
"& c #381D07",
"* c #341C0B",
"= c #3B2107",
"- c #3F2508",
"; c #3A2110",
": c #412608",
"> c #442A08",
", c #4A2E09",
"< c #4C320C",
"1 c #51340A",
"2 c #55390E",
"3 c #4E3410",
"4 c #513510",
"5 c #553A13",
"6 c #5A3E16",
"7 c #5B3E19",
"8 c #5D4017",
"9 c #5F421A",
"0 c #63451B",
"q c #65481E",
"w c #664A21",
"e c #6A4D24",
"r c #704F23",
"t c #6C5026",
"y c #6D5129",
"u c #745425",
"i c #72562B",
"p c #785728",
"a c #77592B",
"s c #7C5B2B",
"d c #765A30",
"f c #7A5E35",
"g c #7C6034",
"h c #7F633A",
"j c #805F2D",
"k c #81602E",
"l c #826332",
"z c #82663B",
"x c #866A3D",
"c c #8A6B3C",
"v c #876C40",
"b c #8A6E44",
"n c #8D7247",
"m c #8E7449",
"M c #91774B",
"N c #967B4D",
"B c #9E8357",
"V c #A08557",
"C c #958561",
"Z c #988261",
"A c #998865",
"S c #AA8F61",
"D c #B09465",
"F c #BB9F72",
"G c #BEA175",
"H c #C29D6B",
"J c #C4A474",
"K c #C8A675",
"L c #CBA975",
"P c #C3A678",
"I c #C6A878",
"U c #CBAD7A",
"Y c #CFB17E",
"T c #CEB281",
"R c #D3B481",
"E c #D7BA85",
"W c #DBBD8A",
"Q c #DDC18D",
"! c #DEC594",
"~ c #DFC996",
"^ c #DFCE9B",
"/ c #DFD399",
"( c #E1C592",
") c #E0CF9C",
"_ c #E1D49E",
"` c #E1D6A0",
"' c #E2DAA4",
"] c #E3DDAB",
"[ c #E4E1AE",
"{ c #E4E1B0",
/* pixels */
"               **A!UUIUUUUUUUUULKKHHHHHHKKKKHKIIIIJJJFJLJPIIGGGG",
"               **A!UUIUUUUYUUUULKHHHHHHHKLLHHKIIIIJJJJJLIJIIGIGP",
"              ;ZA^~!(WWWWW((!WEEYEEWQQQ(EQYYYRRTTUUUIUGFGGGGGFGG",
"              ;ZN~!!~WW!WW((W!EEEEEQWQ(QQQYYYYTTPUUULIJFGGGGFGFG",
"             *C_`)(~!!!!((~)````____//////////_''''''[[[[[[{[{]]",
"             *C_))~~!!!!((()````___///////////_'`''''''[[[[{[[]]",
"             *C``))!!!!!!(!)````____////_//_//_'''''['[[[[[{{[{]",
"           #$7jjjjjkkkkjjjjjkkkkklkkkkkkkskkksksssskkskkkkskkgss",
"           $#7kkkkkkkkljkkkkkkkkkkkkskkskskkskkkkskskskkkkjjjjjj",
"          @99fjfkskkkssssssssssskjsppppsssspppppspppppuuuurruupp",
"          @97jsjsgkkkskssssssssssssppppspsppsppppppppuputuerurus",
"          X##@++@+OO+##@@@@@##@@O++++++O+++ooOoO+o+oooOoooOooooO",
"          X##@@@+OoOO#@++@+@@@#@++++o+OO+oOOo+oOoo+ooOOoooOooooo",
"          Xoo#$@#####@@##@@@@#@###########+###@@##$$$$$$$$#$#$$#",
"          Xoo#$#####@@###@@@#@###############@#+@#$$#$$%#$$$$$$#",
"          .oo=%%%%%%%%%%$%%%=&*&&&&&=&=====----====->>==&%&&%&&%",
"          XoX-%%%%&*%&&%%%%%=&&&%=*=*======-----====----&&&&&&&&",
"          XoX-**%%&&%%&%**&&&&&&=%*=%%=-&==-----====----&&&&&&&&",
"          .oo3,:>&anbvzzhNBSDDBMmmbhhzxhzzhvnnVSyy$-383,&&inhvhh",
"          XXo3,:>%dnnvzfhNBSDDBMmmnhvhhzhhfbnnVVyt%,382<&&dnbhhh",
"          X$#88>,&fiywiyydwewww05258wwitiytydddf88=-ww9-$$fytwdy",
"          X$#85>>&fyiwdyydwwwwww5455wwityitydddf85*-w99-&*hiwwiy",
"          Xoo98->=hyyeywwdwywwwo....qqeyiytiyiyf87*<teq-%%vywtiw",
"          .++98>>=vyyeiwwdwywwwX....wqeyideiiiif77*<tw9>%=hytwyw",
"          Xo+99>>*leyeywwiewwwqdhgghiiwyideeiiig99%<tqt-#*htwtiw",
"          XOo09>>*fyyeiwwyewwq9ffggdid0yiieeyiif98%,rqt-##httwiw",
"          Xoo09-:#fyewew99wwqq009000qwweyee0yyyd99$,qqu-##gtywt9",
"          Xoo90>:#feeee9w9wwqq00qq0qewqweeeeeeya99%<qtu-##fwwwt9",
"          XOo00-:#geeeeq99wwww000000qqqeeee0ttyd9q$<wwt>@@fwwyy9",
"          XOO0q-:#f77997889www00q07000qweew0ewtt99#,wwt-#@f89998",
"          XOO0q-:#f79996888www980070000qeeqqewwt99#<wwd-##f89998",
"          X@+00>>#f75w97885w9900008000qqeeqqeeeq99@<wwi-##f8w998",
"          .++9w-:$f66098862060000q800000rqqqrqr000#,w0e<#$f50077",
"          X##90<<$f5208808808800qq00000000qqqq0000+<wwy,%$f70060",
"          X##80<,%f5508806008800qq0000000000qq0qqq+,wwe,%$f50068",
"          .@@893<*i658000000000000000008000000000q+<97w,$%i58800",
"          o##893<$i5690900000000q0000q080909000000+<99w,$*i59900",
"          X##8934*i5280960000000000000080000000000+<99w<*$i59708",
"          o$$993<%768000000q60868888q0088800000899%17703%%769000",
"          o$%9924*562000000q86856680q0088800000898%,770<%%560000",
"          o%%9q9w&@OO+#@@o++##%#@@@@@@O+#@++O++$$$,37505&&@O++#@",
"          o$=9q9q&+OOO#@@+O+##%$@@@@@+++#@++OO+$$$,17505=&@o++#@",
"          #%%18210sppppjlsppupprrrpjkljjtuqssfilxxlxccllssskjjpp",
"          #%$<8150ssppsklsupppptrrujkfjjrtuajfikxxzzcccjssdkjjpp",
"          #%%1022,,11,,11,,>,,1211,,2222,,11,,:>>>>,,,,11,,>:>11",
"          #%%1622,1111,11,,>,<12,1,,2221,,11,,>>>:,,,,,1,1,:>>11",
"          @%%1222OO@+@Ooo.XXXX.XXXXXoXXXXXXXXXXX.XoXXXXXXXXoXXoo",
"          #&&1622OO+@@Ooo.XXXX.XXXXXXXXoXXXXXXXXXXXXXXoXXXXoXXXX",
"          #$=2222oO@@@OooXXXXX..XXXXoXXXXXXXXXXXXXXXXXXXXXXoXXXo",
"          +=*,,<,o                                              ",
"          #%=,,,<o                                              ",
"          @==-,>>o                                              ",
"          @=%>,>>o                                              ",
"                                                                ",
"                                                                ",
"                                                                ",
"                                                                ",
"                                                                ",
"                                                                ",
"                                                                ",
"                                                                ",
"                                                                ",
"                                                                ",
"                                                                "
};
