/* XPM */
static char *_14bf2f8f74e48c19c17cfa59c01ec0eNGYVHKzj3BPMiNgO[] = {
/* columns rows colors chars-per-pixel */
"64 64 122 2 ",
"   c None",
".  c #0A0101",
"X  c #140302",
"o  c #1C0403",
"O  c #1F0B03",
"+  c #200704",
"@  c #240B04",
"#  c #280F05",
"$  c #240F08",
"%  c #251005",
"&  c #2B1105",
"*  c #321606",
"=  c #351A07",
"-  c #381E07",
";  c #3B2107",
":  c #3E2309",
">  c #412608",
",  c #452A09",
"<  c #4A2E0B",
"1  c #4C310A",
"2  c #53350E",
"3  c #56390F",
"4  c #4F3510",
"5  c #523510",
"6  c #563A13",
"7  c #5B3E15",
"8  c #5C3F19",
"9  c #5D4017",
"0  c #5E4119",
"q  c #644517",
"w  c #63451C",
"e  c #66481E",
"r  c #6E4E1F",
"t  c #5F4829",
"y  c #644721",
"u  c #664A21",
"i  c #6A4D24",
"p  c #6C5026",
"a  c #6E5229",
"s  c #735424",
"d  c #785827",
"f  c #71552B",
"g  c #75592F",
"h  c #7D5C2D",
"j  c #755A31",
"k  c #7A5D33",
"l  c #7C6137",
"z  c #7D6139",
"x  c #805F2E",
"c  c #81602E",
"v  c #846332",
"b  c #886736",
"n  c #81673C",
"m  c #8A6938",
"M  c #876C40",
"N  c #8A6E45",
"B  c #8E7449",
"V  c #91774B",
"C  c #967B4D",
"Z  c #9E8357",
"A  c #A08557",
"S  c #AA8F61",
"D  c #B09465",
"F  c #BB9E71",
"G  c #BFA173",
"H  c #C2A376",
"J  c #C8A877",
"K  c #C5A678",
"L  c #C6A97A",
"P  c #CAAA79",
"I  c #D0B080",
"U  c #D6B887",
"Y  c #D3B98B",
"T  c #DDBF8E",
"R  c #DEC495",
"E  c #E4C796",
"W  c #E6CE9D",
"Q  c #E1D49F",
"!  c #E2D3A1",
"~  c #E8D5A4",
"^  c #E3D8A7",
"/  c #E9D9A7",
"(  c #E9D8A6",
")  c #E9D7A8",
"_  c #E3DAA9",
"`  c #E3DBAB",
"'  c #E3DDA8",
"]  c #E3DCAB",
"[  c #E3DCAC",
"{  c #EADAA9",
"}  c #EADAAA",
"|  c #EADAAB",
" . c #EADBAB",
".. c #EADEAB",
"X. c #EADBAC",
"o. c #EADDAC",
"O. c #EADDAD",
"+. c #EBDDAD",
"@. c #EADEAD",
"#. c #EBDDAF",
"$. c #EBDEAE",
"%. c #EBDFAE",
"&. c #EBDFAF",
"*. c #EBDFB0",
"=. c #E4E0AF",
"-. c #E4E1AF",
";. c #EBE0AE",
":. c #EBE0AF",
">. c #EBE1AF",
",. c #EBE3AF",
"<. c #E4E1B0",
"1. c #E4E1B2",
"2. c #E5E2B4",
"3. c #EBE1B0",
"4. c #EBE1B1",
"5. c #EBE5B0",
"6. c #E5E1B8",
"7. c #E6E3BA",
"8. c #E6E3BD",
"9. c #E6E3C1",
"0. c #E6E4C2",
"q. c #E6E3C4",
/* pixels */
"G H H H K L L L P P P I U T T E W W ~ ~ ~ / / } +.3.;.3.*.+.3.3.+.( / ,.: & & & - k f f a j a a i w e w w 0 $ $                 ",
"G H H H K L L L J P L I U T T E W ! W ~ ~ / / } ;.;.3.;.3.3.*.+.+.( / 5.: $ & & - l f f a l a a u e w w w 0 $ $                 ",
"F F F L Y R R W ~ ) ) } X.+.+.+.*.#.#.} } } X.+.+.;.;.3.3.*.+.} o.,.5.; & & = = a j f f p j p a w w w w w 8 O O                 ",
"F F F L Y R R Q ~ ) ) } X.+.+.*.3.#.#.o.} } } +.;.;.;.3.3.+.+.} o.,.5.: & $ = = g j f a p j p a w w w w w 0 O O                 ",
"[ [ [ ` ^ ! ! Q ! ! ! ! ! ` ` *.9.q.q.9.8.7.6.2.-.<.<.2.<.<.-.' ^ - : # # = j j f g f g i f i p 0 e w e 0 w O O                 ",
"[ [ [ ] ` ! ! ! Q ! Q ! ! ` ` 6.9.q.q.9.8.7.8.2.-.<.<.<.<.<.-.' Q : : & # = j j f f f f p a p i 0 e w w 8 y O o                 ",
"] [ [ [ ^ ! ! ! R ^ Q ! ! ` ` *.9.q.q.9.8.7.8.2.-.<.<.<.2.<.-.' ^ ; ; # # * j j f f f f i f i p 0 w w w 0 y o O                 ",
"h c c c c c h c v h x x v h v k c v v m m v v x x c c x x x c c : % # # * N t t a a f f i a p p q 0 0 8 8 > # @                 ",
"x c c c x v c c h c c c c c c c c v c b m v v x c c c c c c h h ; $ & & = N t e a a f f i a a a q 0 8 8 q > % @                 ",
"h c c c h x h x c c c c c c c h h h x h h h h h h h h h c c c ; $ & & = z g 0 u p u p p i a i i q 8 8 8 1 : @ @                 ",
"x c c c c h h x c h c c h v c c h h h h h h h d d h h h c c c ; # $ & = z l y y p p p p i f i i 0 8 0 0 5 : @ #                 ",
"o o o o X o o o o o o o o O O o o + + + o o o o o X X X X X X X X = * j z u t t i u u u i i u u 8 8 2 2 : : & &                 ",
"o o o o o X o o o o X o o + + o o o + o o o o o o X o X X X X X X * * j z u u t i u u i p u i u 8 0 5 2 > : # &                 ",
"& & & & & & & & & & & # & & & & & # # # # # @ & % & # & % & % X X > : g g u u p u u p u i u u u y 5 & * : > & &                 ",
"& & & & & & & & & & & # & & & & & @ # # # # # # # # # & % & % X X : > j j e u u e u p u u u u u w 2 & * : : & &                 ",
"- - - - - - - ; ; - - ; ; ; ; ; ; - - - : - - ; : - : > < , : X X < < p g e 0 0 e e p p w y u y 5 # o X : : & &                 ",
"- - - - - - - - ; ; ; ; ; ; : ; ; ; - - ; ; ; ; > - - > , , : X . < < p f e 0 0 y y p i e y w e 5 @ X X > : & &                 ",
"- - - - - - - - ; ; ; ; ; ; : : ; ; ; ; ; - - ; - - : > , , , X . < < p g y q 0 e y p p e y w e 5 # o X : : & &                 ",
"C A A S D Z A V B N N z z M z z l l l M B Z Z S k < , 5 1 , : X X 4 < p e w 0 0 w w p i w y 7 3 $ X X X : :                     ",
"C A A S D Z A V B N N l n z z M z l l M B Z Z S k , , 5 4 , , . X < < p y w 0 0 w w p p w y 3 7 O O X X : ,                     ",
"j y t p u u u u 4 9 6 9 u f a p a p p a j j j j u < , g 8 < < X . < 4 i 8 0 q q 0 w u u k 6 # # X X X X :                       ",
"g y e p u u u e 6 6 6 9 u f f p a p p a j j j l r , < s 8 < < . X 4 < i 8 0 0 w 0 w u u k 6 # # X X X O :                       ",
"g u u p u y u o X . . . e p u f f p p a f f a l r < < k u 4 4 X X < < t 7 q w w 8 w f f 7 @                                     ",
"j u u i u e y o . . . . e e u a f p p f f f f j i , , k u 4 5 . X < < 8 8 q w w 8 w f f 7 $                                     ",
"g i u u u u t j l l l l g e e p f u p u f f f l r , , h a < < X X < < t 7 y 0 0 q y 6 6 O                                       ",
"g u i u u 0 w j l l l j g e e p f p p u f f f l u , , k a < < X X < < 8 7 0 0 0 q y 6 6 $                                       ",
"0 u y u u w w w w w w e e e e p p p u u p a a g e : : h s < , X X < < 8 w w w w u 9 O O                                         ",
"0 y u u e w w w w w q e e e e u u u p u p a a g i : > k i < < X X < , 8 w 8 w w u 6 % O                                         ",
"0 u t e u 0 w w w w e e u e e u p u u e p a a g r - : x s , < X X < < 7 0 0 w w u 7 O O                                         ",
"0 0 0 i u w q q w 9 0 0 q e e u p u e e i p u p e - = g s , , X o , , 7 w 0 y y 9 @                                             ",
"9 9 9 i u w q 9 w 9 9 q w e e y i e e e i u p p e = = h s < , X X , , 7 w w y y 9 %                                             ",
"9 9 4 u 0 q 0 w w 9 9 q w y w e i e e e i e u e w * # d f , , o X , , 8 0 y 3 3 %                                               ",
"0 3 3 i 0 q q q q 7 8 w w i e y r e e e i i r w e & & d s , , X o > , 8 y w 5 6 %                                               ",
"9 9 9 0 8 w w e w w w w 0 w q w w w e e w e w w e @ + a f > > X o > > 6 y 7 @ @                                                 ",
"0 9 9 q 9 w w w w w w w q w q w w w w w y e e w w + + i s > : X o > > 6 y 3 @ $                                                 ",
"w w e w w w w w w w w w w w q 8 w w w w q w e w e @ + i s > : o o > > y 6 $                                                     ",
"w w e w w w w e e e w w w w w 9 q w w 0 w w e w w @ @ i p > : o O : : q 6 O                                                     ",
"w e e q q w w w e w e w w w e 9 w w w w w w e q w # @ i s > > o o , : t 9 O                                                     ",
"w w e w 8 0 7 7 7 8 8 9 w e q 9 8 w w w w q q 0 0 = * s e : : o O > , , %                                                       ",
"w w e q 8 0 0 6 7 0 0 0 w w w 9 8 w w w w w w 0 0 = * p w ; ; o o > : , O                                                       ",
"+ + + @ & * * * # # # & # @ # + # @ + # + @ @ * * < < g y > > o & > > :                                                         ",
"+ + + # & * * & # # # & # @ # # # @ + + + @ @ & * < < d e > : o & : > >                                                         ",
"x s s s x s x r r r r r r r r r r r r d d d d d s q q 3 , - : & & > > >                                                         ",
"s s s s r s x r r r r r r r r s r r r s d d d s s q q 3 , : ; & & > > >                                                         ",
"1 1 < < > , > , 1 1 < < < < , 2 1 < < , , , , > , > > , > ; ; & & : : >                                                         ",
"1 1 1 , , > , , 1 1 1 < , < 1 2 1 , < < , , , , , > , > > ; ; & & , : ,                                                         ",
"+ o o X . X o o o + @ # @ @ @ + + @ @ # # # @ + X . . ; : ; ; & & : , :                                                         ",
"o o o X X X X X o + @ @ @ @ @ + + @ @ # # # # + o . . - > ; ; & & : : ,                                                         ",
"o o o X X X . X X + + # + @ @ + o # # & # @ # + X . . : : - : # & > > >                                                         ",
"                                                      - : > > # & > :                                                           ",
"                                                      - > > > # & : >                                                           ",
"                                                      - > , > # &                                                               ",
"                                                      - > , , # &                                                               ",
"                                                                                                                                ",
"                                                                                                                                ",
"                                                                                                                                ",
"                                                                                                                                ",
"                                                                                                                                ",
"                                                                                                                                ",
"                                                                                                                                ",
"                                                                                                                                ",
"                                                                                                                                ",
"                                                                                                                                ",
"                                                                                                                                "
};
