/* XPM */
static char *_4cb171d5b1b4e13c5931ba0757bc2failbCHn9Oqvjg1YTI[] = {
/* columns rows colors chars-per-pixel */
"64 64 63 1 ",
"  c None",
". c #361E07",
"X c #361D08",
"o c #391F09",
"O c #3D250A",
"+ c #41270A",
"@ c #42290C",
"# c #8B6E40",
"$ c #967747",
"% c #997A47",
"& c #9C7C4B",
"* c #947A53",
"= c #977E59",
"- c #A07F4E",
"; c #9F804D",
": c #9C855A",
"> c #A1804E",
", c #A58453",
"< c #A88755",
"1 c #AA8957",
"2 c #AD8B5A",
"3 c #B18D5C",
"4 c #B3915E",
"5 c #9C8D6A",
"6 c #9F906C",
"7 c #B69562",
"8 c #B99763",
"9 c #BC9B66",
"0 c #B59868",
"q c #BD9C6A",
"w c #A09571",
"e c #A59A73",
"r c #A99E75",
"t c #BEA06E",
"y c #BFA170",
"u c #BDAB7D",
"i c #C19F69",
"p c #C4A26D",
"a c #C3A472",
"s c #C9A672",
"d c #CBAA75",
"f c #C3AC7C",
"g c #CCAD7A",
"h c #D0AC76",
"j c #CFB07B",
"k c #D4B37D",
"l c #C7B687",
"z c #CDB383",
"x c #CBBA8A",
"c c #D3B681",
"v c #D6B985",
"b c #DABA84",
"n c #D1B989",
"m c #DCBE8A",
"M c #DEC18C",
"N c #D8C595",
"B c #DAC998",
"V c #E0C48E",
"C c #E3C792",
"Z c #E3C994",
"A c #E4CD99",
"S c #E3D3A1",
"D c #E8D8A5",
/* pixels */
"                                                                ",
"                                                                ",
"                                                                ",
"                                                                ",
"                                                                ",
"                                                                ",
"                                                                ",
"                                                                ",
"                                                                ",
"                                                                ",
"                                                                ",
"                                                                ",
"                                                                ",
"                                                                ",
"                                                                ",
"                                                                ",
"                                                                ",
"                                                                ",
"                                                                ",
"                                                                ",
"                                                                ",
"                                                                ",
"                                                                ",
"                                                                ",
"                                                                ",
"                                                                ",
"                                                                ",
"                                                                ",
"                                                                ",
"                                                                ",
"                                                                ",
"                                                                ",
"                                                                ",
"                                                                ",
"                                                                ",
"                                                                ",
"                                                                ",
"                               @@*nnnzacnvggggfafaayyayaaaatt077",
"                               +@*nnnzancvgfggaaaaayyayaaaytq073",
"                              X==f:###&&-&&$$$$-&&&--,,<,<,,,<<1",
"                              X==f<###&--&&$$$$%&&&>;,,<<<,,<,<1",
"                              X==f:###&---%$$$%-&&&,;,,<<,,,,<<2",
"                             o5lu%%&&%&----%-%---&&>;;;;&,&,,<<,",
"                             o5uf%%&&%&----%%$--&&&;;&;;,&,,,<<,",
"                           oX*t&&%>>>>><<,-<-<,<<111111<,<<2<<<<",
"                           oo=0&%*>>>>,><---<-,<<1111<<<<<<<<<<<",
"                          Orru%%%&&&&----,,<123474477321<2<2<222",
"                          @rru%%%%*&-&----,<<237444474211<<2<2<2",
"                         oell:&-><13244448888999iiipppp99999i988",
"                         .ell,&,><212444488888999iipppi9p4ipi988",
"                        Owx<2&,33323332344444889999999p9944449tp",
"                        Xwx21-,2332333334484448988999999p44989t9",
"                        Xwx1<;,2332324143444488998999tt9i84889ip",
"                      ..wBu231123333444989ipppi99ipddkkMbMMVVMbh",
"                      ..6By222211343448889isppi9ippddkkMbMVVVVbh",
"                     .66N0<<22408ii9989iihkkkkkhhkkkkjdasspppppp",
"                     O66N0<<12478it4p4p9idkkkkkkkkcccjdtpppppipp",
"                    O:nn024224qpisshssssdkccckjyssspppddddpppppp",
"                    .:xn024247qppshhshsspkvkccdsysspppdddpppippp",
"                  OO6Dnny0q0qqyghkkkkkkkkbMCVAAAAZVbMMbbckhdhspi",
"                  O@eDnvyq0qqqygjckkkkkkkbbZVAAAAZVMMMbbbhdddppi",
"                  OOeDvna00qqqtggckkkkkkkbMZZAAAAZVMMMbbbkhddsti",
"                 @rrSkkjvvvvvcnmmmmmmMkhdshcckkkkvbVMMMbbcjddspi",
"                 OrrScgkcvvvccvmvmmmmMkhdshkckjkkcbMMMMMbcdddsti"
};
