/* XPM */
static char *_195fa64b7a24e19b10e5d002f3b9b13k0qkAgwp2cqJHSMd[] = {
/* columns rows colors chars-per-pixel */
"64 64 158 2 ",
"   c None",
".  c #0B0101",
"X  c #130202",
"o  c #1D0403",
"O  c #200704",
"+  c #230A04",
"@  c #290F05",
"#  c #2C1205",
"$  c #311606",
"%  c #351B06",
"&  c #381D07",
"*  c #351D09",
"=  c #391F09",
"-  c #3C2207",
";  c #3E2509",
":  c #3A2110",
">  c #422608",
",  c #442A09",
"<  c #4A2E09",
"1  c #4C310B",
"2  c #51330A",
"3  c #56390D",
"4  c #4E3410",
"5  c #513510",
"6  c #563A14",
"7  c #5B3E16",
"8  c #5C3F1A",
"9  c #5D4017",
"0  c #5F421A",
"q  c #63451B",
"w  c #65481E",
"e  c #664A21",
"r  c #6A4D24",
"t  c #704F23",
"y  c #6C5025",
"u  c #6D5229",
"i  c #745425",
"p  c #72562B",
"a  c #785728",
"s  c #76592C",
"d  c #7C5B2B",
"f  c #755A30",
"g  c #795E35",
"h  c #7C6035",
"j  c #7F633B",
"k  c #805F2D",
"l  c #81602E",
"z  c #826334",
"x  c #82673B",
"c  c #856A3E",
"v  c #8A6B3C",
"b  c #876C40",
"n  c #8B6E42",
"m  c #8D7247",
"M  c #8E7349",
"N  c #967747",
"B  c #997A47",
"V  c #91774B",
"C  c #967B4D",
"Z  c #9C7C4B",
"A  c #947952",
"S  c #977E59",
"D  c #A07F4D",
"F  c #9F804D",
"G  c #9E8357",
"H  c #9A845B",
"J  c #A1804E",
"K  c #A58453",
"L  c #A88755",
"P  c #AA8957",
"I  c #AD8B5A",
"U  c #B18E5C",
"Y  c #B2915E",
"T  c #958561",
"R  c #988261",
"E  c #998865",
"W  c #9C8D6A",
"Q  c #9F916D",
"!  c #AA8F61",
"~  c #B59463",
"^  c #B99763",
"/  c #BC9A66",
"(  c #B59868",
")  c #BD9D6A",
"_  c #A09571",
"`  c #A59A73",
"'  c #A99E75",
"]  c #BB9F71",
"[  c #BEA06E",
"{  c #BEA174",
"}  c #BDAB7D",
"|  c #C19E6A",
" . c #C4A26D",
".. c #C3A473",
"X. c #C9A773",
"o. c #CBA975",
"O. c #C3A678",
"+. c #C4AA7A",
"@. c #CAAC78",
"#. c #C9AC7A",
"$. c #CDAE7C",
"%. c #CCAD7A",
"&. c #D0AC76",
"*. c #CEB07A",
"=. c #CFB17D",
"-. c #D3B27A",
";. c #D3B07A",
":. c #D5B37B",
">. c #D3B17C",
",. c #D2B27D",
"<. c #D2B37E",
"1. c #D4B37E",
"2. c #D4B57F",
"3. c #D3B37D",
"4. c #C7B687",
"5. c #CAB080",
"6. c #CFB586",
"7. c #CDB281",
"8. c #CBBA8A",
"9. c #D1B580",
"0. c #D2B581",
"q. c #D5B781",
"w. c #D4B682",
"e. c #D7B881",
"r. c #D7B886",
"t. c #D4B985",
"y. c #D7B985",
"u. c #D9B883",
"i. c #DAB983",
"p. c #DCBD86",
"a. c #DDBE87",
"s. c #D1B989",
"d. c #D7BD8E",
"f. c #DEBF8A",
"g. c #DBBD8A",
"h. c #DFC18B",
"j. c #DCC18D",
"k. c #DDC593",
"l. c #DFC895",
"z. c #DAC998",
"x. c #DFCE9B",
"c. c #DFD399",
"v. c #E0C38E",
"b. c #E0C58F",
"n. c #E0C48E",
"m. c #E3C792",
"M. c #E1C592",
"N. c #E3C994",
"B. c #E5CE9A",
"V. c #E4CD99",
"C. c #E0CF9C",
"Z. c #E0D49D",
"A. c #E2D5A0",
"S. c #E2D9A4",
"D. c #E8D8A5",
"F. c #E3DDAB",
"G. c #E4E1AE",
"H. c #E4E1B0",
/* pixels */
"                                                                                                                                ",
"                                                                                                                                ",
"                                                                                                                                ",
"                                                          , A 6.6.s.5.5.O.9.r.r.$.#.#.#.+.+.........{ ..) ..........) ) ( ~ ~ ~ ",
"                                                          > A 8.6.s.7.7.O.9.t.r.$.#.#.#.+.o.X. .{ .. .{  .{ ........) / ^ ~ ~ Y ",
"                                                      * * H #.H K v n n Z J Z Z B N N N B B B J Z Z D K K K L L K K K L K L K I ",
"                                                    * W W +.N B B Z B N Z D K D J Z B Z Z F J B Z Z D D D J J J D D K K L L L K ",
"                                                    : W W +.N B Z Z N N Z D D K Z Z Z Z Z Z B J Z Z D D D Z J J Z K K K L L L K ",
"                                                : * A ) ] Z B D G D J D K L K K K D K K K K L P P I P L P L L L L I P P L P K P ",
"                                              > ' ' } Z B N B Z B Z D D D J D J K L L I U Y Y Y Y Y Y Y Y P P P I L P P P I I P ",
"                                              > ' ' } N B B Z B Z Z Z D J J J J L P L P Y Y Y Y Y Y Y Y Y P L P L I L P P P P I ",
"                                          * & ` 4.4.K Z Z K L P P I U U Y Y ^ Y ^ ^ ^ ^ / / / |  . . . . .|  ./ / / ) ) ) / ^ ^ ",
"                                        - _ _ 8.P I G K K U U I U U I U U U U Y U Y Y Y / ^ / / / ^ / / [ [ Y / ^ Y Y ^ ) ) | | ",
"                                      * Q z.z...! I L P I I U U U U ~ Y ^ ^ / / |  . . . .| / /  . .&.:.2.2.n.p.h.n.m.n.h.u.u.-.",
"                                      % Q z.z.{ I I P I P I U U U U Y Y ~ ^ / |  . .X. .| | / /  . .&.-.*.2.e.h.h.m.n.n.v.u.u.:.",
"                                  - * W z.( ( K I P I Y Y ^ | ) | / / ^ / | o.o.:.:.:.:.:.:.:.:.2.2.:.&.*.o.X.X. . .|  . . . . .",
"                                : H H s.( I I I I U ~ ) )  .X.o.&.X.X.X.X.X.w.7.t.9.9.9.#.o...X.X.X. . .X.X.X.X.X. . . . . . . .",
"                                * H H 8.( I I ~ ! I Y ) /  .X.o.X.&.X.X.| X.;.;.t.9.9.9.@.+.X.X.X. . . . .X.+.X.X. . . . . . . .",
"                            ; ; ` D.D.t.../ ( ) ) / [ [ [ $.2.<.u.;.u.w.u.;.u.u.f.m.m.B.B.B.V.N.h.h.h.h.f.p.e.e.*.&.o.o. . . .| ",
"                          > ' ' A.9.9.=.9.t.t.t.e.e.2.r.t.g.g.f.g.g.i.i.w.&.X.X.*.>.>.<.-.-.>.u.j.h.j.j.j.j.g.p.2.*.X.o. . . .| ",
"                          ; ' ' A.<.w.=.w.t.t.r.e.e.9.r.t.g.g.g.g.g.g.g.7.X.X.X.*.>.w.>.*.;.>.w.h.h.j.j.j.j.p.g.w.*.o.o.X.[  .) ",
"                      * : W j.j.X.X.X.X.X.o.X.o.o.%.%.*.$.*.@.X.X. .| | | Y | ~ | | | | ....X.X.@.o.o.o.X.@.X.X.X.7.s.s.j.k.k.d.",
"                    * E T k.$.$.X.@.@.@.$.$.$.$.$.%.$.o.o.X. .| | | | | | X.X.X.......X.@.@.+.{ [ { ..+...O.+.O.@.O.{ { { { { { ",
"                  ; T l.z.k.z.k.j.g.g.f.f.M.j.m.j.j.r.t.t.e.t.p.g.g.j.j.M.g.w.w.7.7.7.0.5.5.#.=.@.@.@.{ { { { { O.{ { ] ] ] ] ) ",
"                  : R z.l.k.k.k.d.f.g.g.g.M.k.M.k.j.t.r.h.t.t.h.g.f.M.g.M.i.w.w.=.7.9.7.7.5.=.=.#.#.+.....] { ] { } ] ] ] ] ] ] ",
"              * * T A.C.x.N.l.l.z.k.k.k.k.M.k.C.A.A.A.A.Z.Z.Z.c.C.B.C.C.Z.Z.c.c.c.c.c.Z.A.F.Z.S.F.S.S.F.F.F.H.H.F.H.H.H.H.F.F.F.",
"            $ 8 8 l k k l l l l k k k k l l k k l l l l l l l h z k k k k k k k l l l l l l l l k k k k z k k k k k k k k k k k ",
"            $ 8 8 l k k l l l l l k z k l l l k l l l l l l l d k k k k k k k k d l l d d l l d k k k k k k k k k k k k k k k k ",
"        @ @ 8 d k g d k g k l l k k d d d d d d d d d d d d d d d i d a d d d a a a a d a a a d i i i i i i t t t t i t i d a k ",
"        X X # @ @ @ @ + + + O + # @ @ @ @ @ + @ # # @ @ # + + + + + O O O O o + + o o o o o o o + o o + O o o o o O o o o o o o ",
"        X X # # @ @ + + + + O + # @ @ @ + @ @ @ # @ @ @ @ o + + + + O + + O + + o o o o + o o + + o + o O o o o o O o o o O O o ",
"        X X o # $ $ @ @ @ @ @ @ @ @ @ @ @ @ @ + @ # # @ # # # # # # # # # # # @ # # # # # # # $ # $ # $ $ $ $ $ @ $ # $ # # $ @ ",
"        X X o - = % % % % * * * % * * * % & * * % : & * * * * % * & - - - - - - = > > > - - = = > > > = ; ; * & & & % * * * & & ",
"        X . o 5 2 < , & & s m m b j x j C H K ! ~ ~ G V V M n b x x c j j j h h n m m S ! ! u % , , 6 3 5 , & & s m b b j j j N ",
"        . X o 5 5 < , = & s m m c j j j C K H ! ~ ! G M V M n x x x x x j j h h n m M S ! ! r $ , , 6 2 3 , & & p M b b j x j C ",
"        X X # 0 0 6 , & = g p p e p p y f e e r e e e e w 6 6 6 6 e u p u u u u r g g f g g 8 % , , e 8 9 - % % h p e e p u u f ",
"        . X + 0 q 8 > - - x y u r p p e f e e y y e e X o X . . . w w r u p y u p p p u g g 8 & 1 1 r q w > % * j u r r p e e f ",
"        X X o w q 6 , - ; j u u r u u e f e e r e e e o o X . . . w w e u f e y p p u p g k 8 & 4 1 r e w , * - x u r y p e e f ",
"        X X o q q 9 > * % j y u y u f e u u e e e e w f f g z k h s w w u u y e r p p p k g 0 % < 4 e r r ; $ # j u y e u e e u ",
"        X X o 0 0 q > # # h e e e r y 0 0 e e e e e w 0 q q 0 q q e e e e u r r e u r r f f 0 $ < , e y r , # @ h e r e y 0 e 0 ",
"        X X + q 0 e ; # # h 7 0 0 q 0 0 9 9 9 e r w q 9 0 q 9 q q q w w w t w w q r r r t r 8 # 1 < r r y , # # h 0 0 e 0 8 9 6 ",
"        X X + 0 0 w > # # h 8 0 q 0 0 9 9 0 0 e w w q q q q 7 q q q w q w w r w q t r r t t 8 $ 1 < w u y > # # g 8 0 8 0 0 9 9 ",
"        X X + q q e , # # h 6 7 0 0 8 9 9 6 6 e 9 0 q q q q 9 q q q q w w t w w q r r e q q q # < 4 q y i < # # h 6 q q 9 9 9 9 ",
"        X X @ 9 9 q 1 % * g 6 6 e 8 8 9 9 9 9 0 9 9 q q q q q q q q q q q q w q w w w q q q q + 4 , e u y < % $ g 6 q q 9 0 0 9 ",
"        X X @ 8 9 q 4 $ $ g 6 6 q 9 9 9 9 9 9 q 9 9 w q q w q q q q q q q q q q w w w w q q q + 1 1 e y r < % $ g 6 q q 9 0 0 0 ",
"        o o @ 9 8 q 4 $ $ p 6 7 9 q q 9 w w q q q q q q q q q q q q q q 9 q q q q q q q q q q + 4 , 0 w e < $ % p 6 9 9 0 0 0 q ",
"        o o $ 0 q 9 5 % % 7 7 7 q q q q q w q w 9 9 8 7 7 7 7 9 9 w q q 7 7 q q q q q q 0 0 0 % 1 1 6 w q 4 % % 7 8 0 q q 0 0 w ",
"        o o $ 0 8 q 5 % $ 6 7 7 q q q q q q q q 7 7 8 6 7 7 7 q 9 w q w q 7 q q q q q q 0 0 9 % 4 4 0 0 q 4 % % 6 7 q q q w w 0 ",
"        X o % 0 0 w 9 - - # o o + # # # + + + + # # $ # $ @ @ # # @ + + + # O + + + + + $ # $ < 4 4 9 0 q 3 & - @ o + + # @ @ O ",
"        # # % 1 2 9 9 q 0 a a d a a a l d i i i i a i i t i i d d l l z k i w r a g d i z z v x j j v j x l d d d g k k a a a i ",
"        # # % 1 2 9 9 < , 2 2 2 < < < 2 < < < < < < 2 3 3 2 < < < 3 3 3 3 < 2 2 2 < < > > , , , 1 < 1 1 < 2 2 1 < , , , 2 2 2 2 ",
"        # # % 1 < 9 2 , < 2 2 2 1 < < 1 < < < , < < 3 3 2 2 < 1 < 3 3 3 2 < 2 2 2 < < > , , , , 1 < < 1 2 2 < 2 < < , , 2 2 2 2 ",
"        @ @ % 3 3 3 3 o + o # @ @ + + o X X X X X X . X . X X X X X o X X X X X X o X X X X X X X X X X X X X X X o X X o o X o ",
"        @ @ % < 1 < 1 o X                                                                                                       ",
"        @ @ : < < < 1 o o                                                                                                       ",
"        @ @ % , ; < , o o                                                                                                       ",
"                                                                                                                                ",
"                                                                                                                                ",
"                                                                                                                                ",
"                                                                                                                                ",
"                                                                                                                                ",
"                                                                                                                                ",
"                                                                                                                                ",
"                                                                                                                                "
};
