/* XPM */
static char *result[] = {
/* columns rows colors chars-per-pixel */
"64 64 69 1 ",
"  c #361E07",
". c #361D0A",
"X c #391F09",
"o c #3C240A",
"O c #3A2110",
"+ c #41270A",
"@ c #42290D",
"# c #8B6E40",
"$ c #967747",
"% c #997A47",
"& c #9C7C4B",
"* c #937A54",
"= c #977E59",
"- c #A07F4E",
"; c #9F804D",
": c #9D8659",
"> c #A1804E",
", c #A58452",
"< c #A88755",
"1 c #AA8957",
"2 c #AD8B5A",
"3 c #B08D5C",
"4 c #B3915E",
"5 c #988261",
"6 c #998865",
"7 c #9B8D6B",
"8 c #9F916D",
"9 c #B69462",
"0 c #B99764",
"q c #BC9B66",
"w c #B59868",
"e c #BC9C6A",
"r c #A09571",
"t c #A59A73",
"y c #A99E75",
"u c #BB9E72",
"i c #BEA06E",
"p c #BEA274",
"a c #BDAB7D",
"s c #C19E6B",
"d c #C4A26D",
"f c #C4A572",
"g c #C9A773",
"h c #CBA975",
"j c #C3A678",
"k c #C4AB7B",
"l c #CCAD79",
"z c #D0AC76",
"x c #CFB07C",
"c c #D4B37D",
"v c #C7B687",
"b c #CEB281",
"n c #CBBA8A",
"m c #D3B581",
"M c #D6B985",
"N c #DABA84",
"B c #D1B989",
"V c #DCBE8A",
"C c #DDC18D",
"Z c #DCC693",
"A c #DFC895",
"S c #DAC998",
"D c #E0C48E",
"F c #E2C692",
"G c #E3C994",
"H c #E5CD99",
"J c #E3D3A1",
"K c #E8D8A5",
"L c None",
/* pixels */
"LLLLLLLLLLLLLLLLLLLLLLLLLLLLLLLLLLLLLLLLLLLLLLLLLLLLLLLLLLLLLLLL",
"LLLLLLLLLLLLLLLLLLLLLLLLLLLLLLLLLLLLLLLLLLLLLLLLLLLLLLLLLLLLLLLL",
"LLLLLLLLLLLLLLLLLLLLLLLLLLLLLLLLLLLLLLLLLLLLLLLLLLLLLLLLLLLLLLLL",
"LLLLLLLLLLLLLLLLLLLLLLLLLLLLLLLLLLLLLLLLLLLLLLLLLLLLLLLLLLLLLLLL",
"LLLLLLLLLLLLLLLLLLLLLLLLLLLLLLLLLLLLLLLLLLLLLLLLLLLLLLLLLLLLLLLL",
"LLLLLLLLLLLLLLLLLLLLLLLLLLLLLLLLLLLLLLLLLLLLLLLLLLLLLLLLLLLLLLLL",
"LLLLLLLLLLLLLLLLLLLLLLLLLLLLLLLLLLLLLLLLLLLLLLLLLLLLLLLLLLLLLLLL",
"LLLLLLLLLLLLLLLLLLLLLLLLLLLLLLLLLLLLLLLLLLLLLLLLLLLLLLLLLLLLLLLL",
"LLLLLLLLLLLLLLLLLLLLLLLLLLLLLLLLLLLLLLLLLLLLLLLLLLLLLLLLLLLLLLLL",
"LLLLLLLLLLLLLLLLLLLLLLLLLLLLLLLLLLLLLLLLLLLLLLLLLLLLLLLLLLLLLLLL",
"LLLLLLLLLLLLLLLLLLLLLLLLLLLLLLLLLLLLLLLLLLLLLLLLLLLLLLLLLLLLLLLL",
"LLLLLLLLLLLLLLLLLLLLLLLLLLLLLLLLLLLLLLLLLLLLLLLLLLLLLLLLLLLLLLLL",
"LLLLLLLLLLLLLLLLLLLLLLLLLLLLLLLLLLLLLLLLLLLLLLLLLLLLLLLLLLLLLLLL",
"LLLLLLLLLLLLLLLLLLLLLLLLLLLLLLLLLLLLLLLLLLLLLLLLLLLLLLLLLLLLLLLL",
"LLLLLLLLLLLLLLLLLLLLLLLLLLLLLLLLLLLLLLLLLLLLLLLLLLLLLLLLLLLLLLLL",
"LLLLLLLLLLLLLLLLLLLLLLLLLLLLLLLLLLLLLLLLLLLLLLLLLLLLLLLLLLLLLLLL",
"LLLLLLLLLLLLLLLLLLLLLLLLLLLLLLLLLLLLLLLLLLLLLLLLLLLLLLLLLLLLLLLL",
"LLLLLLLLLLLLLLLLLLLLLLLLLLLLLLLLLLLLLLLLLLLLLLLLLLLLLLLLLLLLLLLL",
"LLLLLLLLLLLLLLLLLLLLLLLLLLLLLLLLLLLLLLLLLLLLLLLLLLLLLLLLLLLLLLLL",
"LLLLLLLLLLLLLLLLLLLLLLLLLLLLLLLLLLLLLLLLLLLLLLLLLLLLLLLLLLLLLLLL",
"LLLLLLLLLLLLLLLLLLLLLLLLLLLLLLLLLLLLLLLLLLLLLLLLLLLLLLLLLLLLLLLL",
"LLLLLLLLLLLLLLLLLLLLLLLLLLLLLLLLLLLLLLLLLLLLLLLLLLLLLLLLLLLLLLLL",
"LLLLLLLLLLLLLLLLLLLLLLLLLLLLLLLLLLLLLLLLLLLLLLLLLLLLLLLLLLLLLLLL",
"LLLLLLLLLLLLLLLLLLLLLLLLLLLLLLLLLLLLLLLLLLLLLLLLLLLLLLLLLLLLLLLL",
"LLLLLLLLLLLLLLLLLLLLLLLLLLLLLLLLLLLLLLLLLLLLLLLLLLLLLLLLLLLLLLLL",
"LLLLLLLLLLLLLLLLLLLLLLLLLLLLLLLLLLLLLLLLLLLLLLLLLLLLLLLLLLLLLLLL",
"LLLLLLLLLLLLLLLLLLLLLLLLLLLLLLLLLLLLLLLLLLLLLLLLLLLLLLLLLLLLLLLL",
"LLLLLLLLLLLLLLLLLLLLLLLLLLLLLLLLLLLLLLLLLLLLLLLLLLLLLLLLLLLLLLLL",
"LLLLLLLLLLLLLLLLLLLLLLLLLLLLLLLLLLLLLLLLLLLLLLLLLLLLLLLLLLLLLLLL",
"LLLLLLLLLLLLLLLLLLLLLLLLLLLLLLLLLLLLLLLLLLLLLLLLLLLLLLLLLLLLLLLL",
"LLLLLLLLLLLLLLLLLLLLLLLLLLLLLLLLLLLLLLLLLLLLLLLLLLLLLLLLLLLLLLLL",
"LLLLLLLLLLLLLLLLLLLLLLLLLLLLLLLLLLLLLLLLLLLLLLLLLLLLLLLLLLLLLLLL",
"LLLLLLLLLLLLLLLLLLLLLLLLLLLLLLLLLLLLLLLLLLLLLLLLLLLLLLLLLLLLLLLL",
"LLLLLLLLLLLLLLLLLLLLLLLLLLLLLLLLLLLLLLLLLLLLLLLLLLLLLLLLLLLLLLLL",
"LLLLLLLLLLLLLLLLLLLLLLLLLLLLLLLLLLLLLLLLLLLLLLLLLLLLLLLLLLLLLLLL",
"LLLLLLLLLLLLLLLLLLLLLLLLLLLLLLLLLLLLLLLLLLLLLLLLLLLLLLLLLLLLLLLL",
"LLLLLLLLLLLLLLLLLLLLLLLLLLLLLLLLLLLLLLLLLLLLLLLLLLLLLLLLLLLLLLLL",
"LLLLLLLLLLLLLLLLLLLLLLLLLLLLLLLLLLLLLLLLLLLLLLLLLLLLLLLLLLLLLLLL",
"LLLLLLLLLLLLLLLLLLLLLLLLLLLLLLLLLLLLLLLLLLLLLLLLLLLLLLLLLLLLLLLL",
"LLLLLLLLLLLLLLLLLLLLLLLLLLLLLLLLLLLLLLLLLLLLLLLLLLLLLLLLLLLLLLLL",
"LLLLLLLLLLLLLLLLLLLLLLLLLLLLLLLLLLLLLLLLLLLLLLLLLLLLLLLLLLLLLLLL",
"LLLLLLLLLLLLLLLLLLLLLLLLLLLLLLLLLLLLLLLLLLLLLLLLLLLLLLLLLLLLLLLL",
"LLLLLLLLLLLLLLLLLLLLLLLLLLLLLLL@+*bBBljjmVMllkljjjfjfpfiffffufew",
"LLLLLLLLLLLLLLLLLLLLLLLLLLLLLL ==v,:##&&&&&&$$$&%&&&&>>,,<,<<,<<",
"LLLLLLLLLLLLLLLLLLLLLLLLLLLLLL :=k::##&&-&-&$$$$%&-&&,,,,,<<,<<<",
"LLLLLLLLLLLLLLLLLLLLLLLLLLLL  7ak$%%&&&&-,--&&&-&&&&&;&&;,;&--,<",
"LLLLLLLLLLLLLLLLLLLLLLLLLLLo**i*&%;;>>,,<,,--,,,,111111<<<,<<1<<",
"LLLLLLLLLLLLLLLLLLLLLLLLLLL.**i&&$;;>>,,,,,-,-,,,111111<<<<<1<<<",
"LLLLLLLLLLLLLLLLLLLLLLLLL++yaa%$%--------------34444499421111212",
"LLLLLLLLLLLLLLLLLLLLLLLL ttv,;&,--<223449909sss9qqssdddddqqqqqqq",
"LLLLLLLLLLLLLLLLLLLLLLLL.ttv,;&,-<2<234409s0s0ssqsdqqdddqqqqqqqq",
"LLLLLLLLLLLLLLLLLLLLLLoXrnn1>>,2332223333434434s4qq4qqqqqqqq44qq",
"LLLLLLLLLLLLLLLLLLLLL 88Spp3111223334444s0ssgdssdqqidzhcNNNDDDDD",
"LLLLLLLLLLLLLLLLLLLLLo88Spp3<1123344444s0sssdddsqiqddhhcNNNDDDDD",
"LLLLLLLLLLLLLLLLLLLL 8SZw<,1334w4sss00ssszdzzmzbcccccmmchddddddd",
"LLLLLLLLLLLLLLLLLL  :Bww234244eiddzgzgdddccNmmmzzdgdddddhhhddddd",
"LLLLLLLLLLLLLLLLLLoo:vww243249efszhhhgdggmmNmmNzhggggdsgdhhddddd",
"LLLLLLLLLLLLLLLLLoyyKmpdweweueslzccmcmccmmmNFFHHHHFGDVCVNNNzzzzd",
"LLLLLLLLLLLLLLLLLottKBipweeeeeslzMcccmccmNmVFFFHHHGGDVVCDNNczzzd",
"LLLLLLLLLLLLLLL@oyJJcxMcMMMMmmMVVVVVVNcNggggmmmzccmNVVDVDNNcxzhh",
"LLLLLLLLLLLLLL.77Cjgfggghhhllzblbhgggswqss9ssssfdfgghlkjjgghxvMC",
"LLLLLLLLLLLLLL.77Cggfgghghgllhlxlzjjgsqq-ssssssffghghhhhlgghxxnC",
"LLLLLLLLLLLL..6ZZlhhllllllllzlgggsssssssgggfffjhhjfjffdjjjfkfapp",
"LLLLLLLLLLLO55AAZZCCVCVVFFACMNMMMMVVVVFZVmmbbbbbbkbllljjupiapaii"
};
