/* XPM */
static char *_17e3c8d04ad4647915d65da5a2a69f1QETza4Cb9ActqYv2[] = {
/* columns rows colors chars-per-pixel */
"64 64 109 2 ",
"   c None",
".  c #0C0202",
"X  c #130202",
"o  c #1D0403",
"O  c #200704",
"+  c #240A04",
"@  c #290F05",
"#  c #2B1205",
"$  c #311606",
"%  c #351A06",
"&  c #381D07",
"*  c #331B0A",
"=  c #3B2107",
"-  c #3F2508",
";  c #3A2110",
":  c #422608",
">  c #442A08",
",  c #4A2E09",
"<  c #4C320C",
"1  c #51340A",
"2  c #55390E",
"3  c #4E3410",
"4  c #503510",
"5  c #563A13",
"6  c #5A3E16",
"7  c #5C3F19",
"8  c #5C4017",
"9  c #5E421A",
"0  c #63451B",
"q  c #66481E",
"w  c #664A21",
"e  c #6A4D24",
"r  c #704F23",
"t  c #6C5025",
"y  c #6E5229",
"u  c #745525",
"i  c #72562B",
"p  c #785728",
"a  c #76592D",
"s  c #7C5C2C",
"d  c #755A31",
"f  c #795E35",
"g  c #7C6035",
"h  c #7F633A",
"j  c #805F2D",
"k  c #81602E",
"l  c #826334",
"z  c #83673B",
"x  c #866A3D",
"c  c #8A6B3C",
"v  c #876C40",
"b  c #8A6E44",
"n  c #8D7247",
"m  c #8E7449",
"M  c #91774B",
"N  c #967B4D",
"B  c #9E8357",
"V  c #A08557",
"C  c #958561",
"Z  c #988261",
"A  c #AA8F61",
"S  c #B09465",
"D  c #BB9E72",
"F  c #BEA276",
"G  c #C0A576",
"H  c #CAAD7C",
"J  c #CFB17E",
"K  c #CDB281",
"L  c #D3B481",
"P  c #D7BA85",
"I  c #DBBE8B",
"U  c #DBBD88",
"Y  c #DCBE8C",
"T  c #DDC08B",
"R  c #DAC08E",
"E  c #DCC18E",
"W  c #DFC28E",
"Q  c #DFC390",
"!  c #DEC492",
"~  c #DEC493",
"^  c #DEC794",
"/  c #DEC695",
"(  c #DEC795",
")  c #DEC696",
"_  c #DFC895",
"`  c #DFCA97",
"'  c #DFCE9B",
"]  c #DFD299",
"[  c #DFD399",
"{  c #DFD39A",
"}  c #E0C390",
"|  c #E1C694",
" . c #E0CF9C",
".. c #E0D39B",
"X. c #E1D39F",
"o. c #E1D59E",
"O. c #E0D69E",
"+. c #E1D5A0",
"@. c #E1D6A0",
"#. c #E2D8A2",
"$. c #E2D9A4",
"%. c #E2DAA4",
"&. c #E3DCA7",
"*. c #E3DEA9",
"=. c #E3DEAD",
"-. c #E4E0AD",
";. c #E4E1AD",
":. c #E4E1AE",
">. c #E4E1B0",
/* pixels */
"                      ; Z N  .) ) ) R R I Y Y Y W | | W P P P P P P Y U Y T } } T J J J J J J J J H J H H H H F D D D G G G F D ",
"                  * * C +.+. .' ` ) ) ) ! ! ) ! )  .' +.O.O.#.O.O.O.............[ [ ........O.%.%.%.%.{ %.;.%.*.;.;.;.;.;.;.;.;.",
"                # 7 7 k k k k k k k k k k k k k l j j k k k k k k k j j j k k k k k k k k k k s k k g s k k g s k k k s s k k s ",
"                $ 7 7 l k k k k k k k k k k k k j j j k k k k k k k j j j k k s k k g s k s k k s k k k s k k s k s k k k k k k ",
"            @ @ 9 s s s f j j j k k s j s s s s s s s s s j s s s p p p p p s s s s p p p s p s p p p p u u i u u t u u u r u u ",
"            X X # @ @ @ + @ O O + O # # @ + @ @ @ + @ @ # @ # O + + + + O O + + o + + o o o o o o + + o + o o + o o o o o o o o ",
"            X X # @ @ @ @ @ O O O + # # @ + @ @ + @ @ @ # @ @ O o + + + + + + o o + o o o + o o o o o o o o + o o o o o o o o o ",
"            X X o # # $ @ # # @ @ @ @ @ # @ @ @ @ @ @ @ @ # # # # $ # # # # # # # # # # # # @ @ # $ % $ $ $ $ $ % # # $ $ # $ $ ",
"            . X o = = * % % % % * & & & % % % % & % & = & & & & = % = % = ; = = = = = - - - - = = = = = - - > = = & & & & & & & ",
"            X X X = & * % % % & * * & * % % % * % & * & & & & & = % % = = - = = = = = - - = - ; = = = = = > > - = & = % & & & & ",
"            X X o 4 4 , > > & d d b v z z h N N V A A S B B M m n n h h h h h h h g g v m n B A A y $ % > 5 5 < , % = d m m v g ",
"            . X o 3 4 , > > % d d b v v z h N N V A A S B B M m m n h x v h v h h g g v n n B A A y % % > 5 5 4 , % % a n m v h ",
"            X X # 7 7 5 > > & f f y e e i y d d w w y w w w 9 4 5 5 5 8 9 i y t y y y y i d d g d 5 ; $ > q q 8 = % * g y y w y ",
"            X . O 0 0 6 > > & v z y e e y w d d w y e w w w o . . . . . w w y y y y y i i y i d g 8 % = < e e q > & & h y y e a ",
"            X X O 0 0 6 > > - z z y e e i w d d w e e w w 0 o o . . . . w w y y i y t i i i i g f 8 = % < e e q > * & v y y e y ",
"            X X o 0 0 7 : > $ z h y e w i w i i e w w w w 0 d k g h d g i w y y d w w e i y i g g 8 % % < e q e > # # g t t y i ",
"            X X X q q q - - # g g w w w t w 7 9 w w w w 0 0 0 0 0 0 0 q q q e e r e e q y e y d d 9 # * , w e e > # # g e y w e ",
"            X X + 9 9 9 - - # g g t t t t 9 9 9 q q w q 0 0 0 0 0 0 q q w 0 e e e e e q e r y d d 9 # $ , w w t : # @ g e e w e ",
"            X X + 9 9 q - - % g f 8 9 9 9 8 9 8 8 e r q 9 9 8 0 0 8 0 0 0 q q q e w w q e e r e w 0 # # < w w r > # # g 8 8 9 9 ",
"            X X + 9 9 q - - * g f 8 9 9 9 9 8 8 6 q q 8 0 0 0 0 0 8 9 9 0 q q q e q q q e w q 0 0 0 # # , w w e < # # g 5 5 w 9 ",
"            X X + 9 9 q - - # g g 5 q 9 8 8 8 8 2 r q 8 0 0 0 q 0 8 0 0 0 q q q e q q q e w e 0 q 0 @ $ , 0 0 y , $ # f 7 5 w 8 ",
"            X X @ 8 9 q 3 < * g g 5 q 9 8 8 8 8 8 0 0 8 0 0 0 q 0 0 0 0 0 0 0 0 0 0 0 q q 0 q q 0 q O O < q w e , * * f 5 5 9 7 ",
"            o o @ 9 9 9 3 3 % y i 5 9 9 9 9 9 9 0 q 0 0 0 0 0 0 0 0 0 0 0 0 6 6 0 0 0 0 0 0 0 0 0 q + + < 9 0 w 3 $ $ i 5 5 9 9 ",
"            o o # 9 9 9 3 < % y i 5 9 9 q 9 w w 0 0 0 0 0 0 0 0 0 0 0 0 0 q 6 6 0 0 9 0 0 0 q 0 q 0 + + < 9 9 w < $ * i 5 5 9 q ",
"            o o $ 9 9 9 8 , % 8 7 7 9 9 0 0 0 0 0 0 0 8 8 0 2 6 6 9 9 8 0 0 8 9 6 0 q 0 0 0 0 9 9 7 % $ < 6 6 0 3 * % 5 7 6 0 0 ",
"            o o % 9 9 q 0 0 = + @ o + @ # @ O O O + + # $ % # @ @ @ @ @ @ + @ @ # + O + O O + $ $ $ , , 3 6 6 0 5 & & @ o o + # ",
"            o o = 9 9 w 9 0 = # @ o + + # # O O + + + @ % $ # # @ + @ + + O O @ # + O + + O + # $ $ , , 3 5 6 0 < = = # O o + # ",
"            @ # % 9 9 9 < 8 9 s s a p p p k s s u u p p p p r r r j j j j j j j u q r p j s p l l z x x z v c l l s a s j j j p ",
"            @ @ % 8 9 8 8 8 , < < 1 , , , 1 , , , , > < 1 1 2 < 1 , , , 1 2 2 2 , , 1 1 , < : : : > , : , , , 1 1 1 , , > > > 1 ",
"            # # % 8 8 8 8 8 > < < 1 , , , 1 , , , > > , 2 1 2 < 1 , , , 1 2 2 2 , 1 1 1 , , : : : : > , , , , , , , 1 , > > > 1 ",
"            # @ % 8 8 8 - 8 . + O + @ # + o X X X X X X . X . X X X X X X X O o X X X X X X X . X X o X X X X X X X X X o X o X ",
"            # # % 8 8 8 8 8 X + O + # @ + o X X X X X X X . X X X X X X X X X o X X X X X X X X X X X X X X X o X X X X X o X X ",
"            @ # % 8 8 9 < < o g f y w w y y d d w e e w w w 0 2 2 5 5 5 w i t t y y y y d d d f f 6 % % > q q 9 = % % g y i w i ",
"            @ # % 8 8 9 > > o h h y e w y w d d e e e w w w o X X . . . w w y y y y e i i y y f d 7 & % < e e q > & & z y y e y ",
"            # # = 8 8 8 > > X h h y e e y e d d w e w w 0 w O X X . . . w w y y i y e i i i i f f 7 & & < e e 0 : = % z y y t y ",
"            X X X 8 q 9 > - * h h y e t y w i a e w w w w 9 s j f f f d a w y y i e e e y i i f f 0 % % < q e e : # $ h t y e a ",
"            X X + 9 0 0 - > $ g g w w e e w 9 9 w w w w 0 0 0 0 0 0 0 q w q w e e e e q y r y d d 9 $ $ : e e r - @ @ h e e e e ",
"            X X o 0 9 0 - > # g g y e w e 0 9 9 w w w w 0 0 0 8 0 0 q q q q w e r e e w e e y d d 0 $ $ > e e e - @ @ g e e w e ",
"            . . + w 0 w - - # g f 8 9 9 9 6 8 6 7 e w w 0 0 0 0 0 8 0 0 0 q w w e q q q e e r e e 7 $ $ , w q e - * @ g 7 8 9 9 ",
"            X . + 9 9 0 - - # g g 7 9 w 9 9 6 7 5 w w 7 0 0 8 0 0 8 9 9 0 q q q e q q q e w q 0 q 0 @ @ , w q u < $ # h 5 5 w 9 ",
"            X X o 9 9 9 > > # g f 5 9 9 7 9 7 7 2 0 q 0 0 0 0 0 0 0 0 6 0 q 0 0 e q q q w e e 0 q q # # < w w t < # # g 8 8 9 8 ",
"            X o # 9 9 w < 3 $ g f 5 w w 9 9 8 8 0 0 0 8 0 0 0 q q 0 0 0 0 0 0 0 0 q q 0 q q q q q q o o < q q t < $ $ g 8 3 9 8 ",
"            X o # 8 9 9 3 3 % i d 5 7 7 0 0 0 0 q 0 0 0 0 0 0 0 0 q 0 0 q 0 6 7 0 0 0 0 0 0 0 0 0 0 + + < 9 9 w < * * i 5 5 9 9 ",
"            o o # 9 9 9 3 3 $ i i 5 7 7 0 0 0 0 q q 0 0 0 0 0 0 q 0 0 0 q q 6 6 8 0 0 0 0 0 0 0 0 0 + + < 9 9 w - * % i 5 5 9 q ",
"            o o $ 8 9 9 1 1 % 6 5 6 0 0 0 0 0 0 0 0 0 6 8 8 2 8 6 6 0 6 0 0 6 8 6 0 0 0 0 0 0 0 9 8 % % < 7 5 9 < % * 5 8 9 0 0 ",
"            o o = 9 9 q 0 0 & @ @ O + + # @ O o O + @ # % % # @ @ @ # @ @ + + + @ + + + + O + # # % , , 3 7 7 9 5 = & @ o o + # ",
"            o o % 9 9 0 0 0 & @ @ O + + # @ O O O + + # # % $ @ @ # @ @ @ + + @ # O + + O + + # # $ , , 1 6 6 0 3 = & # o o @ # ",
"            # # % 1 < 6 5 2 0 s p p p p p k s s p p u a p u u r r u j s k k s s r r r p s s p l l c z z z c c z g s s s l s s p ",
"            # # % < < 8 1 1 9 p s p p p u k s s u p p p p p r r u p s s l k s s u q e s s f i l z x l x l c c x j s s s s j j p ",
"            # # % < < 8 2 8 , 1 , 1 , , 1 1 , , , > > > 2 2 2 < , , < , 1 2 2 2 , 1 1 1 , , : > > > > > , , , < 1 1 , , > > > 1 ",
"            # @ % 1 2 2 8 1 + o O @ @ @ + o X X X X X X X . . X X X X X X X o X X X X X X X X X X X o X X X X X X X X X X o X X ",
"            # @ = 1 1 8 1 8 + o O @ @ @ O o . X X X X X . X . X X X X X o X X X X X X X X X X X X X X X X X o X X X X X X o X X ",
"            @ @ = , , , , , o                                                                                                   ",
"            @ @ = > - , > > o                                                                                                   ",
"            # # % - > < > < o                                                                                                   ",
"                                                                                                                                ",
"                                                                                                                                ",
"                                                                                                                                ",
"                                                                                                                                ",
"                                                                                                                                ",
"                                                                                                                                ",
"                                                                                                                                ",
"                                                                                                                                ",
"                                                                                                                                "
};
