/* XPM */
static char *_ce4864cd213443d8ef5834a6d322f2bQjoTwyxgshRclxVD[] = {
/* columns rows colors chars-per-pixel */
"64 64 171 2 ",
"   c None",
".  c #0A0101",
"X  c #140302",
"o  c #1B0403",
"O  c #1E0A04",
"+  c #200704",
"@  c #230C04",
"#  c #280F05",
"$  c #240F08",
"%  c #251005",
"&  c #2B1105",
"*  c #251008",
"=  c #321606",
"-  c #351B07",
";  c #381E07",
":  c #3B2107",
">  c #3D230A",
",  c #412608",
"<  c #452909",
"1  c #4A2E0B",
"2  c #4C310B",
"3  c #52340D",
"4  c #56390F",
"5  c #4F3610",
"6  c #513411",
"7  c #563A13",
"8  c #5B3E15",
"9  c #5C3F19",
"0  c #5E4116",
"q  c #5E4019",
"w  c #644517",
"e  c #63451B",
"r  c #66481E",
"t  c #6E4E1F",
"y  c #5F4829",
"u  c #644721",
"i  c #664A21",
"p  c #6A4D24",
"a  c #60482A",
"s  c #6D5026",
"d  c #6D522A",
"f  c #735324",
"g  c #785827",
"h  c #71552B",
"j  c #75592F",
"k  c #7C5C2D",
"l  c #765A31",
"z  c #7A5D32",
"x  c #785E38",
"c  c #7C6137",
"v  c #7E623A",
"b  c #805F2E",
"n  c #81602E",
"m  c #846332",
"M  c #886736",
"N  c #81673C",
"B  c #8A6938",
"V  c #876C40",
"C  c #8A6E46",
"Z  c #8E7449",
"A  c #927344",
"S  c #987847",
"D  c #91764B",
"F  c #967848",
"G  c #9B7C4B",
"H  c #9F804E",
"J  c #9E8355",
"K  c #A2814E",
"L  c #A58553",
"P  c #A88755",
"I  c #AB8956",
"U  c #AC8C59",
"Y  c #B08F5C",
"T  c #B3925E",
"R  c #B9955F",
"E  c #AA8F61",
"W  c #B59462",
"Q  c #B99662",
"!  c #BC9965",
"~  c #B59968",
"^  c #BD9C69",
"/  c #BB9E71",
"(  c #BFA06C",
")  c #C19D66",
"_  c #C19F69",
"`  c #C4A16A",
"'  c #C6A26B",
"]  c #C4A169",
"[  c #C3A26C",
"{  c #C4A26D",
"}  c #C5A26D",
"|  c #C6A36C",
" . c #C5A36E",
".. c #C4A36E",
"X. c #C7A56F",
"o. c #C7A46D",
"O. c #C4A26C",
"+. c #C9A36E",
"@. c #C8A56D",
"#. c #C8A56E",
"$. c #CAA56F",
"%. c #CAA66F",
"&. c #CAA56E",
"*. c #C0A170",
"=. c #C1A371",
"-. c #C1A270",
";. c #C7A570",
":. c #C6A572",
">. c #C4A473",
",. c #C9A770",
"<. c #CBA771",
"1. c #C8A772",
"2. c #CBA570",
"3. c #C9A672",
"4. c #CBA871",
"5. c #CCA972",
"6. c #CEA972",
"7. c #CDAA73",
"8. c #CFAB72",
"9. c #CBAA74",
"0. c #CCAA75",
"q. c #CFAB75",
"w. c #CDAC75",
"e. c #CFAC75",
"r. c #CBA975",
"t. c #C5A678",
"y. c #C6A97A",
"u. c #C9AC78",
"i. c #CDAD7A",
"p. c #D2AF75",
"a. c #D1AE76",
"s. c #D2AF77",
"d. c #D1AE78",
"f. c #D0AE7A",
"g. c #D5B27B",
"h. c #D6B27A",
"j. c #D7B57D",
"k. c #D2B27D",
"l. c #D8B67D",
"z. c #CFB282",
"x. c #D1B682",
"c. c #D2B383",
"v. c #D6B985",
"b. c #DABB86",
"n. c #D6BC8B",
"m. c #D3B98B",
"M. c #D8BF8C",
"N. c #DCBE8A",
"B. c #DEC18D",
"V. c #DAC694",
"C. c #DEC495",
"Z. c #DECA98",
"A. c #E0C38E",
"S. c #E2C693",
"D. c #E2C894",
"F. c #E6CD9B",
"G. c #E1D39E",
"H. c #E3D3A1",
"J. c #E8D5A4",
"K. c #E3D8A7",
"L. c #E9D9A7",
"P. c #E9D7A8",
"I. c #E3DCAA",
"U. c #EADCAC",
"Y. c #EBDFB0",
"T. c #E4E0AF",
"R. c #EBE0AF",
"E. c #E4E1B2",
"W. c #EBE2B0",
"Q. c #E6E2BA",
"!. c #E6E3C3",
/* pixels */
"                                                                                                                                ",
"                                                                                                                                ",
"                                                                                                                                ",
"T U U I U U Y Y T U W E U Y ~ ^ ^ *.*.>.>.=.*.[ ~ ^ Q W W T T T T T R R R I U L K L P P U I T R Q ! Q ) ! ^ :.:.> X o           ",
"U Y U I U U Y Y Y U W T U E ~ ~ *.*.*.*.*.*.O.*.^ ^ W W W W T T T T R R R I I L K L L P P P Y R W Q Q ! ! ^ :.:.> X o           ",
"U U P L P P L L P L P P P P U U Y E I P P P P I P P P L P G F F S S S S P L K K G G G G G G H H G G F L J ~ > > & @ %           ",
"K G L K K K K K L J K K K K K K G G G P P P G E P P P P P L P I I Y T Y I P P K K G G G S S F F S A A ~ ~ > * & @ O O           ",
"K L K K L K K L L G G K K K K K P G G G G P P P P P P P L L P U I U Y T I P P K K G H S S S F F S A A Q ~ : & # @ @ @           ",
"P I P P L L L L K K G L K L L L L U U U W Y Q ! Q W T U I I P G K G G K G L K P P L G G G G F G F L u.> > * $ $ ; O O           ",
"U U I I I I P I I U T T ! ! Q Q ! _ ) _ _ _ _ ! ! ~ Q W W W Q W Q R Q Q W ! ! ! W T W Y U U Y T W z.> # * O - - C o O           ",
"I U U I I I I I I U T W Q ^ ! Q ! _ _ _ _ _ _ ! ! ! Q Q Q W W W W W Q W Q ! Q Q Q T W U I I Y W W z.> & * * - - C o O           ",
"W W W ! Q ! Q W T W Q Q ^ ) } ;.} [ ` _ _ _ ! ^ ! ) ^ _ ) ) _ _ _ _ ! Q W R W ) [ 4.4.w.w.w.@.V.V.> & # & > d h N O O           ",
"[ [ 1.0.0.w.w.d.d.k.h.j.j.j.h.j.s.5.0.5.5.&.@.X._ _ 2.$.2.@.' ` _ _ ) _ _ ) ) ) _ ) ) ) ) ! V.> > * * ; - h h h l O O           ",
"0.0.;.;.[ } } } } } } } ;.;.,.} @.5.5.s.h.h.s.5.2.2.2.+.+.+._ ) ) ) Q ) ) ) ) ) ] ! ! ! n.B.> % % & - x c j d d l O O           ",
"0.0.0.=.[ [ } } } } } } X.;.} ,.,.5.2.s.h.h.s.2.@.+.@.@.2._ _ ! ) Q ! ) ) ) ) ) ) ) ! ) B.B.> & * & - x v j d d l o o           ",
"} [ } [ [ _ _ _ _ } @.} } +.` _ _ ` } +.$.@.&.5.s.p.s.a.6.+.) Q R R R W R ) R Q ! ! ! v.> > * % & - Z r q p s s l O O           ",
"X.} 2.0.5.5.;._ _ ^ ) _ _ _ _ _ _ _ ^ ] [ ' @.@._ ' ) R R ! 0.f.i.i.i.k.c.f.k.j.i.Z.Z.> * = = - - d x u i r p i s # *           ",
"X.} ,.0.0.5.} _ _ ^ ^ ^ _ _ _ _ ^ _ [ [ ` ` &.&.} ` Q R T ! 0.f.i.i.k.k.k.c.k.c.k.Z.Z.> & & * - ; d z u r r p i s @ @           ",
"! ! Q ! ! ! ! ^ _ _ :.>.1.:.;.} ` [ [ ..[ _ _ [ 0.0.s.s.f.c.h.f.h.d.0.0.2.0.5.0.G.> > & & # > d d j p y a r r r r * *           ",
"^ ^ ^ ~ ~ ! ^ ^ _ _ -.+._ _ ;.:.0.i.i.k.v.v.b.b.b.b.N.N.N.N.B.B.B.B.S.S.F.F.F.Y.> * & * - - 2 l x h u p p r e e r * *           ",
"^ ^ _ ~ ! ! ) ^ _ *.O.-._ _ ;.2.0.i.0.j.v.v.b.v.N.N.N.A.N.N.A.A.A.A.D.S.F.F.F.Y.: & & # - ; 2 l l d i s r r r r e * *           ",
"c.m.z.y.t.t.i.c.c.c.c.v.n.m.v.m.n.N.S.S.A.S.A.D.F.F.F.F.F.L.U.W.R.W.W.W.U.Y.P.; $ # # ; d d d x c h r e w r r r e $ @           ",
"t.*./ t.y.y.t.y.3.i.z.z.v.N.D.D.F.F.H.H.L.L.L.L.R.R.W.U.W.W.U.R.R.U.L.L.E., > & * - ; z h h s z l d p e w e e e q * *           ",
"/ / z.m.S.S.F.J.J.P.P.U.U.Y.Y.Y.Y.Y.Y.U.L.L.U.U.U.U.Y.W.W.W.R.U.L.R.W.W.> & & * - h h z h h s l j d e e r e e e q O O           ",
"/ / z.m.S.C.F.J.J.P.P.U.U.U.W.Y.Y.Y.Y.U.P.P.U.U.R.U.R.W.R.W.U.P.P.R.W.W.> & & & - h h x d h s l l s e e e e e u q O O           ",
"I.I.I.H.H.H.H.H.G.G.H.H.H.K.Q.Y.!.!.!.!.!.Q.Q.E.E.T.E.E.E.E.T.I.T.G.: : * * # - x d h h j h p h h s q e e u 9 q e O O           ",
"b b z z n n b b n n z n n n b b b m b B B B m b n n b b b n b b n : & & # = - C u d s h s h p d d s w q 9 9 q q , @ @           ",
"b b b b n n n b n n n n n n n b b m b M B B m b n n n b b n n b n > & & # = - C i s s s d h p d d s e 9 q 9 9 9 , @ @           ",
"b b z b b b b b n n k b b b b b b b k k k k k k k k g b b b b ; ; # & * - v v l u d d p p p p d d p e 9 q q 3 3 : # #           ",
"o + o o o X o o o o o o o + o o o + + + + o o o o o X o X X X X X X = - l c v u y p i u p p p p p i 9 9 q 3 > , > & &           ",
"o o o o X o o o o o o o + + o o o + + o + + o o o o X X o X X X X X - - l v v i a p p i p p s p p p 9 9 0 4 > , > & &           ",
"& & # = # & & & & & # # # & & # # # # # @ # # # # # # # # # # X X X , , j j j r p u p u p p i i i i e 6 3 # , > , & &           ",
"- : : : - : : > : : : > : : : : : : : - : ; : : : : > > , < > X X . 1 1 d d j r q r r r p d u u u r 3 @ % X , > , # &           ",
"J J E E J J D Z Z Z v v N N N N v c c V Z Z J E c c < 3 6 5 , X X X 1 1 d y u w q e e e s p e i u 8 O X X X , , >               ",
"J J E ~ J J D Z Z C v v N N N N v c c V Z Z J E c c < 3 6 5 , X X X 2 2 s u u r 9 r e r s p q i i 8 @ O X o > , ,               ",
"i a s i i i u 7 5 0 0 0 p h s s d s s s j j j x r r < j j 0 1 . . X 1 1 p 0 0 0 w 9 9 e u p c 7 7 * X . X X , >                 ",
"p p d a q i o X . . . . p r d d j p d d h h d z s p < k b i 6 X X X 1 1 q q 0 0 e 9 9 w h d 0 @ #                               ",
"i i p i i i O . X . . . r r h d h s p j h h h z p t 1 b z p 6 X X . 1 1 q q q q r 9 9 e h s 0 @ @                               ",
"p p r i q i c c c c c c j r d s d p p p h h h z p p , z b s 1 X X X 1 1 q 0 0 e 9 e w u 7 7 %                                   ",
"y r i i r q 0 w r r q q r r i s d p p r p d s k t i > b k h < X X X 1 1 q 0 r 0 e i i 8 O O                                     ",
"0 q p i q 0 w e e 9 w e e e i i p u r e p p p p r r ; b g s < X X X > 1 8 e e q u 0 0 @                                         ",
"q q p p e e 0 e e 9 w w r u i i p r r e p p p p r r ; b b f < X X X < < 8 e e q u w 0 @                                         ",
"0 5 i 0 w w e e r 9 q q e r r u p r r r p i p r r r & g d h < o X X < > q w q r 4 * *                                           ",
"0 0 0 0 e e e r u e e e 0 r w q w r r r i r e e e r + p p h , + X O > < 7 u u 0 @                                               ",
"0 0 q q e e e r e e w w w e w w e e e r r r r e e r @ s p h , X X O , , 9 a i 7 @                                               ",
"r r r w e e e e r e r e r e 8 9 w e e e e e r e r e + t p f , o o O , , u 7 7 %                                                 ",
"w e w q 0 q 0 8 8 9 0 q r e 9 9 8 r e e e e e w q q = s f r > o o o , , , O @                                                   ",
"e e r 0 q q 8 7 8 9 q 9 r e 9 8 9 e r e e w w 9 q q - s f u > o o o < , , @ O                                                   ",
"O @ @ # = = = & # & # # # # # @ & + @ @ + @ @ = = = 1 g g r , o o & > , ,                                                       ",
"f h f g g g t t t t t t t t t t t t t f g g g f t f w 4 3 < ; & & & , , ,                                                       ",
"2 2 1 , < , < 1 2 2 1 1 < 1 3 3 2 1 1 < < < < < < < , , < , : & & & > , ,                                                       ",
"2 2 1 , < < < 1 2 2 1 1 1 1 3 2 2 1 < < < < < , < < , < < , , & & & , > ,                                                       ",
"+ o X X X X X X X + # # @ # + + + @ @ & # # @ @ o X . > ; , ; # & & , , ,                                                       ",
"                                                      - - , , # % & > ,                                                         ",
"                                                      - - , , # # & , ,                                                         ",
"                                                      ; ; , , # # &                                                             ",
"                                                                                                                                ",
"                                                                                                                                ",
"                                                                                                                                ",
"                                                                                                                                ",
"                                                                                                                                ",
"                                                                                                                                ",
"                                                                                                                                ",
"                                                                                                                                "
};
