/* XPM */
static char *result[] = {
/* columns rows colors chars-per-pixel */
"64 64 104 2 ",
"   c #343535",
".  c #353535",
"X  c #373635",
"o  c #383735",
"O  c #3F3F3E",
"+  c #3E3E3F",
"@  c #3F3F3F",
"#  c #403F3F",
"$  c #41403F",
"%  c #42413F",
"&  c #43413F",
"*  c #44433F",
"=  c #664F2C",
"-  c #67502C",
";  c #67512E",
":  c #68502C",
">  c #68512C",
",  c #69522D",
"<  c #69522E",
"1  c #6A522E",
"2  c #6A532E",
"3  c #7C6137",
"4  c #7D6137",
"5  c #7D6237",
"6  c #7E6237",
"7  c #7F6237",
"8  c #7F6337",
"9  c #7E6338",
"0  c #7F6338",
"q  c #7E6239",
"w  c #7E6339",
"e  c #7F6438",
"r  c #424140",
"t  c #434140",
"y  c #434240",
"u  c #444340",
"i  c #666767",
"p  c #676767",
"a  c #696866",
"s  c #696867",
"d  c #6A6967",
"f  c #676868",
"g  c #676869",
"h  c #686868",
"j  c #686869",
"k  c #686969",
"l  c #6A6968",
"z  c #6A6A68",
"x  c #806337",
"c  c #806338",
"v  c #806438",
"b  c #816439",
"n  c #947341",
"m  c #957341",
"M  c #957441",
"N  c #967441",
"B  c #977441",
"V  c #977541",
"C  c #957442",
"Z  c #967442",
"A  c #977542",
"S  c #9D824C",
"D  c #9E834D",
"F  c #9F834D",
"G  c #9D834E",
"H  c #9E834E",
"J  c #9F844D",
"K  c #9E844E",
"L  c #A0854D",
"P  c #A0844E",
"I  c #A0854E",
"U  c #AA8B54",
"Y  c #AB8B54",
"T  c #AC8D54",
"R  c #AD8D54",
"E  c #AC8D55",
"W  c #AD8E54",
"Q  c #AE8E54",
"!  c #AE8F54",
"~  c #AE8E55",
"^  c #AF8F55",
"/  c #AD8E56",
"(  c #B09055",
")  c #B09056",
"_  c #B3905D",
"`  c #B4925E",
"'  c #B5925E",
"]  c #B5935F",
"[  c #B6925E",
"{  c #B6935E",
"}  c #B7935E",
"|  c #B6935F",
" . c #B7945E",
".. c #B7945F",
"X. c #B8945F",
"o. c #B9945F",
"O. c #B9955F",
"+. c #B69360",
"@. c #B99560",
"#. c #C29C62",
"$. c #C29D62",
"%. c #C39E62",
"&. c #C39E63",
"*. c None",
/* pixels */
"*.*.*.*.*.*.*.*.*.*.*.*.*.*.*.*.*.*.*.*.*.*.*.*.*.*.*.*.*.*.*.*.*.*.*.*.*.*.*.*.*.*.*.*.*.*.*.*.*.*.*.*.*.*.*.*.*.*.*.*.*.*.*.- ",
"*.*.*.*.*.*.*.*.*.*.*.*.*.*.*.*.*.*.*.*.*.*.*.*.*.*.*.*.*.*.*.*.*.*.*.*.*.*.*.*.*.*.*.*.*.*.*.*.*.*.*.*.*.*.*.*.*.*.*.*.*.*.- - ",
"*.*.*.*.*.*.*.*.*.*.*.*.*.*.*.*.*.*.*.*.*.*.*.*.*.*.*.*.*.*.*.*.*.*.*.*.*.*.*.*.*.*.*.*.*.*.*.*.*.*.*.*.*.*.*.*.*.*.*.*.- - - = ",
"*.*.*.*.*.*.*.*.*.*.*.*.*.*.*.*.*.*.*.*.*.*.*.*.*.*.*.*.*.*.*.*.*.*.*.*.*.*.*.*.*.*.*.*.*.*.*.*.*.*.*.*.*.*.*.*.*.*.*.- - - = R ",
"*.*.*.*.*.*.*.*.*.*.*.*.*.*.*.*.*.*.*.*.*.*.*.*.*.*.*.*.*.*.*.*.*.*.*.*.*.*.*.*.*.*.*.*.*.*.*.*.*.*.*.*.*.*.*.*.*.- - - = R ^ ^ ",
"*.*.*.*.*.*.*.*.*.*.*.*.*.*.*.*.*.*.*.*.*.*.*.*.*.*.*.*.*.*.*.*.*.*.*.*.*.*.*.*.*.*.*.*.*.*.*.*.*.*.*.*.*.*.*.*.- - - = R ^ ^ ^ ",
"*.*.*.*.*.*.*.*.*.*.*.*.*.*.*.*.*.*.*.*.*.*.*.*.*.*.*.*.*.*.*.*.*.*.*.*.*.*.*.*.*.*.*.*.*.*.*.*.*.*.*.*.*.*.*.- - - = R ^ ^ ^ J ",
"*.*.*.*.*.*.*.*.*.*.*.*.*.*.*.*.*.*.*.*.*.*.*.*.*.*.*.*.*.*.*.*.*.*.*.*.*.*.*.*.*.*.*.*.*.*.*.*.*.*.*.*.*.> > > - Q ) ) ) L L L ",
"*.*.*.*.*.*.*.*.*.*.*.*.*.*.*.*.*.*.*.*.*.*.*.*.*.*.*.*.*.*.*.*.*.*.*.*.*.*.*.*.*.*.*.*.*.*.*.*.*.*.*.*.X X X X r t t r a d d z ",
"*.*.*.*.*.*.*.*.*.*.*.*.*.*.*.*.*.*.*.*.*.*.*.*.*.*.*.*.*.*.*.*.*.*.*.*.*.*.*.*.*.*.*.*.*.*.*.*.*.*.. . . . @ @ @ @ p h h k ; - ",
"*.*.*.*.*.*.*.*.*.*.*.*.*.*.*.*.*.*.*.*.*.*.*.*.*.*.*.*.*.*.*.*.*.*.*.*.*.*.*.*.*.*.*.*.*.*.*.*.*.3 3 3 3 U E E T H G G K 9 5 5 ",
"*.*.*.*.*.*.*.*.*.*.*.*.*.*.*.*.*.*.*.*.*.*.*.*.*.*.*.*.*.*.*.*.*.*.*.*.*.*.*.*.*.*.*.*.*.*.*.6 6 6 6 Q ^ ^ ^ J J J I 0 6 6 6 Q ",
"*.*.*.*.*.*.*.*.*.*.*.*.*.*.*.*.*.*.*.*.*.*.*.*.*.*.*.*.*.*.*.*.*.*.*.*.*.*.*.*.*.*.*.*.*.*.6 6 6 6 Q ^ ^ ^ J J J I c 7 7 6 Q ^ ",
"*.*.*.*.*.*.*.*.*.*.*.*.*.*.*.*.*.*.*.*.*.*.*.*.*.*.*.*.*.*.*.*.*.*.*.*.*.*.*.*.*.*.*.*.*.M M M m } X.X.X.^ ^ ^ ( 2 > > - R ^ ^ ",
"*.*.*.*.*.*.*.*.*.*.*.*.*.*.*.*.*.*.*.*.*.*.*.*.*.*.*.*.*.*.*.*.*.*.*.*.*.*.*.*.*.*.*.N N N N } X.X.X.^ ^ ^ ) , - - = R ^ ^ ^ J ",
"*.*.*.*.*.*.*.*.*.*.*.*.*.*.*.*.*.*.*.*.*.*.*.*.*.*.*.*.*.*.*.*.*.*.*.*.*.*.*.*.*.*.B B B N } X.X.X.^ ^ ^ ) , - - = R ^ ^ ^ J J ",
"*.*.*.*.*.*.*.*.*.*.*.*.*.*.*.*.*.*.*.*.*.*.*.*.*.*.*.*.*.*.*.*.*.*.*.*.*.*.*.*.6 6 6 6 { X.X.X.X.X.X.@.v 6 6 6 { X.X.o.P J J I ",
"*.*.*.*.*.*.*.*.*.*.*.*.*.*.*.*.*.*.*.*.*.*.*.*.*.*.*.*.*.*.*.*.*.*.*.*.*.*.*.6 6 6 6 { X.X.X.X.X.X.@.v 6 6 6 { X.X.o.P J J I 0 ",
"*.*.*.*.*.*.*.*.*.*.*.*.*.*.*.*.*.*.*.*.*.*.*.*.*.*.*.*.*.*.*.*.*.*.*.*.*.> > > > D P P P ..X.X.@.Z M M m } X.X.o.P J J I 0 6 6 ",
"*.*.*.*.*.*.*.*.*.*.*.*.*.*.*.*.*.*.*.*.*.*.*.*.*.*.*.*.*.*.*.*.*.*.*.*.- - - - S J J J ..X.X.@.A N N N } X.X.o.P J J I 0 6 6 6 ",
"*.*.*.*.*.*.*.*.*.*.*.*.*.*.*.*.*.*.*.*.*.*.*.*.*.*.*.*.*.*.*.*.*.*.*.- - - - S J J J X.@.@.@.A N N N } X.X.o.P J J I c 7 7 6 D ",
"*.*.*.*.*.*.*.*.*.*.*.*.*.*.*.*.*.*.*.*.*.*.*.*.*.*.*.*.*.*.*.*.*.- - - - S J J J A A A A N N N N } X.X.o.P J J I , > > > M N N ",
"*.*.*.*.*.*.*.*.*.*.*.*.*.*.*.*.*.*.*.*.*.*.*.*.*.*.*.*.*.*.*.*.- - - - S J J J N N N N N N N N } X.X.o.P J J I , - - - n N N N ",
"*.*.*.*.*.*.*.*.*.*.*.*.*.*.*.*.*.*.*.*.*.*.*.*.*.*.*.*.*.*.- - - - S J J J N N N N N N N N } X.X.o.P J J I , - - - n N N N N N ",
"*.*.*.*.*.*.*.*.*.*.*.*.*.*.*.*.*.*.*.*.*.*.*.*.*.*.*.*.*.- - - = R ^ ^ ^ J J J J N N N N ~ ^ ^ ^ ^ ^ ^ ) , - - - S J J J ^ ^ ^ ",
"*.*.*.*.*.*.*.*.*.*.*.*.*.*.*.*.*.*.*.*.*.*.*.*.*.*.*.- - - = R ^ ^ ^ J J J J N N N N ~ ^ ^ ^ ^ ^ ^ ) , - - - S J J J ^ ^ ^ ) , ",
"*.*.*.*.*.*.*.*.*.*.*.*.*.*.*.*.*.*.*.*.*.*.*.*.*.*.5 5 5 4 F J J J ! ^ ^ ^ v 8 8 8 F J J J  .X.X.X.0 5 5 4 W ^ ^ ^ ^ ^ ^ ) 0 5 ",
"*.*.*.*.*.*.*.*.*.*.*.*.*.*.*.*.*.*.*.*.*.*.*.*.*.6 6 6 6 D J J J ^ ^ ^ ) v 6 6 6 D J J J ..X.X.@.v 6 6 6 Q ^ ^ ^ ^ ^ ^ ) v 6 6 ",
"*.*.*.*.*.*.*.*.*.*.*.*.*.*.*.*.*.*.*.*.*.*.*.6 6 6 6 D J J J ^ ^ ^ ) v 7 7 6 D J J J ..X.X.@.c 6 6 6 Q ^ ^ ^ ^ ^ ^ ) e 6 6 6 { ",
"*.*.*.*.*.*.*.*.*.*.*.*.*.*.*.*.*.*.*.*.*.*.M M M M J J J J  .X.X.O.2 > > > M N N N ^ ^ ^ ) Z M M M J J J J ^ ^ ^ ) Z M M m } X.",
"*.*.*.*.*.*.*.*.*.*.*.*.*.*.*.*.*.*.*.*.N N N N J J J J ..X.X.@.< - - - n N N N ~ ^ ^ ) A N N N J J J J ^ ^ ^ ) A N N N } X.X.o.",
"*.*.*.*.*.*.*.*.*.*.*.*.*.*.*.*.*.*.*.o o o o % % % % s z z z ; - - : & % % % a l l l C N N V * % % % a l l l w 8 8 x u y y y a ",
"*.*.*.*.*.*.*.*.*.*.*.*.*.*.*.*.*.. . . . @ @ @ @ p h h k ; - - : # @ @ @ p h h j C N N V % @ @ @ p h h j q 6 6 8 $ @ @ @ p h h ",
"*.*.*.*.*.*.*.*.*.*.*.*.*.*.*.*.        + + + + p j j j ; - - - O + + + i f f g C B B V $ + + + i f f g q 6 6 8 # + + + i f f g ",
"*.*.*.*.*.*.*.*.*.*.*.*.*.*.*.3 3 3 3 _ ` ` ' K G G K 9 5 5 4 Y E E T ] | | +.b 8 8 8 _ ` ` ` / / / / 0 6 6 6 _ ` ` ` / / / / v ",
"*.*.*.*.*.*.*.*.*.*.*.*.*.6 6 6 6 { X.X.o.P J J I 0 6 6 6 Q ^ ^ ^ X.X.X.@.v 6 6 6 { X.X.X.^ ^ ^ ) v 6 6 6 { X.X.X.^ ^ ^ ) v 6 6 ",
"*.*.*.*.*.*.*.*.*.*.*.*.7 7 7 6 { X.X.o.P J J I 0 6 6 6 Q ^ ^ ^ X.X.X.@.v 6 6 6 { X.X.X.^ ^ ^ ) v 7 7 6 { X.X.X.^ ^ ^ ) v 7 7 6 ",
"*.*.*.*.*.*.*.*.*.*.- - - = R ^ ^ ^ J J J I 0 6 6 6 { X.X.X.X.X.X.@.v 6 6 6 { X.X.o.P J J I , - - = R ^ ^ ^ X.X.X.@.< - - = R ^ ",
"*.*.*.*.*.*.*.*.*.- - - = R ^ ^ ^ J J J I 0 6 6 6 { X.X.X.X.X.X.@.v 6 6 6 { X.X.o.P J J I , - - = R ^ ^ ^ X.X.X.@.< - - = R ^ ^ ",
"*.*.*.*.*.*.*.- - - = R ^ ^ ^ ^ ^ ^ ( 2 > > - [ X.X.X.) ^ ^ ) Z M M m ~ ^ ^ ^ J J J I , - - = ' X.X.X.#.$.$.%.1 - - = R ^ ^ ^ ^ ",
"*.*.*.*.*.*.- - - = R ^ ^ ^ ^ ^ ^ ) , - - = [ X.X.X.^ ^ ^ ) A N N N ~ ^ ^ ^ J J J I , - - = [ X.X.X.$.$.$.&.1 - - = R ^ ^ ^ ^ ^ ",
"*.*.*.*.*.- - - = R ^ ^ ^ ^ ^ ^ ) , - - = [ X.X.X.^ ^ ^ ) A N N N ~ ^ ^ ^ J J J I , - - = [ X.X.X.$.$.$.&.1 - - = R ^ ^ ^ ^ ^ ^ ",
"*.*.*.*.*.*.*.*.*.*.*.*.*.*.*.*.*.*.*.*.*.*.*.*.*.*.*.*.*.*.*.*.*.*.*.*.*.*.*.*.*.*.*.*.*.*.*.*.*.*.*.*.*.*.*.*.*.*.*.*.*.*.*.*.",
"*.*.*.*.*.*.*.*.*.*.*.*.*.*.*.*.*.*.*.*.*.*.*.*.*.*.*.*.*.*.*.*.*.*.*.*.*.*.*.*.*.*.*.*.*.*.*.*.*.*.*.*.*.*.*.*.*.*.*.*.*.*.*.*.",
"*.*.*.*.*.*.*.*.*.*.*.*.*.*.*.*.*.*.*.*.*.*.*.*.*.*.*.*.*.*.*.*.*.*.*.*.*.*.*.*.*.*.*.*.*.*.*.*.*.*.*.*.*.*.*.*.*.*.*.*.*.*.*.*.",
"*.*.*.*.*.*.*.*.*.*.*.*.*.*.*.*.*.*.*.*.*.*.*.*.*.*.*.*.*.*.*.*.*.*.*.*.*.*.*.*.*.*.*.*.*.*.*.*.*.*.*.*.*.*.*.*.*.*.*.*.*.*.*.*.",
"*.*.*.*.*.*.*.*.*.*.*.*.*.*.*.*.*.*.*.*.*.*.*.*.*.*.*.*.*.*.*.*.*.*.*.*.*.*.*.*.*.*.*.*.*.*.*.*.*.*.*.*.*.*.*.*.*.*.*.*.*.*.*.*.",
"*.*.*.*.*.*.*.*.*.*.*.*.*.*.*.*.*.*.*.*.*.*.*.*.*.*.*.*.*.*.*.*.*.*.*.*.*.*.*.*.*.*.*.*.*.*.*.*.*.*.*.*.*.*.*.*.*.*.*.*.*.*.*.*.",
"*.*.*.*.*.*.*.*.*.*.*.*.*.*.*.*.*.*.*.*.*.*.*.*.*.*.*.*.*.*.*.*.*.*.*.*.*.*.*.*.*.*.*.*.*.*.*.*.*.*.*.*.*.*.*.*.*.*.*.*.*.*.*.*.",
"*.*.*.*.*.*.*.*.*.*.*.*.*.*.*.*.*.*.*.*.*.*.*.*.*.*.*.*.*.*.*.*.*.*.*.*.*.*.*.*.*.*.*.*.*.*.*.*.*.*.*.*.*.*.*.*.*.*.*.*.*.*.*.*.",
"*.*.*.*.*.*.*.*.*.*.*.*.*.*.*.*.*.*.*.*.*.*.*.*.*.*.*.*.*.*.*.*.*.*.*.*.*.*.*.*.*.*.*.*.*.*.*.*.*.*.*.*.*.*.*.*.*.*.*.*.*.*.*.*.",
"*.*.*.*.*.*.*.*.*.*.*.*.*.*.*.*.*.*.*.*.*.*.*.*.*.*.*.*.*.*.*.*.*.*.*.*.*.*.*.*.*.*.*.*.*.*.*.*.*.*.*.*.*.*.*.*.*.*.*.*.*.*.*.*.",
"*.*.*.*.*.*.*.*.*.*.*.*.*.*.*.*.*.*.*.*.*.*.*.*.*.*.*.*.*.*.*.*.*.*.*.*.*.*.*.*.*.*.*.*.*.*.*.*.*.*.*.*.*.*.*.*.*.*.*.*.*.*.*.*.",
"*.*.*.*.*.*.*.*.*.*.*.*.*.*.*.*.*.*.*.*.*.*.*.*.*.*.*.*.*.*.*.*.*.*.*.*.*.*.*.*.*.*.*.*.*.*.*.*.*.*.*.*.*.*.*.*.*.*.*.*.*.*.*.*.",
"*.*.*.*.*.*.*.*.*.*.*.*.*.*.*.*.*.*.*.*.*.*.*.*.*.*.*.*.*.*.*.*.*.*.*.*.*.*.*.*.*.*.*.*.*.*.*.*.*.*.*.*.*.*.*.*.*.*.*.*.*.*.*.*.",
"*.*.*.*.*.*.*.*.*.*.*.*.*.*.*.*.*.*.*.*.*.*.*.*.*.*.*.*.*.*.*.*.*.*.*.*.*.*.*.*.*.*.*.*.*.*.*.*.*.*.*.*.*.*.*.*.*.*.*.*.*.*.*.*.",
"*.*.*.*.*.*.*.*.*.*.*.*.*.*.*.*.*.*.*.*.*.*.*.*.*.*.*.*.*.*.*.*.*.*.*.*.*.*.*.*.*.*.*.*.*.*.*.*.*.*.*.*.*.*.*.*.*.*.*.*.*.*.*.*.",
"*.*.*.*.*.*.*.*.*.*.*.*.*.*.*.*.*.*.*.*.*.*.*.*.*.*.*.*.*.*.*.*.*.*.*.*.*.*.*.*.*.*.*.*.*.*.*.*.*.*.*.*.*.*.*.*.*.*.*.*.*.*.*.*.",
"*.*.*.*.*.*.*.*.*.*.*.*.*.*.*.*.*.*.*.*.*.*.*.*.*.*.*.*.*.*.*.*.*.*.*.*.*.*.*.*.*.*.*.*.*.*.*.*.*.*.*.*.*.*.*.*.*.*.*.*.*.*.*.*.",
"*.*.*.*.*.*.*.*.*.*.*.*.*.*.*.*.*.*.*.*.*.*.*.*.*.*.*.*.*.*.*.*.*.*.*.*.*.*.*.*.*.*.*.*.*.*.*.*.*.*.*.*.*.*.*.*.*.*.*.*.*.*.*.*.",
"*.*.*.*.*.*.*.*.*.*.*.*.*.*.*.*.*.*.*.*.*.*.*.*.*.*.*.*.*.*.*.*.*.*.*.*.*.*.*.*.*.*.*.*.*.*.*.*.*.*.*.*.*.*.*.*.*.*.*.*.*.*.*.*.",
"*.*.*.*.*.*.*.*.*.*.*.*.*.*.*.*.*.*.*.*.*.*.*.*.*.*.*.*.*.*.*.*.*.*.*.*.*.*.*.*.*.*.*.*.*.*.*.*.*.*.*.*.*.*.*.*.*.*.*.*.*.*.*.*.",
"*.*.*.*.*.*.*.*.*.*.*.*.*.*.*.*.*.*.*.*.*.*.*.*.*.*.*.*.*.*.*.*.*.*.*.*.*.*.*.*.*.*.*.*.*.*.*.*.*.*.*.*.*.*.*.*.*.*.*.*.*.*.*.*.",
"*.*.*.*.*.*.*.*.*.*.*.*.*.*.*.*.*.*.*.*.*.*.*.*.*.*.*.*.*.*.*.*.*.*.*.*.*.*.*.*.*.*.*.*.*.*.*.*.*.*.*.*.*.*.*.*.*.*.*.*.*.*.*.*."
};
