/* XPM */
static char *result[] = {
/* columns rows colors chars-per-pixel */
"64 64 102 2 ",
"   c #343535",
".  c #353535",
"X  c #373635",
"o  c #363637",
"O  c #373737",
"+  c #383736",
"@  c #3E3E3F",
"#  c #3F3F3F",
"$  c #403F3F",
"%  c #41403F",
"&  c #42413F",
"*  c #44423F",
"=  c #44433F",
"-  c #664F2C",
";  c #67502C",
":  c #67512E",
">  c #68502C",
",  c #68512C",
"<  c #69512D",
"1  c #69522D",
"2  c #69522E",
"3  c #6A532E",
"4  c #7C6137",
"5  c #7D6137",
"6  c #7D6237",
"7  c #7E6237",
"8  c #7F6237",
"9  c #7F6337",
"0  c #7D6238",
"q  c #7E6338",
"w  c #7F6338",
"e  c #7E6239",
"r  c #7E6339",
"t  c #7F6438",
"y  c #424140",
"u  c #434140",
"i  c #434240",
"p  c #676767",
"a  c #696866",
"s  c #696867",
"d  c #6A6967",
"f  c #676869",
"g  c #686868",
"h  c #686869",
"j  c #686969",
"k  c DimGray",
"l  c #6A6968",
"z  c #6A6A68",
"x  c #6B6A68",
"c  c #806337",
"v  c #806338",
"b  c #806438",
"n  c #947341",
"m  c #957341",
"M  c #957441",
"N  c #967441",
"B  c #977441",
"V  c #977541",
"C  c #957442",
"Z  c #967442",
"A  c #977542",
"S  c #987542",
"D  c #9B814C",
"F  c #9D824C",
"G  c #9C824D",
"H  c #9E834D",
"J  c #9F834D",
"K  c #9D834E",
"L  c #9E834E",
"P  c #9F844D",
"I  c #9E844E",
"U  c #9F854E",
"Y  c #A0854D",
"T  c #A0844E",
"R  c #A0854E",
"E  c #AB8B54",
"W  c #AC8D54",
"Q  c #AD8D54",
"!  c #AC8D55",
"~  c #AD8E54",
"^  c #AD8E55",
"/  c #AE8E54",
"(  c #AE8F54",
")  c #AF8F55",
"_  c #AD8E56",
"`  c #B09055",
"'  c #B09056",
"]  c #B3905D",
"[  c #B5925D",
"{  c #B4925E",
"}  c #B5925E",
"|  c #B6925E",
" . c #B6935E",
".. c #B7935E",
"X. c #B7945E",
"o. c #B7945F",
"O. c #B8945F",
"+. c #B9945F",
"@. c #B9955F",
"#. c #B99560",
"$. c #BA9560",
"%. c None",
/* pixels */
"; ; ; - Q ) ) ) P P P R 1 ; ; ; F P P P N N N A < ; ; - Q ) ) ) P P P R 1 ; ; ; n N N N P P P R 1 ; ; - Q ) ) ) P P P R 1 ; ; ; ",
"; ; - Q ) ) ) P P P R 1 ; ; ; F P P P N N N A < ; ; - Q ) ) ) P P P R 1 ; ; ; n N N N P P P R 1 ; ; - Q ) ) ) P P P R 1 ; ; ; %.",
"- Q ) ) ) P P P R 1 ; ; ; F P P P N N N N < ; ; - Q ) ) ) P P P R 1 ; ; ; n N N N P P P U 1 ; ; - Q ) ) ) P P P R 1 ; ; ; %.%.%.",
"Q ) ) ) P P P R 1 ; ; ; F P P P o.O.O.#.b 7 7 7  .O.O.+.T P P R w 7 7 7 H P P P o.O.O.#.2 ; ; - Q ) ) ) P P P R 1 ; ; ; %.%.%.%.",
") ) P P P R 1 ; ; ; F P P P o.O.O.#.b 7 7 7  .O.O.+.T P P R w 7 7 7 H P P P o.O.O.#.2 ; ; - Q ) ) ) P P P R 1 ; ; ; %.%.%.%.%.%.",
") P P P R 1 ; ; - [ o.o.o.O.O.O.#.3 , , ; | O.O.+.T P P P N M M M P P P P T T T R 1 ; ; - Q ) ) ) P P P R 1 ; ; ; %.%.%.%.%.%.%.",
"P P R 1 ; ; - | O.O.O.O.O.O.#.2 ; ; - | O.O.+.T P P P N N N N P P P P P P P R 1 ; ; - Q ) ) ) P P P R 1 ; ; ; %.%.%.%.%.%.%.%.%.",
"Y Y 1 ; ; - ..#.#.#.@.@.@.$.2 ; ; - ..#.#.$.R Y Y Y B B B B Y Y Y Y Y Y Y Y 1 ; ; - / ' ' ' Y Y Y Y 1 , , , %.%.%.%.%.%.%.%.%.%.",
"z : ; ; ; * i i i s z z z : ; ; ; * i i i a d d l r 9 9 c * & & & a d d l 0 6 6 7 * u u y a d d z + X X X %.%.%.%.%.%.%.%.%.%.%.",
"; ; > $ # # # p g g j : ; ; > $ # # # p g g h e 7 7 9 % # # # p g g h e 7 7 9 % # # # p g g k O . . . %.%.%.%.%.%.%.%.%.%.%.%.%.",
"6 5 E ! ! W _ _ _ _ w 6 6 5 ] { { { _ _ _ _ w 7 7 7 D G G G ^ _ _ _ w 7 7 7 E ! ! W L K K I 0 4 4 4 %.%.%.%.%.%.%.%.%.%.%.%.%.%.",
"/ ) ) ) ) ) ) ' b 7 7 7  .O.O.O.) ) ) ' b 7 7 7 H P P P ) ) ) ' b 7 7 7 / ) ) ) P P P R w 7 7 7 %.%.%.%.%.%.%.%.%.%.%.%.%.%.%.%.",
") ) ) ) ) ) ' b 8 8 7  .O.O.O.) ) ) ' b 7 7 7 H P P P ) ) ) ' t 7 7 7 / ) ) ) P P P R v 8 8 8 %.%.%.%.%.%.%.%.%.%.%.%.%.%.%.%.%.",
") R P P R 1 , , ; Q ) ) ) o.O.O.O.b 7 7 7 ~ ) ) ) ) ) ) ' Z M M m ..O.O.O.) ) ) ` 3 , , , %.%.%.%.%.%.%.%.%.%.%.%.%.%.%.%.%.%.%.",
"P P P R 1 ; ; - Q ) ) ) O.O.O.#.b 7 7 7 / ) ) ) ) ) ) ' A N N N ..O.O.O.) ) ) ' 1 ; ; ; %.%.%.%.%.%.%.%.%.%.%.%.%.%.%.%.%.%.%.%.",
"P P R 1 ; ; - Q ) ) ) O.O.O.#.b 8 8 7 / ) ) ) ) ) ) ' A B B N ..O.O.O.) ) ) ' 1 ; ; ; %.%.%.%.%.%.%.%.%.%.%.%.%.%.%.%.%.%.%.%.%.",
"R w 7 7 7 / ) ) ) O.O.O.#.2 ; ; ; F P P P ) ) ) ' b 7 7 7  .O.O.O.O.O.O.#.b 7 7 7 %.%.%.%.%.%.%.%.%.%.%.%.%.%.%.%.%.%.%.%.%.%.%.",
"w 7 7 7 / ) ) ) O.O.O.#.2 ; ; ; F P P P ) ) ) ' b 7 7 7  .O.O.O.O.O.O.#.b 7 7 7 %.%.%.%.%.%.%.%.%.%.%.%.%.%.%.%.%.%.%.%.%.%.%.%.",
"7 7 J P P P o.O.O.#.2 ; ; ; F P P P ) ) ) ' 3 , , , H T T T o.O.O.#.Z M M M %.%.%.%.%.%.%.%.%.%.%.%.%.%.%.%.%.%.%.%.%.%.%.%.%.%.",
"7 H P P P o.O.O.#.2 ; ; ; F P P P ) ) ) ' 1 ; ; ; F P P P o.O.O.#.A N N N %.%.%.%.%.%.%.%.%.%.%.%.%.%.%.%.%.%.%.%.%.%.%.%.%.%.%.",
"P P P O.#.#.#.2 ; ; ; F P P P ) ) ) ' 1 ; ; ; F P P P O.#.#.#.A N N N %.%.%.%.%.%.%.%.%.%.%.%.%.%.%.%.%.%.%.%.%.%.%.%.%.%.%.%.%.",
"N N A A A S < ; ; ; F P P P P P P R 1 ; ; ; F P P P A A A A N N N N %.%.%.%.%.%.%.%.%.%.%.%.%.%.%.%.%.%.%.%.%.%.%.%.%.%.%.%.%.%.",
"N N N N A < ; ; ; F P P P P P P R 1 ; ; ; F P P P N N N N N N N N %.%.%.%.%.%.%.%.%.%.%.%.%.%.%.%.%.%.%.%.%.%.%.%.%.%.%.%.%.%.%.",
"N N N < ; ; ; F P P P P P P R 1 ; ; ; F P P P N N N N N N N N %.%.%.%.%.%.%.%.%.%.%.%.%.%.%.%.%.%.%.%.%.%.%.%.%.%.%.%.%.%.%.%.%.",
") ' 1 ; ; - Q ) ) ) P P P R 1 ; ; - Q ) ) ) P P P P N N N N %.%.%.%.%.%.%.%.%.%.%.%.%.%.%.%.%.%.%.%.%.%.%.%.%.%.%.%.%.%.%.%.%.%.",
"1 ; ; - Q ) ) ) P P P R 1 ; ; - Q ) ) ) P P P P N N N N %.%.%.%.%.%.%.%.%.%.%.%.%.%.%.%.%.%.%.%.%.%.%.%.%.%.%.%.%.%.%.%.%.%.%.%.",
"6 6 5  .O.O.O.T P P R q 6 6 5 J P P P ( ) ) ) b 9 9 9 %.%.%.%.%.%.%.%.%.%.%.%.%.%.%.%.%.%.%.%.%.%.%.%.%.%.%.%.%.%.%.%.%.%.%.%.%.",
"7  .O.O.+.T P P R w 7 7 7 H P P P ) ) ) ' b 7 7 7 %.%.%.%.%.%.%.%.%.%.%.%.%.%.%.%.%.%.%.%.%.%.%.%.%.%.%.%.%.%.%.%.%.%.%.%.%.%.%.",
" .O.O.+.T P P R w 7 7 7 H P P P ) ) ) ' b 8 8 8 %.%.%.%.%.%.%.%.%.%.%.%.%.%.%.%.%.%.%.%.%.%.%.%.%.%.%.%.%.%.%.%.%.%.%.%.%.%.%.%.",
"O.O.+.T P P P N M M M P P P P X.O.O.@.3 , , , %.%.%.%.%.%.%.%.%.%.%.%.%.%.%.%.%.%.%.%.%.%.%.%.%.%.%.%.%.%.%.%.%.%.%.%.%.%.%.%.%.",
"+.T P P P N N N N P P P P o.O.O.#.2 ; ; ; %.%.%.%.%.%.%.%.%.%.%.%.%.%.%.%.%.%.%.%.%.%.%.%.%.%.%.%.%.%.%.%.%.%.%.%.%.%.%.%.%.%.%.",
"a d d l C N N V = & & & s z z x + X X X %.%.%.%.%.%.%.%.%.%.%.%.%.%.%.%.%.%.%.%.%.%.%.%.%.%.%.%.%.%.%.%.%.%.%.%.%.%.%.%.%.%.%.%.",
"g h C N N V & # # # p g g k O . . . %.%.%.%.%.%.%.%.%.%.%.%.%.%.%.%.%.%.%.%.%.%.%.%.%.%.%.%.%.%.%.%.%.%.%.%.%.%.%.%.%.%.%.%.%.%.",
"f C B B V % @ @ @ p h h h o       %.%.%.%.%.%.%.%.%.%.%.%.%.%.%.%.%.%.%.%.%.%.%.%.%.%.%.%.%.%.%.%.%.%.%.%.%.%.%.%.%.%.%.%.%.%.%.",
"9 9 9 ] { { } I K K I 0 4 4 4 %.%.%.%.%.%.%.%.%.%.%.%.%.%.%.%.%.%.%.%.%.%.%.%.%.%.%.%.%.%.%.%.%.%.%.%.%.%.%.%.%.%.%.%.%.%.%.%.%.",
"7 7  .O.O.+.T P P R w 7 7 7 %.%.%.%.%.%.%.%.%.%.%.%.%.%.%.%.%.%.%.%.%.%.%.%.%.%.%.%.%.%.%.%.%.%.%.%.%.%.%.%.%.%.%.%.%.%.%.%.%.%.",
"7  .O.O.+.T P P R w 7 7 7 %.%.%.%.%.%.%.%.%.%.%.%.%.%.%.%.%.%.%.%.%.%.%.%.%.%.%.%.%.%.%.%.%.%.%.%.%.%.%.%.%.%.%.%.%.%.%.%.%.%.%.",
") ) ) P P P R w 7 7 7 %.%.%.%.%.%.%.%.%.%.%.%.%.%.%.%.%.%.%.%.%.%.%.%.%.%.%.%.%.%.%.%.%.%.%.%.%.%.%.%.%.%.%.%.%.%.%.%.%.%.%.%.%.",
") ) P P P R w 7 7 7 %.%.%.%.%.%.%.%.%.%.%.%.%.%.%.%.%.%.%.%.%.%.%.%.%.%.%.%.%.%.%.%.%.%.%.%.%.%.%.%.%.%.%.%.%.%.%.%.%.%.%.%.%.%.",
") ) ) ` 3 , , , %.%.%.%.%.%.%.%.%.%.%.%.%.%.%.%.%.%.%.%.%.%.%.%.%.%.%.%.%.%.%.%.%.%.%.%.%.%.%.%.%.%.%.%.%.%.%.%.%.%.%.%.%.%.%.%.",
") ) ' 1 ; ; ; %.%.%.%.%.%.%.%.%.%.%.%.%.%.%.%.%.%.%.%.%.%.%.%.%.%.%.%.%.%.%.%.%.%.%.%.%.%.%.%.%.%.%.%.%.%.%.%.%.%.%.%.%.%.%.%.%.",
"' 1 ; ; ; %.%.%.%.%.%.%.%.%.%.%.%.%.%.%.%.%.%.%.%.%.%.%.%.%.%.%.%.%.%.%.%.%.%.%.%.%.%.%.%.%.%.%.%.%.%.%.%.%.%.%.%.%.%.%.%.%.%.%.",
"%.%.%.%.%.%.%.%.%.%.%.%.%.%.%.%.%.%.%.%.%.%.%.%.%.%.%.%.%.%.%.%.%.%.%.%.%.%.%.%.%.%.%.%.%.%.%.%.%.%.%.%.%.%.%.%.%.%.%.%.%.%.%.%.",
"%.%.%.%.%.%.%.%.%.%.%.%.%.%.%.%.%.%.%.%.%.%.%.%.%.%.%.%.%.%.%.%.%.%.%.%.%.%.%.%.%.%.%.%.%.%.%.%.%.%.%.%.%.%.%.%.%.%.%.%.%.%.%.%.",
"%.%.%.%.%.%.%.%.%.%.%.%.%.%.%.%.%.%.%.%.%.%.%.%.%.%.%.%.%.%.%.%.%.%.%.%.%.%.%.%.%.%.%.%.%.%.%.%.%.%.%.%.%.%.%.%.%.%.%.%.%.%.%.%.",
"%.%.%.%.%.%.%.%.%.%.%.%.%.%.%.%.%.%.%.%.%.%.%.%.%.%.%.%.%.%.%.%.%.%.%.%.%.%.%.%.%.%.%.%.%.%.%.%.%.%.%.%.%.%.%.%.%.%.%.%.%.%.%.%.",
"%.%.%.%.%.%.%.%.%.%.%.%.%.%.%.%.%.%.%.%.%.%.%.%.%.%.%.%.%.%.%.%.%.%.%.%.%.%.%.%.%.%.%.%.%.%.%.%.%.%.%.%.%.%.%.%.%.%.%.%.%.%.%.%.",
"%.%.%.%.%.%.%.%.%.%.%.%.%.%.%.%.%.%.%.%.%.%.%.%.%.%.%.%.%.%.%.%.%.%.%.%.%.%.%.%.%.%.%.%.%.%.%.%.%.%.%.%.%.%.%.%.%.%.%.%.%.%.%.%.",
"%.%.%.%.%.%.%.%.%.%.%.%.%.%.%.%.%.%.%.%.%.%.%.%.%.%.%.%.%.%.%.%.%.%.%.%.%.%.%.%.%.%.%.%.%.%.%.%.%.%.%.%.%.%.%.%.%.%.%.%.%.%.%.%.",
"%.%.%.%.%.%.%.%.%.%.%.%.%.%.%.%.%.%.%.%.%.%.%.%.%.%.%.%.%.%.%.%.%.%.%.%.%.%.%.%.%.%.%.%.%.%.%.%.%.%.%.%.%.%.%.%.%.%.%.%.%.%.%.%.",
"%.%.%.%.%.%.%.%.%.%.%.%.%.%.%.%.%.%.%.%.%.%.%.%.%.%.%.%.%.%.%.%.%.%.%.%.%.%.%.%.%.%.%.%.%.%.%.%.%.%.%.%.%.%.%.%.%.%.%.%.%.%.%.%.",
"%.%.%.%.%.%.%.%.%.%.%.%.%.%.%.%.%.%.%.%.%.%.%.%.%.%.%.%.%.%.%.%.%.%.%.%.%.%.%.%.%.%.%.%.%.%.%.%.%.%.%.%.%.%.%.%.%.%.%.%.%.%.%.%.",
"%.%.%.%.%.%.%.%.%.%.%.%.%.%.%.%.%.%.%.%.%.%.%.%.%.%.%.%.%.%.%.%.%.%.%.%.%.%.%.%.%.%.%.%.%.%.%.%.%.%.%.%.%.%.%.%.%.%.%.%.%.%.%.%.",
"%.%.%.%.%.%.%.%.%.%.%.%.%.%.%.%.%.%.%.%.%.%.%.%.%.%.%.%.%.%.%.%.%.%.%.%.%.%.%.%.%.%.%.%.%.%.%.%.%.%.%.%.%.%.%.%.%.%.%.%.%.%.%.%.",
"%.%.%.%.%.%.%.%.%.%.%.%.%.%.%.%.%.%.%.%.%.%.%.%.%.%.%.%.%.%.%.%.%.%.%.%.%.%.%.%.%.%.%.%.%.%.%.%.%.%.%.%.%.%.%.%.%.%.%.%.%.%.%.%.",
"%.%.%.%.%.%.%.%.%.%.%.%.%.%.%.%.%.%.%.%.%.%.%.%.%.%.%.%.%.%.%.%.%.%.%.%.%.%.%.%.%.%.%.%.%.%.%.%.%.%.%.%.%.%.%.%.%.%.%.%.%.%.%.%.",
"%.%.%.%.%.%.%.%.%.%.%.%.%.%.%.%.%.%.%.%.%.%.%.%.%.%.%.%.%.%.%.%.%.%.%.%.%.%.%.%.%.%.%.%.%.%.%.%.%.%.%.%.%.%.%.%.%.%.%.%.%.%.%.%.",
"%.%.%.%.%.%.%.%.%.%.%.%.%.%.%.%.%.%.%.%.%.%.%.%.%.%.%.%.%.%.%.%.%.%.%.%.%.%.%.%.%.%.%.%.%.%.%.%.%.%.%.%.%.%.%.%.%.%.%.%.%.%.%.%.",
"%.%.%.%.%.%.%.%.%.%.%.%.%.%.%.%.%.%.%.%.%.%.%.%.%.%.%.%.%.%.%.%.%.%.%.%.%.%.%.%.%.%.%.%.%.%.%.%.%.%.%.%.%.%.%.%.%.%.%.%.%.%.%.%.",
"%.%.%.%.%.%.%.%.%.%.%.%.%.%.%.%.%.%.%.%.%.%.%.%.%.%.%.%.%.%.%.%.%.%.%.%.%.%.%.%.%.%.%.%.%.%.%.%.%.%.%.%.%.%.%.%.%.%.%.%.%.%.%.%.",
"%.%.%.%.%.%.%.%.%.%.%.%.%.%.%.%.%.%.%.%.%.%.%.%.%.%.%.%.%.%.%.%.%.%.%.%.%.%.%.%.%.%.%.%.%.%.%.%.%.%.%.%.%.%.%.%.%.%.%.%.%.%.%.%.",
"%.%.%.%.%.%.%.%.%.%.%.%.%.%.%.%.%.%.%.%.%.%.%.%.%.%.%.%.%.%.%.%.%.%.%.%.%.%.%.%.%.%.%.%.%.%.%.%.%.%.%.%.%.%.%.%.%.%.%.%.%.%.%.%.",
"%.%.%.%.%.%.%.%.%.%.%.%.%.%.%.%.%.%.%.%.%.%.%.%.%.%.%.%.%.%.%.%.%.%.%.%.%.%.%.%.%.%.%.%.%.%.%.%.%.%.%.%.%.%.%.%.%.%.%.%.%.%.%.%.",
"%.%.%.%.%.%.%.%.%.%.%.%.%.%.%.%.%.%.%.%.%.%.%.%.%.%.%.%.%.%.%.%.%.%.%.%.%.%.%.%.%.%.%.%.%.%.%.%.%.%.%.%.%.%.%.%.%.%.%.%.%.%.%.%."
};
