/* XPM */
static char *result[] = {
/* columns rows colors chars-per-pixel */
"64 64 199 2 ",
"   c #010103",
".  c #0B0100",
"X  c #01020A",
"o  c #0A0409",
"O  c #040A0D",
"+  c #0A0A0B",
"@  c #090E07",
"#  c #120100",
"$  c #1A0100",
"%  c #170D06",
"&  c #0B120A",
"*  c #15120D",
"=  c #040B13",
"-  c #0F0D10",
";  c #110F12",
":  c #0A1413",
">  c #0A121B",
",  c #0B171A",
"<  c #131313",
"1  c #11151A",
"2  c #161D1F",
"3  c #240000",
"4  c #2A0300",
"5  c #280900",
"6  c #340400",
"7  c #330900",
"8  c #390E00",
"9  c #2A1400",
"0  c #221300",
"q  c #351200",
"w  c #3B1100",
"e  c #3B1C04",
"r  c #3E2206",
"t  c #22241F",
"y  c #332613",
"u  c #141623",
"i  c #182227",
"p  c #511600",
"a  c #5A2B0D",
"s  c #786018",
"d  c #554F37",
"f  c #6F4E3D",
"g  c #715A3A",
"h  c #826B1F",
"j  c #8F4E2E",
"k  c #9B5F3D",
"l  c #A65B3C",
"z  c #B65C39",
"x  c #816D32",
"c  c #A6712F",
"v  c #A36C3B",
"b  c #A6693E",
"n  c #B16C3D",
"m  c #B0673A",
"M  c #AB7038",
"N  c #B5743C",
"B  c #EE7A2F",
"V  c #F0712E",
"C  c #E77A3E",
"Z  c #F67334",
"A  c #F97234",
"S  c #F27937",
"D  c #F5783C",
"F  c #8D5841",
"G  c #945B40",
"H  c #9D6446",
"J  c #987544",
"K  c #9B764B",
"L  c #8D6752",
"P  c #936651",
"I  c #A36743",
"U  c #B86B44",
"Y  c #BD734C",
"T  c #B67D5F",
"R  c #E97F4D",
"E  c #E47B47",
"W  c #F97B49",
"Q  c #E77E51",
"!  c #B3873E",
"~  c #B4913E",
"^  c #DE8737",
"/  c #DA9538",
"(  c #E58D3C",
")  c #E98D3D",
"_  c #E68B3A",
"`  c #F18C3A",
"'  c #ED9237",
"]  c #E4933C",
"[  c #EA913D",
"{  c #E59E3E",
"}  c #E5993A",
"|  c #F2923E",
" . c #E4A03D",
".. c #B99441",
"X. c #B69342",
"o. c #AF8F52",
"O. c #B18F52",
"+. c #AE9151",
"@. c #A7925B",
"#. c #B29259",
"$. c #DE9449",
"%. c #C48856",
"&. c #D69B55",
"*. c #EB8146",
"=. c #E48E43",
"-. c #EB8E43",
";. c #EB834C",
":. c #ED8E4B",
">. c #E5884B",
",. c #F48E44",
"<. c #F38B4C",
"1. c #E69341",
"2. c #EA9244",
"3. c #ED9943",
"4. c #E5944E",
"5. c #EA934A",
"6. c #EC9A4E",
"7. c #E79F4B",
"8. c #F09545",
"9. c #F29C44",
"0. c #EC8355",
"q. c #E28D54",
"w. c #E29452",
"e. c #ED9554",
"r. c #E59A55",
"t. c #EC9C54",
"y. c #E39C5C",
"u. c #EB9C58",
"i. c #F29955",
"p. c #F49759",
"a. c #DCA55A",
"s. c #EAA542",
"d. c #F7AD4A",
"f. c #FFBE46",
"g. c #FCB54C",
"h. c #FDBC4C",
"j. c #F6BF4A",
"k. c #E7A15D",
"l. c #ECA05C",
"z. c #E6AF54",
"x. c #FCAF55",
"c. c #FFB551",
"v. c #F5BC52",
"b. c #FCBE50",
"n. c #F9BA5B",
"m. c #DA8862",
"M. c #E18C65",
"N. c #E49C64",
"B. c #E29667",
"V. c #ECA261",
"C. c #E2A869",
"Z. c #F3A263",
"A. c #EFC04E",
"S. c #FAC445",
"D. c #F3C24C",
"F. c #FDC24B",
"G. c #F6C441",
"H. c #EDC151",
"J. c #FCC353",
"K. c #F2CA57",
"L. c #F1C55A",
"P. c #FEC45A",
"I. c #FBCB5B",
"U. c #F8CD59",
"Y. c #FCD25D",
"T. c #EECB67",
"R. c #FDCA64",
"E. c #F8C563",
"W. c #FFDC6E",
"Q. c #F9D36B",
"!. c #FFDF76",
"~. c #FFDE79",
"^. c #FEE474",
"/. c #FFE57B",
"(. c #FFE87C",
"). c #FEE684",
"_. c #FEE984",
"`. c #F6E68E",
"'. c #FEE488",
"]. c #FBEA88",
"[. c #EFEA99",
"{. c #FFEF9F",
"}. c #F6E792",
"|. c #FFE8A2",
" X c #FDEFBB",
".X c #FBEAB8",
"XX c #FFFDBD",
"oX c #FFF8B2",
"OX c #FCEFC5",
"+X c #FFF5C2",
"@X c #FFFBCD",
"#X c #FCFAC7",
"$X c #FFFDD5",
"%X c #FFFFDD",
"&X c #FFFDE4",
"*X c #FFFFEC",
"=X c #FEFFF4",
"-X c #FEFFFD",
";X c None",
/* pixels */
";X;X;X;X;X;X;X;X;X;X;X;X;X;X;X;X;X;X;X;X;X;X;X;X;X;X;X;X;X;X;X;X;X;X;X;X;X;X;X;X;X;X;X;X;X;X;X;X;X;X;X;X;X;X;X;X;X;X;X;X;X;X;X;X",
";X;X;X;X;X;X;X;X;X;X;X;X;X;X;X;X;X;X;X;X;X;X;X;X;X;X;X;X;X;X;X;X;X;X;X;X;X;X;X;X;X;X;X;X;X;X;X;X;X;X;X;X;X;X;X;X;X;X;X;X;X;X;X;X",
";X;X;X;X;X;X;X;X;X;X;X;X;X;X;X;X;X;X;X;X;X;X;X;X;X;X;X;X;X;X;X;X;X;X;X;X;X;X;X;X;X;X;X;X;X;X;X;X;X;X;X;X;X;X;X;X;X;X;X;X;X;X;X;X",
";X;X;X;X;X;X;X;X;X;X;X;X;X;X;X;X;X;X;X;X;X;X;X;X;X;X;X;X;X;X;X;X;X;X;X;X;X;X;X;X;X;X;X;X;X;X;X;X;X;X;X;X;X;X;X;X;X;X;X;X;X;X;X;X",
";X;X;X;X;X;X;X;X;X;X;X;X;X;X;X;X;X;X;X;X;X;X;X;X;X;X;X;X;X;X;X;X;X;X;X;X;X;X;X;X;X;X;X;X;X;X;X;X;X;X;X;X;X;X;X;X;X;X;X;X;X;X;X;X",
";X;X;X;X;X;X;X;X;X;X;X;X;X;X;X;X;X;X;X;X;X;X;X;X;X;X;X;X;X;X;X;X;X;X;X;X;X;X;X;X;X;X;X;X;X;X;X;X;X;X;X;X;X;X;X;X;X;X;X;X;X;X;X;X",
";X;X;X;X;X;X;X;X;X;X;X;X;X;X;X;X;X;X;X;X;X;X;X;X;X;X;X;X;X;X;X;X;X;X;X;X;X;X;X;X;X;X;X;X;X;X;X;X;X;X;X;X;X;X;X;X;X;X;X;X;X;X;X;X",
";X;X;X;X;X;X;X;X;X;X;X;X;X;X;X;X;X;X;X;X;X;X;X;X;X;X;X;X;X;X;X;X;X;X;X;X;X;X;X;X;X;X;X;X;X;X;X;X;X;X;X;X;X;X;X;X;X;X;X;X;X;X;X;X",
";X;X;X;X;X;X;X;X;X;X;X;X;X;X;X;X;X;X;X;X;X;X;X;X;X;X;X;X;X;X;X;X;X;X;X;X;X;X;X;X;X;X;X;X;X;X;X;X;X;X;X;X;X;X;X;X;X;X;X;X;X;X;X;X",
";X;X;X;X;X;X;X;X;X;X;X;X;X;X;X;X;X;X;X;X;X;X;X;X;X;X;X;X;X;X;X;X;X;X;X;X;X;X;X;X;X;X;X;X;X;X;X;X;X;X;X;X;X;X;X;X;X;X;X;X;X;X;X;X",
";X;X;X;X;X;X;X;X;X;X;X;X;X;X;X;X;X;X;X;X;X;X;X;X;X;X;X;X;X;X;X;X;X;X;X;X;X;X;X;X;X;X;X;X;X;X;X;X;X;X;X;X;X;X;X;X;X;X;X;X;X;X;X;X",
";X;X;X;X;X;X;X;X;X;X;X;X;X;X;X;X;X;X;X;X;X;X;X;X;X;X;X;X;X;X;X;X;X;X;X;X;X;X;X;X;X;X;X;X;X;X;X;X;X;X;X;X;X;X;X;X;X;X;X;X;X;X;X;X",
";X;X;X;X;X;X;X;X;X;X;X;X;X;X;X;X;X;X;X;X;X;X;X;X;X;X;X;X;X;X;X;X;X;X;X;X;X;X;X;X;X;X;X;X;X;X;X;X;X;X;X;X;X;X;X;X;X;X;X;X;X;X;X;X",
";X;X;X;X;X;X;X;X;X;X;X;X;X;X;X;X;X;X;X;X;X;X;X;X;X;X;X;X;X;X;X;X;X;X;X;X;X;X;X;X;X;X;X;X;X;X;X;X;X;X;X;X;X;X;X;X;X;X;X;X;X;X;X;X",
";X;X;X;X;X;X;X;X;X;X;X;X;X;X;X;X;X;X;X;X;X;X;X;X;X;X;X;X;X;X;X;X;X;X;X;X;X;X;X;X;X;X;X;X;X;X;X;X;X;X;X;X;X;X;X;X;X;X;X;X;X;X;X;X",
";X;X;X;X;X;X;X;X;X;X;X;X;X;X;X;X;X;X;X;X;X;X;X;X;X;X;X;X;X;X;X;X    o & ;X;X;X;X;X;X;X;X;X;X;X;X;X;X;X;X;X;X;X;X;X;X;X;X;X;X;X;X",
";X;X;X;X;X;X;X;X;X;X;X;X;X;X;X;X;X;X;X;X;X;X;X;X;X;X;X;X;X;X;X;XX   X = ;X;X;X;X;X;X;X;X;X;X;X;X;X;X;X;X;X;X;X;X;X;X;X;X;X;X;X;X",
";X;X;X;X;X;X;X;X;X;X;X;X;X;X;X;X;X;X;X;X;X;X;X;X;X;X;X;X;X;X;X;X  #   X ;X;X;X;X;X;X;X;X;X;X;X;X;X;X;X;X;X;X;X;X;X;X;X;X;X;X;X;X",
";X;X;X;X;X;X;X;X;X;X;X;X;X;X;X;X;X;X;X;X;X;X;X;X;X;X;X;X2 , < * k j F f * : u ;X;X;X;X;X;X;X;X;X;X;X;X;X;X;X;X;X;X;X;X;X;X;X;X;X",
";X;X;X;X;X;X;X;X;X;X;X;X;X;X;X;X;X;X;X;X;X;X;X;X;X;X;X;XO     . M.E m.T .   X ;X;X;X;X;X;X;X;X;X;X;X;X;X;X;X;X;X;X;X;X;X;X;X;X;X",
";X;X;X;X;X;X;X;X;X;X;X;X;X;X;X;X;X;X;X;X;X;X;X;X;X;X;X;XO   # $ >.Z R Y .   X ;X;X;X;X;X;X;X;X;X;X;X;X;X;X;X;X;X;X;X;X;X;X;X;X;X",
";X;X;X;X;X;X;X;X;X;X;X;X;X;X;X;X;X;X;X;X;X;X;X;X;X;X;X;X+   . # ;.V E U .   X ;X;X;X;X;X;X;X;X;X;X;X;X;X;X;X;X;X;X;X;X;X;X;X;X;X",
";X;X;X;X;X;X;X;X;X;X;X;X;X;X;X;X;X;X;X;X;X;X;X;X;X;X;X;X+     # Z.*.e.%.. X X ;X;X;X;X;X;X;X;X;X;X;X;X;X;X;X;X;X;X;X;X;X;X;X;X;X",
";X;X;X;X;X;X;X;X;X;X;X;X;X;X;X;X;X;X;X;X;X;X;X;X;X;X;X;X+     . k.=.$.%.      ;X;X;X;X;X;X;X;X;X;X;X;X;X;X;X;X;X;X;X;X;X;X;X;X;X",
";X;X;X;X;X;X;X;X;X;X;X;X;X;X;X;X;X;X;X;X;X;X;X;X;X;X;X;X+   O . t.` q.#.#     ;X;X;X;X;X;X;X;X;X;X;X;X;X;X;X;X;X;X;X;X;X;X;X;X;X",
";X;X;X;X;X;X;X;X;X;X;X;X;X;X;X;X;X;X;X;X;Xi = < ; ;X;X;X;X;X;X;Xy p p a U z l % + O 2 ;X;X;X;X;X;X;X;X;X;X;X;X;X;X;X;X;X;X;X;X;X",
";X;X;X;X;X;X;X;X;X;X;X;X;X;X;X;X;X;X;X;X;X>   o   ;X;X;X;X;X;X;X    . w Q W 0.# . X : ;X;X;X;X;X;X;X;X;X;X;X;X;X;X;X;X;X;X;X;X;X",
";X;X;X;X;X;X;X;X;X;X;X;X;X;X;X;X;X;X;X;X;X<   .   ;X;X;X;X;X;X;X    # 7 E A ;.# .   : ;X;X;X;X;X;X;X;X;X;X;X;X;X;X;X;X;X;X;X;X;X",
";X;X;X;X;X;X;X;X;X;X;X;X;X;X;X;X;X;X;X;X;X% . # . ;X;X;X;X;X;X;X  X . 7 C B >.# .   : ;X;X;X;X;X;X;X;X;X;X;X;X;X;X;X;X;X;X;X;X;X",
";X;X;X;X;X;X;X;X;X;X;X;X;X;X;X;X;X;XX   . P m.0.m.$ .   ;X;X;X;X    . w 2.| y.# . X : ;X;X;X;X;X;X;X;X;X;X;X;X;X;X;X;X;X;X;X;X;X",
";X;X;X;X;X;X;X;X;X;X;X;X;X;X;X;X;X;XX   . H E Z R 3 .   ;X;X;X;X    . q 2.8.N.. . X > ;X;X;X;X;X;X;X;X;X;X;X;X;X;X;X;X;X;X;X;X;X",
";X;X;X;X;X;X;X;X;X;X;X;X;X;X;X;X;X;XX . # b R S ;.3 # . ;X;X;X;X. . # 8 :.,.y.# # . @ ;X;X;X;X;X;X;X;X;X;X;X;X;X;X;X;X;X;X;X;X;X",
";X;X;X;X;X;X;X;X;X;X;X;X;X;X;X;X;X;XX . # k ;.S R 6 7 3 ;X;X;X;X# 5 3 p e.-.r.4 4 $ 0 ;X;X;X;X;X;X;X;X;X;X;X;X;X;X;X;X;X;X;X;X;X",
";X;X;X;X;X;X;X;X;X;X;X;X;X;X;X;X;X;XX . # H Q Z D e.y.y.9 . . . C.4.5.t.2.8.9.t.r.k.v       ;X;X;X;X;X;X;X;X;X;X;X;X;X;X;X;X;X;X",
";X;X;X;X;X;X;X;X;X;X;X;X;X;X;X;X;X;XX . # G 0.A A <.4.w.q # # . l.[ -.8.2._ 8.^ 2.6.N       ;X;X;X;X;X;X;X;X;X;X;X;X;X;X;X;X;X;X",
";X;X;X;X;X;X;X;X;X;X;X;X;X;X;X;X;X;X=   . L m.;.*.,.5.6.w $ $ # l.) _ _ ( 2.[ 2.-.p.n     X ;X;X;X;X;X;X;X;X;X;X;X;X;X;X;X;X;X;X",
";X;X;X;X;X;X;X;X;X;X;X;X;X;X;X;X;X;X;X;X;X* . # $ &.3.' u.k.r.l.R.P.R.c.1.5.2.2.1.u.M       ;X;X;X;X;X;X;X;X;X;X;X;X;X;X;X;X;X;X",
";X;X;X;X;X;X;X;X;X;X;X;X;X;X;X;X;X;X;X;X;X;   . # &.2.' =.1.( =.b.S.h.g.-.:.-.2.[ 6.M     X ;X;X;X;X;X;X;X;X;X;X;X;X;X;X;X;X;X;X",
";X;X;X;X;X;X;X;X;X;X;X;X;X;X;X;X;X;X;X;X;X> X o # N.5.,.2.2.1.] J.D.F.g.{ 1.-.-.2.p.n     X ;X;X;X;X;X;X;X;X;X;X;X;X;X;X;X;X;X;X",
";X;X;X;X;X;X;X;X;X;X;X;X;X;X;X;X;X;X;X;X;Xu X X # B.:.,.3.3. . .I.K.U.J. .3.9.) -.p.n       ;X;X;X;X;X;X;X;X;X;X;X;X;X;X;X;X;X;X",
";X;X;X;X;X;X;X;X;X;X;X;X;X;X;X;X;X;X;X;X;X> X   . y.2.] g.J.F.D.(.(.(.W.D.S.F.] [ i.n       ;X;X;X;X;X;X;X;X;X;X;X;X;X;X;X;X;X;X",
";X;X;X;X;X;X;X;X;X;X;X;X;X;X;X;X;X;X;X;X;X>     . &.5.2.c.h.S.D.(.(./.^.F.F.J.] 2.i.n     X ;X;X;X;X;X;X;X;X;X;X;X;X;X;X;X;X;X;X",
";X;X;X;X;X;X;X;X;X;X;X;X;X;X;X;X;X;X;X;X;X% # $ 3 a./ ] v.P.D.A.}.[.}.'.P.h.F.^ 1.s.c       ;X;X;X;X;X;X;X;X;X;X;X;X;X;X;X;X;X;X",
";X;X;X;X;X;X;X;X;X;X;X;X;X;X;X;X;X;X, 1 + g K I v L.g.g.Q.!.W.W.XX#XoX{.P.h.F.d.x.n.!       ;X;X;X;X;X;X;X;X;X;X;X;X;X;X;X;X;X;X",
";X;X;X;X;X;X;X;X;X;X;X;X;X;X;X;X;X;XX X @ K r.:.[ h.f.F.!.).`.`.=X-X&XOXE.D.G.F.h.I.~ .     ;X;X;X;X;X;X;X;X;X;X;X;X;X;X;X;X;X;X",
";X;X;X;X;X;X;X;X;X;X;X;X;X;X;X;X;X;X  X . J y.-.( U.f.f.^._./.`.*X-X&X+XL.S.S.F.F.R...      ;X;X;X;X;X;X;X;X;X;X;X;X;X;X;X;X;X;X",
";X;X;X;X;X;X;X;X;X;X;X;X;X;X;X;X;X;X  . . J z.s. .Y.Q.U.|..X.XOX=X-X=XOXQ.U.Y.j.F.I.~     X ;X;X;X;X;X;X;X;X;X;X;X;X;X;X;X;X;X;X",
";X;X;X;X;X;X;X;X;X;X;X;X;X;X;X;X;X;X    . #.R.b.J.^.^./.#X%X&X&X-X-X=X$X]././.D.F.I.~ .     ;X;X;X;X;X;X;X;X;X;X;X;X;X;X;X;X;X;X",
";X;X;X;X;X;X;X;X;X;X;X;X;X;X;X;X;X;X    . O.R.F.J.(.(.).%X=X-X-X-X=X*X$X].(.(.v.D.I.X.    X ;X;X;X;X;X;X;X;X;X;X;X;X;X;X;X;X;X;X",
";X;X;X;X;X;X;X;X;X;X;X;X;X;X;X;X;X;X    . +.R.F.D.).(.).%X-X-X-X-X=X*X$X].^.^.K.U.Y.~ X   X ;X;X;X;X;X;X;X;X;X;X;X;X;X;X;X;X;X;X",
";X;X;X;X;X;X;X;X;X;X;X;X;X;X;X;X;X;X    . o.R.F.h.)././.%X-X-X-X-X-X-X=X$X@X%X9 r 9 y ;X;X;X;X;X;X;X;X;X;X;X;X;X;X;X;X;X;X;X;X;X",
";X;X;X;X;X;X;X;X;X;X;X;X;X;X;X;X;X;X      O.E.S.D.).(.(.&X-X-X-X=X-X-X-X-X=X=XX o   @ ;X;X;X;X;X;X;X;X;X;X;X;X;X;X;X;X;X;X;X;X;X",
";X;X;X;X;X;X;X;X;X;X;X;X;X;X;X;X;X;X      @.T.K.H.).).'.&X=X-X-X-X-X-X-X-X-X-XX     & ;X;X;X;X;X;X;X;X;X;X;X;X;X;X;X;X;X;X;X;X;X",
";X;X;X;X;X;X;X;X;X;X;X;X;X;X;X;X;X;Xi t t d x s s XX XOX&X=X-X-X-X-X-X-X-X-X-X  o   1 ;X;X;X;X;X;X;X;X;X;X;X;X;X;X;X;X;X;X;X;X;X",
";X;X;X;X;X;X;X;X;X;X;X;X;X;X;X;X;X;X;X;X;X* . % # &X*X*X=X=X-X-X-X-X-X-X-X-X=X    O O ;X;X;X;X;X;X;X;X;X;X;X;X;X;X;X;X;X;X;X;X;X",
";X;X;X;X;X;X;X;X;X;X;X;X;X;X;X;X;X;X;X;X;X1       -X=X=X=X=X-X-X-X-X-X-X-X-X-X      1 ;X;X;X;X;X;X;X;X;X;X;X;X;X;X;X;X;X;X;X;X;X",
";X;X;X;X;X;X;X;X;X;X;X;X;X;X;X;X;X;X;X;X;X= X   X -X=X=X-X=X-X-X-X-X-X=X-X-X-XX : O O ;X;X;X;X;X;X;X;X;X;X;X;X;X;X;X;X;X;X;X;X;X",
";X;X;X;X;X;X;X;X;X;X;X;X;X;X;X;X;X;X;X;X;X;X;X;X;X= + o + + o o + o o o + + X ;X;X;X;X;X;X;X;X;X;X;X;X;X;X;X;X;X;X;X;X;X;X;X;X;X",
";X;X;X;X;X;X;X;X;X;X;X;X;X;X;X;X;X;X;X;X;X;X;X;X;XX   X                     X ;X;X;X;X;X;X;X;X;X;X;X;X;X;X;X;X;X;X;X;X;X;X;X;X;X",
";X;X;X;X;X;X;X;X;X;X;X;X;X;X;X;X;X;X;X;X;X;X;X;X;XX       X X   X X X       X ;X;X;X;X;X;X;X;X;X;X;X;X;X;X;X;X;X;X;X;X;X;X;X;X;X",
";X;X;X;X;X;X;X;X;X;X;X;X;X;X;X;X;X;X;X;X;X;X;X;X;XO     X     X X X X X X X X ;X;X;X;X;X;X;X;X;X;X;X;X;X;X;X;X;X;X;X;X;X;X;X;X;X",
";X;X;X;X;X;X;X;X;X;X;X;X;X;X;X;X;X;X;X;X;X;X;X;X;X;X;X;X;X;X;X;X;X;X;X;X;X;X;X;X;X;X;X;X;X;X;X;X;X;X;X;X;X;X;X;X;X;X;X;X;X;X;X;X",
";X;X;X;X;X;X;X;X;X;X;X;X;X;X;X;X;X;X;X;X;X;X;X;X;X;X;X;X;X;X;X;X;X;X;X;X;X;X;X;X;X;X;X;X;X;X;X;X;X;X;X;X;X;X;X;X;X;X;X;X;X;X;X;X",
";X;X;X;X;X;X;X;X;X;X;X;X;X;X;X;X;X;X;X;X;X;X;X;X;X;X;X;X;X;X;X;X;X;X;X;X;X;X;X;X;X;X;X;X;X;X;X;X;X;X;X;X;X;X;X;X;X;X;X;X;X;X;X;X"
};
