/* XPM */
static char *result[] = {
/* columns rows colors chars-per-pixel */
"64 64 180 2 ",
"   c #010202",
".  c #0B0000",
"X  c #000803",
"o  c #0B0A03",
"O  c #01030A",
"+  c #020A0C",
"@  c #0B0A0C",
"#  c #0E070E",
"$  c #130100",
"%  c #180100",
"&  c #170E00",
"*  c #1B0A00",
"=  c #08110C",
"-  c #111507",
";  c #191300",
":  c #1D1209",
">  c #12140F",
",  c #0C0D15",
"<  c #0A0D19",
"1  c #020C16",
"2  c #120C16",
"3  c #091112",
"4  c #0D1718",
"5  c #061115",
"6  c #181818",
"7  c #1A1A18",
"8  c #230000",
"9  c #2E0900",
"0  c #3F1E0D",
"q  c #291E1A",
"w  c #14231C",
"e  c #252118",
"r  c #1A1D26",
"t  c #162322",
"y  c #1A2326",
"u  c #1D222B",
"i  c #1E2832",
"p  c #222127",
"a  c #212E34",
"s  c #573218",
"d  c #602F0E",
"f  c #7D6A42",
"g  c #89561F",
"h  c #9D591C",
"j  c #846B1B",
"k  c #8D4827",
"l  c #904726",
"z  c #855332",
"x  c #856822",
"c  c #E46E2E",
"v  c #EA732F",
"b  c #EF7431",
"n  c #E97738",
"m  c #E77D3F",
"M  c #F97439",
"N  c #BC7154",
"B  c #C8774B",
"V  c #D77248",
"C  c #CB7951",
"Z  c #E87F45",
"A  c #E67E49",
"S  c #F47644",
"D  c #DA8B3E",
"F  c #EB8C3B",
"G  c #E78C3B",
"H  c #FC803A",
"J  c #E4933D",
"K  c #E9903E",
"L  c #E5993C",
"P  c #EE993E",
"I  c #E99636",
"U  c #F19D3A",
"Y  c #F3AB3E",
"T  c #F3C53E",
"R  c #AA8C4E",
"E  c #A58C53",
"W  c #BA8654",
"Q  c #A2935A",
"!  c #D5914A",
"~  c #C38954",
"^  c #D38953",
"/  c #D1815E",
"(  c #CE9C5F",
")  c #ED8544",
"_  c #EC8D45",
"`  c #E1864F",
"'  c #E58845",
"]  c #F38543",
"[  c #F58F4A",
"{  c #F68B45",
"}  c #E39345",
"|  c #EC9344",
" . c #E3944B",
".. c #E79B4F",
"X. c #ED974B",
"o. c #F19243",
"O. c #F19049",
"+. c #F5984A",
"@. c #EA8752",
"#. c #E79752",
"$. c #EA9A55",
"%. c #E89C56",
"&. c #F29C5C",
"*. c #DFA45E",
"=. c #F6A742",
"-. c #F4AD44",
";. c #F7A849",
":. c #EABC4D",
">. c #FFBD46",
",. c #FDBF48",
"<. c #F1BC4A",
"1. c #FBA454",
"2. c #FEBF50",
"3. c #C78C60",
"4. c #CD9565",
"5. c #C0966E",
"6. c #C99969",
"7. c #DF9862",
"8. c #D09D72",
"9. c #EF9F60",
"0. c #E59A60",
"q. c #D6B474",
"w. c #E6A468",
"e. c #E8A261",
"r. c #F1A66F",
"t. c #E5BF6E",
"y. c #EBA370",
"u. c #E8BC73",
"i. c #E5B47C",
"p. c #EEC549",
"a. c #FDC246",
"s. c #F3C44A",
"d. c #FDC24C",
"f. c #F1C94F",
"g. c #F7C445",
"h. c #EFC758",
"j. c #F1C352",
"k. c #FEC254",
"l. c #F0C856",
"z. c #FFC857",
"x. c #FFC75A",
"c. c #FACF5E",
"v. c #F2C359",
"b. c #FFD85C",
"n. c #FAD459",
"m. c #E4C06E",
"M. c #F8CB6D",
"N. c #ECD46A",
"B. c #FBD063",
"V. c #FFD26A",
"C. c #F2D869",
"Z. c #FCD77F",
"A. c #FFE476",
"S. c #FFE977",
"D. c #FDE67D",
"F. c #FEE97D",
"G. c #FEE484",
"H. c #FDEA81",
"J. c #F7EA8E",
"K. c #F7E888",
"L. c #FDE794",
"P. c #F7E798",
"I. c #F7F294",
"U. c #FBEFA5",
"Y. c #FDECAB",
"T. c #F1E3A2",
"R. c #FFF4AF",
"E. c #FAEBBA",
"W. c #FFF6B5",
"Q. c #FCF4BB",
"!. c #F8ECC0",
"~. c #FFF6C2",
"^. c #FCF6C8",
"/. c #FFF6DB",
"(. c #FFFBDE",
"). c #FFFFE4",
"_. c #FFFFEE",
"`. c #FFFFF5",
"'. c #FEFEFD",
"]. c None",
/* pixels */
"].].].].].].].].].].].].].].].].].].].].].].].].].].].].].].].].].].].].].].].].].].].].].].].].].].].].].].].].].].].].].].].].",
"].].].].].].].].].].].].].].].].].].].].].].].].].].].].].].].].].].].].].].].].].].].].].].].].].].].].].].].].].].].].].].].].",
"].].].].].].].].].].].].].].].].].].].].].].].].].].].].].].].].].].].].].].].].].].].].].].].].].].].].].].].].].].].].].].].].",
"].].].].].].].].].].].].].].].].].].].].].].].].].].].].].].].].].].].].].].].].].].].].].].].].].].].].].].].].].].].].].].].].",
"].].].].].].].].].].].].].].].].].].].].].].].].].].].].].].].].].].].].].].].].].].].].].].].].].].].].].].].].].].].].].].].].",
"].].].].].].].].].].].].].].].].].].].].].].].].].].].].].].].].].].].].].].].].].].].].].].].].].].].].].].].].].].].].].].].].",
"].].].].].].].].].].].].].].].].].].].].].].].].].].].].].].].].].].].].].].].].].].].].].].].].].].].].].].].].].].].].].].].].",
"].].].].].].].].].].].].].].].].].].].].].].].].].].].].].].].].].].].].].].].].].].].].].].].].].].].].].].].].].].].].].].].].",
"].].].].].].].].].].].].].].].].].].].].].].].].].].].].].].].].].].].].].].].].].].].].].].].].].].].].].].].].].].].].].].].].",
"].].].].].].].].].].].].].].].].].].].].].].].].].].].].].].].].].].].].].].].].].].].].].].].].].].].].].].].].].].].].].].].].",
"].].].].].].].].].].].].].].].].].].].].].].].].].].].].].].].].].].].].].].].].].].].].].].].].].].].].].].].].].].].].].].].].",
"].].].].].].].].].].].].].].].].].].].].].].].].].].].].].].].].].].].].].].].].].].].].].].].].].].].].].].].].].].].].].].].].",
"].].].].].].].].].].].].].].].].].].].].].].].].].].].].].].].].].].].].].].].].].].].].].].].].].].].].].].].].].].].].].].].].",
"].].].].].].].].].].].].].].].].].].].].].].].].].].].].].].].].].].].].].].].].].].].].].].].].].].].].].].].].].].].].].].].].",
"].].].].].].].].].].].].].].].].].].].].].].].].].].].].].].].].].].].].].].].].].].].].].].].].].].].].].].].].].].].].].].].].",
"].].].].].].].].].].].].].].].].].].].].].].].].].].].].].].].].].].].].].].].].].].].].].].].].].].].].].].].].].].].].].].].].",
"].].].].].].].].].].].].].].].].].].].].].].].].].].].].].].].    O ].].].].].].].].].].].].].].].].].].].].].].].].].].].].].].",
"].].].].].].].].].].].].].].].].].].].].].].].].].].].].].].].O     ].].].].].].].].].].].].].].].].].].].].].].].].].].].].].].",
"].].].].].].].].].].].].].].].].].].].].].].].].].].].].].].].+ O O ].].].].].].].].].].].].].].].].].].].].].].].].].].].].].].",
"].].].].].].].].].].].].].].].].].].].].].].].].].].].].].].].].].].].].].].].].].].].].].].].].].].].].].].].].].].].].].].].].",
"].].].].].].].].].].].].].].].].].].].].].].].].].].].].].].].].].].].].].].].].].].].].].].].].].].].].].].].].].].].].].].].].",
"].].].].].].].].].].].].].].].].].].].].].].].y w y ].].].].].].].].].].].].].].].].].].].].].].].].].].].].].].].].].].].].].].",
"].].].].].].].].].].].].].].].].].].].].].].].  X O ].].].].].].].].].].].].].].].].].].].].].].].].].].].].].].].].].].].].].].",
"].].].].].].].].].].].].].].].].].].].].].].].    O ].].].].].].].].].].].].].].].].].].].].].].].].].].].].].].].].].].].].].].",
"].].].].].].].].].].].].].].].].].].].].5 X . C V C   O ].].].].].].].].].].].].].].].].].].].].].].].].].].].].].].].].].].].].",
"].].].].].].].].].].].].].].].].].].].].<   $ @.M C   O ].].].].].].].].].].].].].].].].].].].].].].].].].].].].].].].].].].].].",
"].].].].].].].].].].].].].].].].].].].]., . . @.n C     ].].].].].].].].].].].].].].].].].].].].].].].].].].].].].].].].].].].].",
"].].].].].].].].].].].].].].].].].].].].2 X . 9.{ ^     ].].].].].].].].].].].].].].].].].].].].].].].].].].].].].].].].].].].].",
"].].].].].].].].].].].].].].].].].].].].,   . e._ ^     ].].].].].].].].].].].].].].].].].].].].].].].].].].].].].].].].].].].].",
"].].].].].].].].].].].].].].].].].].].].@ . . i.%.6..   ].].].].].].].].].].].].].].].].].].].].].].].].].].].].].].].].].].].].",
"].].].].].].].].].].].].].].].].].].].].].].].% % * ].].].].].].].].].].].].].].].].].].].].].].].].].].].].].].].].].].].].].].",
"].].].].].].].].].].].].].].].].].].].].].].].X . + ].].].].].].].].].].].].].].].].].].].].].].].].].].].].].].].].].].].].].].",
"].].].].].].].].].].].].].].].].].].].].].].].O O O ].].].].].].].].].].].].].].].].].].].].].].].].].].].].].].].].].].].].].].",
"].].].].].].].].].].].].].].].].].].].].].].].].].].      O O ].].].].].].].].].].].].].].].].].].].].].].].].].].].].].].].].].",
"].].].].].].].].].].].].].].].].].].].].].].].].].].  .   X   ].].].].].].].].].].].].].].].].].].].].].].].].].].].].].].].].].",
"].].].].].].].].].].].].].].].].].].].].].].].].].].  . 0 d s q p i u u y ].].].].].].].].].].].].].].].].].].].].].].].].].].].",
"].].].].].].].].].].].].].].].].].].].].].].].].].].    k c ) 8 $ O     X ].].].].].].].].].].].].].].].].].].].].].].].].].].].",
"].].].].].].].].].].].].].].].].].].].].].].].].].].$ $ l v m 8 $ . . . . ].].].].].].].].].].].].].].].].].].].].].].].].].].].",
"].].].].].].].].].].].].].].].].].].].].].].].O + : B C ` ] ' ~ W 4.3.~ 8.. O 2 ].].].].].].].].].].].].].].].].].].].].].].].].",
"].].].].].].].].].].].].].].].].].].].].].].].O O $ A ' ) { o.%...#.#.%.w.. +   ].].].].].].].].].].].].].].].].].].].].].].].].",
"].].].].].].].].].].].].].].].].].].].].].].].    9 S b { [ O.K | o.o.J &.$   + ].].].].].].].].].].].].].].].].].].].].].].].].",
"].].].].].].].].].].].].].].].].].].].].r r : z g h M F +.=.Y -.=.Y L } &.% X   ].].].].].].].].].].].].].].].].].].].].].].].].",
"].].].].].].].].].].].].].].].].].].].].<   . y.D  .{ _ 1.>.T x.k.k.X.P &.$   X ].].].].].].].].].].].].].].].].].].].].].].].].",
"].].].].].].].].].].].].].].].].].].].].5   . r._ ! | I ;.g.T d.d.d.U G %.$ .   ].].].].].].].].].].].].].].].].].].].].].].].].",
"].].].].].].].].].].].].].].].].].].].].1   . %._ P >.k.V.D.D.2.,.d.d.z.k.! 7.5..   t ].].].].].].].].].].].].].].].].].].].].].",
"].].].].].].].].].].].].].].].].].].].].=   . w.o.P d.d.b.G.G.,.k.,.>.d.k.J | 4..   t ].].].].].].].].].].].].].].].].].].].].].",
"].].].].].].].].].].].].].].].].].].].].@ O . *._ L v.s.C.T.P.h.l.f.a.a.k.L I ( $   y ].].].].].].].].].].].].].].].].].].].].].",
"].].].].].].].].].].].].].].].].].].].].< O . M.2.k.D.G.R._.).P.J.F.c.a.d.k.d.u..   u ].].].].].].].].].].].].].].].].].].].].].",
"].].].].].].].].].].].].].].].].].].].].,     N.s.l.D.K.W.`.).P.J.D.n.d.s.d.>.m..   u ].].].].].].].].].].].].].].].].].].].].].",
"].].].].].].].].].].].].].].].].].].].].t 4 o Q R E E.E./.'.'.^.!.E.Z.B.B.<.a.m..   r ].].].].].].].].].].].].].].].].].].].].].",
"].].].].].].].].].].].].].].].].].].].].].].].. $ : '.`.'.'.'.`.'.`.Y.G.F.j.>.t..   y ].].].].].].].].].].].].].].].].].].].].].",
"].].].].].].].].].].].].].].].].].].].].].].].@ . 6 '.'.'.'.'.'.'.`.Y.G.D.j.d.t..   y ].].].].].].].].].].].].].].].].].].].].].",
"].].].].].].].].].].].].].].].].].].].].].].].O O ; '.'.'.`.'.'.'.'.U.K.F.j.d.t..   y ].].].].].].].].].].].].].].].].].].].].].",
"].].].].].].].].].].].].].].].].].].].].].].].O X = '.'.'.'.'.'.'.'.U.D.S.s.a.u..   y ].].].].].].].].].].].].].].].].].].].].].",
"].].].].].].].].].].].].].].].].].].].].].].].  X 6 '.`.'.'.'.'.'.'.U.J.H.p.:.q.$   u ].].].].].].].].].].].].].].].].].].].].].",
"].].].].].].].].].].].].].].].].].].].].].].].    ; ~.~.(.'.'.`.'.'.^.Q.W.j x f e t a ].].].].].].].].].].].].].].].].].].].].].",
"].].].].].].].].].].].].].].].].].].].].].].].    ; K.K.E.'.'.`.'.'.'.'.'.. . X ].].].].].].].].].].].].].].].].].].].].].].].].",
"].].].].].].].].].].].].].].].].].].].].].].].X O ; I.L.~.'.'.`.'.'.'.'.'.O   O ].].].].].].].].].].].].].].].].].].].].].].].].",
"].].].].].].].].].].].].].].].].].].].].].].].].].].o . . # o o O o o o O ].].].].].].].].].].].].].].].].].].].].].].].].].].].",
"].].].].].].].].].].].].].].].].].].].].].].].].].].                      ].].].].].].].].].].].].].].].].].].].].].].].].].].].",
"].].].].].].].].].].].].].].].].].].].].].].].].].].O X O   O O     O X X ].].].].].].].].].].].].].].].].].].].].].].].].].].].",
"].].].].].].].].].].].].].].].].].].].].].].].].].].].].].].].].].].].].].].].].].].].].].].].].].].].].].].].].].].].].].].].].",
"].].].].].].].].].].].].].].].].].].].].].].].].].].].].].].].].].].].].].].].].].].].].].].].].].].].].].].].].].].].].].].].].",
"].].].].].].].].].].].].].].].].].].].].].].].].].].].].].].].].].].].].].].].].].].].].].].].].].].].].].].].].].].].].].].].]."
};
