/* XPM */
static char *result[] = {
/* columns rows colors chars-per-pixel */
"64 64 174 2 ",
"   c #010202",
".  c #0A0100",
"X  c #040C07",
"o  c #02030B",
"O  c #030A0B",
"+  c #0A0B0B",
"@  c #130100",
"#  c #1B0000",
"$  c #110D00",
"%  c #0B110F",
"&  c #060C11",
"*  c #0B0E13",
"=  c #061215",
"-  c #0A1014",
";  c #0E1419",
":  c #10171D",
">  c #19161F",
",  c #141A1C",
"<  c #111516",
"1  c #260000",
"2  c #2D0A00",
"3  c #271406",
"4  c #351301",
"5  c #371E00",
"6  c #3A1E02",
"7  c #392203",
"8  c #151B22",
"9  c #182023",
"0  c #4A0A00",
"q  c #491C00",
"w  c #4F2100",
"e  c #40200B",
"r  c #512201",
"t  c #562E00",
"y  c #4F3300",
"u  c #5A3800",
"i  c #6D4706",
"p  c #7C523A",
"a  c #88552E",
"s  c #915F2A",
"d  c #975324",
"f  c #8B583D",
"g  c #905930",
"h  c #A1623F",
"j  c #F0752F",
"k  c #F6782C",
"l  c #F16F35",
"z  c #EB793A",
"x  c #FA7534",
"c  c #F87839",
"v  c #F37736",
"b  c #8D5F47",
"n  c #9E684E",
"m  c #A06A48",
"M  c #A27345",
"N  c #CE7E4D",
"B  c #D57D4C",
"V  c #D97945",
"C  c #DE7D50",
"Z  c #EC7342",
"A  c #F87D41",
"S  c #E47E53",
"D  c #C08939",
"F  c #DC913E",
"G  c #EF8C37",
"H  c #E5953E",
"J  c #EB933C",
"K  c #E49B3C",
"L  c #E69734",
"P  c #F7933B",
"I  c #FBB03B",
"U  c #9A875C",
"Y  c #AE8742",
"T  c #AB8E56",
"R  c #DD954C",
"E  c #CA915C",
"W  c #E78D4E",
"Q  c #E78D43",
"!  c #F38846",
"~  c #E49242",
"^  c #ED9143",
"/  c #E69B40",
"(  c #F69347",
")  c #E78151",
"_  c #E59A54",
"`  c #E59559",
"'  c #ED995B",
"]  c #F4935C",
"[  c #E0A547",
"{  c #EBAA4C",
"}  c #F3AC4D",
"|  c #F0AB44",
" . c #F6B74E",
".. c #FCB24C",
"X. c #F6BF4B",
"o. c #FDBD4C",
"O. c #FCB646",
"+. c #E6A15A",
"@. c #E4A753",
"#. c #FAA650",
"$. c #F1A25E",
"%. c #FFB552",
"&. c #F7B854",
"*. c #CD9F6E",
"=. c #E2A16B",
"-. c #F4BD6A",
";. c #E6A970",
":. c #E9AD7B",
">. c #F6C446",
",. c #FCC446",
"<. c #F3C34A",
"1. c #FBC44C",
"2. c #FBC849",
"3. c #EECB53",
"4. c #FEC254",
"5. c #F6CD54",
"6. c #F6C45C",
"7. c #F9C859",
"8. c #DFC161",
"9. c #EFCD62",
"0. c #EAC26A",
"q. c #FBCC67",
"w. c #F7CD69",
"e. c #FFD360",
"r. c #FFDE6A",
"t. c #F8D366",
"y. c #FCD571",
"u. c #F7D977",
"i. c #FBDA71",
"p. c #FCE473",
"a. c #FFEA76",
"s. c #F5E67C",
"d. c #FEE47B",
"f. c #F5E87F",
"g. c #FEEA7C",
"h. c #DCDB98",
"j. c #FCDE88",
"k. c #E4E78E",
"l. c #ECE08A",
"z. c #F4E683",
"x. c #FEE482",
"c. c #FCEA82",
"v. c #FCE58B",
"b. c #F5EA8B",
"n. c #FDEB89",
"m. c #FFF18C",
"M. c #EFE794",
"N. c #F6EB97",
"B. c #FEEF9A",
"V. c #F3E796",
"C. c #FFF294",
"Z. c #F7EEA3",
"A. c #F9EFA4",
"S. c #F6EEAC",
"D. c #F9EFA8",
"F. c #FFF6A1",
"G. c #F5EDB1",
"H. c #F7EEB9",
"J. c #F4F0B3",
"K. c #DFDFDF",
"L. c #E0DFDB",
"P. c #FEF6C5",
"I. c #FFF8C8",
"U. c #E1E2DD",
"Y. c #FFFADF",
"T. c #FDF8D2",
"R. c #E1DFE0",
"E. c #E2E0E3",
"W. c #E7E8E9",
"Q. c #FFFEE6",
"!. c #FFFFEB",
"~. c #FFFDF5",
"^. c #FEFEFD",
"/. c None",
/* pixels */
"/./././././././././././././././././././././././././././././././././././././././././././././././././././././././././././././././.",
"/./././././././././././././././././././././././././././././././././././././././././././././././././././././././././././././././.",
"/./././././././././././././././././././././././././././././././././././././././././././././././././././././././././././././././.",
"/./././././././././././././././././././././././././././././././././././././././././././././././././././././././././././././././.",
"/./././././././././././././././././././././././././././././././././././././././././././././././././././././././././././././././.",
"/./././././././././././././././././././././././././././././././././././././././././././././././././././././././././././././././.",
"/./././././././././././././././././././././././././././././././././././././././././././././././././././././././././././././././.",
"/./././././././././././././././././././././././././././././././././././././././././././././././././././././././././././././././.",
"/./././././././././././././././././././././././././././././././././././././././././././././././././././././././././././././././.",
"/./././././././././././././././././././././././././././././././././././././././././././././././././././././././././././././././.",
"/./././././././././././././././././././././././././././././././././././././././././././././././././././././././././././././././.",
"/./././././././././././././././././././././././././././././././././././././././././././././././././././././././././././././././.",
"/./././././././././././././././././././././././././././././././././././././././././././././././././././././././././././././././.",
"/./././././././././././././././././././././././././././././././././././././././././././././././././././././././././././././././.",
"/./././././././././././././././././././././././././././././././././././././././././././././././././././././././././././././././.",
"/./././././././././././././././././././././././././././././././././././././././././././././././././././././././././././././././.",
"/./././././././././././././././././././././././././././././././././././././././././././././././././././././././././././././././.",
"/./././././././././././././././././././././././././././././././././././././././././././././././././././././././././././././././.",
"/./././././././././././././././././././././././././././././././././././././././././././././././././././././././././././././././.",
"/././././././././././././././././././././././././././././././.- & & ; /././././././././././././././././././././././././././././.",
"/././././././././././././././././././././././././././././././.o o o ; /././././././././././././././././././././././././././././.",
"/././././././././././././././././././././././././././././././.+     ; /././././././././././././././././././././././././././././.",
"/././././././././././././././././././././././././././././.          < /././././././././././././././././././././././././././././.",
"/././././././././././././././././././././././././././././.  o o   o ; /././././././././././././././././././././././././././././.",
"/././././././././././././././././././././././././././././.O O o O O ; /././././././././././././././././././././././././././././.",
"/././././././././././././././././././././././.o o o /./././././././././././././././././././././././././././././././././././././.",
"/././././././././././././././././././././././.  . . /./././././././././././././././././././././././././././././././././././././.",
"/./././././././././././././././././././.9 ; & p d f + - , /././././././././././././././././././././././././././././././././././.",
"/./././././././././././././././././././.8   . V k C .   & /././././././././././././././././././././././././././././././././././.",
"/./././././././././././././././././././.,     S x S # @ + /././././././././././././././././././././././././././././././././././.",
"/./././././././././././././././././././.,   o B j A S ) b   . /././././././././././././././././././././././././././././././././.",
"/./././././././././././././././././././.,   . B j x Z Z m     /././././././././././././././././././././././././././././././././.",
"/./././././././././././././././././././.,     B z c l c h @   /././././././././././././././././././././././././././././././././.",
"/././././././././././././././././././././././.4 q 0 ] ! m     /././././././././././././././././././././././././././././././././.",
"/././././././././././././././././././././././.    @ $.G M . o /././././././././././././././././././././././././././././././././.",
"/././././././././././././././././././././././.o o @ +.H M @ @ /././././././././././././././././././././././././././././././././.",
"/././././././././././././././././././././././.    # ` ^ _ $.;.e . o = /././././././././././././././././././././././././././././.",
"/././././././././././././././././././././././.o   @ ' ! ( J ^ 7   o - /././././././././././././././././././././././././././././.",
"/././././././././././././././././././././././.  X @ *.E R F H r # 1 2 /././././././././././././././././././././././././././././.",
"/./././././././././././././././././././././././././.  . u 6.4.{ R ` g   o /././././././././././././././././././././././././././.",
"/./././././././././././././././././././././././././.o   y 3.4.L L ~ s .   /././././././././././././././././././././././././././.",
"/./././././././././././././././././././././././././.    t } #.} | | D a a 3 < * /./././././././././././././././././././././././.",
"/./././././././././././././././././././././././././.    w ~ Q %.4.4. .` =.2   o /./././././././././././././././././././././././.",
"/./././././././././././././././././././././././././.  o r W ( ..4.o.I P _ 2   o /./././././././././././././././././././././././.",
"/./././././././././././././././././././././././././.7 7 i @.[  .%.4.O.K @.r 4 6 /./././././././././././././././././././././././.",
"/././././././././././././././././././././././.o   . q.7.t.a.d.5.>.o.1.1.o./ ~ :.#   O /././././././././././././././././././././.",
"/././././././././././././././././././././././.  . @ 9.4.9.g.v.5.>.>.>.,.4./ J _ @   X /././././././././././././././././././././.",
"/./././././././././././././././././././.8 * O U T Y d.r.n.H.P.j.r.r.e.,.o.....-.@   X /././././././././././././././././././././.",
"/./././././././././././././././././././.8     0.>.<.a.g.G.~.^.S.b.c.i.1.,.>.,.y.    O /././././././././././././././././././././.",
"/./././././././././././././././././././.8     0.X.<.g.g.G.^.^.Z.f.g.i.4.<.1.o.t..   O /././././././././././././././././././././.",
"/./././././././././././././././././././.8     j.x.d.x.d.S.^.^.Z.c.x.j.d.p.7.&.q.@   + /././././././././././././././././././././.",
"/./././././././././././././././././././.8     l.g.s.v.g.Z.!.^.S.z.g.x.d.g.5.2.y.@   + /././././././././././././././././././././.",
"/./././././././././././././././././././.8 o   h.k.M.n.c.G.~.^.G.N.N.b.g.g.3.<.u.    X /././././././././././././././././././././.",
"/././././././././././././././././././././././.    @ m.s.G.^.^.~.~.~.P.c.p.d.c.C..   X /././././././././././././././././././././.",
"/././././././././././././././././././././././.O   @ C.c.G.~.^.^.~.~.I.b.a.d.c.B.    X /././././././././././././././././././././.",
"/././././././././././././././././././././././.    . D.M.P.!.^.^.^.^.T.N.b.B.F.G.. o O /././././././././././././././././././././.",
"/././././././././././././././././././././././.X     !.Q.~.^.^.^.^.^.~.Y.Q.3   $ /./././././././././././././././././././././././.",
"/././././././././././././././././././././././.    o ^.^.^.^.^.^.^.^.^.^.^.>     /./././././././././././././././././././././././.",
"/././././././././././././././././././././././.O O o W.L.E.K.R.R.E.U.U.L.W.,   & /./././././././././././././././././././././././.",
"/./././././././././././././././././././././././././.    o o           o o /././././././././././././././././././././././././././.",
"/./././././././././././././././././././././././././.          o o     X   /././././././././././././././././././././././././././.",
"/./././././././././././././././././././././././././././././././././././././././././././././././././././././././././././././././.",
"/./././././././././././././././././././././././././././././././././././././././././././././././././././././././././././././././.",
"/./././././././././././././././././././././././././././././././././././././././././././././././././././././././././././././././."
};
