/* XPM */
static char *d2039b68e13d45f6e83b425bbbe8376cbB4ZbLPp0yUbUsda[] = {
/* columns rows colors chars-per-pixel */
"64 64 159 2 ",
"   c #7D582C",
".  c #86592E",
"X  c #895D2F",
"o  c #995C2F",
"O  c #875A30",
"+  c #8A5E31",
"@  c #9B5E30",
"#  c #8B612F",
"$  c #91632F",
"%  c #9C632F",
"&  c #8D6131",
"*  c #916533",
"=  c #9C6331",
"-  c #966A34",
";  c #9A6D35",
":  c #9B6D38",
">  c #9D7136",
",  c #9F7138",
"<  c #A1652F",
"1  c #A16531",
"2  c #A56E35",
"3  c #A36F3A",
"4  c #A37137",
"5  c #A97437",
"6  c #AB7837",
"7  c #A57239",
"8  c #AA763A",
"9  c #AC793E",
"0  c #AD7940",
"q  c #B17C40",
"w  c #AD802D",
"e  c #AF823F",
"r  c #B1823F",
"t  c #C28E38",
"y  c #C79336",
"u  c #CD9736",
"i  c #CF9936",
"p  c #CE973A",
"a  c #CE993A",
"s  c #D09837",
"d  c #D29739",
"f  c #D19A3B",
"g  c #CFA43E",
"h  c #D0A53F",
"j  c #AF8342",
"k  c #AF894B",
"l  c #B28443",
"z  c #B98344",
"x  c #BF8F47",
"c  c #B68648",
"v  c #BF8E4A",
"b  c #BF904C",
"n  c #BE984F",
"m  c #B88E54",
"M  c #C28E47",
"N  c #C28E4C",
"B  c #C88D4A",
"V  c #C99B46",
"C  c #C2914C",
"Z  c #C9904D",
"A  c #C49A4E",
"S  c #D39C40",
"D  c #C49550",
"F  c #C39B52",
"G  c #C99957",
"H  c #C8975C",
"J  c #C79A5A",
"K  c #C99B5B",
"L  c #CFA342",
"P  c #CFA448",
"I  c #D1A443",
"U  c #D3A44A",
"Y  c #D9A34B",
"T  c #D5A94A",
"R  c #C7A051",
"E  c #D3A55A",
"W  c #D2A25E",
"Q  c #D7AD5B",
"!  c #D7AF5A",
"~  c #D7AE5C",
"^  c #D7AC5C",
"/  c #D9AC59",
"(  c #DAAD5A",
")  c #D8AE5A",
"_  c #DAAD5C",
"`  c #D8AE5C",
"'  c #D8AF5D",
"]  c #DBAE5D",
"[  c #D8AD5E",
"{  c #D9AD5D",
"}  c #DAB05E",
"|  c #DAB05E",
" . c #CC9B60",
".. c #C99D60",
"X. c #CEA265",
"o. c #D6A563",
"O. c #D0A264",
"+. c #D3A365",
"@. c #D4A265",
"#. c #D5A366",
"$. c #D4A464",
"%. c #D5A565",
"&. c #D6A465",
"*. c #D7A664",
"=. c #D6A467",
"-. c #D3A364",
";. c #D9A563",
":. c #DBA960",
">. c #DAA861",
",. c #DBA962",
"<. c #D9AA62",
"1. c #DAAA62",
"2. c #DDA960",
"3. c #DEA963",
"4. c #DCAA63",
"5. c #DDAB62",
"6. c #DDAC60",
"7. c #DEAD61",
"8. c #DEAC63",
"9. c #DDAB66",
"0. c #DFAD64",
"q. c #DDAC63",
"w. c #D4A368",
"e. c #D5A469",
"r. c #D6A469",
"t. c #D6A668",
"y. c #D6A56A",
"u. c #D7A56A",
"i. c #D5A469",
"p. c #E0AC63",
"a. c #E2AE63",
"s. c #E5B263",
"d. c #E2B164",
"f. c #E3B265",
"g. c #E5B165",
"h. c #E6B165",
"j. c #E4B366",
"k. c #E6B266",
"l. c #E4B165",
"z. c #E8B066",
"x. c #E7B76D",
"c. c #E6B76C",
"v. c #E8B66D",
"b. c #E8B66D",
"n. c #E7B96E",
"m. c #E6B96D",
"M. c #E9B96D",
"N. c #E8BA6D",
"B. c #E8B86E",
"V. c #E9B96F",
"C. c #E8BA6F",
"Z. c #E9BB6E",
"A. c #E7B871",
"S. c #E8B870",
"D. c #E9B971",
"F. c #EABB73",
"G. c #EABC71",
"H. c #EBBD72",
"J. c #EABB71",
/* pixels */
"3 4 J K L L t.w., , L h J J H.H.- ; l l 6.3.&.r.7 5 I I g I Z.N.| | [ [ ) ) ) [ [ ^ [ ! ) [ ) ) [ ) d.j.h.k.h.h.3 4 g L i i E 2 ",
"4 K K g L t.t., 4 I g W K Z.H.; ; l j 6.0.r.r.4 4 h g I I V.N.| | ' ! [ ^ ) ^ ) { { ) [ ) [ ) ] | s.d.h.h.k.h.4 2 I L a i d.8 4 ",
">.6.6.6.t.t.> > K K P P T T - - l l S f N N 7 7 g I I L I g L L [ ! ) ) T P W K Z D N N c c z c c l 9 9 6 8 3 4 j j 8 8 N 8 7 ,.",
">.6.6.r.t.7 > J K P P T T - - j l S f B N 7 7 I S g I I h I I ^ ! [ [ T T W K C D N N c c l l l l 0 0 8 6 4 4 j l 9 8 Z 8 5 ,.{ ",
"o.o.r.u.8 8 K W E G U U - - j j a s c c 2 2 c l j j b C N b v C C C l c l c 9 9 9 9 0 0 l l r j j l l l * $ j l l l 9 6 5 p.3.&.",
"&.r.r.8 8 K K K G U T - - j j a a c l 2 2 l l e j N C v v N N b v l c l l 9 9 9 8 0 0 l l l j l l j j * * l j l l 0 8 7 p.9.r.&.",
"K  .6 8 v v D C i s + & 4 7 7 7 ; ; & * ; , 5 8 7 8 8 8 8 8 8 8 8 8 5 8 - > * * . O . . - : ; ; X X * $ q j b C 8 8 6 U U U U K ",
" .6 6 C N D C a s # # 7 2 4 7 : ; * * > ; 8 8 5 8 8 8 8 8 8 8 8 8 8 8 ; ; * $ . . . . ; ; : ; X + * * r l N N 8 8 ; U U T Y K K ",
"7 7 C C 0 q i s ; ; b.b.,.>.6.;.1.1.3.0.I U +.+.=.=.K K  . .U Y i a C C b N l l + X n.n.S.V.b v 1 3 l j v v l e : U U h s K K 8 ",
"8 v D q q s a ; ; x.b.{ >.>.1.3.1.6.0.I I o.%.+.%.K K W J U U s i C C v v l j O X n.A.n.n.N v 3 2 j j v b 6 9 6 U I f a K K 8 7 ",
"N N 9 9 I I 7 4 j c l l j l j l a u a i ) ! ^ ^ ) ! U P %.%.V f i i i i N N 4 4 t.r.r.r.q j 7 7 v N N C j 8 6 K J a a J K 2 3 N ",
"N 0 9 L I 7 4 l l l l l j j j i a i a ~ ) ^ { ^ ^ U U %.%.a f a a i i M N 4 4 e.w.w.r.j l 8 7 v v N v l 8 8 K K a i K W 2 2 N B ",
"N v -.-.; > b b C C J J I I -.X.O.%.K W K  . .K J K r.w.U P I I C C l l 4 3 ' ' <.~ v C 7 7 N v v v v 8 9 Z Z a a C Z - - Z M b ",
"v +.-.; ; C b v v J K P I -.O.-.%.K K K W K K K K r.w.U U I I C C l l 4 4 ^ <.' <.b b 8 4 Z N C b N 9 5 C Z i a C Z - - Z Z v b ",
"- - X X 8 7 8 7 8 8 8 6 > > 6 8 > 7 4 > > > : ; O O . . ; ; 4 3 X . . . q.q.q.| l l 6 7 l l B v N 9 5 N N s a C Z - - 2 4 4 7 - ",
"- # X 8 7 8 7 6 8 8 6 > 7 8 8 4 > 7 , > > ; : O O . . ; ; 4 4 . X . . ) q.q.<.j j 7 5 l l N b c 6 8 Z N a a C Z - - 5 4 5 4 - - ",
"V.V.H.H.q.q.p.0.p.6.p.3.0.a.F.F.V.F.K K T Y N C * & | ! ! ) ^ ^ # X q.q.^ q.l c 6 6 l l Z A p 7 , s a s s c c ; ; m.m.c.A.m.m.A.",
"V.H.H.0.0.q.q.q.p.p.6.3.q.F.F.F.V.K K Y T m v * & ! | | ) { ^ & X q.d.[ ' l l 6 8 c j C b r 9 4 a a a i l c > > N.j.A.x.m.c.A.A.",
"G J H H s a I I I I { ] p.6.D D z z q 0 6 9 4 7 N b K K J K > 4 [ [ =.o.j j 4 > j j u u w > ; s a Z Z j j 4 4  .K J K t.w.C b J ",
"J H J a s I I I I ,.] q.6.D D z c 9 q 9 9 3 2 v v K K K K ; ; [ [ =.=.l l > > q l a u y > ; s i C C j l 4 7 J J J J %.t.C C J J ",
"<.<.n.n.V.Z.q.a.S f a f a i b C l l v N 2 4 N v J K F F , 4 r.&.o.=.j j > 4 x v a a y 4 ; i i b N l j ; ; J J t.t.b b b b ;.;.1.",
"<.n.n.S.H.q.0.S S a s s f C b l l v v 2 2 C N K K F F > , r.r.+.&.j e 4 3 N M p i u - ; s s N b j l ; ; ..R t.r.b b b b o.>.>.<.",
"8 8 6 8 8 5 7 5 X & . . > ; 3 4 - * * * F F N N K G 6 8 p a f S N C > > B N A A B & & 4 4 4 4 & * X # ; > , , , , 8 6 , 4 , ; 8 ",
"8 8 8 5 5 7 7 & + . . ; ; 4 4 - * * * F F N N K H 8 9 s d V V v b > 4 N M A A B ; $ 4 4 4 4 * - & X > ; , , 7 , 9 8 7 , , 4 8 8 ",
"4.0.<.<.6.3.K  .& & d.a.h.h.d.j.X O l l Z N N N 8 8 Z Z a S v C 8 8 C N N N B z & h.s.s.h.d.j.Z.Z.H.H.Z.S.a.0.0.0.q.3.0.0.q.q.q.",
"3.q.6.6.a.K  .& & d.a.h.h.d.j.. . l k C B N N 8 8 B M a s v v 7 8 N Z N N N z * h.h.h.s.d.h.Z.Z.H.Z.G.Z.0.0.0.a.q.q.0.3.q.q.3.0.",
"l j l j v x 3 3 J J F F K J : : 9 9 f f p p 6 8 l l Z M F n - - l l v v N z 3 j l N N J J K J i a i i C C l l 9 9 9 9 l l j l l ",
"j j l v v 2 3 K K F F K K ; : 8 9 i i a f 8 8 c z M Z F G - - l l v C B q % l j b C J J J J a a a f C M l c 9 9 9 9 l l l l l j ",
"v v N v 4 4 C Z A R K K 5 4 9 8 i i u a 8 8 l l A A F F # # l l r l l 7 > l l j j a u i i G K H W b b b N c c l l l l 9 9 l j v ",
"v v N 5 2 N C F F J K 5 5 9 6 i i a a 5 8 l l A A R F O X l j j l l > ; l l j j a a i i K K J J b b b b l l l e e l 9 9 j l v v ",
"* & O O N N Z N J J , > r l A A A A 4 > N N n F Z N . . ; ; > > > # X - - > ; 8 8 8 8 9 6 8 8 8 6 , , 6 8 8 7 - * + # 5 2 4 4 * ",
"& O O N N B Z H J 7 > l l A A A A 4 > N N F F N Z . . ; ; ; ; ; & X - - > ; 8 8 8 8 8 8 8 6 8 8 , , 6 8 7 7 - * + & 4 4 4 4 * & ",
". . c c N B K K 4 4 N v p i A F 7 7 Z N D F N B O . d.k.k.a.d.h.s.H.Z.H.H.G.G.G.H.Z.H.H.Z.V.N.c.c.c.j.q.1.9.0.= = q.q.] p.U U O ",
". c l B N J J > , N z a p A A 4 , N N F F B M . O a.k.f.a.E h.j.H.Z.S.H.H.N.G.F.Z.Z.H.S.V.F.m.N.c.c.6.6.9.3.1 1 q.q.q.q.U U . . ",
"l l N N +.w.8 8 N N i a F A 4 2 C Z F F j l 4 4 N x v N N N b N C v v N N p a N M B Z z z r z c l c l j j 4 4 t.r.R F b N - * l ",
"r B N X.%.7 8 N B a a F F 4 4 C N G F l l 4 4 b x C b v v N v N b C N N p a B C Z B l c c c x l l l j j 4 4 e.y.F F b b * * l l ",
"p p S p 8 8 B B i i F F * * Z C F F l l 2 4 K K H K l j l l j v v u u i i J J K H a a M Z c c l l v v ; ; t.y.l j A F ; 4 l j p ",
"p f f 8 8 N N i i F F * * N N A F l l 7 2 K G J K v l j l q v v u u u i J G K K f d Z N l c j l v v ; ; w.t.j l F A > ; l j p p ",
"K K 7 8 a i M N a u X . 2 2 4 2 ; ; + + o o . . 2 3 8 8 6 8 8 5 7 8 6 > 4 ; > - - + X 4 4 4 4 & & O O Z N 8 0 F F 5 8 e j i i J ",
"G 8 8 a i B N u a . . 3 2 4 2 ; ; + + @ @ . . = 8 7 8 8 5 6 4 4 7 8 > > > ; - - X X 5 4 4 4 & & O O C N 8 0 n F 5 7 j l a i G G ",
"5 5 i i N N i i - - V.Z.F.V.x.A.a.a.^ ^ ^ ^ F [ ^ ^ ^ E ^ a.d.d.d.d.f.g.a.z.d.X X [ [ h.h.h.h.& & N N 9 9 b b 6 6 j l i i J K 5 ",
"5 i i B N i i - - V.V.F.V.V.V.p.a.[ <.^ ^ ^ [ ] ^ ^ ^ ^ p.a.d.d.h.d.g.a.z.s.+ X ) [ h.h.d.h.& & N N 9 9 b b 9 8 l j s s K J 5 5 ",
"l l B B z l 2 4 C N B N C b v v K H K H C b C N v C C x C v N c c l c l l ; ; j l j j N B ; - l l q l l l 6 8 v N K K K K 2 4 l ",
"l B N l c 2 4 Z C N Z v C C v K K K H Z v v v b C v b b v x l c c c l j ; ; l l j l B N - : l j l l l l 6 9 v b J J K K 2 5 l r ",
"b b 0 0 ; > F K K K K J R n n R A F F F F N N p a b b x b C N v N K K ; ; 9 8 l j l c 4 5 l l l l l c 6 8 v v J K K K - ; l l N ",
"v 0 8 ; - G K J K K J F n F F F R n F F N N p p C b M x N b v N  .K ; : 9 9 l j l l 4 4 j l l l l l 8 6 v v H J  .K - * l l N N ",
": : & # X . X . = = ; 3 9 8 7 5 7 6 7 , > > ; - - O O ; ; ; ; 1 = @ = 8 9 l 0 N N 8 8 j j N M z x 8 5 b C a a C Z X X ; ; 3 2 ; ",
": & & O O X X % = 2 2 0 6 7 9 7 7 6 > ; ; : * * + + ; ; ; ; = = = = 8 9 r l N N 8 7 l j N N v v 7 8 b N f s N N + + ; ; 7 4 ; ; ",
"0.a.0.a.w.r.w.@.@. .U E S U A Y U U U U U U Y # X a.z.[ <.a.z.= = 8 9 j j B N 8 8 j j Z N N v 8 7 v C Z B K K - - a.p.a.a.a.a.a.",
"d.a.a.r.w.w.@.@.w.U Y V U V Y Y U U U U U Y X X h.s.) [ a.a.= @ 8 9 q l N C 5 8 l j N N N N 7 7 N N C C K K - ; h.a.p.p.a.a.z.a.",
"N B N N N N Z N C N N N v v D v C l l j l - : K H 0 8 N N 2 3 l l l l N N 8 8 j j m N v v - ; v v G G r.%.3 4 H K z N l l 9 9 B ",
"Z N B N N N N N B C N v b v v v l l j e : : K K 9 8 C v 2 3 l q j j N N 8 8 j l N N v v - - v b G G r.+.4 3 K J N N l l 9 0 N N ",
"C m j l j j l l l l 9 l l c l l r c l ; : K K 8 8 J K 7 3 l l N N B N 8 8 P L v N b N * & C b  . .w.r.4 4 l j l q 9 9 9 9 l c C ",
"N q j l j l l l j j l l l l l c l l > ; K K 8 0 J  .7 7 l l v N N N 8 8 L P v N N v - & v v K J w.t.4 4 r l l l 0 9 9 9 l l v x ",
"8 8 , , 8 8 > , + X X ; ; 4 5 4 4 . . r.=.v b F J 7 6 l j F F F A , : I P N v b b O O - - ; ; : : & & & * * * 3 3 7 4 8 8 8 5 8 ",
"6 4 , 8 8 , ,   # X ; > 5 4 2 4 . . r.t.v v J J 6 8 j l C A F F , , U I D v C b O O - - ; : ; : & & & & * * 4 2 7 5 8 5 4 8 8 6 ",
"d.h.h.h.h.h.k * X [ ! [ ) H.S.O O K W v v J J 5 7 j j n F A F > > L g C b b N = = S.S.S.S.9.0.3.q.q.q.0.3.a.6.b.b.F.V.Z.Z.j.j.h.",
"h.h.h.h.h.-.: O ! ) ) [ H.H.. O K J v v J J 5 6 l l F A F F ; ; L g N C v b 1 = A.A.S.S.0.4.3.6.q.q.q.q.0.3.b.x.F.F.V.V.j.j.h.h.",
"F A F D m - = C N j j I g * * r.t.j l P P 6 5 j j I P -.%.& + 6.q.l l l j 4 5 r.t.F F B N N N c c F C S a r.&.^ / d.d.^ E W X.A ",
"F F F H @ < b b l j I g * * w.&.l l I I 7 7 j j P P +.X.+ & ,.{ l c l r 4 4 t.r.F F B N N N c c F n V a -.%.[ / a.p.^ { -.-.A F ",
"N N N 3 O b b j r h I - - I I l l m.j.> 4 j l 6./ +.&.O O 0.q.l l l l 2 3 I g I g j l l l N B i i +.-.o.&.! ^ p.6.W X.a a A F N ",
"N z 0 O v v j j I I - - I U l c j.m.> 7 j q { { +.+.O . 3.0.l l l l 2 2 h I I h l e l j M B i p -.-.o.=.^ ! p.6.-.W a u F C N N ",
"- = @ N C A A h I - ; I I H G V.V., , j l 3.6.X.X.X O 4 4 - ; - - + + - - ; - ; > 7 5 5 8 8 8 8 5 8 6 4 8 ; ; = @ @ o : : ; - - ",
"* @ C N A D I I ; ; I I H K V.V.> , l j 0.1.+.X.+ + 3 7 ; ; ; - + + - - ; - > > 8 7 7 8 8 5 8 9 6 8 8 4 ; : = @ @ o ; ; ; ; - - "
};
