/* XPM */
static char *_2305_508ce54318ad9388add0f236af0de7e9e92295e4b16d765f1552453b6279cd05[] = {
/* columns rows colors chars-per-pixel */
"64 64 78 1 ",
"  c #000000",
". c #100B05",
"X c #2C1F0F",
"o c #2E1E11",
"O c #85592E",
"+ c #895C2F",
"@ c #9A5D2E",
"# c #875A30",
"$ c #8A5E31",
"% c #9A5D30",
"& c #8C602F",
"* c #9C652F",
"= c #8C6131",
"- c #916532",
"; c #9D6331",
": c #956934",
"> c #9A6D36",
", c #9A6C38",
"< c #9E7136",
"1 c #9F7038",
"2 c #A46D35",
"3 c #A46F39",
"4 c #A37137",
"5 c #A97337",
"6 c #A57239",
"7 c #AA763A",
"8 c #AC793E",
"9 c #AE7A40",
"0 c #B07C40",
"q c #AF823F",
"w c #B1813F",
"e c #CE9737",
"r c #CF9936",
"t c #CE973A",
"y c #CE993A",
"u c #D09837",
"i c #D29739",
"p c #D19A3C",
"a c #CFA43E",
"s c #D0A53F",
"d c #AF8342",
"f c #B28443",
"g c #BF8F47",
"h c #BF8E4B",
"j c #BF904C",
"k c #C28E47",
"l c #C38E4C",
"z c #C88E49",
"x c #C2914C",
"c c #C49A4E",
"v c #D39C40",
"b c #C59550",
"n c #C39B51",
"m c #C59759",
"M c #C9975A",
"N c #C79A5A",
"B c #C99B5B",
"V c #CFA441",
"C c #CFA448",
"Z c #D1A442",
"A c #D2A44A",
"S c #D5AA4B",
"D c #D7AD5D",
"F c #D8AD5C",
"G c #DAB05E",
"H c #CC9B60",
"J c #D3A364",
"K c #DDAB62",
"L c #D5A469",
"P c #E2AE64",
"I c #E5B165",
"U c #E7B76E",
"Y c #E8B66D",
"T c #E7B96E",
"R c #E9BA6F",
"E c #E9B770",
"W c #E7B870",
"Q c #EBBB71",
/* pixels */
"33NBVVLL6<VsBBRQ,>dfKKJL73ZZsZRUGGFDFDFFFDDDFFFFFDIIIIII54ZseeII",
"4BNaVLL1<VsBBRQ>>fdKKLJ33sssZURGGGFGFFFFFKFFFFFIGIIIIII43ZZerII ",
"FPFKLL<4BBCCSS>>f9vvxx67sZZZVZVVFDDGSSnBlbllffffff787844ff77zl  ",
"KFPLL6<BBSSSS::dfvvzl64ZvZsZsZZDDGFZSBBcblbfgffff888744fw87lx   ",
"JJLK77BBBNSS::dduuff54fwddhxjhjxxxffff888799ffdfdfff--ddf089    ",
"JLL77BBBBSZ::ddyuff73ffwdlxhjlhllffff888799fffddfdd--wdff98     ",
"HH55lhbjuu==6616>>--><67677777777777>>>-O#OO,>>>=&--fdhl88      ",
"H55blbbeu&&4646>>--<>77577777777777>>--OOOO>,>>+$=-wqlx78       ",
"66xx8qre>>YYFJKKKKKKSZJJLLBBHHSAuexxlldd++WWEExh22fdllff        ",
"7xx00yy<>YYKKKKKKPKVZJJJJBBBNAAyexkxhfd++UWUUlh32ddhlf0         ",
"ll88ZZ44ffffdf9qyryyDDDDFFZSJLyveerelx61LLLLdd66hhhxdf          ",
"l98ZZ64ffffwdfdeyryGGDDDFASLJypyprrxx46LLLLdf76hlhhfd           ",
"lhJJ<>gjxjBBZZJJJJBBBHBHBBLLACZZxxff44DDDDhh67llhhlh            ",
"hJJ><jjjjNBZCJHJJBBBBBHBNJJAAZZxcqw36FDKDjh76llhhhl             ",
"::&+74757777<<77<4<<44,>##+#>>43+OO+KKKGff77ffllll              ",
">&&64777777<<774<<4<<<,##OO,>34OOOOFKKKdf67ffllll               ",
"UUQQPKPKLPPKKPQQQQBBSAll:&GFFFDD&&KPKGff78ffhlyp                ",
"UQQKPKKKPPKPFQQQQBHASll-=FGFFDD=+KPFDff77ffxhpt                 ",
"NNNNuyAZZZFKPPlbhf997733jjBBnN<1FDLJdf44ddyeyy                  ",
"NBNyuZZZZFFKKbbff999833lxNNBB<1DFLLdf<>ddryeu                   ",
"FFTTQQKIvpyupyjjffgh24llNMnn11LLJLqf4<glyyrr                    ",
"KTTTQKKvvyuupjxffhl44xlBBcn<1LLJLwq<3klerrr                     ",
"77777766&&OO<>44::--nnllNB86yyvtxj4<llcczx                      ",
"7777766=+OO<>44::=-cnllBB77ttvvhj<4llcczz                       ",
"KPKFKKBH==PPIIIIO#ffllll87zxyphl77llxlzl                        ",
"LKKKPBB-=PPIIII#Offxlll87zzuilj77llllzz                         ",
"dd0fhh54NBnnNN><88yytt77ffxznn:-fflhbl                          ",
"ff0hk33BBnnBN>>88ypyt77gglxcn::fdjxlz                           ",
"hhll44llcnNN7587rrry77ffccnc+=ffffff                            ",
"hhl44llNnNN7578eeyy77ffnccn+$ffffff                             ",
"==#+llllBN<<wfcccc4<hhjnzl#O>><<>3                              ",
"-##xlzbMN6<fqcccc4<klnnxl#O,>>>>>.                              ",
"##hflzNB>3hleecc66llnnllOOIIIPIY                                ",
"#ffllnN44lhytcc41zlnnzlOOIIIIII                                 ",
"ffllLL77llyenc43lbnnff24gkhllh                                  ",
"8llJL67zleunn43xlmcff34ggjhhh                                   ",
"itvt77lluenn-:xxnnff32NBMBlh                                    ",
"tpp77lluenc:-klcnff43mNBBhl                                     ",
"NB67yukley+O2233>>=$@%OO22                                      ",
"n77yulktyOO3224>>$$%%OO22                                       ",
"77uelluu::TRQQUUPPDFDDDD                                        ",
"5uilluu:,QTQQYUPPFFFDDDoX                                       ",
"ffzzff44xzllxhjlBHMHlx                                          ",
"flzff44zllxhjxhBBBBlx                                           ",
"jx884>NNBNBNnjncnnnn                                            ",
"h98>>NBNBBNnnCncnnn                                             ",
">,==+O+O;;<<687777                                              ",
">=&O+++*;34686777                                               ",
"PPPPLLLJJHAAAcvA                                                ",
"PPILLLJJLAAAAAA                                                 ",
"lllllllllllljb                                                  ",
"llllllllllllj                                                   ",
"lldfddffffff                                                    ",
"lfdddfddfff                                                     ",
"7714771<$=                                                      ",
"731771<==                                                       ",
"IIIIIIPI                                                        ",
"IIIIIPI                                                         ",
"cnnmNN                                                          ",
"cnmMM                                                           ",
"llhl                                                            ",
"lhh                                                             ",
"::                                                              ",
":                                                               "
};
