/* XPM */
static char *_8180_f97cd978b8e75b5dc6636a1ea0b01d48d64ef61f007923af31d87a8989028dc6[] = {
/* columns rows colors chars-per-pixel */
"64 64 101 2 ",
"   c #000000",
".  c #2C1F0F",
"X  c #2F1F10",
"o  c #342312",
"O  c #382713",
"+  c #3F2A17",
"@  c #463018",
"#  c #4C331A",
"$  c #51311A",
"%  c #5A3D1F",
"&  c #633C1D",
"*  c #5F4220",
"=  c #6B4824",
"-  c #74532A",
";  c #7B5529",
":  c #865A2E",
">  c #8A5D2F",
",  c #945B2E",
"<  c #995C2F",
"1  c #875A30",
"2  c #8A5E31",
"3  c #9B5E30",
"4  c #8C612F",
"5  c #91632F",
"6  c #9B612F",
"7  c #8D6231",
"8  c #916633",
"9  c #9D6331",
"0  c #966A34",
"q  c #9A6D35",
"w  c #9B6D38",
"e  c #9C7136",
"r  c #91743C",
"t  c #9E723A",
"y  c #A1652F",
"u  c #A16531",
"i  c #A56E35",
"p  c #A46E38",
"a  c #A47136",
"s  c #A97537",
"d  c #AB7837",
"f  c #A57239",
"g  c #AA763A",
"h  c #AC793E",
"j  c #9C7440",
"k  c #A27941",
"l  c #AC7A40",
"z  c #B0833F",
"x  c #CC9736",
"c  c #CF9937",
"v  c #CE973A",
"b  c #CE993A",
"n  c #D09836",
"m  c #D0993A",
"M  c #D0A53F",
"N  c #AF8342",
"B  c #AB8A47",
"V  c #B28443",
"C  c #B98645",
"Z  c #BF8F47",
"A  c #B68648",
"S  c #B68948",
"D  c #BF8D4A",
"F  c #B4914D",
"G  c #BF914C",
"H  c #C28E4C",
"J  c #C88E4B",
"K  c #C59644",
"L  c #CC9C47",
"P  c #C2914C",
"I  c #C39A4F",
"U  c #C39652",
"Y  c #C39B51",
"T  c #C99957",
"R  c #C8975C",
"E  c #C79A5A",
"W  c #C99B5B",
"Q  c #CFA343",
"!  c #D1A543",
"~  c #D3A44A",
"^  c #D9A34B",
"/  c #D4A849",
"(  c #D1A15F",
")  c #D6AC5C",
"_  c #D9AC5D",
"`  c #DAB05E",
"'  c #C99D60",
"]  c #CEA265",
"[  c #D3A364",
"{  c #D9A662",
"}  c #DDAC63",
"|  c #D5A469",
" . c #E2AE63",
".. c #E4B165",
"X. c #E8B066",
"o. c #E6B66B",
"O. c #E8B66D",
"+. c #E6B86D",
"@. c #E9BB6E",
"#. c #E7B871",
"$. c #EABB71",
/* pixels */
"                                                                                                                              f ",
"                                                                                                                            9 p ",
"                                                                                                                          : g { ",
"                                                                                                                        > s _ } ",
"                                                                                                                      O g } _ { ",
"                                                                                                                    # a } } | | ",
"                                                                                                                  # f / ~ ~ ~ W ",
"                                                                                                                @ q / / / ~ W ( ",
"                                                                                                              o q / / m m W W g ",
"                                                                                                            ; d / ! m m W ' s g ",
"                                                                                                          7 d W E b b W W i p H ",
"                                                                                                        0 h W W c c W W i p H J ",
"                                                                                                      q h J J b m P H q q J P P ",
"                                                                                                    p d P J m c P H 0 q H H D H ",
"                                                                                                  0 g H H m m H H q q i a a a 0 ",
"                                                                                                q d H H m m H H 0 q a a a a q 0 ",
"                                                                                              w p m b c c V C e q +.+.o.#.+.+.#.",
"                                                                                            - t b v c b C V e e +.+.#.o.+.o.#.#.",
"                                                                                          0 q c m P H V V a a ' W E E | | P P E ",
"                                                                                        8 q c c H P V V a a W ' E W | | P P E E ",
"                                                                                      ; 0 n c G H V V q q W W [ | G G P P { { { ",
"                                                                                    w q c c P H V V q 0 W W [ [ G G G G { { } { ",
"                                                                                  7 7 a a a a 0 8 > > e e t f a e d g a f e e g ",
"                                                                                = 7 a a a a 8 8 7 > e e t t t t g h e a e t g g ",
"                                                                              . 8 ....X.......@.@.$.$.$.$. . . . .} } } } } } } ",
"                                                                            . 0 ............@.@.$.$.$.@.} } }  .} } } }  .}  .} ",
"                                                                          o p N N H H E E E E m M n m P P V V h l h h V V V V N ",
"                                                                        # q N N D P W W E E n n m n P P V V h l h h V V V V N N ",
"                                                                      * q N V V N b c c c T W E W P G G P V S V V V V h l V N D ",
"                                                                    ; q V V z N c v x c W T E E P P G G V V V V z V h h N V D D ",
"                                                                  * > 0 q w q g g g g h g d g g s t t g g f g 8 8 2 7 a i i p 8 ",
"                                                                0 2 0 0 q q g g g s h d g g g g a t g h f g 8 8 2 7 a a a a 7 8 ",
"                                                              ....$.$.$.$.$.$.$.$.@.@.$.$.@.@.o.o.o.o.} } } } 9 9 } } ` } ~ ~ 1 ",
"                                                            ....$.$.$.$.$.$.$.$.@.@.$.$.$.$.+.O.o.+.} { } } u u } }  .} ~ ~ : 1 ",
"                                                          D H G P D D H H m b P J J H C C C V C V V V V V a a | | Y Y G H 0 8 N ",
"                                                        j H D D D P H H m m P P H J C C C C C V V V N N a a | | Y Y P G 0 0 V V ",
"                                                      V V V V H D x x c x T W E W b b H J V V V V P H q q | | V V I Y q q N l v ",
"                                                    V N V V H D x x c n T W W W b b H H V A V V G D q q | | V V I I t q V V v v ",
"                                                  = f g g a f f s g d q a q q q 0 2 2 i s f a 8 7 : 1 H H g h Y Y f s N V c c W ",
"                                                ; g g g d s f g f g e t q q 0 0 2 > i p s p 7 7 1 1 H P h h Y Y f s N N c n E T ",
"                                              F _ ) ) ) )  . ....... ..... ...> > ` ) .. .....7 7 H H g h G G g d V V c c E E s ",
"                                            ) } ) ) ) )  . ..... .......X...> > _ _ ........8 4 H H h h G G h g V V c n E E s s ",
"                                          P G D D P G Z D D H S A V A N V t q V l V V H H q q V V l z V S g g D D E T ( ( i a z ",
"                                        C G H G G P D Z D D V V A A V V q q V V V V J H q w l V V V N S g d D D W E W W i i z C ",
"                                      r Y H H v b D P Z G P H D H W W q q h g l V V V g a V V V V V C d g D D W W ' W 0 0 V V H ",
"                                    B Y P H v b G P Z P H G D H ' W q q h h V z V V f a V N V V V V g d D D W E W W 0 0 V V H H ",
"                                  4 g w e q q 8 8 2 2 q q q q u 9 3 9 h h V V H H s g V N H H C C g g P H m b H J 2 : q q p i q ",
"                                4 g e q e e 8 8 2 1 q q q q 9 9 9 9 h g h V H H g g N N H H Z D g g D P m m H H 2 2 q q f i q q ",
"                              K ~ ~ ~ ~ ~ ~ ^ 4 > X..._ } ....9 3 g l V V H H g g V V H J H H f g G H P H W W q 0  . . . . . . .",
"                            L ^ ~ ~ ~ ~ ~ ^ > > ....) _  .X.9 3 l h V l H H g g l V H H D H f g G D P P W W w w  . . . . . . . .",
"                          k P D P V V N l q w W W h h H H i p V V V V H H d g N A D H G D 8 0 G H T T | [ a p R R H H N V h h H ",
"                        t G D G V V V N w w W W h g G D i p l l V l J H g g N N U D H H 0 0 H D T T | | i a E W H H h V h l J H ",
"                      h N S V S C S z q q W W h g W W a a V V H H H J g g Q ~ P D D G 8 7 H D W W | | a i V V N l l h l h V V H ",
"                    7 V V V V V V z q q W W g d W W a a V V H H J H g g Q Q D D H D 8 8 H H ' W | | a i V V N V l l g l V V H H ",
"                  + > q q a f a i : : | | D G E W f g V V Y Y Y I t t Q Q H D H U 1 1 8 0 0 w w w 7 7 4 8 8 8 i p s f s d a s g ",
"                > 4 q a a a i a : : | | D D W E g g V N U I Y I t t / Q D U D D 1 1 0 0 0 w w w 7 7 7 8 8 8 p i s p g s s g g g ",
"              ; > ) ) ` ) $.$.1 1 W W D D W E s g N B Y Y I Y e e M ! P H G D 9 u #.+.#.#.} } } } } }  .}  . .o.O.$.#.@.@.o.....",
"            = 1 ) ) ) ` $.@.> 1 W E G G W E s s N V Y G Y Y q q Q M H P P D u u #.@.#.#. .} } } } } } } } } o.o.$.$.@.+.........",
"          < 9 H G V z M M 5 8 | [ V V ! Q f s N N Q Q [ [ 7 2 } _ V C l N a g | | Y T H H H H A V Y U L m | { ) { ....) ) ( [ I ",
"        9 3 G D V N Q M 8 8 | [ V N / ! g f V z Q Q [ [ 2 7 _ } V V V V a a | | Y I H H H J A A Y Y b b [ [ ) ) ....) ) ( [ I I ",
"      # 1 G G N V m ! 0 0 / ! V V o.o.e a V V } _ [ | 1 1 } } V V V l p a ! M ! ! V V V V J H c x [ [ { | _ )  .} ( ] b v I U H ",
"    o 1 G G N V ! ! 0 0 / ! l V +...e a N V _ _ [ [ 1 : } } V N V V a p Q M ! M l V V z P H c b | [ { [ ) ) }  .( ( v v Y I H H ",
"  $ 3 U P Y U M ! 0 w / ! R W @.+.t t N N } { ] ] 2 1 a a q q 0 q 2 2 0 0 q q q w s s s s d g g d g s a s q t 3 6 < < q q w q 0 ",
"& 3 H D P I Q ! q e ! ! T T @.@.a t V N } } [ ] 2 2 p f q q 0 q 2 > 0 0 q q q q g f g d d a g g g g f g e q 3 9 3 < w q q 0 0 0 "
};
