/* XPM */
static char *d73ad44b2c074399ef7a7055289c73dcp78mrOXFHSeJsfjo[] = {
/* columns rows colors chars-per-pixel */
"64 64 4 1 ",
"  c None",
". c #211F1D",
"X c red",
"o c white",
/* pixels */
"                                                                ",
"                                                                ",
"                                                                ",
"                                                                ",
"                                                                ",
"                                                                ",
"                                                                ",
"                                                                ",
"                                                                ",
"                                                                ",
"                                                                ",
"                                                                ",
"                                                                ",
"                                                                ",
"                                                                ",
"                                                                ",
"                                                                ",
"                                                                ",
"                                                                ",
"                                                                ",
"                                                                ",
"                                                                ",
"                                                                ",
"                                                                ",
"                                                                ",
"                                                                ",
"                                                                ",
"                                                                ",
"                                                                ",
"                                                                ",
"                                                                ",
"                                                                ",
"                                                                ",
"                                                                ",
"                                                                ",
"                                                                ",
"                                                                ",
"                                                                ",
"                                                                ",
"                                                                ",
"                                                                ",
"                                                                ",
"                                                                ",
"                                                                ",
"    ....      ....                                              ",
"    ....      ....                                              ",
"  ..XXXX..  ..XXXX..                                            ",
"  ..XXXX..  ..XXXX..                                            ",
"..XXooooXX..XXXXXXXX..                                          ",
"..XXooooXX..XXXXXXXX..                                          ",
"..XXooXXXXXXXXXXXXXX..                                          ",
"..XXooXXXXXXXXXXXXXX..                                          ",
"..XXXXXXXXXXXXXXXXXX..                                          ",
"..XXXXXXXXXXXXXXXXXX..                                          ",
"  ..XXXXXXXXXXXXXX..                                            ",
"  ..XXXXXXXXXXXXXX..                                            ",
"    ..XXXXXXXXXX..                                              ",
"    ..XXXXXXXXXX..                                              ",
"      ..XXXXXX..                                                ",
"      ..XXXXXX..                                                ",
"        ..XX..                                                  ",
"        ..XX..                                                  ",
"          ..                                                    ",
"          ..                                                    "
};
