/* XPM */
static char *_d6d52c896a24ab6e64a0422ab8cd15deiC1WFnCYuFFsa4F[] = {
/* columns rows colors chars-per-pixel */
"64 64 255 2 ",
"   c None",
".  c black",
"X  c #010101",
"o  c gray1",
"O  c #000206",
"+  c #050306",
"@  c #030507",
"#  c #040404",
"$  c gray2",
"%  c #060407",
"&  c #060606",
"*  c #070707",
"=  c #030508",
"-  c #00050D",
";  c #01080E",
":  c #010A0F",
">  c #040A0C",
",  c #070A0D",
"<  c #010E13",
"1  c #030C17",
"2  c #0D1416",
"3  c #04131B",
"4  c #08111A",
"5  c #09131B",
"6  c #0A151A",
"7  c #131619",
"8  c #11181E",
"9  c #15191C",
"0  c gray11",
"q  c #0C1721",
"w  c #0B1625",
"e  c #0A1725",
"r  c #0B1827",
"t  c #0A1A26",
"y  c #0D1D27",
"u  c #081C28",
"i  c #0B1C28",
"p  c #101E22",
"a  c #111B26",
"s  c #131C24",
"d  c #141E25",
"f  c #141F2D",
"g  c #151F2E",
"h  c #1B2124",
"j  c #12202D",
"k  c #072133",
"l  c #0E2033",
"z  c #0A2437",
"x  c #0A2637",
"c  c #0F2735",
"v  c #0F2935",
"b  c #0C2837",
"n  c #05233A",
"m  c #07253F",
"M  c #102331",
"N  c #112332",
"B  c #112432",
"V  c #112135",
"C  c #132635",
"Z  c #142736",
"A  c #152930",
"S  c #112936",
"D  c #132937",
"F  c #162B34",
"G  c #142A36",
"H  c #1A2830",
"J  c #1A2931",
"K  c #1C2832",
"L  c #182834",
"P  c #10273A",
"I  c #202B35",
"U  c #23303D",
"Y  c #29323D",
"T  c #31363E",
"R  c #353C3F",
"E  c #3C3C3C",
"W  c #092A43",
"Q  c #1F3646",
"!  c #193C58",
"~  c #183E59",
"^  c #333B43",
"/  c #313E4A",
"(  c #203A50",
")  c #223C52",
"_  c #354045",
"`  c #30414E",
"'  c #36424F",
"]  c #394149",
"[  c #3B424A",
"{  c #38424F",
"}  c #2E4252",
"|  c #324757",
" . c #3E4C50",
".. c #3E5367",
"X. c #44494F",
"o. c #474D53",
"O. c #434855",
"+. c #444F54",
"@. c #4E4E55",
"#. c #414A59",
"$. c #434F5F",
"%. c #4E595F",
"&. c #515152",
"*. c #505457",
"=. c #585C5F",
"-. c #475461",
";. c #4E5B69",
":. c #565F64",
">. c #5A5E62",
",. c #4B5F70",
"<. c #47616C",
"1. c #5B6467",
"2. c #526169",
"3. c #5C656A",
"4. c #5F676E",
"5. c #4F6473",
"6. c #4E6778",
"7. c #5E6774",
"8. c #536A73",
"9. c #53657B",
"0. c #60666C",
"q. c #6C6C6C",
"w. c #666F75",
"e. c #676F76",
"r. c #68727A",
"t. c #4E718D",
"y. c #577185",
"u. c #5B7486",
"i. c #5D7485",
"p. c #55728A",
"a. c #56738A",
"s. c #50738D",
"d. c #587689",
"f. c #617688",
"g. c #647F8B",
"h. c #757880",
"j. c #648096",
"k. c #608198",
"l. c #738891",
"z. c #868686",
"x. c gray53",
"c. c gray54",
"v. c gray55",
"b. c #8D8D8D",
"n. c #9EA3A9",
"m. c #A1A2A4",
"M. c #A0A6AB",
"N. c #AEAEAE",
"B. c #ACB2B4",
"V. c #A6B1BC",
"C. c #A9B4BA",
"Z. c #BBB9BA",
"A. c #BCCCD9",
"S. c #C4D0DE",
"D. c #CFD5DF",
"F. c #C7D5E5",
"G. c #CDD7E1",
"H. c #C9D9E0",
"J. c #CDDAE3",
"K. c #CBDAE5",
"L. c #CBDBE5",
"P. c #CBDAE6",
"I. c #CBDAE7",
"U. c #CCD9E6",
"Y. c #CDDBE6",
"T. c #CEDCE7",
"R. c #C7DDEB",
"E. c #C6DAED",
"W. c #C5DBEF",
"Q. c #C7DCED",
"!. c #C8D9E8",
"~. c #CBDBE8",
"^. c #CBDAE9",
"/. c #C8D8EA",
"(. c #CADBEB",
"). c #CFD8E9",
"_. c #C9DCEB",
"`. c #CADCEA",
"'. c #CADCEB",
"]. c #CBDCEB",
"[. c #CEDCEA",
"{. c #CBDBEC",
"}. c #CADBED",
"|. c #C9DBEE",
" X c #C9DBEF",
".X c #CADBEE",
"XX c #CBDBEE",
"oX c #CADBEF",
"OX c #C9DCED",
"+X c #CBDCED",
"@X c #C9DCEE",
"#X c #CBDEEF",
"$X c #CCDCEC",
"%X c #CCDDED",
"&X c #D1DCE2",
"*X c #D1DDE3",
"=X c #D2DCE3",
"-X c #D3DDE7",
";X c #D1DEE8",
":X c #D1DFE9",
">X c #C4DBF0",
",X c #C5DBF1",
"<X c #C5DDF1",
"1X c #C7DCF1",
"2X c #C9DBF0",
"3X c #C8DCF0",
"4X c #CADDF2",
"5X c #D2E1E7",
"6X c #DBE2E4",
"7X c #D5E1E8",
"8X c #D6E1EA",
"9X c #D1E0EC",
"0X c #D0E1EE",
"qX c #D5E2EC",
"wX c #D8E1EE",
"eX c #D8E7EF",
"rX c #DDE5EC",
"tX c #DCE8EC",
"yX c #D2E0F2",
"uX c #D8E5F2",
"iX c #E3E8EC",
"pX c #E5ECED",
"aX c #E8EAEE",
"sX c #E2EEF4",
"dX c #E5F1F4",
"fX c #ECF3F4",
"gX c #ECF1F6",
"hX c #EAF4F9",
"jX c #EBF5F9",
"kX c #EDFAFE",
"lX c #EDFBFE",
"zX c #F1F7FA",
"xX c #F7FAFB",
"cX c #F1FBFC",
"vX c #F6FCFC",
"bX c #F6FCFD",
"nX c #F7FEFD",
"mX c #F7FEFE",
"MX c #F7FEFF",
"NX c #F6FFFF",
"BX c #FCFCFB",
"VX c #F8FBFF",
"CX c #FCFBFF",
"ZX c #F9FCFC",
"AX c #F8FDFD",
"SX c #F8FDFE",
"DX c #F9FCFF",
"FX c #F8FDFF",
"GX c #F9FFFF",
"HX c #FBFEFE",
"JX c #FDFDFD",
"KX c #FCFFFF",
"LX c #FFFFFE",
"PX c #FEFEFF",
"IX c #FEFFFF",
/* pixels */
"                                                                                                                                ",
"                                                                                                                                ",
"                                                                                                                                ",
"                                                                                                                                ",
"                                                                                                                                ",
"                                                                                                                                ",
"                                                                                                                                ",
"                                                                                                                                ",
"                                                                                                                                ",
"                                                                                                                                ",
"                                                                                                                                ",
"                                                                                                                                ",
"                                                                                                                                ",
"                                                                                                                                ",
"                                                                                                                                ",
"                                                                          1.  M.                                                ",
"                                                                  >.h C T H p ^ {                                               ",
"                                                              ^ K K C -.A.A U K t d.t.                                          ",
"                                                          s y y B (.E.].$X].F.*X*Xs t.a.                                        ",
"                                                          j C  .E.Y.Y.].HXXX X3X-XqXa ,.                                        ",
"                                                        j x +.>X,X X X$X]. X X XiXnXY ,.)                                       ",
"                                                      O.S x #.E. X X X X X X X].3XHXjXi g.                                      ",
"                                                      @.F $.kX(. X X X X X X X X(.sXpXI.V.C.                                    ",
"                                                      6 f 5XkX(.<XR. X X X X X XOXI.jXI.Q 8.                                    ",
"                                                    - L f H.:XQ.(.R.OX X X X X XOX9XPXD.5.z B.                                  ",
"                                                      5 :X9X(.OX XOX X X X X X X XtXPXzXwXI                                     ",
"                                                    m.N ' 9XaXOX X X X X X X X3X3XY.PX=Xn k w.                                  ",
"                                                      N e HXdXOX'. X X X X X X XOXHXHX*XX.2.                                    ",
"                                                      N q G.dX'.OXOX X X X2XOX2X2XPXxXrX`                                       ",
"                                                      h.q eXxXHX'.(.,X X XOXOX XHXnXqXP | [                                     ",
"                                                      n.l %.6XnXHX'.I.!.!.3XyXHXnXnXuXG a.                                      ",
"                                                        [ W :.nXcXHXHXgXHXxXnXxXnXr.S u.s.                                      ",
"                                                        : ! ! 3.7.kXnX7XHXfX=X5 _ ....u.                                        ",
"                                                      < < : : ( e u J.;.S.Z V m m 9.                                            ",
"                                                  x.x.3 k.} 2   y.6.<./ l.Z i.f.                                                ",
"                                                  z.% j.w w           /                                                         ",
"                                                z.# o.o.1                                                                       ",
"                                              X % % 0.*.                                                                        ",
"                                              X O 9 =.                                                                          ",
"                                          b.X 7 , 9 &.                                                                          ",
"                                        b.o 7 7 =                                                                               ",
"                                      c.% o 8 @                                                                                 ",
"                                      E % e.Z.                                                                                  ",
"                                    % * q.4.Z.                                                                                  ",
"                                    0 0 q.N.                                                                                    ",
"                                                                                                                                ",
"                                                                                                                                ",
"                                                                                                                                ",
"                                                                                                                                ",
"                                                                                                                                ",
"                                                                                                                                ",
"                                                                                                                                ",
"                                                                                                                                ",
"                                                                                                                                ",
"                                                                                                                                ",
"                                                                                                                                ",
"                                                                                                                                ",
"                                                                                                                                ",
"                                                                                                                                ",
"                                                                                                                                ",
"                                                                                                                                ",
"                                                                                                                                ",
"                                                                                                                                ",
"                                                                                                                                "
};
