/* XPM */
static char *_cee980e7aa544dae63ad64767ecae5bHgONwD4WFwZwT1vW[] = {
/* columns rows colors chars-per-pixel */
"64 64 85 1 ",
"  c None",
". c black",
"X c #010101",
"o c #020202",
"O c #040403",
"+ c #040404",
"@ c gray2",
"# c #070706",
"$ c #0D0D0C",
"% c #121312",
"& c #161715",
"* c #171816",
"= c #181917",
"- c #1B1D1B",
"; c #1C1D1B",
": c #1D1F1D",
"> c #1E201E",
", c #1F211F",
"< c #222321",
"1 c #262725",
"2 c #272826",
"3 c #292A27",
"4 c #2A2C28",
"5 c #2B2C29",
"6 c #2B2D29",
"7 c #2C2E2A",
"8 c #2E302D",
"9 c #2F312E",
"0 c #31332F",
"q c #323430",
"w c #333633",
"e c #343633",
"r c #353733",
"t c #343734",
"y c #353835",
"u c #373936",
"i c #3A3C38",
"p c #3B3D39",
"a c #3C3F3A",
"s c #3D3F3B",
"d c #3B3E3C",
"f c #3E3F3C",
"g c #3E413C",
"h c #424440",
"j c #444742",
"k c #474A44",
"l c #484B46",
"z c #4A4D48",
"x c #4B4E49",
"c c #4F524C",
"v c #4F524D",
"b c #50534D",
"n c #51544E",
"m c #535751",
"M c #565953",
"N c #565A53",
"B c #585C55",
"V c #5A5D57",
"C c #5C6059",
"Z c #5E625B",
"A c #61635C",
"S c #61645D",
"D c #656860",
"F c #686B62",
"G c #686C62",
"H c #6B6F64",
"J c #6A6E65",
"K c #6D7067",
"L c #6E7168",
"P c #6E7268",
"I c #71756D",
"U c #73776C",
"Y c #747871",
"T c #777B74",
"R c #787C71",
"E c #7D7F75",
"W c #7B7F78",
"Q c #7D8076",
"! c #81847A",
"~ c #878A81",
"^ c #858982",
"/ c #888C85",
"( c #8D918A",
") c #9BA298",
"_ c #A9AEA5",
/* pixels */
"W/(())))((~~~~UUll(())____))(((((())((!/~~~~~~UUru(())))((~~~~UU",
"T^(())))((~~~~UUlz(())____))(((((())((~~/!~~~~UUur(())))((~~~EU ",
"HGUUUUFFIL((((VVddLK((!!!!TTUUFFUUEEEEIKUURRERCCllUUUUFFPH((TC  ",
"PHUUUUFFHL((((VAddLP((!!!!RTUUFFUUEEE!KKUURRRRCClkUUUUFFKI(YV   ",
"KKPKUUUURR~~((ZCddPKEERREEUUUUUUKK!!!!KKRREEEECCllPPUUUURTUC    ",
"DFPPUUUURR~~((CCffKPEERREEUUUUUUKK!!!!KKTTEEEECCllPPUUUURHV     ",
"FDFFFFPKPPUU!!NNutFFPPFFUUFFFFUUHFUUIKASUUPPFFNNhhFFFFKKDC      ",
"AVFFFFKPKPUU!!NNttFFKPFFUUFFFFUUFFUUKKSSUUPPFFNNhhFFFFPDC       ",
"NmCCCCSSADFFTRnnutCCFFCCFFCCNNPPBnASVZCCFFFFFFnnddCCCCZC        ",
"BNCCCCSSAAFFRRnnttCCFFCCFFCVNNPPBBSSZVCCFFFFFDnndfCCCCC         ",
"bvnnxxNNNNVZSShh00MMNNnnmbmbNNnnllxxllxxbvxxxxhhuynnMV          ",
"cxnnxxNNNNZVSShh00MBNNnnbbbbNNnnlzxxkzxxnmxxxxhhyynNC           ",
"hhhhhhxxnnllnndd22xxmbmbmbxxvnxxssddddhhhhhhhh0000vC            ",
"hhhhhhxxnnllnndd22xxbbbbbbxxmvxxpsddddhhhhhhhhqq0kC             ",
"111122,,,,,,,,,,22222222,,5122221112,,,,,,,,,,22hC              ",
"112222,,,,,,,,,,22222222,,2222221512,,,,,,,,,,2hC               ",
"qipuhhxxnnnnxxnnxxhhhhhhxxxxhhyy--hhxxnnnnxxnnmC                ",
"esfphhxxnnnnxxnnxxhhhhhhxxxxhhyt;-hhxxnnnnxxnNC                 ",
"wttwut0022777777227777773100tutu==tuq0227777jC                  ",
"9wwwtt0022777777227777771100utut==ut0022777jC                   ",
"63667777227722223111227713<<7700==77772277hC                    ",
"65577777227722221133227713<<7700==7777227jC                     ",
">,::,,<>,,><;;==:-,,;;:-;;;;,,<<%%><,,,,gC                      ",
"->::,,,,,,>>;;==;;,>;;;;;;;;,,<<%%>>,,,gC                       ",
"&&&&&=;;;;====%%***-==========;;$$==;;sC                        ",
"*&&*--;;;;====%%-&*&==========;;$$==;sC                         ",
"..##$$$$$$$$$$$$$$$$$$$$$$$$$$%%##$$eC                          ",
"..##$$$$$$$$$$$$$$$$$$$$$$$$$$%%##$tC                           ",
"..################################wC                            ",
"..###############################0V                             ",
"................................0C                              ",
"...............................9C                               ",
"..............................9C                                ",
".............................9V                                 ",
"............................9C                                  ",
".#.........................9C                                   ",
"..........................9V                                    ",
".........................9C                                     ",
"........................9C                                      ",
".#.....................9C                                       ",
"......................9V                                        ",
".#...................9C                                         ",
"....................9C                                          ",
"...................9C                                           ",
"..................9C                                            ",
".................9C                                             ",
"................9V                                              ",
"...............9C                                               ",
"..............9V                                                ",
".............9C                                                 ",
"............9C                                                  ",
".+.........9C                                                   ",
"..........9C                                                    ",
".........9C                                                     ",
"........9V                                                      ",
".......qC                                                       ",
"......9C                                                        ",
".....9C                                                         ",
"O#..9V                                                          ",
"#..9C                                                           ",
"..9C                                                            ",
"+vC                                                             ",
"bC                                                              ",
"C                                                               "
};
