/* XPM */
static char *_253aa1604dc4ed1a37cd72541de6c12bH4jsOzAMmozm57P[] = {
/* columns rows colors chars-per-pixel */
"64 64 117 2 ",
"   c None",
".  c #010100",
"X  c #080807",
"o  c #0C0C0B",
"O  c #0F100F",
"+  c #10100F",
"@  c #131412",
"#  c #171816",
"$  c #181917",
"%  c #1B1C1A",
"&  c #1F211F",
"*  c #20211F",
"=  c #232422",
"-  c #272826",
";  c #292A27",
":  c #2B2D29",
">  c #2E302E",
",  c #31332F",
"<  c #343532",
"1  c #363835",
"2  c #383B37",
"3  c #3B3D3A",
"4  c #3E413D",
"5  c #40423E",
"6  c #424441",
"7  c #464944",
"8  c #484B46",
"9  c #4B4E49",
"0  c #4E514B",
"q  c #51544E",
"w  c #535750",
"e  c #565A53",
"r  c #595D56",
"t  c #5B5F58",
"y  c #5D615A",
"u  c #62655D",
"i  c #64685F",
"p  c #666961",
"a  c #696C63",
"s  c #6D7167",
"d  c #6E7268",
"f  c #72766C",
"g  c #75796E",
"h  c #777A71",
"j  c #777B70",
"k  c #777A72",
"l  c #787B71",
"z  c #787B72",
"x  c #787C71",
"c  c #797C71",
"v  c #7A7C72",
"b  c #7A7D72",
"n  c #7A7D73",
"m  c #7B7E73",
"M  c #797D74",
"N  c #7A7D74",
"B  c #7B7E74",
"V  c #7A7E76",
"C  c #7B7E76",
"Z  c #7A7E77",
"A  c #7C7F75",
"S  c #7D7F75",
"D  c #797C72",
"F  c #7C8075",
"G  c #7C8076",
"H  c #7D8076",
"J  c #7D8176",
"K  c #7D8177",
"L  c #7E8177",
"P  c #7F8177",
"I  c #7C8075",
"U  c #7D8179",
"Y  c #7F8278",
"T  c #7F8279",
"R  c #7F8379",
"E  c #7F837A",
"W  c #7E8279",
"Q  c #81847A",
"!  c #80847B",
"~  c #81857D",
"^  c #81867D",
"/  c #82857D",
"(  c #85887F",
")  c #84897F",
"_  c #84887F",
"`  c #858A80",
"'  c #878A81",
"]  c #878A82",
"[  c #878C82",
"{  c #878A82",
"}  c #888B82",
"|  c #898D85",
" . c #8A8D85",
".. c #898F84",
"X. c #8A8F85",
"o. c #8A8E86",
"O. c #8B8F87",
"+. c #8A8E86",
"@. c #8C9086",
"#. c #8D918A",
"$. c #8D918A",
"%. c #90958B",
"&. c #91968E",
"*. c #95998F",
"=. c #959990",
"-. c #959B92",
";. c #969C93",
":. c #979D94",
">. c #939890",
",. c #989E95",
"<. c #999F96",
"1. c #999F96",
"2. c #9BA298",
"3. c #9BA298",
"4. c #A3A9A0",
"5. c #A4AAA1",
"6. c #A9AEA5",
/* pixels */
"                                                                                                                                ",
"                                                                                                                            ' ' ",
"                                                                                                                          ' ' o.",
"                                                                                                                        ' ' o.#.",
"                                                                                                                      O.' o.#.#.",
"                                                                                                                    #.O.o.#.#.#.",
"                                                                                                                  -.#.~ #.o.#.' ",
"                                                                                                                2.-.U k o.} ' Q ",
"                                                                                                              3.2.~ d M ' U Q J ",
"                                                                                                            2.3.~ a g J A g J x ",
"                                                                                                          ;.3.) a f g g g f j s ",
"                                                                                                        #.;.[ s s g f d s a a u ",
"                                                                                                      M #.' f f f f s a p i u r ",
"                                                                                                    1 Z ~ f f f f s a i u y r q ",
"                                                                                                  3 1 f f f f f a a u y y q q 3 ",
"                                                                                                g 3 5 a f f a a a u y r q 8 3 - ",
"                                                                                              f f 6 8 p d s a p u t w w 8 2 - > ",
"                                                                                            ( f a 9 8 p a a u t t e w q 2 - > 1 ",
"                                                                                          } ( a t 9 8 u p u t e e w q 3 - < 1 1 ",
"                                                                                        ' ' Q r t 9 8 y p y w q q 9 3 - < 4 1 1 ",
"                                                                                      ' ( Q g u t 8 6 t t e 9 9 9 1 - 1 6 3 1 < ",
"                                                                                    ' ' Q v j r t 6 4 e e 9 7 8 1 = 3 8 3 1 < < ",
"                                                                                  } ' U v m v r e 6 3 q q 8 5 1 & 1 9 4 < < > - ",
"                                                                                } } J x v P d e w 3 2 9 9 6 < = < 9 4 < > > - = ",
"                                                                              ' } P g S m f a w q 3 < 7 6 < - < 9 3 < : : - = & ",
"                                                                            o.' m f j m g a i q 8 2 < 3 < - < 8 2 : - = - & & % ",
"                                                                          #.o.x d j m f d a i 8 6 < < < - < 6 2 - - = = & % % # ",
"                                                                        &.#.U d f v g d a p r 5 2 , : ; < 6 1 ; - - & % % # # @ ",
"                                                                      3.&.( g a f j f s a r 8 3 , : - 1 6 1 : : - & % % # @ @ O ",
"                                                                    <.3.} A g f d f s i r 8 7 , : - < 6 2 : : : & % % # @ O O o ",
"                                                                  %.<. .A Q g a a d a r 9 7 5 : ; < 6 2 : : : = % % # @ o o o X ",
"                                                                #.#. .A P / a u i a r 9 7 5 , - 3 5 2 : : : = % % # @ o o X X . ",
"                                                              #.#.Q A Q Q z a y u y 0 8 5 , = 2 9 1 : : = = % % $ @ o o X . . . ",
"                                                            #.#.Q g A Q z a u t r q 8 5 , & 2 9 2 : ; - = % % $ @ o o X . . . . ",
"                                                          #.#.M f f A M d p t w 0 8 6 > & 2 q 2 - : - = % % $ @ o o X . . . . . ",
"                                                        #.#.F a d d z f a y w 9 8 6 > & 1 q 4 - - - = % $ $ @ o o X . . . . . . ",
"                                                      <.$.Q a s d s d a t w 8 8 5 > & 1 9 5 : - - = & % $ @ o o X . . . . . . . ",
"                                                    3.;.Q f s f s a a u w 8 6 6 < & 1 0 3 : ; - = & % $ @ o o X . . . . . . . . ",
"                                                  4.3.[ f f f f p t u e 8 6 5 , & 1 0 3 : : - = % % $ @ o o X . . . . . . . . . ",
"                                                6.5.[ c f f f f y e w 9 6 3 , & 3 q 4 : : - & % $ $ @ o o X . . . . . . . . . . ",
"                                              6.6.%.j g f d f f r q 8 6 3 > & 1 q 4 : - - & # % $ @ o o X . . . . . . . . . . . ",
"                                            6.6.*.J g f d a f a q 8 6 4 > & 1 q 4 : > - = # @ $ @ o o X . . . . . . . . . . . . ",
"                                          5.6.*.Q x f s a u s y 7 6 4 < = 1 0 4 - : - = % # @ @ o o o . . . . . . . . . . . . . ",
"                                        2.5.*.Q Q c s a u r u q 6 3 < - 1 8 4 - : : = & $ @ O o X X . . . . . . . . . . . . . . ",
"                                      :.2.*.Q J F f a i e r q 0 3 , - < 8 4 > - - - & % # O o o X . . . . . . . . . . . . . . . ",
"                                    #.<.-.( J M c d u r e e 9 9 , - , 6 4 < - - = = % # @ o o X . . . . . . . . . . . . . . . . ",
"                                  ] #.&.#.J x g f a y r e q 9 2 - & 4 3 < > - = & % # @ o o X . . . . . . . . . . . . . . . . . ",
"                                8 ] U ' ( z f s s i e q q q 2 - = % 1 1 > - - & & # @ o o X . . . . . . . . . . . . . . . . . . ",
"                              8 8 C d P A f p a a r q q q 3 - , & % > > : - = % $ @ o o o . . . . . . . . . . . . . . . . . . . ",
"                            d 8 6 a d C g a u u t q 0 9 3 - , < $ $ > > - & % % # o o o X . . . . . . . . . . . . . . . . . . . ",
"                          f d 6 3 a d f d p t r q 0 9 3 - < 1 1 $ $ ; - & & % @ o o X X . . . . . . . . . . . . . . . . . . . . ",
"                        ~ g p 3 3 a a d a u e w q 0 3 - < 5 1 < $ $ = & % % @ o o X X . . . . . . . . . . . . . . . . . . . . . ",
"                      ' ~ a r 3 3 i a a a r q q q 3 = 3 5 3 < < $ # & % $ # o o X . . . . . . . . . . . . . . . . . . . . . . . ",
"                    ' ' ~ y r 3 2 u u i u q q q 1 = 3 8 3 < < , $ @ $ $ @ o o X . . . . . . . . . . . . . . . . . . . . . . . . ",
"                  ' ] o.^ y t 2 1 u r u w q q 3 * 1 9 4 1 , , - @ O # O o o X . . . . . . . . . . . . . . . . . . . . . . . . . ",
"                O.' o.O.` y e 1 1 r r e w q 4 = < 9 4 < , > ; = O o O O o o . . . . . . . . . . . . . . . . . . . . . . . . . . ",
"              #.O.o.#.#.` r w < < e e q q 3 - < 9 3 < : : = = & O X o o X . . . . . . . . . . . . . . . . . . . . . . . . . . . ",
"            >.#.` #.O.#.Z e q 2 < q q q 3 - < 7 2 : ; = - = % $ X X o X . . . . . . . . . . . . . . . . . . . . . . . . . . . . ",
"          2.-.U Z o.| ' z w 9 < , q 9 3 - < 6 2 - ; = & = % % $ X X X . . . . . . . . . . . . . . . . . . . . . . . . . . . . . ",
"        2.2.U s S ] Q Q f 0 8 < : 8 3 - < 6 3 ; ; = = % % $ $ @ X X . . . . . . . . . . . . . . . . . . . . . . . . . . . . . . ",
"      2.3.~ a g U A k Z d 9 4 : - 2 - < 5 2 : ; - = $ % $ @ @ o X . . . . . . . . . . . . . . . . . . . . . . . . . . . . . . . ",
"    <.2.) p f x x f f z p 6 3 ; - - < 5 2 > : : = % $ $ @ o o X . . . . . . . . . . . . . . . . . . . . . . . . . . . . . . . . ",
"  #.<.[ a f k f f d s s t 5 3 - - 1 5 2 : : > = % % $ @ o o o . . . . . . . . . . . . . . . . . . . . . . . . . . . . . . . . . ",
"  #.[ f d f f d a p p u w 3 > - 2 6 2 : ; : = % $ $ @ o o X . . . . . . . . . . . . . . . . . . . . . . . . . . . . . . . . . . "
};
