/* XPM */
static char *_09a7888a8aa4061aa7aac5da76c3f6ejEIC2fuOfqHEiSV2[] = {
/* columns rows colors chars-per-pixel */
"64 64 8 1 ",
"  c None",
". c gray5",
"X c #101010",
"o c #111111",
"O c #222222",
"+ c #282828",
"@ c gray35",
"# c white",
/* pixels */
"                                                                ",
"                                                                ",
"                                                                ",
"                                                                ",
"                                                                ",
"                                                                ",
"                                                                ",
"                                                                ",
"                                                                ",
"                                                                ",
"                                                                ",
"                                                                ",
"                                                                ",
"                                                                ",
"                                                                ",
"                                                                ",
"                                                                ",
"                                                                ",
"                                                                ",
"                      ooooooooooooooooooooo                     ",
"                    oo@@@@@@@@@@@@@@@@@@@@@oo                   ",
"                   o@@@@@@@@@@@@@@@@@@@@@@@@@o                  ",
"                  o@@@@@@@@@@@@@@@@@@@@@@@@@@o                  ",
"                  o@@@@@@@@@@@@@@@@@@@@@@@@@@o                  ",
"                  o@@@@@@@@@@@@@@@@@@@@@@@@@@o                  ",
"                  o@@@@@@@@@########@@@@@@@@@o                  ",
"                  o@@@@@@@@@###@@@##@@@@@@@@@o                  ",
"                  o@@@@@@@@@###@@@###@@@@@@@@o                  ",
"                  o@@@@@@@@@###@@@###@@@@@@@@o                  ",
"                  o@@@@@@@@@###@@@###@@@@@@@@o                  ",
"                  o@@@@@@@@@###@@@###@@@@@@@@o                  ",
"                  o@@@@@@@@@########@@@@@@@@@o                  ",
"                  o@@@@@@@@@###@@@@@@@@@@@@@@o                  ",
"                 .o@@@@@@@@@###@@@@@@@@@@@@@@o.                 ",
"                .Oo@@@@@@@@@###@@@@@@@@@@@@@@oO.                ",
"                .Oo@@@@@@@@@@@@@@@@@@@@@@@@@@oO.                ",
"                .Oo@@@@@@@@@@@@@@@@@@@@@@@@@@oO.                ",
"                .Oo@@@@@@@@@@@@@@@@@@@@@@@@@@oO.                ",
"                .Oo@@@@@@@@@@@@@@@@@@@@@@@@@@oO.                ",
"                .Oo@@@@@@@@@@@@@@@@@@@@@@@@@@oO.                ",
"                .O+o@@@@@@@@@@@@@@@@@@@@@@@@o+O.                ",
"                .O.+oooooooooooooooooooooooo+.O.                ",
"                 .Oo++++++++++++++++++++++++oOO.                ",
"                 .OO.ooo.oooooo.oo.ooo.ooo.oOO.                 ",
"                  .OOOOOOOOOOOOOOOOOOOOOOOOO..                  ",
"                   .........................                    ",
"                                                                ",
"                                                                ",
"                                                                ",
"                                                                ",
"                                                                ",
"                                                                ",
"                                                                ",
"                                                                ",
"                                                                ",
"                                                                ",
"                                                                ",
"                                                                ",
"                                                                ",
"                                                                ",
"                                                                ",
"                                                                ",
"                                                                ",
"                                                                "
};
