/* XPM */
static char *_2fc37df2d584e2785d7a069e1975626Lr7Iv0eZi6DVlhXv[] = {
/* columns rows colors chars-per-pixel */
"64 64 34 1 ",
"  c None",
". c black",
"X c #000001",
"o c #000002",
"O c #000103",
"+ c #000202",
"@ c #000303",
"# c #010303",
"$ c #000304",
"% c #020305",
"& c #020404",
"* c #030505",
"= c #030507",
"- c #030608",
"; c #040608",
": c #050809",
"> c #060809",
", c #070909",
"< c #070A0A",
"1 c #080A0B",
"2 c #090A0B",
"3 c #080B0B",
"4 c #090B0C",
"5 c #0A0C0C",
"6 c #0B0D0D",
"7 c #0B0E0D",
"8 c #0D0F0E",
"9 c #111310",
"0 c #141513",
"q c #191A15",
"w c #222119",
"e c #363529",
"r c #474531",
"t c #848175",
/* pixels */
"                                                                ",
"                                                                ",
"                                                                ",
"                                                                ",
"                                                              &t",
"                                                             &&r",
"                                                            &&&e",
"                                                           &&&&w",
"                                                          &&&&&q",
"                                                         &&&&&&0",
"                                                        &&&&&&&9",
"                                                       &&&&&&&&8",
"                                                      &&&&&&&&&5",
"                                                     &&&&&&&&&&8",
"                                                    &&&&&&&&&&&5",
"                                                   &&&&&&&&&&&&5",
"                                                  &&&&&&&&&&&&&2",
"                                                 &&&&&&&&&&&#&&2",
"                                                $&&&&&&&&&&&&&&2",
"                                               &&&&&&&&&&&&&&&&<",
"                                              &&&&&&&&&&&&&&&&&<",
"                                             *#&&&&&&&&&&&&&&&#<",
"                                            ####&&&&&&&&&&&&&&#<",
"                                           #*##*&&&&&&&&&&&&$$&&",
"                                          *#*#*##*#*#*#*&&&&&*#;",
"                                         ##*#*#**#*#*#*#&&&&$#&;",
"                                        #*#**#*##*#*#*#*&&&&*$&*",
"                                       &*#*##*#**#*#*#*#&&&&#$*$",
"                                      &&#*#*#*#*#*#*#*#*#*#**&&#",
"                                     &&&*#*#*#*#*#*#*#*#*#*#&&$#",
"                                    &&&&#*#*#*#*#*#*#*#*#**###*#",
"                                   &&&&&*#*#*#*#*#*#*#*#*#######",
"                                  ##*#*##*#*#*#*#*#*#*#*#**#*#*#",
"                                 &&&#*#**#*#*#*#*#*#*#*#*##*#*##",
"                                #&&&*#*##*#*#*#*#*#*#*#*#*##&###",
"                               &##&&#*#**#*#*#*#*#*#*#*#*#*#&###",
"                              &&*#*#*#*##*#*#####**#*##*&&&&&&&#",
"                             &&&#*#*#*#**#*###***##*#**#&&&#&###",
"                            &&&&*#*#*#*##*#*#*######*##*&&&#&&##",
"                           &&&&&#*#*#*#**#*#*#*#*#*###*##&&&&###",
"                          &&&&&&*#*#*#*#*#*#*#*##&&&&&&&##&&####",
"                         &&&&&&&#*#*#*#*#*#*#*###&&&&&&&&#&&####",
"                        &&&&&&&&*#*#*#*#*#*#*##*&&&&&&&&&&&##&##",
"                       &&&&&&&&&#*#*#*#*#*#*##*#&&&&&&&&&&&#####",
"                      &&&&&&&&&&*#*#*#*#*#*#*##*&&&&&&&&&&###&&#",
"                     &&&&&&&&&&&#*#*#*#*#*#*#**#&&&&&&&&&&######",
"                    &&&&&&&&&&&&*#*#*#*#*#*##*#*&&&&&&&&&&&##&##",
"                   &&&&&&&&&&&&&#*#*#*#*#*#*##*#&&&&&&&&&&&#&###",
"                  &&&&&&&&&&&&&&&&&&&&&&&&&&&&&&&&&&&&&&&&&#&&&#",
"                 &&&&&&&&&&&&&&&&&&&&&&&&&&&&&#&&&&&&&&&&&&#&&##",
"                &&&&&&&&&&&&&&&&&&&&&&&&&&&&&&&##&&&&&&&&&&#&###",
"               &&&&&&&&&&&&&&&&&&&&&&&&&&&&&&&&##&&&&&&&&&&&&###",
"              &&&&&&&&&&&&&&&&&&&&&&&&&&&&&&&&&&&&##*#&&&&&&#&&#",
"             &&&&&&&&&&&&&&&&&&&&&&&&&&&&&&&&&&&&&*##*&&&&&&#&##",
"            &&&&&&&&&&&&&&&&&&&&&&&&&&&&&&&&&&&&&*#**&&&&&&&&&##",
"                                                                ",
"                                                                ",
"                                                                ",
"                                                                ",
"                                                                ",
"                                                                ",
"                                                                ",
"                                                                ",
"                                                                "
};
