/* XPM */
static char *_c24b18d2e674787f5ce899429d1ce40YjphUTavyryc62l6[] = {
/* columns rows colors chars-per-pixel */
"64 64 200 2 ",
"   c None",
".  c #020303",
"X  c #090703",
"o  c #070807",
"O  c #0C0A06",
"+  c #050708",
"@  c #07090A",
"#  c #0A0B0B",
"$  c #140C05",
"%  c #120E09",
"&  c #0D100F",
"*  c #14110C",
"=  c #1C140B",
"-  c #1A1107",
";  c #0C0E11",
":  c #0E1114",
">  c #131413",
",  c #181711",
"<  c #171815",
"1  c #1C1B15",
"2  c #1C1E1B",
"3  c #141719",
"4  c #22180D",
"5  c #2B1D0F",
"6  c #221C14",
"7  c #281F13",
"8  c #1E201E",
"9  c #34210F",
"0  c #222017",
"q  c #2D2110",
"w  c #23231C",
"e  c #2B291F",
"r  c #332411",
"t  c #392611",
"y  c #3B2A14",
"u  c #362B1C",
"i  c #3C2E1C",
"p  c #372916",
"a  c #3E301C",
"s  c #1F2220",
"d  c #232622",
"f  c #2C2C24",
"g  c #2A2B25",
"h  c #333226",
"j  c #3D3221",
"k  c #35352A",
"l  c #3B3A2C",
"z  c #3D3D31",
"x  c #303128",
"c  c #432C15",
"v  c #442F1A",
"b  c #44311D",
"n  c #4A351D",
"m  c #543619",
"M  c #563D1E",
"N  c #5B3A1C",
"B  c #443523",
"V  c #4B3621",
"C  c #453826",
"Z  c #4C3A25",
"A  c #443D2C",
"S  c #4D3E29",
"D  c #533C24",
"F  c #573F24",
"G  c #403F32",
"H  c #4E432B",
"J  c #45402D",
"K  c #5B4222",
"L  c #54432C",
"P  c #5C462D",
"I  c #444335",
"U  c #4A4736",
"Y  c #474739",
"T  c #4C4B3B",
"R  c #4A4937",
"E  c #5A4B34",
"W  c #514E3A",
"Q  c #584731",
"!  c #53513E",
"~  c #5A563E",
"^  c #5F5134",
"/  c #6B4D27",
"(  c #664B2B",
")  c #6B4E2A",
"_  c #644727",
"`  c #704F29",
"'  c #6D512A",
"]  c #72542C",
"[  c #7B552C",
"{  c #73582F",
"}  c #785A2F",
"|  c #694E33",
" . c #625336",
".. c #6E5637",
"X. c #635A3E",
"o. c #6B593A",
"O. c #64573A",
"+. c #735533",
"@. c #745930",
"#. c #745A3A",
"$. c #7C5D3A",
"%. c #775933",
"&. c #7C633E",
"*. c #565542",
"=. c #5D5A44",
"-. c #5B5945",
";. c #615B43",
":. c #6B6144",
">. c #656149",
",. c #6A654A",
"<. c #6E694E",
"1. c #676147",
"2. c #7E6441",
"3. c #796B4B",
"4. c #6A6658",
"5. c #736E52",
"6. c #767153",
"7. c #7B7453",
"8. c #7B7061",
"9. c #895D2E",
"0. c #845E35",
"q. c #8C6336",
"w. c #846339",
"e. c #8C693D",
"r. c #896438",
"t. c #996A35",
"y. c #956D3B",
"u. c #926736",
"i. c #9D723B",
"p. c #94703F",
"a. c #A2763C",
"s. c #A67B3F",
"d. c #AA7D3F",
"f. c #806543",
"g. c #866C46",
"h. c #8A6E45",
"j. c #886E48",
"k. c #8C724A",
"l. c #987749",
"z. c #827955",
"x. c #857D59",
"c. c #8A7F59",
"v. c #8C7B51",
"b. c #967A51",
"n. c #997D53",
"m. c #A67E42",
"M. c #827D6A",
"N. c #8A805B",
"B. c #9E8156",
"V. c #9F8458",
"C. c #AD8243",
"Z. c #AB8547",
"A. c #B68E49",
"S. c #BB924C",
"D. c #A3865A",
"F. c #A4895B",
"G. c #AA8E5E",
"H. c #A08356",
"J. c #B28C58",
"K. c #BD965B",
"L. c #AC915E",
"P. c #8E8768",
"I. c #948D74",
"U. c #948F7C",
"Y. c #9F9577",
"T. c #9E9678",
"R. c #848175",
"E. c #AC8F60",
"W. c #AC9465",
"Q. c #AB9A6E",
"!. c #A99567",
"~. c #B49A66",
"^. c #B49B68",
"/. c #B89F6A",
"(. c #B79661",
"). c #A69A78",
"_. c #B9A06B",
"`. c #BEA873",
"'. c #C29A4E",
"]. c #C29C53",
"[. c #CAA35B",
"{. c #CFAA61",
"}. c #D2AC61",
"|. c #D9B569",
" X c #DBB76A",
".X c #C1AC77",
"XX c #C1AD78",
"oX c #C5B47F",
"OX c #E1BE6F",
"+X c #E2BF72",
"@X c #E7C578",
"#X c #E7C476",
"$X c #9D9882",
"%X c #ABA287",
"&X c #ADA589",
"*X c #C7B785",
"=X c #C7B885",
"-X c #C8B886",
";X c #C9BB8A",
":X c #CDC191",
/* pixels */
"                      S. XOX}.K.                                                                    [.#XOX].K.                  ",
"                      '.#X#X XK.                                                                    {.#X@X{.(.                  ",
"                      '.}.|.[.J.                                                                    [.|.|.].J.                  ",
"                      A.].'.m.l.                                                                    S.].A.m.l.                  ",
"    o R.%XY.I.I.).T.E.A.].C.t.0.8.4.4.M.U.).).&X&X&X&X&X&XT.T.T.T.T.).&X&X%X$X$X$XY.Y.Y.T.).$X&X&XW.S.'.s.u.#.4.4.4.$X          ",
"  . . I 7.z.6.6.6.7.l.d.S.m.u.#.L C I ,.7.7.z.7.7.7.7.7.N.N.N.7.7.N.7.7.N.z.<.<.5.7.x.N.c.N.N.c.N.l.C.S.a.r...l k G             ",
". . . k ~ 1.>.=.-.>.&.t.m.a.q.+.S h l ;.<.,.,.>.>.=.>.<.6.6.6.4.<.,.,.<.6.6.>.-.=.=.<.6.6.5.7.7.7.e.a.C.t.9.( h f               ",
". . + w l l W ! T *.$.t.t.t.9.N i f h *.>.-.;.;.>.>.>.=.;.;.-.*.=.=.~ ~ ,.<.=.*.~ ~ ~ =.~ =.;.>.;.w.t.t.t.[ m u                 ",
". . . 1 f h z R Y T  .r.a.t.} m u w h W *.W *.*.>.>.=.*.*.*.*.*.! *.! ! =.,.~ ~ W T T R Y Y T T W ..u.m.e.` F                   ",
". . . > w w f k I I E $.Z.l.+.m u d f G T Y Y T -.-.*.*.*.T ! *.T T Y I ! ~ T T Y I I G k z I I Y | h.A.e.+.                    ",
". + . > 2 1 1 w f l E $.A.m.9.m r 6 d l G l k k l z I z z I Y I z k x k l z k k k z l k x k k z z E h.'.a.                      ",
". . . # > > > < 8 8 A $.i.y.[ m 7 ; > 2 s 8 8 d f x x k k k k x g s 8 8 d g d 8 8 8 8 8 2 2 g f x Q w.a.                        ",
". . + & : > : > 3 3 j $.y.q.| m 4 + # ; : 3 w d f g x k h h x g g s 8 8 w d d 8 3 : : : 3 2 w d g Q 0.                          ",
"+ . . & < < < 1 6 2 C $.Z.h.` m 7 # # ; > 8 h l k f h k k h h h x x f f g e g w 8 : # > 2 d e f f P                             ",
". . . & > < 2 2 2 6 C $.Z.m.9.m 6 # # # # 1 6 0 0 2 1 6 w 0 6 1 8 8 8 1 < , , * & & O & , 1 w w f                               ",
". . . # > < A E j C F %.l.y.+.m v i j j j C C C C B j j j j j j a a a B B B a a u u u u a j j C                                 ",
". . . & > < 3.B. .....+.u.w.| m ( +...&.2.2.2.2.2.#.........o.....#.#.2.f.2.&.#.#.o.....+.....                                  ",
". + . # > < v.L.&.#.#.+.Z.i.[ N +.g.j.j.k.n.n.n.b.b.k.g.j.j.g.g.g.j.n.n.n.l.j.j.g.g.g.g.g.j.                                    ",
". . . # > < v.L.2.g.2.#.f.w.} ) 2.k.k.n.H.D.F.F.D.D.B.n.b.b.l.b.b.n.B.n.V.D.B.H.H.D.V.V.V.                                      ",
". + + @ > < N._.B.n.k.g.f.f.f.j.b.b.b.F.W.W.^.W.G.L.L.G.D.D.F.F.F.V.D.V.E.E.G.W.~.^.^.^.                                        ",
". + . . > < P.;X`._.^.~.~.^.~.~._.~._.`..X.X.X`._._._._._./._._././././././._.`.`.XXXX                                          ",
". . . # > > P.:X;X;X;X*X*X*X*X*X=X=X=X=X-X*X*X*XoX=X*X=X*X=X=X=X=X=X=X=X*X;X;X;X;X;X                                            ",
". + . # & & 3.Q.Q.Q.Q.Q.Q.Q.Q.Q.Q.Q.Q.Q.!.!.W.!.!.!.Q.Q.Q.Q.Q.Q.Q.Q.Q.Q.Q.Q.Q.Q.Q.                                              ",
". . . . & & H { @.@.%.@.@.@.} } { { @.@.@.] { ] ] { { { } %.{ } { ..@.+.@.@.@.+.                                                ",
". + . + # : n ' ] ] ] ' ] ] ] ] ] ] ] ] ' / / / ' ] ] ] ] ] ] ] ] ' / / / / /                                                   ",
". . . + # : y M K K K K K K F K K K K K K K K M M K K K K K K K K K K M M M                                                     ",
". . . + # # , q 9 y y y y y y c y y 9 t t y y 9 9 q q 9 r r t r 9 r r r p                                                       ",
". + . . # & # & * t c c v c c c c 9 X o X X X X O o O O O O O $ O O O O                                                         ",
". + . . & # # # & = 9 c c c c c q - . . . . . . . . . . . X . . . o o                                                           ",
". . . . + # + # @ # 6 v c c c t - . . . . . . . . . . . . . . . . .                                                             ",
"+ . . . + + + + + + 6 D D Z V c - . . . . . . . . . . . . . . . .                                                               ",
". . . . + @ + + + . 6 Z F F D c - . . . . . . . . . . . . . . .                                                                 ",
". . . . o o + . . + 6 F F _ D c - . . . o . o . o X o X o o o                                                                   ",
". . . . o + + o + + 7 P +.( D c - . . o o o o @ o o o # o #                                                                     ",
"+ . . . + + o . . . 6 F %.` D V = . . o o X o o o o o o o                                                                       ",
". . . . . . o . + . 6 D } +.K b , . . o o + o o @ X o o                                                                         ",
". . . . . . . . . . , D } [ _ b = . . . . X . . o o .                                                                           ",
"+ . . . . . . . . . 4 V _ ` _ n = . . . . . X . . .                                                                             ",
". . . . . . . . . . 6 D ) / F y $ . . . . . . . .                                                                               ",
". . . . . . . . . . 6 D @.( V t $ . . . . . . .                                                                                 ",
". . . . . . . . . . = D %.' m t $ . . . . . .                                                                                   ",
". . . . . . . . . . , D ( K V 9 $ . . . . .                                                                                     ",
". + . . . . % = % % 7 V K n v r - % % % *                                                                                       ",
". . . . . . j L i i a n F M v r p i i B                                                                                         ",
". . . . . . S  .C C B B K F n r b S S                                                                                           ",
". . . . . . H o.Z Z C b F M v y B L                                                                                             ",
". . . . . . H o.L L H Z C V B Z L                                                                                               ",
". . . . . . U ,.X.X.O.^ ^ ^ ^  .                                                                                                ",
". . . . . . I <.:.,.:.:.:.:.:.                                                                                                  ",
". + . . . . C =.;.X.X.~ X.~                                                                                                     ",
". . . . . . 5 i i i a a a                                                                                                       ",
". . . . . . 4 y y y y t                                                                                                         ",
". . . . . . = q q r r                                                                                                           ",
". . . . . . O - = =                                                                                                             ",
". + . . . . . X X                                                                                                               ",
"                                                                                                                                ",
"                                                                                                                                ",
"                                                                                                                                ",
"                                                                                                                                ",
"                                                                                                                                ",
"                                                                                                                                ",
"                                                                                                                                ",
"                                                                                                                                ",
"                                                                                                                                "
};
