/* XPM */
static char *_c253972a2da400bd65b50a07277273djlMX7empzkwkRH9H[] = {
/* columns rows colors chars-per-pixel */
"64 64 120 2 ",
"   c None",
".  c #2C2D2E",
"X  c #2F302E",
"o  c #37342F",
"O  c #2E2F31",
"+  c #302F30",
"@  c #2F3032",
"#  c #333333",
"$  c #383535",
"%  c #3C3A36",
"&  c #36363A",
"*  c #3D3C3A",
"=  c #413C36",
"-  c #423E3B",
";  c #464037",
":  c #44423D",
">  c #4A443D",
",  c #4F483E",
"<  c #52443D",
"1  c #524A3E",
"2  c #704D3D",
"3  c #454341",
"4  c #4A4642",
"5  c #474841",
"6  c #4D4943",
"7  c #4E4A48",
"8  c #504646",
"9  c #524D45",
"0  c #524E49",
"q  c #565146",
"w  c #5B5147",
"e  c #55514A",
"r  c #5B544B",
"t  c #5E584E",
"y  c #5B5751",
"u  c #5D5952",
"i  c #6E5646",
"p  c #61564B",
"a  c #635A4E",
"s  c #6C5D4F",
"d  c #7B5445",
"f  c #71584B",
"g  c #7E5E4C",
"h  c #645C52",
"j  c #6A5E53",
"k  c #666055",
"l  c #6B6255",
"z  c #676259",
"x  c #6C6459",
"c  c #6F685B",
"v  c #716557",
"b  c #72665A",
"n  c #736A5C",
"m  c #7A6C5D",
"M  c #756E61",
"N  c #7C6E61",
"B  c #777462",
"V  c #7C7363",
"C  c #767269",
"Z  c #7E7468",
"A  c #7E786A",
"S  c #83614F",
"D  c #916551",
"F  c #82745E",
"G  c #A2694E",
"H  c #827464",
"J  c #8B7767",
"K  c #867A65",
"L  c #8A7966",
"P  c #817669",
"I  c #887568",
"U  c #857A6A",
"Y  c #8A7D6C",
"T  c #967F6A",
"R  c #867E71",
"E  c #897E70",
"W  c #8D806E",
"Q  c #94816E",
"!  c #8D8272",
"~  c #8F8877",
"^  c #928573",
"/  c #998673",
"(  c #958976",
")  c #998877",
"_  c #968B79",
"`  c #9A8D7A",
"'  c #9C917E",
"]  c #A48E76",
"[  c #A28E79",
"{  c #A2927E",
"}  c #A9937D",
"|  c #A7987E",
" . c #AC9A7E",
".. c #B2967E",
"X. c #B39A7F",
"o. c #978E81",
"O. c #9D9380",
"+. c #A39581",
"@. c #AA9480",
"#. c #A59984",
"$. c #AA9B85",
"%. c #A69C89",
"&. c #AC9E8A",
"*. c #B39D84",
"=. c #B99D86",
"-. c #B59F88",
";. c #AFA087",
":. c #AEA18A",
">. c #B2A186",
",. c #B4A48C",
"<. c #B9A68D",
"1. c #B7A88D",
"2. c #BAA98E",
"3. c #B6A691",
"4. c #B7A992",
"5. c #BBAA92",
"6. c #BEB096",
"7. c #C1AE94",
"8. c #C1B197",
"9. c #C2B398",
/* pixels */
"                                                                                                                                ",
"                                                                                                                                ",
"                                                                                                                                ",
"                                                                                                                                ",
"                                                                                                                                ",
"                                                                                                                                ",
"                                                                                                                                ",
"                                                                                                                                ",
"                                                                                                                                ",
"                                                                                                                                ",
"                                                                                                                                ",
"                                                                                                                                ",
"                                                                                                                                ",
"                                                      <.+.                                                                      ",
"                                                    2.n #.7.>.                                                                  ",
"                                                  1.5.5.V 5.! 6.! &.:.                                                          ",
"                                                ,.H >.$._ <.9._ e Z R O.c ,.+.                                                  ",
"                                                ^ ( ` 0 e ! 1.6.&.4.&.! O.6.e W 0 O.Y 4.,.O.#.                                  ",
"                                              $.l e r 3 6 l 0 x ` +.>.4.+.&.5.9.&.U x t 7 6 :.h ' 9.                            ",
"                                            ,.l _ U e 0 u r l _ P ! W Y ' { _ ,.5.,.5.+.o.#.#.%.` $.                            ",
"                                          >.N V V : # $ * * : ! ~ E ! T { ^ { ^ ! _ %._ ! %.! ! ( ,.                            ",
"                                          L N n x Z 9 - 6 : ! ( ^ ` { ! 5.;.~ ' ^ ! ! ( ! ! :.O.A 5.                            ",
"                                        >.k c m x l M M h c c U { A U Y ( ' ! Y ` U ( ! ` Y O.5.U :.                            ",
"                                      >.a a s c : k u c c +.^ h ` / n n c M V H V P P Y :.( U 4.' $.                            ",
"                                    >.n M l r q k h l k ~ ( x -.{ Q *.r L , p x h h t t x r B l Z )                             ",
"                                    Y $ $ * t t x M A x Z ^ t h ! m # m > b b v x r x h k h x x P Z                             ",
"                                  ;.: > h j h x u x x Z M n P c : h v m v v H m F z n 9 Z h n r k v                             ",
"                                >.: V c r 4 # + ! t n n B V M B h Y N r N h s b b 6 3 D { +.5 %.n r 7.                          ",
"                              >.k % . : r t 6 * @ > Z V N h * h P Z y - Y V N j H ` G S z r % - * V 6.                          ",
"                            *.w 7 h 9 h h k t n v h r r - * > 9 * * # = w L b H j b $ * : u : V l M :.                          ",
"                          >.^ 6 X . . a i 2 d g l j j j j T } ..@.m 6 9 x w > w = * = 6 0 N V n 9 l h                           ",
"                          +.* % 6 o # f * $ w l b v a j b m N V m / F ( t r w 9 = % - - y 0 6 9 h o 9 5.                        ",
"                        >.# . o h X @ 5 t O.1.6 # # k m V #.r k <.<.) l m m b j r h j j r p P @., 2.>.,.                        ",
"                      >.X * - % a $ : $ * _ z % # * m m V s k x l w j b v b V r 9 - ] -.h @.[ J l +.^ ,.7.                      ",
"                     .; : : * & # . * : : 6 & # - - z 6 : 6 e e - % 3 6 b l 9 9 : a J / T *.T H h r n b 4.                      ",
"                   .: # * X O . @ # # # 6 e x z t t 6 * : > $ u - - 3 j l r 0 9 4 1 X.^ V [ =.j ! : 7 c H 5.                    ",
"                $.o o O . . O . . . . # & & : 5 $ & $ $ & % $ $ < % 0 l h r 8 x 9 1 H -.*.=.=.=.J , * : j 3.                    ",
"             .{ h X . . . . . . . . O @ @ X # * 5 3 * & % & z ^ *.X.H p Y 9 0 0 0 - - m <.>.=.*.t h y y 0 z 5.                  ",
"           . .h . . . . . . . . O . O O X . @ @ @ @ @ @ # V &.$.} @...=.m u 6 4 6 - @.| I $.( p H V : l l r :.                  ",
"       .*.$.>.+.M 4 6 + o . . O O O & . @ @ @ @ X @ @ o 7 3 - ! } [ } *.v b 6 3 : 3 6 6 Z 0 V Z P o.#.h h u q 5.                ",
"      $.>.,.,.,.<.,.,.,.{ n : # * * o $ * * $ * : $ * q : c c k 6 K / m 3.6 7 0 h 5.2.5.5.:.4.,.%.N ` U x h e &.                ",
"            ,.<.H ,.,.<.,.1.4.2.4.4.:.' U z 6 9 7 # : 0 # e q 7 6 8 :.2.4.! 0 6 5.5.5.5.5.+.&.,.%.&.&.%.#.^ &.' 2.              ",
"                  ,.3.>.W K &.3.5.5.Y n l Z _ #.,.,.5.4.5.2.4.4.3.>.&.$.-.$.' #.#.$.$.,.$.;.,.,.3.3.5.5.4.4.<.<.2.2.            ",
"                        <.<.<.3.&.Y H N ( :.,.5.>.&.<.Y n 4.n U v c Z n U +.l R E n E L 2.5.4.5.4.5.4.5.5.5.7.7.<.2.            ",
"                                <.2.4.<.,.,.3.3.+.U V [ L ^ ^ #.4.&.,.+.:.,.>.,.,.,.:.&.5.$.4.{ ) / Y V H <.2.2.2.4.2.          ",
"                                            <.4.<.<.<.<.<.2.<.2.<.4.>.2.,.,.2.4.1.1.1.2.,.5.<.2.2.<.7.<.<.2.2.2.2.2.2.2.        ",
"                                                              <.2.<.<.4.2.<.4.2.2.2.<.2.4.2.<.2.<.5.<.>.2.                      ",
"                                                                                                                                ",
"                                                                                                                                ",
"                                                                                                                                ",
"                                                                                                                                ",
"                                                                                                                                ",
"                                                                                                                                ",
"                                                                                                                                ",
"                                                                                                                                ",
"                                                                                                                                ",
"                                                                                                                                ",
"                                                                                                                                ",
"                                                                                                                                ",
"                                                                                                                                ",
"                                                                                                                                ",
"                                                                                                                                ",
"                                                                                                                                ",
"                                                                                                                                "
};
