/* XPM */
static char *f5e20eaa1d834e609adb6d80e351f2d2kNZV98KQn1gdcif4[] = {
/* columns rows colors chars-per-pixel */
"64 64 195 2 ",
"   c None",
".  c #352E25",
"X  c #3D3D3B",
"o  c #333332",
"O  c #49231D",
"+  c #452924",
"@  c #4D2C2A",
"#  c #452522",
"$  c #4A342D",
"%  c #43392B",
"&  c #553126",
"*  c #583831",
"=  c #543B33",
"-  c #41413F",
";  c #4D4038",
":  c #534236",
">  c #5C493A",
",  c #5C513D",
"<  c #62523E",
"1  c #454544",
"2  c #494946",
"3  c #4C4C4B",
"4  c #5A4E43",
"5  c #5B5145",
"6  c #51514E",
"7  c #5C5A4F",
"8  c #545452",
"9  c #5A5A56",
"0  c #5C5C5A",
"q  c #654E43",
"w  c #6A5445",
"e  c #655D4D",
"r  c #695648",
"t  c #625E53",
"y  c #6D624E",
"u  c #6E6146",
"i  c #786248",
"p  c #776A4E",
"a  c #78674B",
"s  c #676256",
"d  c #6B6356",
"f  c #63635D",
"g  c #68675F",
"h  c #6E695A",
"j  c #746253",
"k  c #7B6C54",
"l  c #736C5C",
"z  c #796D5B",
"x  c #7D725C",
"c  c #78705A",
"v  c #656562",
"b  c #686761",
"n  c #6E6C63",
"m  c #6C6D6A",
"M  c #7B6D63",
"N  c #6F706F",
"B  c #757163",
"V  c #7B7564",
"C  c #7F7866",
"Z  c #73736C",
"A  c #79756B",
"S  c #7D796A",
"D  c #737371",
"F  c #7C7B73",
"G  c #797975",
"H  c #836E55",
"J  c #84755D",
"K  c #887758",
"L  c #83785E",
"P  c #8C7C5C",
"I  c #867456",
"U  c #917D5D",
"Y  c #9A7F5E",
"T  c #847561",
"R  c #837B65",
"E  c #8A7D64",
"W  c #837E6C",
"Q  c #947F63",
"!  c #817F73",
"~  c #9A835F",
"^  c #86806F",
"/  c #8C836B",
"(  c #8F8062",
")  c #938364",
"_  c #9B8462",
"`  c #93856A",
"'  c #95896B",
"]  c #9C8C6D",
"[  c #998867",
"{  c #868475",
"}  c #8C8674",
"|  c #8E8975",
" . c #83827C",
".. c #89867A",
"X. c #8E8B7C",
"o. c #928774",
"O. c #948C74",
"+. c #9A8D74",
"@. c #928D7B",
"#. c #9A8E78",
"$. c #9C9174",
"%. c #96907D",
"&. c #9C937B",
"*. c #9F987E",
"=. c #A28661",
"-. c #A58A64",
";. c #A38D6D",
":. c #AA9167",
">. c #A5926B",
",. c #AB926A",
"<. c #AD986E",
"1. c #A08D71",
"2. c #A39272",
"3. c #AA9574",
"4. c #AD9A74",
"5. c #A2957A",
"6. c #AA9779",
"7. c #A4997C",
"8. c #AB9C7A",
"9. c #B29671",
"0. c #B29C74",
"q. c #B29E7C",
"w. c #ACA07D",
"e. c #B6A37D",
"r. c #BAA67C",
"t. c #BCA97E",
"y. c #BAA675",
"u. c #C1AB7B",
"i. c #888986",
"p. c #938E84",
"a. c #969282",
"s. c #9B9582",
"d. c #9E9884",
"f. c #9D998A",
"g. c #95948D",
"h. c #9B9B95",
"j. c #A39B84",
"k. c #AB9F82",
"l. c #A29D8A",
"z. c #A59988",
"x. c #A29F93",
"c. c #ADA284",
"v. c #A6A18E",
"b. c #ABA38B",
"n. c #B3A484",
"m. c #BAA684",
"M. c #B6A885",
"N. c #BBAA85",
"B. c #B3A68A",
"V. c #B6AA8C",
"C. c #BBAC8B",
"Z. c #BFB28D",
"A. c #A6A293",
"S. c #AAA694",
"D. c #AEA895",
"F. c #AAA799",
"G. c #ADAA9C",
"H. c #B1A791",
"J. c #B4AB93",
"K. c #BAAE92",
"L. c #B3AD9B",
"P. c #BDB295",
"I. c #BCB29B",
"U. c #B5B2A2",
"Y. c #BBB4A5",
"T. c #BDB9A8",
"R. c #C3AD84",
"E. c #C3B185",
"W. c #C2B28D",
"Q. c #CBB78B",
"!. c #C5AF90",
"~. c #C4B392",
"^. c #C3B79B",
"/. c #C5B99B",
"(. c #CEBD9E",
"). c #CABC9A",
"_. c #C3BCA3",
"`. c #CABDA1",
"'. c #C2BDAD",
"]. c #CCC19E",
"[. c #D1C19C",
"{. c #D7C397",
"}. c #CDC2A4",
"|. c #CDC4AB",
" X c #D2C4A4",
".X c #D3C7A8",
"XX c #D6CAAD",
"oX c #DCCFAF",
"OX c #C4C1B3",
"+X c #CCC6B2",
"@X c #D5CEB7",
"#X c #DED3B4",
"$X c #E3DABB",
"%X c #E3D7B6",
"&X c #E7DEC1",
/* pixels */
"                                                                                                                                ",
"                                                                                                                                ",
"                                                                                                                                ",
"                                                                                                                                ",
"                                                                                                                                ",
"                                                                                                                                ",
"                                                                                                                                ",
"                                                                                                                                ",
"                                                      y ] ) J                                                                   ",
"                                                      3.4.6.;.                                                                  ",
"                                            E ] 6.n.P.C.V.M.n.p.                                                                ",
"            ] E 5 $ $ $ + # ; e k :.0.n.n.q.8.6.q.n.m.R.!.`.(.XX^.                                                              ",
"            r V : + + : z z C R R [ -.;.3.3.q.k.n.R.B.z.m.!.(.oX$XJ.                                                            ",
"              O.l d 4 l a.@.p.../ / / 4.q.q.n.m.n.N.B.z.^./. X%X&X$X}                                                           ",
"              b.s.{ f h W @.@.s.s.} 7.b.n.B.k.m.V.V.K./.^.^.P.g.F.@X$XR                                                         ",
"              D.f...Z A ..f.a.@.@.@.#.j.8.q.q.z.t t m ..G D m D G i.h.|.                                                        ",
"              d K.X.%.a.F.A.G.A.%.| | | | %.w.&.b 8 f N m N G G i.h.x.U.#XXX                                                    ",
"                <.$.| %.a.X.X.@.%.| $.*.c.d.M.M.! 8 9 N v m G A.I.}.XX|.%X#X.X                                                  ",
"                x >.^ W { X.X.%.O.&.*.d.a.s.N.N.k.v v p.g.x.m.m.n.C.V.K.).(. X~.                                                ",
"                  >.L / | d.*.j.*.*.j.S.v.j.M.V.J.z.z.B.B.B.k.m.k.e.m.K.P.Z.~.(.K.                                              ",
"                  y.$.*.*.c.d.%.d.v.D.D.D.v.&.c.T j 6.s.7.z.K.n.m.n.n.n.B.K.~.~.(.                                              ",
"                  ~ ` / ^ R O.%.@.X.@.| { ! ^ ] U H w T 7.j.L.`./././././.I.K.V.C.(./.                                          ",
"                  ( x ( / / *.d.} C l A | %.d.X.[ > q j j.C.K.~.P./.^. XK.M.V.J.J.V.~.^.                                        ",
"                  ( [ L R C W W V V l l ! { $.| +.Q i 1.o.k.B.n.c.V.I.I.^./.P.I.~.).(..X.X                                      ",
"                  p L T | %.O.O.$.B V l ^ ^ / $.' _ _ ] ] o.6.z.n.B.J.^.P.K./.}.|.Y.D.z.&.n.                                    ",
"                  u $.&.l.*.%.*.d.^ C A S R L / 7.4.,.] +.1.s.!.K.m.V.B._.'.T.T.Y...! } z.z.B.                                  ",
"                    M.*.l.d.%.j.b.b.w.%.$.^ x ( E ) 1.M.L.J.B.b.H.H.j.@.{ | p.f.F.OX'.+X_.L.P.!.N.                              ",
"                    n.O.w.J.P._.}.I.v.| | ' ' k & O * q Q ^.^.H.d.| C W A.U.L.U.T.'.'.'.Y.I._.^.!.~.#.                          ",
"                    ' V.Z.K.b.b.b.j.b.S.b.Z.*.( @ # @ @ q j.H.o.o.j.d.v.A.F.A.A.G.G.F.J.J.P.I.J.J.B.C.                          ",
"                    h K.w.w.*.j.b.P.].]._.Z.w.w.` T q = : = > J.J.D.v.l.f.a.p...p.A.x.D.L.L.b.c.k.j.n.m.J                       ",
"                      w.] w.t.Z.y.t.w.e.M.V.7.$.@.8 g b.z.r q b.H.j.@.@.f.D.F.f.X.p.@.X.{ } b.c.5.O.+.+.;.3.3.                  ",
"                      x e.t.M.w.w.w.$.S t 9 @.l...A 8 ..{ F A 3.6.n.c.*.d.| S A S V W X.@.s.V.V.V.M.W.m.m.R.N.m.                ",
"                        w.w.w.4.w.$.S 3 6 8 F ..s.a.m m 9 8 3 4.3.2.] ) R A W X.@.s.d.b.H.b.&.8.W.^.W.N.8.0.4.4.`               ",
"                        V.V.w.*.$.O.n 9 6 3 n  .! v D 3 8 3 6 o.3.8.q.q.j.k.z.s.@.%.@.%.&.j.#.5.8.n.n.W.~.Q.Q.Q.{.~.            ",
"                        V.w.8.8.7.| F 9 - 1 v 8 6 3 0 9 v 9 8 n 4.q.q.e.k.c.j.&.@.^ | @.&.#.o.5.M.~.~.[.[.[.{.{.` 5             ",
"                        <.w.*.*.&.>.B 1 X X 3 0 8 6 6 8 6 8 9 9 9 +.r.4.4.w.8.8.5.O.O.%.7.j.M.I.I.V.$.                          ",
"                        ) [ W } ! h f 8 3 1 3 6 X - 1 2 6 8 8 2 1 2 E -.e.E.N.w.8.c.b.B.J.j.' l                                 ",
"                        p >.h f 6 g v 8 1 1 8 6 o X 1 3 3 9 8 - % - d q.E.E.N.8.w.W.P.#.                                        ",
"                          P y 6 0 0 0 8 6 3 - X 1 7 9 1 6 6 6 6 2 3 6 9.0.0.t.E.n.                                              ",
"                          e.$.N D v v 8 1 1 - 1 f N ..3 6 6 8 6 t B Q Q 9.9.I                                                   ",
"                          >.E.{ v 8 3 2 s h ` $.] ' o.` J _ ;.9.9.k                                                             ",
"                          K <.s 2 9 x 1.4.<.[ ( R T J ~ ~ =.-.                                                                  ",
"                          k y.` / $.w.4.~ ~ h c E -.-.-.H <                                                                     ",
"                          L E.r.t.y.$.' c s L >.,.-.Y                                                                           ",
"                          k u.r.8.e 6 s k ~ :.:.K ,                                                                             ",
"                          , -.~ U -.:.,.-.<                                                                                     ",
"                          > =.-.-.:.U ,                                                                                         ",
"                          : =.=.i                                                                                               ",
"                          . %                                                                                                   ",
"                                                                                                                                ",
"                                                                                                                                ",
"                                                                                                                                ",
"                                                                                                                                ",
"                                                                                                                                ",
"                                                                                                                                ",
"                                                                                                                                ",
"                                                                                                                                ",
"                                                                                                                                ",
"                                                                                                                                ",
"                                                                                                                                ",
"                                                                                                                                ",
"                                                                                                                                ",
"                                                                                                                                ",
"                                                                                                                                "
};
