/* XPM */
static char *result[] = {
/* columns rows colors chars-per-pixel */
"64 64 88 1 ",
"  c #040303",
". c #080707",
"X c #090807",
"o c #080708",
"O c #060B0B",
"+ c #0D0C0C",
"@ c #100F0F",
"# c #110F10",
"$ c #071010",
"% c #0A1313",
"& c #151415",
"* c #181617",
"= c #171718",
"- c #181718",
"; c #1C1A1B",
": c #201E1F",
"> c #211F20",
", c #242324",
"< c #282627",
"1 c #292728",
"2 c #2C2A2B",
"3 c #302F2F",
"4 c #312F30",
"5 c #2F3233",
"6 c #343333",
"7 c #383637",
"8 c #393738",
"9 c #333838",
"0 c #3B393A",
"q c #403E3F",
"w c #423E40",
"e c #454344",
"r c #484647",
"t c #494748",
"y c #4C4A4B",
"u c #504E4F",
"i c #555354",
"p c #585557",
"a c #5A5758",
"s c #5D5B5C",
"d c #605D5F",
"f c #615F60",
"g c #646263",
"h c #686667",
"j c #6C6A6B",
"k c #706E6E",
"l c #726F70",
"z c #747273",
"x c #787677",
"c c #797778",
"v c #7C7B7B",
"b c #817E7F",
"n c #827F80",
"m c #848383",
"M c #888687",
"N c #8C8A8B",
"B c #908E8F",
"V c #928F90",
"C c #959394",
"Z c #989797",
"A c #9C9B9B",
"S c #A09F9F",
"D c #A39FA1",
"F c #9FA1A2",
"G c #A3A2A3",
"H c #A8A7A7",
"J c #ABA9AA",
"K c #B0AFAF",
"L c #B1AFB0",
"P c #B5B4B4",
"I c #B8B7B7",
"U c #BCBCBC",
"Y c #C0BFBF",
"T c #C2BFC0",
"R c #C4C3C3",
"E c #CAC7C8",
"W c #CCCBCB",
"Q c #CED1D1",
"! c #D2D2D2",
"~ c #D8D7D7",
"^ c #DDDCDC",
"/ c #E0DFDF",
"( c #E4E3E3",
") c #EDECED",
"_ c #EEF2F2",
"` c #F3F3F3",
"' c #FFFFFF",
"] c None",
/* pixels */
"]]]]]]]]]]]]]]]]]']]]]]]keq71;-***--*---***&-------***--**-**--*",
"]]]]]]]]]]]]]]]]]]]]]]]dtr0,;*--*-*-*&---&*-**--*****-**-****-**",
"]]]]]]]]]]]]]]]]]]]]]]dyr0<&&;>>><,,,<<,,,,,,,,,,,,,,,,,,>,,,,>,",
"]]]]]]]]]]]]]]]]]]]]]dtr0,&&>3660<20006>30073>4777777790,17773>2",
"]]]]]]]]]]]]]]]]]]]]dtr0,*->222>,<:2<,3,:,>,6,,23329666,::,>>1:>",
"]]]]]]]]]]]]]]]]]]]gtr7,&&2fzf3632gt,6<3g62q1qjbklCAm4211i0,2,qb",
"]]]]]]]]]]]]]]]]]]htr8,&-2fch7te6jy2t46j97a5tcNvvHKm5093a0<02eCA",
"]]]]]]]]]]]]]]]]]kyy0,&&3gvjqfsezu6kyexqyMuibCbvKPm6ur0kt3a7uSJC",
"]]]]]]]]]]]]]]]Jbpiq,*&3hMl6aiems7jyyCeqkegZHMMYEA0yweCs3a0aIYFv",
"]]]]]]]]]]]]]]]Bgde,&&4jCv736rSz663pIi236zYUZC!/I524uUv663j^QJm!",
"]]]]]]]]]]]]]]Scku,&&4cAKPBAE^RSxK~/YAnR^(WGF^)_QBG!(^UCU^)~KB^`",
"]]]]]]]]]]]](TDCg<&&6NPE!JI()^YZW``~PA^`_~IP)``QJR)`)!J!_`/YS(``",
"]]]]]]]]]]])^!RBe;&2jbNCxbGGZnhNGGCvjCGSVvvASFFlnAACmhmCZNxjZGGA",
"]]]]]]]]]]M0,,:*&&2fjxvgjMNvkdxNNvhsbMmvjhmmvvfjnncjijcvlgsmNNnh",
"]]]]]]]]]v<&*&&@&;236000000000qq07700000000007700009808808000000",
"]]]]]]]]];&#@++XXOX++++++++++X.o++++++++++++$+++O+X++o+++XX+XX+X",
"]]]]]]]]]reew000000080008888888778866666666344222222222222222232",
"]]]]]]]]]&&&&*=&&&&=&&&&&&*&&*&&&&*&**&&&&=&*&*=&*&**&*****&****",
"]]]]]]]]]****&*&*&&&*-&*&****&****==**=&&&&&*&&**=**&*&*******&*",
"]]]]]]]]]&&@#@##@@##++@#@@@@@@@@@@@@@@@@#% @@@+&+#+@#+&#@+@+#+@@",
"]]]]]]]]]@++....X.XXXXXXX.XX....oo o  Xooo   o  oo  .X  X   . oo",
"]]]]]]]]]@. ......  .   ..                                      ",
"]]]]]]]]]:X .    .  . .                   O                     ",
"]]]]]]]]]3#.... .......o                  $                     ",
"]]]]]]]]]0;X+++@XX++@X+XXX......   .. .     o    .    o    o  oo",
"]]]]]]]]]r,&&*&&**&&@&@&#@++o+oo+Xo++o+++oooo++++o++++o++XXo++@#",
"]]]]]]]]]u2>::>:::::::;-&&#@#######@@@@@#  @@@#@########&+&&#**;",
"]]]]]]]]]i6<<<<<1><>,>:;**&*&&&&&&&&&&&*&*=*&&&&&&&*#&#*&&&*;>>>",
"]]]]]]]]]f722221211<<>:::&******=********-:*=*************;>>>11",
"]]]]]]]]]N822221111<<>:;****************---=********-**-;;>><<<1",
"]]]]]]]]]]s21221211<,::;*****************--***==*****---;:>>,1<1",
"]]]]]]]]]]]]]]]]]]]]]]]]**&***********&**=***********==&**=*****",
"]]]]]]']]]]]]]]]]]]]]]]r*====&&&&&&&#*&&&&&&&&&&&&#&&#&&X&&&&@&&",
"]]]]]]]]]]]]]]]]]]]]]]]e*==&&&&&#&&#&#&#&&#&&+&&%&@&&&&@  #&@&&+",
"]]]]]]]]]]]]]]]]]]]]]]]0&#@@@@@+#@#@@@@++@+XX++X+XX+X+++ O+++XX+",
"]]]]]]]]]]]]]]]]]]]]]]]i&+oooo o+@@+O+o  O             .++X     ",
"]]]]]]]]]]]]]]]]]]]]]]]]+                                O      ",
"]]]]]]]]]]]]]]]]]]]]]]]]+                              O  o     ",
"]]]]]]]]]]]]]]]]]]]]]]]]o..                             X@X     ",
"]]]]]]]]]]]]]]]]]]]]]]]]&+ooXoo                         ++      ",
"]]]]]]]]]]]]]]]]]]]]]]]];&+X+++                        X oo     ",
"]]]]]]]]]]]]]]]]]]]]]]]];&#&##+o            o          +oX      ",
"]]]]]]]]]]]]]]]]]]]]]]]],;&&&&#o              o o  oooo     o o ",
"]]]]]]]]]]]]]]]]]]]]]]]]<;*=&&#             oooOXOOooo+   XXXoOO",
"]]]]]]]]]]]]]]]]]]]]]]]]2;;&&&&o          o +++++++++++   ++++++",
"]]]]]]]]]]]]]]]]]]]]]]]]2;&*=&#         X  oX+@@@@@@@@@o  ++@@@@",
"]]]]]]]]]]]]]]]]]]]]]]]]3;*=*&&            o++#@#+@$@++o  o@+@@$",
"]]]]]]]]]]]]]]]]]]]]]]]]6>***=&          OXOo+@+@@@+@@@+ Oo@@@@+",
"]]]]]]]]]]]]]]]]]]]]]]]]0:***&&         X . X+++++@@@+@@ . @+@+@",
"]]]]]]]]]]]]]]]]]]]]]]]]0,****&            OX++@@@@+@+@+O  @@@@+",
"]]]]]]]]]]]]]]]]]]]]]]]]q,&***&O             X+++#$+$+@+ . ++@@@",
"]]]]]]]]]]]]]]]]]]]]]]]]e,&;&&&         O O  X++#+#+@@++   $+$@+",
"]]]]]]]]]]]]]]]]]]]]]]]]t<-;**&           X  .O++@@@+@@@X X+@@+@",
"]]]]]]]]]]]]]]]]]]]]]]]]t2;*;&@X          O ..O++@@+@@+@X +@+@@&",
"]]]]]]]]]]]]]]]]]]]]]]]]je2211,+            . X++%@@+@+@ O$+@+@&",
"]]]]]]]]]]]]]]]]]]]]]]]Szittrq< &&&&2<22666666222211669696222133",
"]]]]]]]]]]]]]]]]]]]]]]Ubsuuye8=X&]]]]]]]]]]]]]]]]]]]]]]]]]]]]]]]",
"]]]]]]]]]]]]]]]]]]]]]EBkdsau0*&Xg]]]]]]]]]]]]]]]]]]]]]]]]]]]]]]]",
"]]]]]]]]]]]]]]]]]]]]!GMzjjfw;&&;]]]]]]]]]]]]]]]]]]]]]]]]]]]]]]]]",
"]]]]]]]]]]]]]]]]]]]EGNmbnle&;*>]]]]]]]]]]]]]]]]]]]]]]]]]]]]]]]]]",
"]]]]]]]]]]]]]]]]]]]auttte6;*=<]]]]]]]]]]]]]]]]]]]]]]]]]]]]]]]]]]",
"]]]]]]]]]]]]]]]]]]*&&&&&#,**2]]]]]]]]]]]]]]]]]]]]]]]]]]]]]]]]]]]",
"]]]]]]]]]]]]]]]]]];*****&,*2]]]]]]]]]]]]]]]]]]]]]]]]]]]]]]]]]]]]",
"]]]]]]]]]]]]]]]]]];*****&,6]]]]]]]]]]]]]]]]]]]]]]]]]]]]]]]]]]]]]"
};
