/* XPM */
static char *result[] = {
/* columns rows colors chars-per-pixel */
"64 64 169 2 ",
"   c #040303",
".  c #080707",
"X  c #090807",
"o  c #070608",
"O  c #080708",
"+  c #060B0B",
"@  c #0C0B0C",
"#  c #100F0F",
"$  c #190F09",
"%  c #150B06",
"&  c #15100E",
"*  c #1C130E",
"=  c #0F0E10",
"-  c #110F10",
";  c #151414",
":  c #181616",
">  c #1F1813",
",  c #171718",
"<  c #191718",
"1  c #1D1B1C",
"2  c #21150E",
"3  c #2E1C0F",
"4  c #2D1E13",
"5  c #201E1F",
"6  c #211814",
"7  c #301F13",
"8  c #2D2116",
"9  c #342214",
"0  c #392616",
"q  c #372519",
"w  c #3F2B1E",
"e  c #211F20",
"r  c #242223",
"t  c #282627",
"y  c #262728",
"u  c #292728",
"i  c #27292A",
"p  c #2C2B2B",
"a  c #312E2E",
"s  c #3E3228",
"d  c #312F30",
"f  c #353334",
"g  c #383637",
"h  c #393738",
"j  c #3C3A3B",
"k  c #432D19",
"l  c #49311C",
"z  c #53351C",
"x  c #58361B",
"c  c #563B20",
"v  c #5B3D21",
"b  c #403730",
"n  c #403E3F",
"m  c #5F4022",
"M  c #5E473B",
"N  c #604021",
"B  c #6F4925",
"V  c #754E26",
"C  c #724D29",
"Z  c #785227",
"A  c #7D552A",
"S  c #765126",
"D  c #413F40",
"F  c #444343",
"G  c #494748",
"H  c #4C4A4B",
"J  c #5F4E43",
"K  c #514F50",
"L  c #545253",
"P  c #585758",
"I  c #5D5B5C",
"U  c #595657",
"Y  c #6A5549",
"T  c #615E5F",
"R  c #776357",
"E  c #615F60",
"W  c #656364",
"Q  c #696767",
"!  c #6A6768",
"~  c #6D6C6C",
"^  c #706E6F",
"/  c #786A64",
"(  c #706F70",
")  c #747373",
"_  c #7A7776",
"`  c #797778",
"'  c #7C7A7B",
"]  c #7E7975",
"[  c #835A2B",
"{  c #81572B",
"}  c #89632F",
"|  c #956D34",
" . c #977036",
".. c #9B7437",
"X. c #9D763A",
"o. c #A27C3A",
"O. c #856645",
"+. c #8B6D4C",
"@. c #85674A",
"#. c #926F40",
"$. c #987747",
"%. c #9A794F",
"&. c #937450",
"*. c #A07F52",
"=. c #82736D",
"-. c #807F7F",
";. c #8D7F79",
":. c #AD893F",
">. c #A5803C",
",. c #AF8940",
"<. c #AC8B4A",
"1. c #B28D42",
"2. c #B59143",
"3. c #BA9645",
"4. c #BD9A47",
"5. c #AC8B52",
"6. c #AA8956",
"7. c #B28F50",
"8. c #BD9B54",
"9. c #90857F",
"0. c #B79D67",
"q. c #B19B78",
"w. c #BAA174",
"e. c #C0A057",
"r. c #848283",
"t. c #898787",
"y. c #8E8982",
"u. c #898788",
"i. c #8C8B8B",
"p. c #908E8F",
"a. c #97928C",
"s. c #918F90",
"d. c #959494",
"f. c #989797",
"g. c #9C9B9B",
"h. c #A19F9F",
"j. c #A89D98",
"k. c #BDA88A",
"l. c #ABA19D",
"z. c #A19FA0",
"x. c #A5A4A4",
"c. c #AAA6A4",
"v. c #AFACA7",
"b. c #ADACAC",
"n. c #B5ABA2",
"m. c #BBAFA3",
"M. c #BEB7AE",
"N. c #B8B0A8",
"B. c #B0AFB0",
"V. c #A8BDBE",
"C. c #B3B3B3",
"Z. c #B9B7B7",
"A. c #BCBBBC",
"S. c #C1AC8A",
"D. c #C0B9B1",
"F. c #D4C9BA",
"G. c #BFD4D4",
"H. c #C4C3C3",
"J. c #C8C7C8",
"K. c #CCCCCC",
"L. c #D4D4D4",
"P. c #D8D8D7",
"I. c #DBDBDB",
"U. c #E0DFDF",
"Y. c #E3DCD4",
"T. c #E4E4E4",
"R. c #EBEBEB",
"E. c #F3F3F3",
"W. c None",
/* pixels */
"< < : : < ; < ; < ; ; @ @ X X + X @ X X + @ X X @ X + @ + + + @ @ O o X + @ O @ . X X X + @ @ O X O O @ @ : : : : : , : < , : 1 ",
"< < : : < < < < < < > ; : : : < ; < : : < < : : < : : : ; ; ; < : : : : ; < : : : : < : : : < < < : : : : : : : : ; ; : ; : : 1 ",
"r r r r r r r r r r r r r r r r r r r t r r r r r r r r r r r r e e r r r e e e r r r r e e r e e r e e 5 r 5 r e e e e r 1 5 1 ",
"1 p f f g f g g f h g u t f g g f r i f f g a e p g f f g f f g g f t t f g g d r i f f f f f f f f g u r a f f f r t f f f f r ",
"r 8 d d d i a f d 5 t u e r r e r 1 e i r r u 5 5 r d p t d f d 1 y t r p t 5 r r 1 y p p i f g f r r t 1 t i 5 y y 1 t t t i r ",
"j -.i.' W u.f.r.d p d t L H u p y d I j r p 5 f W r.) Q f.x.u.p p d t L H t p r p L ' ' Q g.C.x.f t i r L W t y r p I E r d t g ",
"d.z.u.~ z.B.f.f g j p I P p j f f W D t h t F ' z.u.) Z.J.z.f j j p P K d j d g W d.s.) A.L.H.g p g t T ~ t f f p ! ~ t j p j ' ",
"b.s.) b.G.x.n K T F ( W f K F F ` G d P f L g.B.d.' J.P.B.j L I F ) T f K F G t.x.g.' H.I.K.j D L d ~ ' p G G j ' ' t W H L i.C.",
"z.' H.P.Z.j G K D r.( f H n G s.U d P g I B.A.z.r.L.T.C.g H H F i.( d H j H g.C.z.r.K.T.L.n D L f ' u.d G G n t.' i H D I C.K.B.",
"t.L.T.H.G p p D d.t.d a a L C.^ f d p ~ K.J.z.t.L.R.A.F p p F z.r.f d p I A.H.b.s.L.R.I.H d d f g.C.j d d F z.B.i p p W L.P.C.d.",
"I.R.R.K.g.f.P.R.U.G.t.b.U.R.L.B.-.B.P.R.L.x.p.I.R.R.J.d.g.L.T.P.B.t.b.U.R.L.C.h.I.E.R.P.c.s.K.T.R.K.d.g.I.R.E.V.i.b.P.E.U.Z.f.I.",
"E.E.T.B.B.R.E.R.L.c.H.E.E.T.H.g.K.R.E.T.Z.z.T.E.R.L.b.C.R.E.R.L.b.K.E.E.I.H.b.U.E.E.T.H.C.T.E.E.T.B.Z.R.E.E.K.b.K.E.E.T.H.x.T.E.",
"x.g.` ) g.z.d.r.Q ) s.s.t.) T ` i.d.u.) W d.g.g.i.~ ) d.d.s.-.Q ) t.i.' ~ W -.i.i.r.) ( i.d.d.p.~ ) d.z.i.i.( i.x.x.g.r.( f.x.b.",
"r.Q E ' r.' ~ K E ) ) ^ E K W ) ` ( E P ' r.r.) W W ' ' _ ^ L T ~ ( E L K Q ^ ^ W T I ) ' ' ) P I ' r.r.r.P ( i.i.-.~ I -.s.i.r.",
"h j n j g j g g h j j h j j j j g j j j j j j j j j j j n h j j j j j j n n n n j j n n j n j n D D j D n D n D n D n D D D D D ",
"@ o @ @ @ @ @ @ O @ @ X O O @ X @ o @ O @ @ + @ @ X @ X O @ @ @ + + @ @ @ X X X @ @ X @ @ @ @ O X X X @ @ @ X @ @ X @ + @ X @ X ",
"p p p p d p p p p p p p p p p p p p p p p p p a p a p p p a p p a p p p d p p a a p a p d a d a f f f g g h h h h h h h h h h h ",
": ; ; : : : : : : : < : : < < : < < : : < < < : : : : : ; : < : < < < : < : < : : < < : < : : ; : < < < : < : , < < : : : , < , ",
": ; : ; : ; ; : : : : : : < : < < < < < ; : : : : : : : : < : : : : < : : : : : : : < < < < < ; , < ; < < < : : : : , : : : : : ",
"- = - = - - = - # # # # = @ = @ # @ @ # @ ; = @ # # # # - - @ = @ = = - @ = - % - @ @ # # # @ . + o     @ = @ ; # @ # = # = # = ",
". . . . O O O O . . . . . O . O . . . . O X X X . . . . . . . . X X X O . . . . O @ . . . . .             X     .   . . O . O O ",
"              . .     . .                   X   .   .                   .   .       .                                           ",
"            .                       .   .       .   .   .     .       .   .                                                 .   ",
"    .   .   . .   . .             .   .     . X   .         . o   .   . . . . . . .                                       .   . ",
"  . . @ O O @ . O @ . . .   O . . . X X X @ O O O O O O O O O O @ X O X X @ X @ . . . .                             . . X . X @ ",
"# # # ; ; : ; ; - - # # # # # - - ; - & ; - ; & & - & - - - & - ; ; : - : - - - ; - # # @ .                     X @ @ ; ; # ; ; ",
"< 1 1 1 1 1 1 1 1 < < : : : 1 < 5 5 e 5 e e 1 1 1 1 1 < e < e e 1 5 5 5 5 5 e 1 , < < < : - # - : : # # # # - ; : : , 1 5 5 5 5 ",
"5 e r r r r e e 5 1 1 1 5 5 e r e t t e e u e t e e e e e e e e t r r r e t e e 5 1 1 , : : : - : ; ; : ; ; : < 1 r r r r t r r ",
"t t t u t t t r e e 5 e r t t u t t u u u u u e e e e u u u u u u u u u u u e e r 1 1 1 < < < ; ; ; , < < < 5 5 5 t t p u t p t ",
"t u t t t r r e e e e r r t u u p u p u u u u u u e e u t u p u p p p u t u u e 5 1 , , < < < ; < , < < < 5 5 e t p t u p p u p ",
"t t u t t r r e e e r r t u u u t p u u u t e e e e u u u u p p u p p u u e e e 1 1 , , : : < : ; ; < , < e r e t p u p p u p t ",
": < : < : : : : < < < < < : < < : : : : ; : < < e : < < : : : : : ; < : : : : : : : < ; : ; < ; , : : : : : : : ; : : ; : : : ; ",
"; ; ; ; ; ; ; ; ; = ; ; ; ; ; ; ; ; ; ; ; ; ; ; & ; ; ; ; ; ; ; - ; ; - ; ; ; ; ; ; ; ; ; ; ; ; ; ; ; ; ; - : : - : ; ; ; ; @ + ",
"# ; # ; ; @ ; ; ; ; = ; ; @ ; ; @ ; = : @ ; & ; = ; = : = ; = ; - : ; ; ; - = ; ; : - ; ; @ ; : & = = ; ; : - ; ; - ; ; ; - ; @ ",
"X @ X + X + X X X + X @ O X X X + @ = @ @ @ @ @ # @ # @ @ @ X @ = @ = = = @ @ @ @ = @ X @ @ @ # @ # @ @ @ @ # + @ = @ = @ @ X + ",
"                                                  o                         o   O                     O O           o           ",
"                                                                                                                                ",
"                                                                                                                                ",
"                                                                                                                                ",
"                                                                                                                                ",
"                                      o   o       o       o   +       o   O . O o     o     o o O O                             ",
"                          O O O X o X O X X + X O O o O O X O @ O X + X + O O O . O O O o @ @ O X X X . . . . .                 ",
"  .   . . .   O o o o X X + @ + @ + @ X @ X + @ X X + O @ @ @ @ @ @ @ @ O @ @ + X + + @ = + = + @ = + @ @ + + + o o   O   o     ",
"O O + X O X + O X + @ @ ; ; ; ; ; ; : ; ; - - - # - - : ; ; ; ; ; ; ; : ; = & = ; # ; ; = ; ; ; ; ; ; ; = & # + X X X X O X   + ",
"@ + @ @ @ @ @ @ @ - ; : < < 1 : 1 , , < : : ; ; : : < < 1 < 1 < 1 , 1 , , ; ; , : < , , , 1 , 1 , , , , ; - - = @ @ @ + @ + X @ ",
"& # # # @ = = - - : < 1 5 5 5 5 5 5 1 1 : , < < 1 1 1 e e e 5 5 5 5 1 1 , 1 1 1 1 1 1 5 1 r 8 1 1 1 1 1 , ; - # & @ @ # = = @ ; ",
"# # = + # # - ; : : 1 5 5 5 5 5 5 5 1 1 , < , 1 1 e e e e e 5 5 5 1 1 1 1 1 1 1 5 5 5 5 e r 1 r 5 , < : ; - # = # = = # # @ @ X ",
"@ @ = = = = - ; : 1 5 5 5 5 1 5 1 1 1 , , < 1 1 1 5 e 5 5 5 5 5 1 1 1 1 1 1 1 5 5 5 5 5 e 5 1 1 1 < ; ; - # @ = @ = @ @ @ @ @ ; ",
"= = # @ = # ; , 1 1 5 5 5 5 5 1 1 1 < < < > 1 1 5 5 5 5 5 5 5 5 1 1 < 1 1 1 5 1 e e 5 5 1 r 1 1 < : ; # = # @ @ = # @ = @ @ @ @ ",
"# @ # = # ; , 1 5 5 5 1 5 1 1 1 : < < < , 1 1 1 5 5 5 e 5 e 5 < 1 , > 1 1 5 1 5 e e 1 5 5 1 1 , : ; ; @ = = @ = = @ = @ = = ; ; ",
"@ = # = ; ; 1 1 5 1 5 5 1 , ; ; - ; - : : ; ; : : : : : : ; : - : ; ; ; < ; : ; ; , r e 1 1 , : ; = @ @ @ @ @ # @ @ = @ @ = # @ ",
"= # # ; , 1 1 5 5 5 5 1 1 , = + > ; - $ # @ # # @ @ * ; - * - # - @ # # ; ; $ ; ; ; t r 1 , : ; = ; = @ @ # @ @ @ = @ = ; ; ; & ",
"= # ; ; , 5 1 5 5 5 5 1 1 - = # 4 4 2 4 $ . @ # - - 8 7 * 4 6 # @ - = - 4 4 2 4 > : r r , : ; ; @ @ @ @ # @ # @ @ # @ = ; : : @ ",
"# # ; , 1 1 5 5 5 5 1 1 1 , @ # 9 k 0 7 $ . @ # - : q k 9 9 * . @ - @ @ 9 k 0 q > @ r 1 ; ; = @ # # @ # @ # + # # = = = ; : : X ",
"- ; 1 1 5 5 5 5 1 5 1 1 1 & & 9 z N c l 7 $ @ @ : k x v c l 4 % @ X & 9 z N v z 7 2 r , @ & @ # @ + @ @ @ # @ + # = ; ; < 1 : X ",
"p p h h h h h h p d d d a p h C { { { B x 7 y i b Z { { A C z 7 t i s Z { { A V x w n f i p p i i f f f f f f d i i p p p g f d ",
"W.W.W.W.W.W.W.W.W.W.W.W.W.W.W.$.X.o.o...V J W.W.] X...o... .S M W.W.]  . .X. .| V Y W.W.W.W.W.W.W.W.W.W.W.W.W.W.W.W.W.W.W.W.W.W.",
"W.W.W.W.W.W.W.W.W.W.W.W.W.W.W.7.1.1.1.:.[ Y W.W.y.<.1.3.1.:.} Y W.W.t.<.,.,.1.o.[ R W.W.W.W.W.W.W.W.W.W.W.W.W.W.W.W.W.W.W.W.W.W.",
"W.W.W.W.W.W.W.W.W.W.W.W.W.W.W.w.8.3.2.o.O./ W.W.p.0.e.4.4.:.&.=.W.W.a.0.8.4.2.o.+.9.W.W.W.W.W.W.W.W.W.W.W.W.W.W.W.W.W.W.W.W.W.W.",
"W.W.W.W.W.W.W.W.W.W.W.W.W.W.W.W.S.5.%.@.9.W.W.W.W.N.S.6.*.O.j.L.W.W.C.v.q.7.6.+.l.W.W.W.W.W.W.W.W.W.W.W.W.W.W.W.W.W.W.W.W.W.W.W.",
"W.W.W.W.W.W.W.W.W.W.W.W.W.W.W.W.D.m.n.c.W.W.W.W.W.R.D.m.m.c.Z.W.W.W.W.R.Y.F.n.c.W.W.W.W.W.W.W.W.W.W.W.W.W.W.W.W.W.W.W.W.W.W.W.W.",
"W.W.W.W.W.W.W.W.W.W.W.W.W.W.W.W.W.W.W.W.W.W.W.W.W.W.W.W.W.W.W.W.W.W.W.W.W.W.W.W.W.W.W.W.W.W.W.W.W.W.W.W.W.W.W.W.W.W.W.W.W.W.W.W.",
"W.W.W.W.W.W.W.W.W.W.W.W.W.W.W.W.W.W.W.W.W.W.W.W.W.W.W.W.W.W.W.W.W.W.W.W.W.W.W.W.W.W.W.W.W.W.W.W.W.W.W.W.W.W.W.W.W.W.W.W.W.W.W.W.",
"W.W.W.W.W.W.W.W.W.W.W.W.W.W.W.W.W.W.W.W.W.W.W.W.W.W.W.W.W.W.W.W.W.W.W.W.W.W.W.W.W.W.W.W.W.W.W.W.W.W.W.W.W.W.W.W.W.W.W.W.W.W.W.W."
};
