/* XPM */
static char *result[] = {
/* columns rows colors chars-per-pixel */
"64 64 91 1 ",
"  c #040303",
". c #080707",
"X c #090807",
"o c #080708",
"O c #060A0A",
"+ c #0C0B0B",
"@ c #150E0E",
"# c #110F10",
"$ c #071111",
"% c #0C1919",
"& c #151414",
"* c #181617",
"= c #161718",
"- c #181718",
"; c #161819",
": c #1B1A1B",
"> c #201E1F",
", c #211F20",
"< c #1F2425",
"1 c #252324",
"2 c #282526",
"3 c #292728",
"4 c #2C2A2B",
"5 c #322E2F",
"6 c #312F30",
"7 c #343233",
"8 c #383637",
"9 c #3A3738",
"0 c #3D3A3C",
"q c #403D3E",
"w c #433E40",
"e c #454243",
"r c #494546",
"t c #4A4648",
"y c #4D4A4B",
"u c #514D4E",
"i c #534F50",
"p c #555253",
"a c #595556",
"s c #5A5758",
"d c #5D5A5B",
"f c #615E5F",
"g c #615E60",
"h c #646162",
"j c #696566",
"k c #676769",
"l c #6B6768",
"z c #6C696B",
"x c #716D6E",
"c c #726F70",
"v c #757273",
"b c #797677",
"n c #7A7778",
"m c #7D7A7C",
"M c #817D7E",
"N c #837F81",
"B c #7D8080",
"V c #848183",
"C c #888686",
"Z c #8A8789",
"A c #8D8A8C",
"S c #918D8F",
"D c #928F91",
"F c #959294",
"G c #989697",
"H c #9A9799",
"J c #9C9A9B",
"K c #A09D9F",
"L c #A19FA0",
"P c #A4A3A4",
"I c #A8A6A7",
"U c #AAA7A8",
"Y c #ABAAAB",
"T c #B0AEAF",
"R c #B2AFB0",
"E c #B4B3B4",
"W c #B8B6B7",
"Q c #BDBBBC",
"! c #C5C3C4",
"~ c #C9C7C8",
"^ c #CCCCCC",
"/ c #D4D4D4",
"( c #DCDBDC",
") c #E1DFE1",
"_ c #E1E1E1",
"` c gray92",
"' c #EFEFF0",
"] c #F0EFF0",
"[ c #F2F1F1",
"{ c #F9F9F9",
"} c None",
/* pixels */
"}}}}}}}}}}}}}}}}}}}}}}}}}}}}}}}}}}}}}}}}}}}}}}{`!Sjppttyte099qrt",
"}}}}}}}}}}}}}}}}}}}}}}}}}}}}}}}}}}}}}}}}}}}}}[(Wmfiuyyteq99qryyy",
"}}}}}}}}}}}}}}}}}}}}}}}}}}}}}}}}}}}}}}}}}}}}[(Tbduuytee00qryyyyy",
"}}}}}}}}}}}}}}}}}}}}}}}}}}}}}}}}}}}}}}}}}}}`(Tbsiuyte00wtyuuuye0",
"}}}}}}}}}}}}}}}}}}}}}}}}}}}}}}}}}}}}}}}}}}[(Rndiuteqqetyuupyr099",
"}}}}}}}}}}}}}}}}}}}}}}}}}}}}}}}}}}}}}}}}}`/Ubdpyrwqeruupuurw0090",
"}}}}}}}}}}}}}}}}}}}}}}}}}}}}}}}}}}}}}}}}(^Kvsuteqerypipyte000000",
"}}}}}}}}}}}}}}}}}}}}}}}}}}}}}}}}}}}}}}}(~Gzpyewerippputw00q00q0q",
"}}}}}}}}}}}}}}}}}}}}}}}}}}}}}}}}}}}}}}/QFzpreetuiaaiyww0qqq0qwwi",
"}}}}}}}}}}}}}}}}}}}}}}}}}}}}}}}}}}}}}^WSzueetuppaiiwwwq0qqqwwuai",
"}}}}}}}}}}}}}}}}}}}}}}}}}}}}}}}}}}}}^EAlperupppputwwwwqwqweippii",
"}}}}}}}}}}}}}}}}}}}}}}}}}}}}}}}}}}}^RCzarpppapitwwwwwwwwrupppitw",
"}}}}}}}}}}}}}}}}}}}}}}}}}}}}}}}}}}(WSvdipsspitewwwewwwriasaiyewr",
"}}}}}}}}}}}}}}}}}}}}}}}}}}}}}}}}}(QKMjddsspureeeeweeriaaapyrwrrt",
"}}}}}}}}}}}}}}}}}}}}}}}}}}}}}}}}(~YAxffssptreeteeryiaddsirrwwrii",
"}}}}}}}}}}}}}}}}}}}}}}}}}}}}}}}(^EGmzhdaytrrttttiisfddpytwwtiass",
"}}}}}}}}}}}}}}}}}}}}}}}}}}}}}})~TKVMjfptttyttyuaffgfauyrtyisfdsd",
"}}}}}}}}}}}}}}}}}}}}}}}}}}}}}_!UKDVxfutyuyuyuaffggsiuuyuufgggfdf",
"}}}}}}}}}}}}}}}}}}}}}}}}}}}}/!PJSCMfputyuuuafhhfspiuuupfgggghgdh",
"}}}}}}}}}}}}}}}}}}}}}}}}}}}/!PJDMMxjffffafhjjhfapiiiafghjlxlkhhh",
"}}}}}}}}}}}}}}}}}}}}}}}}}}/!UHAMMMMcvvzlzvxlhddsssfflzxxcvvxzkzm",
"}}}}}}}}}}}}}}}}}}}}}}}}}/!PFAVVMVVMVVCAACNMmBmBNNCNMvnnmBBBvnAF",
"}}}}}}}}}}}}}}}}}}}}}^}}/!TLJHGGKKKKKPIPLKKKJLLPYTLKKKGFJLIYUYTT",
"}}}}}}}}}}}}}}}}}}}}}}}~EYPPLPLLKLLLUIPPPPPPIYEEERTIILLIIYYEWQQQ",
"}}}}}}}}}}}}}}}}}}}}}}J8w411,111,2111111111347788877777764678788",
"}}}}}}}}}}}}}}}}}}}}}}Pyp,OOOOXO....XXXXOOX+*:::----;---<<:;:::;",
"}}}}}}}}}}}}}}}}}}}}}}WVM9::***&&&&&=*=&&&:,22111131113111111111",
"}}}}}}}}}}}}}}}}}}}}}}Yzvhdsyeeeqettttttytyyyyyyyyyyyytttyeewqqq",
"}}}}}}}}}}}}}}}}}}}}}}Ypq099644444456666666655757666476545444434",
"}}}}}}}}}}}}}}}}}}}}}}Pe&&&&***&:&*&=&=&=&&&=&=&=&&==&==-&*&;===",
"}}}}}}}}}}}}}}}}}}}}}}Ae:&:****&*&&:&:=&**&=&==*===&====-=====&=",
"}}}}}}}}}}}}}}}}}}}}}}V7&##+#+##+###+#+##+##@+##+#+@#@+.oO.++#@+",
"}}}}}}}}}}}}}}}}}}}}}}YA@+X.XX..XX.X.X.XXXXXXX.... .. o    .. ..",
"}}}}}}}}}}}}}}}}}}}}}}}/@..   .. ..  .                  $       ",
"}}}}}}}}}}}}}}}}}}}}}}}(:X . .. . .   .                 $O      ",
"}}}}}}}}}}}}}}}}}}}}}}}}4@ ..X.X....X.X                         ",
"}}}}}}}}}}}}}}}}}}}}}}}}0:X+++++X@++++XXX XX X X  . . o.   . .. ",
"}}}}}}}}}}}}}}}}}}}}}}}}r1&&&=*&=&&@@&&@@++o+o+oXX+XX+X+O Oo.XXO",
"}}}}}}}}}}}}}}}}}}}}}}}}u5,>,,,,>:>>>:-*&#####@@&@######O++&#@&+",
"}}}}}}}}}}}}}}}}}}}}}}}}p72113111211>>>--&&&&&&&&&&&&&&&&=&&&&&=",
"}}}}}}}}}}}}}}}}}}}}}}}}a84444432322,,,------******=-&-&&;*&****",
"}}}}}}}}}}}}}}}}}}}}}}}}a84444434221,>:---**----***--*-==&=-*---",
"}}}}}}}}}}}}}}}}}}}}}}}}a84444343211,::&--------***----==&=-****",
"}}}}}}}}}}}}}}}}}}}}}}}}p8444433211>::-----&----=-**-*-=&&==*-**",
"}}}}}}}}}}}}}}}}}}}}}}}}u744333211>::------------***=--&&=*---*:",
"}}}}}}}}}}}}}}}}}}}}}}}}y74443322,>:----*--&-----=---=--&&**-*==",
"}}}}}}}}}}}}}}}}}}}}}}}}t61111,,::-=&&&&&&&&&&&&&&=&&&&&&&*&&&&&",
"}}}}}}}}}}}}}}}}}}}}}}}}91# O O o .   .                 ::#     ",
"}}}}}}}}}}}}}}}}}}}}}}}}029ddfdsauttttreereeeqeewq00098878766676",
"}}}}}}}}}}}}}}}}}}}}}}}}84sJJGAZMmvxvxzzzllljjjjhhhddsppssiyiyuu",
"}}}}}}}}}}}}}}}}}}}}}}}}81ezy911>>>>>::1,>:>:,::>,::::::&=::::::",
"}}}}}}}}}}}}}}}}}}}}}}}}818u94:-***=*:-;**:&=:==----=**&&===**--",
"}}}}}}}}}}}}}}}}}}}}}}}Y7113,:&+@###+@#+####+#####+@#O    .+#@##",
"}}}}}}}}}}}}}}}}}}}}}}}}6,#OO                           O       ",
"}}}}}}}}}}}}}}}}}}}}}}}}4:&#                                    ",
"}}}}}}}}}}}}}}}}}}}}}}}}3:*&X                                   ",
"}}}}}}}}}}}}}}}}}}}}}}}}1::,X.      .  ..                       ",
"}}}}}}}}}}}}}}}}}}}}}}}}1:,1&+X+X.+XX+++XXX+++X.+X+++X       .XX",
"}}}}}}}}}}}}}}}}}}}}}}}}1:17-&@@&#&#&#&#@&&&&&&&&&&#&&&&O +&@&&&",
"}}}}}}}}}}}}}}}}}}}}}}}},:39>=&*=&&=====*==-==&===&*=&--%%;=====",
"}}}}}}}}}}}}}}}}}}}}}}}}7*77>&---:------:::--::-*--::------*=***",
"}}}}}}}}}}}}}}}}}}}}}}}}>*25>@@@@@@@@@@&@@@@&@@@@@@@@@#@-:@@@@@@",
"}}}}}}}}}}}}}}}}}}}}}}}},>25>-----**--*---*-***:**---**-*******-",
"}}}}}}}}}}}}}}}}}}}}}}}}1>13>-----**----*-****-*-*-****-****-***"
};
