/* XPM */
static char *result[] = {
/* columns rows colors chars-per-pixel */
"64 64 105 2 ",
"   c #050304",
".  c #080707",
"X  c #090807",
"o  c #080708",
"O  c #050C0C",
"+  c #0C0B0B",
"@  c #120E0F",
"#  c #0F0F10",
"$  c #120F10",
"%  c #180F10",
"&  c #151414",
"*  c #181617",
"=  c #181718",
"-  c #1C1A1B",
";  c #201E1F",
":  c #211F20",
">  c #1F2021",
",  c #1D2829",
"<  c #242223",
"1  c #282627",
"2  c #292728",
"3  c #242D2E",
"4  c #2C2A2B",
"5  c #312728",
"6  c #312E2F",
"7  c #312F30",
"8  c #343334",
"9  c #383537",
"0  c #3A3738",
"q  c #3D3A3C",
"w  c #413D3E",
"e  c #413F40",
"r  c #454243",
"t  c #494546",
"y  c #454348",
"u  c #4A4648",
"i  c #4D4A4B",
"p  c #504647",
"a  c #514D4E",
"s  c #54504F",
"d  c #524F50",
"f  c #594F50",
"g  c #555253",
"h  c #595556",
"j  c #5A5758",
"k  c #5D5A5B",
"l  c #615D5E",
"z  c #635F60",
"x  c #656263",
"c  c #696566",
"v  c #6B6768",
"b  c #6D696B",
"n  c #716D6E",
"m  c #736F70",
"M  c #767273",
"N  c #797576",
"B  c #7A7877",
"V  c #7C7779",
"C  c #7E797B",
"Z  c #817D7E",
"A  c #837F80",
"S  c #868183",
"D  c #898486",
"F  c #8C8689",
"G  c #8D8A8B",
"H  c #918C8E",
"J  c #938E90",
"K  c #969293",
"L  c #999596",
"P  c #9B9698",
"I  c #969A9B",
"U  c #9D9B9C",
"Y  c #A19D9E",
"T  c #A19FA0",
"R  c #9EA2A2",
"E  c #A5A2A3",
"W  c #A8A6A6",
"Q  c #A9A7A8",
"!  c #ADABAC",
"~  c #B0AEAE",
"^  c #B2AFB0",
"/  c #AAB1B1",
"(  c #B5B3B3",
")  c #B9B6B7",
"_  c #B9B7B8",
"`  c #BDBBBC",
"'  c #C0BEBF",
"]  c #C1BFC0",
"[  c #C5C3C3",
"{  c #C8C7C7",
"}  c #C8C7C8",
"|  c #CCCBCB",
" . c #D0CFCF",
".. c #D0CFD0",
"X. c #D5D3D4",
"o. c #D8D7D7",
"O. c #DCDCDC",
"+. c #E0DFDF",
"@. c #E4E4E4",
"#. c #E8E7E7",
"$. c #E8E7E8",
"%. c #ECECEC",
"&. c #F0EFEF",
"*. c #F3F3F3",
"=. c #F8F8F8",
/* pixels */
"t u i i u e w 9 7 8 8 9 9 8 w w e e e e e e 0 9 9 0 0 e e d i i i u i i i d g k z z z j i i i i f k b m m m m M m m b l a u a d ",
"i i u t w 9 9 8 9 9 9 8 w w e e e d d e q e 0 q q e f e i i i i i i i d h k z z z j p i i i d z n m N m m M M m v z d i a g z v ",
"i i r 0 9 9 9 0 9 8 0 w t u p i d e e e e e e e e d d d i i i i d d g z z z z l d d i i d z b m M M m N M m n z h a d h z b m M ",
"t q 9 9 0 0 0 0 0 w e a i i a u e d e e e e e d g d h e d a d d h z z v v l g d i a f z m N N V N N N N M z j d f g z v M M N M ",
"0 0 0 0 w 0 0 q r i a a i t t t d e d e e e a a g d d d d d j z z b z z j d d d f z m N V V V V C V m v k d d h z n m V V m b l ",
"0 w w 0 0 w t i s g i t u t y t e e e g j a d d d d d g j z v v n z z g d d d z b M C V Z V V V M b l h h j z n M V V V n z h g ",
"w w 0 w t i g g s t y r t t i y e g d d f g g d d g j z v v b c k g g d g l n V V A Z C Z C N m z h d j z n M C A N n z h g g h ",
"0 w e f f f i u r r e r y t i d d d d g g g g g j z v n v v z f g g g k n V C C C A C Z C m z j f j z m N C C C m z j g g h h g ",
"y i s s i i u r r r r r r i g g g g g g g g j z v n m z z h f f g z n V Z Z Z C A A C M c j j j x b N C Z C m c k g g j g j g g ",
"h g a i u y r r r t t s g g g g g f d g j z v n n b z j g g h z b V Z A Z Z A Z C N v k g j z m N Z Z Z M v k g g h j j j g g g ",
"g i u u r y u u t i g g g g g g f f j z v n m b z j g g h l M A A A A Z Z A A N v k h j z m N A Z Z M v k j g j h h g g g g g g ",
"u r r r u i i s a g h h g g g h j z v n m n z k h h h z v V A A A A A A A V b z j j x n N A A A C b z j h j j j j h g j g j g j ",
"r t r u i g g g h g h h h h j l v n m m v k j f h z b V A A A A A A A V m z z j x b V A D A V m x k j j k j j j j j g j j j g j ",
"t t i s s s g h h h h h j l c n m m z z j h j l b V A A A A H A A A m z j l z m C D D D A m c k j k k k j j j j j j j j j j j j ",
"i g g g h h j j h h h l c n M m v z j h j l M A A A A G A J A A V z z z z m A A D F D V b l j k z z k k j k j k j k k k k k k k ",
"j j j h h j j k h l c n N N m c z j k l v A A A H G G G A A A n z z v M A F F F D C n z z z z z k k k k k z k z k k k z k k z z ",
"k k k k k k z x c m V V N b v z z z n Z A F H H J H H F Z n z z n B S G H H G S m c x k l x x l z k k z k l z k k z l l z x b m ",
"k k k z k x b M Z Z Z m n c z z m A H H J J J J J J F Z b v M A G H K K K S B b c x x c x x l l z z z z l x x x x x x c b m M B ",
"z z x x b B Z Z Z Z V n b m V A J J J J J J K K J A V N Z A K K L L K G B M b c c c c x x x c x x x x x x x x c x b b M B Z Z Z ",
"x x b B S D D D D Z V Z A G K L P L L L P L L H A A A H L P Y P L K S B n b b b b c c x c c c c c c x c c c v b m M B Z Z S D G ",
"b B D G H H K H F D H L U U U U P Y P P Y P J A J P T T Y T T L G B B n b n n b c b b b b c b b b b v v n m M N B Z S D G G J H ",
"G K L L U R P P P Y E E W W W W E E E P Y P Y E T T T W E T K D B B M B B n n n n n n n m m n n m m m N B C Z S D F G K K I U U ",
"~ ^ ( ) ) ( ) ) ` ` ` _ ` _ ) ) ' ' ^ ' ~ ' ' ' _ ` ` _ ^ E L J H H G G G G G G G G G G G G G G G J K K I I U T E E E W Q ! ! W ",
"` ' ' ' ' ' ' ' ' ` ' ' ' ' ' ' ' ' ' ' ' ' ' ' ` ' ` ^ Q T R R R R U U U I U U I I R R U U R R R W R / Q ! / ! ! ( ( ) ` ) Q W ",
"9 9 0 9 0 0 0 9 9 9 9 9 9 9 9 9 6 w 6 9 9 9 9 9 9 9 9 8 7 8 7 7 7 7 7 7 7 7 7 7 7 7 7 7 7 8 8 8 8 8 8 8 8 8 8 8 8 8 8 9 9 8 7 7 ",
"= = = - = = = - = - - - - - - - - - - % = = = = = = = = = = = = * * * * - = = * = = = = = = * * * * * = = = = = = = * = = = * = ",
"< < < < < < < < < < > < 1 < < < : : : : - - = ; - - - - - - - - - - - - - - - > - - - - - > - - - - ; - - - ; - ; ; - ; - - ; > ",
"e w e e w w e e e e q e r w w q e 9 8 6 6 6 6 6 4 6 4 3 4 6 6 4 7 4 7 4 4 6 4 3 7 4 6 4 4 4 4 7 4 4 4 4 7 4 4 4 4 4 4 4 7 4 7 4 ",
"3 2 2 2 4 4 2 2 3 4 4 1 4 4 1 3 : : : : : : : : : : : : < : : < > > < > > < > < > > < > > > < > < > < < > > < > < > < < > > > < ",
"* * * * * * * * & & * * & * * * * : & * = ; * = = = = & = = = = * * * * * * * * * * * * = * * * * * & * * * * * * & * * * * & & ",
"* * * = * = * = * * * * * * * * * * & & = & & & = = = & & = & & * * & * & & * * * * * * = * & * & * * * * * * * * * * * * * & * ",
"+ + # + + # + # # # + @ # # + # @ $ $ $ $ $ $ # # # # # # # # $ # @ # # # # # # # + # @ @ + # # # # # # # # + # # + # + # # X + ",
"                .               . . . . X X X X . . . .   X X X X X X X X X X X o o o o o o . . . . . . X X X X X + X . . .   . ",
"                                          .                       X     X   X       o                     .                   + ",
"                                                X                   X                                 .       o                 ",
"                                        . .                   X           X X   o               .     .   .     .               ",
"                              o     + + X + X + X . . . X X X X o o X X X . X X o o o o o + o + . + o + o + o o + + o o       o ",
". + + + + + + +   + + + o + + $ @ & @ & & & & @ @ # + # @ @ + $ & % & @ & & $ & $ $ $ % # $ $ % % % % & $ & & $ @ + + + + + . o ",
"# @ # # $ # + & + & + & & & * = - - = - - - - = - = * * * * - - - - ; ; ; ; - - - = = - = - - - - - : : - - - = & & & & & + @ & ",
"& & & & & & & & & & & & = - ; : < < < 1 < < < : ; - - - ; < < < 1 < < < < < < ; : : : : : 1 : 1 1 1 < < < < < : - - = * & & & & ",
"& = * * = * * * = = - - - < < < 1 1 1 1 < < < < > ; ; < < 1 1 1 2 2 2 2 1 1 < 1 < < 1 1 1 1 4 1 2 2 2 2 2 < < : : - - = = = * & ",
"= = = = * * * = = - - ; < < 1 1 2 2 1 1 1 < < : < > < 1 1 1 1 4 2 4 2 2 1 1 < < < < < 1 1 4 4 4 4 4 2 2 < < : : - - = = = = & & ",
"= * * = = * = = = - - : < 1 1 2 2 2 1 1 < < : : > < < 1 4 4 4 4 4 2 2 2 1 < < < < 1 3 2 2 4 4 4 2 4 2 2 < < : - - - = = * * & & ",
"* * * * = = * - = - < < 1 1 1 1 1 4 9 0 q 0 0 9 9 q q q 8 q q q e e e e q q 0 0 7 2 2 4 4 1 4 4 2 2 < < : : > - = = = = = = * & ",
"= = = * = = = - - : < 1 2 2 2 1 2 i G ) } } } ` ) ' ) R G U W ( } | | | | [ ( W b 6 2 2 4 4 4 4 2 2 < < > - - = = = = & = = & & ",
"= = = * = = - - ; < < 1 2 2 1 1 1 g W O.&.*.*.@.+.&.+.[ R ) [ X.*.=.*.=.=.%.X.} Z 6 4 4 4 2 2 2 2 < : : - - = = = = = & = * & & ",
"& & # = & = * = > > < < < > > < - i I O.&.&.&.+.O.&.o.` E ( '  .*.=.*.=.=.$...{ C 1 > > < < < > : > - = & = & & & & & & & & & & ",
"                            .   . q L o.%.%.%.+.O.%.o.` W ( '  .&.*.*.*.*.$.| { n # o . o   o       o                       & < ",
"7 8 8 4 2 2 2 2 2 2 2 2 2 1 2 2 3 i K X.#.#.#.O.O.#.X.` E ~ ' | %.*.&.*.&.@.| [ M * = < 1 2 2 2 2 4 4 2 2 2 4 2 2 4 2 2 2 2 6 8 ",
"i i i t r r r r r r r r r r r r e k H | @.@.+.o.X.+. .) Y ! ) | %.&.%.%.&.@.{ [ B < 2 9 w r r r e e e r e r r e r r r e r r w r ",
"- ; - - - - - = = - - - - - - - - e G { +.+.O. . .O. .) P W ) | #.%.#.%.%.+.{ ' n # + & = = - - - - - - - - - = - - - - - = - & ",
"* * * * = & * & = * * & * * * * * w S [ O.O.O. . .O. .~ L E ) [ #.#.#.%.%.O.[ ` b + + @ & = = & * * * * = = = = & * * * = * & @ ",
"# # + $ & + + & @ & @ + @ @ @ & + 0 A [ o.o.X.| | o.{ ( K E ~ ] @.#.@.#.#.o.[ ` v O . X + + $ + $ $ + + & + + + + & + + @ $ @ X ",
"                                X 7 Z ' X.X.X.{ { X.{ ! J R ! ` O.@.+.@.@.o.' ) x O                                             ",
"                                  4 B )  . .| [ [  .[ Q H Y W ` O.+.O.+.O.X.` / k                                               ",
"                                  4 M ) { { { ` ` { ' W D I W ) o.O.o.O.O. ._ Q k                                               ",
"          .                     X 4 n ! [ [ [ ) ) ] ) Y S J T ( X.X.X.X.X.{ ^ T h               .                               ",
". + + X X X X + + o + + + + + + + 4 c W ` ) ) ~ ~ ` ~ I B G P Q | | | | | [ ! U g o       + + + + + + + + + + + X + + + + +     ",
"& & & & & & & & & & & & & & & & $ 4 z Y ) ) ~ W W ( W J B Z H W [ { [ { [ ` Q K a +   . + # & & & & & & & $ & & & & & & & & @ + ",
"& & * * * & * * & & & = & = & = * 5 l L ! ! ! R T ! R D b B D U ` [ ` ` ` ) E G u X   @ # & * = = & & * * & * * & & & & & = & = ",
"= * = * * * - = = = - = = = = = - , l K ! ! ! R R ~ T D b B D F Y ~ T T / ~ / I u 4 = * = = & = * * * * * * * * * * * - & * = - ",
"@ @ @ % @ & * * = * = = - - - ; ; 5 w f l l l h f k s p w r p f l l l l l l h p 6 * * * * % % % % @ % % @ & * % @ % % @ * & = - ",
"* = * * = = = = - - - < < < 1 < < 1 < < < 1 < < < > > > : : : : : : : < < < : : > - - - * & & & & # $ $ & = = = * = = = * * * - ",
"* * * * = & = = & & + +   o   o   X X X X   X X X X X X   X X   X X .   X   X   o   o               o + & * * * * = = * * * * - "
};
