/* XPM */
static char *result[] = {
/* columns rows colors chars-per-pixel */
"64 64 76 1 ",
"  c #040303",
". c #080707",
"X c #090807",
"o c #090708",
"O c #060A0A",
"+ c #0C0B0C",
"@ c #100F0F",
"# c #100F10",
"$ c #0E1313",
"% c #141314",
"& c #181617",
"* c #181718",
"= c #141A1A",
"- c #1C1B1C",
"; c #201F1F",
": c #201F20",
"> c #242323",
", c #282627",
"< c #292728",
"1 c #2C2B2C",
"2 c #302E2F",
"3 c #312F30",
"4 c #353334",
"5 c #383637",
"6 c #393738",
"7 c #3C3A3B",
"8 c #403E3F",
"9 c #423F40",
"0 c #444343",
"q c #494747",
"w c #4A4748",
"e c #4C4A4B",
"r c #504D4E",
"t c #555354",
"y c #595657",
"u c #595758",
"i c #5C5A5B",
"p c #605D5F",
"a c #625F61",
"s c #666364",
"d c #696767",
"f c #6A6768",
"g c #6C6A6A",
"h c #706D6E",
"j c #747273",
"k c #797778",
"l c #7C7A7B",
"z c #817E7E",
"x c #827E80",
"c c #868384",
"v c #888687",
"b c #8C8A8B",
"n c #908E8F",
"m c #918F90",
"M c #959494",
"N c #989797",
"B c #989798",
"V c #9B9A9A",
"C c #A19FA0",
"Z c #A4A3A4",
"A c #A9A7A8",
"S c #ADACAC",
"D c #B4B3B3",
"F c #BDBCBD",
"G c #C0BEBF",
"H c #C4C3C3",
"J c #C8C7C7",
"K c #C8C7C8",
"L c #CBCACB",
"P c #D4D3D3",
"I c #DCDCDC",
"U c #E2E2E2",
"Y c #EBEBEB",
"T c #F4F4F4",
"R c #FAFAFA",
"E c None",
/* pixels */
"--**&&&&&&&&&&&&&&&&&&&&&&&,q74    .O+++@#%%---;;>,<11134444441E",
"-&&&&&&=&&&&&&&&&;&&&&&&&%2yrq%     .O++@#%%&--;;>>,<112224444<E",
"->>:>:>>>>>>>>>>::::::>;;2trq+@    ..+++@$%%&--;;>,,<1122444441E",
"1444444444<>4454,<85558,2req%++     .O++@@%&&=-;;>>,11123444471E",
">1442466::>-<<;,,;<48823rew;XX@    X +++@%%%**-;>>><<1221444442E",
"jNMlZDZ411>yi><,1pNNr28yrq3+..+     XO+++%$%*=-;;>><<1123444651E",
"AZbFLF747<sd,424kDSy8whye8@ ..X    ..O+++$%%*--;;>><11123444471E",
"AnHIJ70t4kk<e07cGDp8pnfrq;....@    ..O++@@%&&--;>>><<1121444443E",
"MLUK40e2vb2e08mLGt8hSzpr,@X. .+     .O++##%%&---->>,<113344444EE",
"PYP0115ZA543eSUHp8fAzpy4&@.  .+    ..O+++%%&&--;>>,,<111143445EE",
"YYJNbPYUGBSIYTLu8fCzft5:&@X  X+     .o++###%&*->->,,1114344445EE",
"TUDAYRTPSHTTRLu7pVvzp8<;;@X. X+    ..+o++#%&**-->>,<<121344445EE",
"VzlZSSMjlZSDBt77988e82<;%@.. X+    ..O++#$#&&&-:;>>,<111344444EE",
"gsbMbkidcnMcu014,2:5<2<;&+.. X@     .O+++#%&***>;>>,1114334455EE",
"8780788808772>$$o%&21<,;;@.. X+    ..O++##%%**--:>><<112334445EE",
"++O++++X++++$%@Xo@&211,;%+.. .+     .o+++%%%**-::>><<111244445EE",
"55455455444464;+.@&32<<:&@.. .@     XXX+@#%%&--;:>>,<112334444EE",
"&&&&&&&&&&**&&#..@&2<<,:&@.  .+     XO+@@@%%&&-;>>>,<113344445EE",
"&**&%&&&%&&%&&& X@&:<<,:&@X ..@    OXX++@@#%&&;=;>>,1113334455EE",
"@++%###+@@@@o@o..@&2<<,:&@X. .@     XXX@@@%&&=&;;>>,<111334447EE",
".XooooooXXX.X   .@&4<,::%@   .+     XXO+@@%%&&=;;>>,,113334444EE",
". .    o       ..@&1,,:;%@   .+     XOX+@@%%&-;;;>>,<111334455EE",
"   .            .@%::::;%X   .+     XXO+@@%%&&&;;>>,<113334465EE",
" .X .o .       ..@;1:;;&@+    +    .XX++@@%%&&-;;>>,<113334445EE",
"Xoo+oooooo..    o@&:;;*&@..   +    .OX++@@$%&&-;;>>,<111344444EE",
"%%%%###@+oo... .o@&<*;&#@.   .+     .O++@@$&&--;;>>,<112334446EE",
";;;;&&&%%@@@@@X o#&:**&#+.    +     ..O+@@%%&&=;;>>,<112334446EE",
"::;;:&;&&%%%%&@..#***&&%+X    +     ..++@@$%%--;;>>,,112334466EE",
"<<<:::&&;%&&&;#.o@%:&&&#+.    +     .O++@@#%%-;-;>>,1111144446EE",
"<,::;;;&&%%&;&% .@&&&&%%+.    +    . O++@$%%%-=;;;>,<<1222444EEE",
"::::;;&&&&;;&;&.o@&%&&&#+.    @     .X++@@%%&-;-;>>,<1123444EEEE",
";%&&%%&&&%@+#&%&&&%&&%%#@.    +     ..O+@##%%==-;>>,<111234EEEEE",
"$%%%%%&&&%%%%%%%%%%%%%%%+.    +    .ooO++%%%&*-->>>><11224EEEEEE",
"O%%#%%&%%&##%%#%%#%%%%%#+.    +     .o++@@@%&*-;;>>,<<122EEEEEEE",
"O++++++++++@@+@+++#+@@%%+X   .+     ..O+@$%%&*---:>,<112EEEEEEEE",
"                 o . +&#+.    +     .O+++@@%&&-->>>,<11EEEEREEEE",
"                     +%%+o.   +     ..+++%%%**-;->><<<EEEEEEEEEE",
"                     +&#+o    +    . O+++@$%&*--->>,<EEEEEEEEEEE",
"                     .%%+     +      .O++%$%&*-;>>><EEEEEEEEEEEE",
"                    .+%#      +     ..+++@%%&*--->>EEEEEEEEEEEEE",
"          .....   . . &+.     O     ..O++#%%&&*-->EEEEEEEEEEEEEE",
"      . XXXO.+X+X+oo++%%oXo+. +     .O+++#$%&*-->EEEEEEEEEEEEEEE",
"    .+O++++@++@+++o+%+%*@@@@+.+      oo++##%&&--EEEEEEEEEEEEEEEE",
"OXO+++#$%%%%&&&%%@@#++*-&%###++     ..+++#%%&*-EEEEEEEEEEEEEEEEE",
"$++#%%**=-----**%%$@++*>&&%%$++     .O+++##%&&EEEEEEEEEEEEEEEEEE",
"+#%&&*-:;;->;--*&%@@++->*%%%%+.     .Oo++#%%&EEEEEEEEEEEEEEEEEEE",
"#$%*---:::;;-;*&%%@@@+:<*&&%%+O     .O++@@%%EEEEEEEEEEEEEEEEEEEE",
"#%&=-;::::;;--&%%@@@++>1*%&%%+.      .o++%@EEEEEEEEEEEEEEEEEEEEE",
"%**--;::::;--&%%$++++@>1*&&&%++     .O.++@EEEEEEEEEEEEEEEEEEEEEE",
"#&--;;;:::;-*=%@##+@+%,2-&&%&+.     ..X++EEEEEEEEEEEEEEEEEEEEEEE",
"%-:-:;;:-;-&&%@@#++++#<4*&&%&+.      o++EEEEEEEEEEEEEEEEEEEEEEEE",
"#-;:::;;;-&&%@@@++#++%<4-%&&%+O     .o+EEEEEEEEEEEEEEEEEEEEEEEEE",
"+::;;;;-;-&%#@@++#+##%<3-&&%%+o     .oEEEEEEEEEEEEEEEEEEEEEEEEEE",
"+-:-;;;*-%%$@@+++++##%>1-&&&%+.     XEEEEEEEEEEEEEEEEEEEEEEEEEEE",
"=--;---=%%$@+O@@+*#%;2d92<1<>++     EEEEEEEEEEEEEEEEEEEEEEEEEEEE",
"47733322<444445<1456eCjtwww9<*+    EEEEEEEEEEEEEEEEEEEEEEEEEEEEE",
"EEEEEEEEEEEEEEEEEEEEFlirte04&-.   EEEEEEEEEEEEEEEEEEEEEEEEEEEEEE",
"EEEEEEEEEEEEEEEEEEEGnhpiyr8&&*+  EEEEEEEEEEEEEEEEEEEEEEEEEEEEEEE",
"EEEEEEEEEEEEEEEEEEJZvjffi0&&%,+ EEEEEEEEEEEEEEEEEEEEEEEEEEEEEEEE",
"EEEEEEEEEEEEEEPEELCnczxj0&&&:y+EEEEEEEEEEEEEEEEEEEEEEEEEEEEEEEEE",
"EEEEEEEEEEEEEEEEvyewwq04,&&>q4EEEEEEEEEEEEEEEEEEEEEEEEEEEEEEEEEE",
"EEEEEEEEEEEEEEEE&&&%&%%:&&<&&EEEEEEEEEEEEEEEEEEEEEEEEEEEEEEEEEEE",
"EEEEEEEEEEEEEEEE**&&&&%>&<**EEEEEEEEEEEEEEEEEEEEEEEEEEEEEEEEEEEE",
"EEEEEEEEEEEEEEEE*&&&&&%,>*EEEEEEEEEEEEEEEEEEEEEEEEEEEEEEEEEEEEEE"
};
