/* XPM */
static char *result[] = {
/* columns rows colors chars-per-pixel */
"64 64 81 1 ",
"  c #040303",
". c #080707",
"X c #090807",
"o c #080708",
"O c #050B0B",
"+ c #0C0B0B",
"@ c #130E0E",
"# c #080F10",
"$ c #110F10",
"% c #141314",
"& c #181617",
"* c #161718",
"= c #181718",
"- c #17191A",
"; c #1C1B1B",
": c #201E1F",
"> c #211F20",
", c #242324",
"< c #282627",
"1 c #292728",
"2 c #2C2B2B",
"3 c #302E2F",
"4 c #312F30",
"5 c #353334",
"6 c #383637",
"7 c #393738",
"8 c #353C3C",
"9 c #3D3A3B",
"0 c #444243",
"q c #484546",
"w c #4E4B4C",
"e c #514E4F",
"r c #524F50",
"t c #555253",
"y c #595556",
"u c #5A5758",
"i c #5D5A5B",
"p c #615D5E",
"a c #62605F",
"s c #635F61",
"d c #656263",
"f c #696566",
"g c #6A6769",
"h c #6D6A6B",
"j c #716D6E",
"k c #736F70",
"l c #757273",
"z c #797576",
"x c #7B7779",
"c c #7D7A7C",
"v c #807D7E",
"b c #827E80",
"n c #858283",
"m c #898586",
"M c #8A8789",
"N c #8D898B",
"B c #908D8E",
"V c #938E90",
"C c #959394",
"Z c #999697",
"A c #999798",
"S c #9D9B9C",
"D c #A09D9F",
"F c #A39FA0",
"G c #A4A2A3",
"H c #A8A5A7",
"J c #A9A6A8",
"K c #ADAAAC",
"L c #B1ADAE",
"P c #B0AFB0",
"I c #B5B3B4",
"U c #B9B6B7",
"Y c #B9B7B8",
"T c #BDBBBD",
"R c #C1BDBE",
"E c #C2BFC0",
"W c #C4C2C3",
"Q c #C8C6C7",
"! c #C9C7C9",
"~ c #CDCCCE",
"^ c None",
/* pixels */
"ifjkkjppeertrewwwwweeerrwrrwrtypispsppiyrwwwqwwqwwetfNnf355<65>^",
"kljjppttrtteeewwweerrrrrrrttiissssssiutewwwqwwwwwtpgMbg<55<656>^",
"kjfpyrrytrewwwwwwerrttwtttipsdddsssiyrewwwwwwwerishMcg,55,5566>^",
"gpteryyteeweeweeerrttttupsdddfdddsitewweweeewrysdgMbf;26<55566>^",
"yrtyyyrreereeeerrtttyiidfffffffdpureeeeeeeerypdsgNbd-26,455566;^",
"tyutterrrrreeerrtyifdffgggffffsyrrrrereerryidddhNnf*26<2555556>^",
"uyrerrrrrtrrtrrytdfffgghgggfditrrrrrrrrtypddddlCnu*16<44455666;^",
"tttttryrrtyrtrypfffhhhhhhgfpyttttttttttpsddsfxAmy%<6,244455556>^",
"ttttttttttryypffghhhhjhhgsittttrttytuppssssgcDMt%,6,2232555666;^",
"ttttttttytrpphhhhkhkhjgdiyttttyyytypsffssdkbKBy$,6,22235545556;^",
"ttttttttppphfhhhhhhhhgiuyttttytyyppffdsssvDRCy$>5,212252445566;^",
"yyyytyyipdfhhhhjkhhhduyytyytyyypsffddsffvKEVp$>5<,,22424555566>^",
"yyyyipsghjhkjjhhggfiuuyyyyyyuppfgffsfjvNREZy$;5<,,112344455565;^",
"uuisdgkkkkkkkjhggdiuuuuuyuiisfggfffjvbDREVy$=5<>,,,22225555556;^",
"isfhkkzkzlkkkjgsiiiiiiiiiidfggggghzbVHR!Sy@&6<:>,,122225455566;^",
"gjkzxxzzzzkkhgssaaiiiiiidgghhghkvvNDRREZu@@6<;::,,<12232455666;^",
"kzccxcxzllhhfaaaaiiiiidghjhhhjxbNSPRWWBt+%5<;;::,,<12344555565;^",
"cvcvccxzlhgaaaaaaiasfhhkjjhkxnNZPRWWYmi+@5<&;;::,,<12224545566;^",
"nnbbbxzlhfdaadaasdghkklhjkxMCFLTWRIKceX$6,*&-;::,,<12234444566;^",
"MMnnvxlgffdddadghlzzllzcnCDKIREEIFDzeO$5,%%&;;::,<<12224488566;^",
"BNMnvlgfffddfhlxcvbcbnCGYEWWWWUFCZzwX+5,$%*&-;::,,<12234355565-^",
"CCNvclhhjjkzbMNBBBVCGITWW!QWTJVVZzeXX5<$$%%*;;;:,,<12244555566;^",
"GABnbnnMMBZDHHHHJKIE!~~~~~!YJSSFxwOX5<+$$%%&;;::,,112244355566-^",
"JJAACAASDKKPPKKKPITEWWEWEYJDDDSkqXX5,++@$$%&-;::>,<12224355566;^",
"34433335555555555666666664444424-X6,O+$+$%%*-;::,,,12234355566;^",
",---&&&&&&&&&&&&--**&&&&===;&;>2X4,$XOO$$$%*-;::,,<12233355656;^",
";--;:;:;;;;;;;;;:;;;;;;;;=>::>2<4<#XXX+@$%%&;;::,,122233445556;^",
"33232223323232232222222222446764<* XX+O$$%%*&;;:,,,12233555566;^",
":,:::<::>>:>>>>>>>>>>>>>>>><<<<4   .++$$$$%&-;::,,<12223355566;^",
"**%*&&&*&&&&&-&%==&&==&&&&&&%&&1   XXX+O$%%&;-::>,<12233455556;^",
"%%**&*%*&&&&&&&&=&&%=&&&&&&&&&4o   XXX+@$%%&-;::,,,12234455566;^",
"XO$$@$$$$$$+$$$$#$$@$#$$$$+++$2+  .XX+O$$%%&&;::><<12233455566;^",
"O. .... oXoX.o..XoXXXoXX...  .2    XX+++$$**&;;:,,<<2233555556;^",
"            .  .  . . .       2     X++$$%**&;:::<,22223355565:^",
"O             .  .  .         2    OXX+$#$%&&;::,,<<<233355566:^",
"             .ooo . .         ,    OX++#$%%*-;;:,,<<2233355556:^",
"     .   XXX@oooXXoo.oXX      ,  . .++++$%%&;;:>:,,22233445566;^",
"  oOoX++@+@$@@@&@&%@@@++.+X.X.,    .OX+$$$%*&;;>,,<,2233455665>^",
"*$$$@@$&==;;:::::::=&&%%%++@++,    XXX+$$$%&=;:::,<22233545566;^",
"%%%%&==:>,,<,,,1>>::;-==%%%%*$,    OXO+$$%%&&;;:,,,2<233455556>^",
"**====>>111211111>>>:&&&==&=:$<     .O+$$%%*=;;:,,,12225455665>^",
"%&==::>11122221111:::::&====:&3    ..+++$$%*=;:>,,112222445556>^",
"%-=;>>,212122211>>>::&&&===;:%4    ..+@#+%%*=;;>>,112244545566;^",
"==::>>122122111>>>::&&&&==;;:&5     .++$%@%*=;:>,,,12224455566>^",
"&:>>111122221<>>>;;;&&&&=;;>,=5   . O++++%%*&-;>>,,<2224445566;^",
"&:>>11122221<<<>>:&;&&&&;;>,,-5     .++++%%*&;:>,,<12224555556,^",
"*=::>>>>>>>>>>;;&%&$&$@&*=;;>-5    ..++@$%%*=;;>,,,22225255565,^",
";o.ooooooooo o  o      o. . .X2     Oo++$%%%=;;>>,,<2222355566,^",
"52212222455456566655321,>>:@++2    XX+++$%%*-;;:,,,12224445558<^",
"0q000qqqqwerrttyyyteqq09752=&@2    XXX+$$$%**;::>,,12224485555,^",
"=>;=;;;;;;;;:;;;;;:;:=;;===&*%2   X XO++$$%%&;;:,,112244455566<^",
"$&&=&&*====&&&&=*&&-&&&&=&&&*%1   XXXX+$$$%*&;;:>,,122224448661^",
" o@@$%@+%$@+@+%@+@$+$@+@$$@+&%<     XX++$$%%&;::,,<<1244525555<^",
"                            %%5    OX++$$$%&&&;:>,<<22243555662^",
"                            $%5    .O+++$%%*;;;:>><<12225455662^",
"                            %$5   . +O+$$$%%-;;:><<<22242555562^",
"                            %%5    ..O++$$%%-;;:>,,122235555562^",
"  +++X@+++++++++@+X++@++++++%$5     .+++$$%**;;:>,<112334435562^",
"+@$%%%@%$%$%%%%%%%@@%$%$%@%%*$5    ..+++$$%%*;;:>,,112333555562^",
"&*&&&&==*&&&%&&&===%&&&&*&%**%2     .+++$$%**;;:,,,112243555562^",
"&&==:;&;&:&&&==;===:==;=&&&;==8    ..O++$$%%&;;:>,<<12243545662^",
"&%%@@@@@@@@@@@@@@@@@@%%%@@@@@@2     .+++$$%*&-::>,<<12243455562^",
";====&&&:@&&&&=&======&&&&=&&%2    ..+++$$$*&-;::,<<22234555552^",
";===&&&&&&&&&&========&&&&&:;*2    ..+++$$%*&;::>,,<22232555662^"
};
