/* XPM */
static char *result[] = {
/* columns rows colors chars-per-pixel */
"64 64 182 2 ",
"   c #33210D",
".  c #2F2216",
"X  c #2D241C",
"o  c #332311",
"O  c #392713",
"+  c #3D2915",
"@  c #30251D",
"#  c #3D2C1C",
"$  c #2E2621",
"%  c #362C25",
"&  c #3B2D22",
"*  c #392F28",
"=  c #372F28",
"-  c #3D322B",
";  c #422C16",
":  c #462E19",
">  c #482F19",
",  c #4C321B",
"<  c #47321D",
"1  c #52361E",
"2  c #55381F",
"3  c #633A1C",
"4  c #443425",
"5  c #43362E",
"6  c #45382F",
"7  c #4A3627",
"8  c #563920",
"9  c #5B3C22",
"0  c #563E2C",
"q  c #5D3F29",
"w  c #433730",
"e  c #463931",
"r  c #4A3D34",
"t  c #4D3F38",
"y  c #603E24",
"u  c #4E4037",
"i  c #4F4138",
"p  c #554335",
"a  c #53443B",
"s  c #56483E",
"d  c #59493F",
"f  c #5C4330",
"g  c #634126",
"h  c #664329",
"j  c #6B462B",
"k  c #6E492C",
"l  c #724B2E",
"z  c #644A36",
"x  c #754E31",
"c  c #794F32",
"v  c #775133",
"b  c #7C5333",
"n  c #73553A",
"m  c #7A5A3C",
"M  c #6B513B",
"N  c #574940",
"B  c #5C4C42",
"V  c #5E5145",
"C  c #604F45",
"Z  c #635246",
"A  c #6C5641",
"S  c #65554A",
"D  c #68574A",
"F  c #655A4C",
"G  c #6C5B4E",
"H  c #715942",
"J  c #7B5E44",
"K  c #705E4F",
"L  c #795A44",
"P  c #6D5C51",
"I  c #715E51",
"U  c #6F614F",
"Y  c #76614B",
"T  c #6E6252",
"R  c #756353",
"E  c #796756",
"W  c #756856",
"Q  c #7A6956",
"!  c #7D6C5A",
"~  c #76685A",
"^  c #7C715D",
"/  c #7E6D62",
"(  c #7F7361",
")  c #825636",
"_  c #845A37",
"`  c #8A5C34",
"'  c #845B39",
"]  c #8A5E3A",
"[  c #8D613C",
"{  c #93653E",
"}  c #9C6B3F",
"|  c #87664B",
" . c #946740",
".. c #956A42",
"X. c #9C6C43",
"o. c #956C4B",
"O. c #996D4B",
"+. c #9D7146",
"@. c #9D734B",
"#. c #9C7A4F",
"$. c #806F5C",
"%. c #846E52",
"&. c #82725E",
"*. c #9C7355",
"=. c #967853",
"-. c #A16F44",
";. c #A27146",
":. c #A57549",
">. c #A6794C",
",. c #AA7C4C",
"<. c #AB7F50",
"1. c #A37751",
"2. c #857561",
"3. c #887762",
"4. c #8B7B65",
"5. c #8E7E69",
"6. c #867B67",
"7. c #907F6A",
"8. c #9F815A",
"9. c #AD804F",
"0. c #AE8251",
"q. c #A58357",
"w. c #B18553",
"e. c #B48A56",
"r. c #B68D59",
"t. c #B88F59",
"y. c #B6925B",
"u. c #BB935C",
"i. c #BE995E",
"p. c #8D826D",
"a. c #93836D",
"s. c #9B8A6E",
"d. c #8F8671",
"f. c #948671",
"g. c #958973",
"h. c #9A8B74",
"j. c #9D8F78",
"k. c #9E907A",
"l. c #A38565",
"z. c #B99964",
"x. c #A1937C",
"c. c #A09374",
"v. c #C09B5F",
"b. c #C19D61",
"n. c #C5A364",
"m. c #A59780",
"M. c #A69982",
"N. c #AA9C85",
"B. c #AC9F89",
"V. c #AEA18A",
"C. c #B1A48C",
"Z. c #B5A88F",
"A. c #AEA690",
"S. c #B5AA92",
"D. c #BAAE94",
"F. c #BDB196",
"G. c #BEB49A",
"H. c #C1B69B",
"J. c #C4B99E",
"K. c #C5BCA3",
"L. c #C9BFA6",
"P. c #C6BEA8",
"I. c #C9C0A6",
"U. c #CCC4AD",
"Y. c #CDC6B0",
"T. c #CFC9B5",
"R. c #D2CCB5",
"E. c #D5CEB8",
"W. c #D7D1BC",
"Q. c #DAD4BC",
"!. c #DED9BF",
"~. c #DCD6C2",
"^. c #DED9C3",
"/. c #DFDBCA",
"(. c #E1DCC5",
"). c #E2DECB",
"_. c #E6E2CE",
"`. c #E6E2D2",
"'. c #EBE8D7",
"]. c #E9E5D8",
"[. c #EBE7D9",
"{. c None",
/* pixels */
"{.{.{.{.{.{.{.{.{.{.{.{.{.{.{.{.{.{.{.{.{.{.{.{.{.{.{.{.{.{.{.{.{.{.{.{.{.{.{.{.{.{.{.{.{.{.{.{.{.{.{.{.{.{.{.{.{.{.{.{.{.{.{.{.",
"{.{.{.{.{.{.{.{.{.{.{.{.{.{.{.{.{.{.{.{.{.{.{.{.{.{.{.{.{.{.{.{.{.{.{.{.{.{.{.{.{.{.{.{.{.{.{.{.{.{.{.{.{.{.{.{.{.{.{.{.{.{.{.{.",
"{.{.{.{.{.{.{.{.{.{.{.{.{.{.{.{.{.{.{.{.{.{.{.{.{. .X.:.:.,.,.,.,.:.:.-.O.{.{.{.{.{.{.{.{.{.{.{.{.{.{.{.{.{.{.{.{.{.{.{.{.{.{.{.",
"{.{.{.{.{.{.{.{.{.{.{.{.{.{.{.{.{.{.{.{.{.X.:.1.,.,.<.w.e.e.w.e.w.w.9.,.>.1.1.:.O.{.{.{.{.{.{.{.{.{.{.{.{.{.{.{.{.{.{.{.{.{.{.{.",
"{.{.{.{.{.{.{.{.{.{.{.{.{.{.{.{.{.{.*.1.;.;.<.w.e.e.w.w.w.w.w.e.w.w.w.w.w.w.w.,.:.:.*.{.{.{.{.{.{.{.{.{.{.{.{.{.{.{.{.{.{.{.{.{.",
"{.{.{.{.{.{.{.{.{.{.{.{.{.{.{.{.{.{.;.<.<.w.e.e.w.w.w.w.w.w.9.w.0.w.w.w.w.e.r.e.e.w.>.X.{.{.{.{.{.{.{.{.{.{.{.{.{.{.{.{.{.{.{.{.",
"{.{.{.{.{.{.{.{.{.{.{.{.{.{.{.{.-.;.<.w.v.w.e.w.0.<.,.,.<.,.,.,.<.,.,.e.e.r.r.r.t.t.e.,.} {.{.{.{.{.{.{.{.{.{.{.{.{.{.{.{.{.{.{.",
"{.{.{.{.{.{.{.{.{.{.{.{.{.{.{.] ;.<.v.v.v.<.<.,.,.,.,.,.,.,.,.,.<.,.<.0.e.e.e.e.r.u.t.r.,.-.O.{.{.{.{.{.{.{.{.{.{.{.{.{.{.{.{.{.",
"{.{.{.{.{.{.{.{.{.{.{.{.{.{.*.;.,.v.v.<.<.<.,.,.,.,.,.,.,.,.,.,.,.,.,.,.v.,.,.,.v.<.v.v.v.,.-.{.{.{.{.{.{.{.{.{.{.{.{.{.{.{.{.{.",
"{.{.{.{.{.{.{.{.{.{.{.{.{.*.;.w.v.v.v.,.,.,.,.,.;.;.;.;.:.:.:.:.,.:.,.,.,.,.,.v.,.v.v.w.w.v.,.{ {.{.{.{.{.{.{.{.{.{.{.{.{.{.{.{.",
"{.{.{.{.{.{.{.{.{.{.{.{.{.*.0.u.n.v.v.<.,.,.;.,.;.;.;.;.;.;.;.;.;.:.,.,.,.,.,.,.<.w.,.v.v.v.v.-.{.{.{.{.{.{.{.{.{.{.{.{.{.{.{.{.",
"{.{.{.{.{.{.{.{.{.{.{.{.l.:.w.b.b.v.,.<.,.,.;.;.;.;.;.;.;.;.;.;.;.;.:.,.,.,.,.,.<.,.,.,.<.v.v.;.{.{.{.{.{.{.{.{.{.{.{.{.{.{.{.{.",
"{.{.{.{.{.{.{.{.{.{.{.{.] ,.r.b.b.v.,.<.,.,.:.;.;.-.-.-.-.-.;.;.;.;.;.;.,.,.,.,.,.,.w.w.v.e.e.,. .{.{.{.{.{.{.{.{.{.{.{.{.{.{.{.",
"{.{.{.{.{.{.{.{.{.{.{.{.] ,.u.n.v.v.<.,.,.,.:.;.-.} } -.-.-.-.;.;.;.;.;.;.,.,.,.,.,.,.w.w.v.v.,. .{.{.{.{.{.{.{.{.{.{.{.{.{.{.{.",
"{.{.{.{.{.{.{.{.{.{.{.{._ <.u.n.v.v.e.,.,.,.:.;.-.X.} } X.-.-.-.;.;.;.-.;.,.,.,.,.,.,.w.e.v.w.,.[ L {.{.{.{.{.{.{.{.{.{.{.{.{.{.",
"{.{.{.{.{.{.{.{.{.{.{.{.l :.u.n.v.v.v.<.,.,.:.-.-. .} X.} X.-.-.;.;.;.-.;.,.,.;.,.,.w.w.v.e.e.,.' A {.{.{.{.{.{.{.{.{.{.{.{.{.{.",
"{.{.{.{.{.{.{.{.{.{.{.{.g } e.v.n.n.u.e.9.9.,.:.;.} +.X.} X.X.X.;.;.;.;.;.:.>.>.,.0.9.e.r.t.e.>.b p {.{.{.{.{.{.{.{.{.{.{.{.{.{.",
"{.{.{.{.{.{.{.{.{.{.{.f g _ >.u.n.n.i.t.e.9.,.>.,.;.} +.X.X.X.X.} ;.;.;.;.,.,.,.,.9.e.u.u.e.>.{ j + 4 {.{.{.{.{.{.{.{.{.{.{.{.{.",
"{.{.{.{.{.{.{.{.{.{.z 2 2 b X.w.n.n.n.u.e.w.9.9.,.>.>.;.;.-.-.-.;.;.;.,.,.,.,.,.9.e.u.u.r.9.;.c 2 ;   {.{.{.{.{.{.{.{.{.{.{.{.{.",
"{.{.{.{.{.{.{.{.{.3 y 2 2 b { ,.e.b.n.i.i.t.e.9.,.,.9.,.>.:.:.:.:.;.,.,.,.,.9.0.9.e.r.e.9.:.] g , : o o p {.{.{.{.{.{.{.{.{.{.{.",
"{.{.{.{.{.{.{.{.m c j y 8 k [ @.,.r.v.b.n.v.t.e.e.9.9.9.9.w.0.9.9.9.9.,.,.0.w.w.0.0.0.,.;.] k 1 > ; o O < 4 {.{.{.{.{.{.{.{.{.{.",
"{.{.{.{.{.{.{.| _ b g 2 8 y b +.9.,.w.u.v.n.v.i.u.u.t.r.e.e.e.e.e.t.e.w.e.e.e.e.e.e.9.X._ k 1 > ; o o + : ; {.{.{.{.{.{.{.{.{.{.",
"{.{.{.{.{.{.X. .b k k j h 8 x { ,.,.,.w.r.u.i.v.v.b.b.i.b.v.b.i.i.i.v.v.y.r.e.9.>.X.{ b j 9 > ; O o O + : 1 , A {.{.{.{.{.{.{.{.",
"{.{.{.{.{.O.w.:.[ l v v l 9 j b  .:.,.,.,.9.e.e.y.y.y.i.u.u.y.r.e.e.w.w.0.9.+.{ ' c g 9 1 , ; o o o + , 1 9 g 9 p {.{.{.{.{.{.{.",
"{.{.{.{.{.@.u.;.{ ' v k g 2 9 h x [ +.,.9.9.:...........{ { ] ] [ [ [ _ _ b k h y q 1 > > : o o o   ; 8 y j h y 0 {.{.{.{.{.{.{.",
"{.{.{.{.{.0.e.>.>.9...' m v l j j k v ' ..;.+.} { { [ [ ` ) ) c k h j j h h y 2 8 , > ; O O o   o ; 7 9 j k x l h {.{.{.{.{.{.{.",
"{.{.{.{.0.i.e.9.0.e.>.+.{ { [ m b k g g b _ [ { ] ` ` ) c c l l g 2 2 2 2 2 1 > ; + + o   o o o ; : 8 9 j j x c x q {.{.{.{.{.{.",
"{.{.{.{.e.i.i.t.e.0.,.@.+.} { .. .' k 9 9 g h b x l c l k k k y 2 1 1 : : : ; o   o o . o o . + : : > 8 y y j x x y {.{.{.{.{.{.",
"{.{.{.r.z.u.>.@.[ m H H A H M n ' ] _ b h 2 1 g 9 8 h y y y g , + > + O O o o o     .   O # . 4 4 & & ; 1 , 9 h k j {.{.{.{.{.{.",
"{.{.o.>.<.+.[ m n z V V T ^ W U J J | ' b g , 1 , > 1 1 1 9 9 : o : O o   o o O o . . o # ; % 5 e 5 * % # # < 8 9 9 2 {.{.{.{.{.",
"{.{.| _ b x q a V F T ( d.k.k.p.^ G A _ [ l 2 : > ; > ; > > 1 : o : + o o o O ; o X $ $ % - 5 t s a e * % % # ; : , 0 {.{.{.{.{.",
"{.{.{.{.Y Y B W ^ p.p.S.Y.R.W.U.V.d.W A v k g g > + : 1 , > g 8 ; : , 1 , , + o X $ % e r r t d B a t r 5 % % & & 5 {.{.{.{.{.{.",
"{.{.{.{.R 2.2.a.j.N.D.L.!.!.).).T.A.p.T n m m b g < , 8 2 1 k g : > 2 h g 2 : o @ * r d a a d z N a i r w - % % % w {.{.{.{.{.{.",
"{.{.{.{.R 5.k.x.C.K.Y.Q.!.Q.(.).].U.V.p.T Y 9.{ v g 9 g g 9 v j > 1 g l l g 7 $ % 6 d Z B d C s a a r 5 w 4 * - w r {.{.{.{.{.{.",
"{.{.{.{.! f.j.Z.F.H.Y.Q.Q.Q.Q.!.).^.U.A.d.^ Q 9...v g k j g ' v 9 , h ) ) g < % - a D Z Z Z Z s a a r 5 5 - 5 r B a {.{.{.{.{.{.",
"{.{.{.{.&.f.x.D.H.H.Y.E.Q.!.Q.(.).).!.U.A.d.p.y.0.{ b b b l ..[ j 2 x [ m q & - r Z U G G G A s a t r 5 5 - 5 r F a {.{.{.{.{.{.",
"{.{.{.{.$.h.x.Z.H.H.U.R.W.(.(.(.^.(.).^.I.A.j.z.y.>.+...[ [ 0.+.b h ' [ c 7 * 6 d U Q U K K Z d a a r 5 5 5 w i G s {.{.{.{.{.{.",
"{.{.{.{.$.a.x.B.D.H.U.R.W.~.).).^.Q.^.).].T.A.h.8.q.r.0.,.9.e.0.+._ [ _ g 5 5 i G Q ! Q K D Z B a r 5 5 5 5 e a P N {.{.{.{.{.{.",
"{.{.{.{.$.h.x.V.Z.H.K.U.E.W.).]._.!.Q.(.'.].T.V.s.8.y.r.r.u.v.e.,...[ v p 6 i V R ! $.R I K D B a e e r 6 6 r a ~ N {.{.{.{.{.{.",
"{.{.{.{.$.s.x.m.Z.D.H.K.P.E.).].'.).(.(.'.'.).I.A.j.8.r.u.b.n.v.e.:._ z u s F W $.$.$.E R K Z B a e 5 5 6 6 r B / B {.{.{.{.{.{.",
"{.{.{.{.! f.x.x.m.Z.H.H.K.U.Q.).`.`.`.`.`.).!.W.K.N.6.8.r.z.n.v.e.o.M p B T ( 5.&.! ! ! I D C N t e e w w w N S / B {.{.{.{.{.{.",
"{.{.{.{.E 5.x.j.m.Z.F.D.D.L.Y.R.W.~.^.!.~.W.W.W.T.K.M.2.=.u.b.u.#.A V V T ( 5.7.2.Q R R K Z z N t e w w w w a F / B {.{.{.{.{.{.",
"{.{.{.{.R 4.h.j.m.Z.S.Z.Z.H.K.L.U.Y.T.R.R.R.R.R.R.U.G.j.5.=.r.#.Y V F W ( 5.a.a.2.E I I D C N 0 t e e e w t N P / B {.{.{.{.{.{.",
"{.{.{.{.{.&.7.j.m.V.C.C.Z.H.H.H.P.P.I.Y.Y.U.U.U.P.P.P.F.k.Q =.Y d V W 6.4.a.7.5.&.E I G C N s t r e e e e t V P / {.{.{.{.{.{.{.",
"{.{.{.{.{.E 2.h.c.M.V.V.C.F.D.D.G.J.J.L.I.I.J.J.H.H.H.H.N.6.E I U U ( d.j.f.5.&.&.Q K Z C s d t t e e 6 w e C P {.{.{.{.{.{.{.{.",
"{.{.{.{.{.R $.a.j.x.V.B.V.C.C.C.D.D.F.G.J.J.G.G.H.H.H.D.C.N.h.7.p.6.h.x.g.5.2.&.Q R I D C s a d t e 6 6 e t P P {.{.{.{.{.{.{.{.",
"{.{.{.{.{.P ! 5.h.k.V.x.c.V.V.C.C.C.Z.F.F.F.F.G.H.D.D.C.S.D.C.V.V.k.x.M.a.4.&.! R I D D C s t a t e r e r N P P {.{.{.{.{.{.{.{.",
"{.{.{.{.{.P I 4.s.x.x.x.k.x.V.C.C.C.C.C.C.Z.Z.F.D.C.C.C.C.C.C.C.V.k.x.c.a.a.4.$.R D C C N t r t t r t t r N P P {.{.{.{.{.{.{.{.",
"{.{.{.{.{.{.R ! 5.h.j.j.x.x.N.B.N.V.C.C.C.V.Z.Z.Z.Z.C.C.C.C.m.m.V.x.h.f.a.4.2.$.I D C d s t e r 0 e a a N F S {.{.{.{.{.{.{.{.{.",
"{.{.{.{.{.{.P R &.5.j.x.x.h.M.m.x.N.C.V.B.B.Z.N.B.N.C.N.B.C.m.m.N.k.a.4.7.$.$.E I D C C s a r e e e t a B R {.{.{.{.{.{.{.{.{.{.",
"{.{.{.{.{.{.{.G E 2.h.j.j.f.j.x.x.B.C.B.x.N.N.x.N.Z.B.x.m.C.m.k.j.a.4.$.$.$.E I D D D d s a a r e e r a Z P {.{.{.{.{.{.{.{.{.{.",
"{.{.{.{.{.{.{.{.I &.a.h.f.a.h.x.x.x.x.m.B.C.N.x.N.N.m.N.m.m.k.h.a.a.4.$.$.R I G Z C D s t t a r e r a C P {.{.{.{.{.{.{.{.{.{.{.",
"{.{.{.{.{.{.{.{.D E 3.7.a.a.j.j.h.k.x.x.N.N.M.x.m.m.x.m.m.x.h.h.7.4.3.$.$.R I I D Z C s t r r r r t N S P {.{.{.{.{.{.{.{.{.{.{.",
"{.{.{.{.{.{.{.{.{.K ! 3.7.a.h.h.f.h.x.k.j.x.j.j.x.x.x.x.x.h.h.7.7.&.$.$.$.R K K K C a a t e e r t N V F P {.{.{.{.{.{.{.{.{.{.{.",
"{.{.{.{.{.{.{.{.{.{.K Q 3.7.a.a.a.s.a.h.j.h.h.j.s.j.x.h.7.7.7.7.7.&.Q E $.G D G C a a 0 e e r r t B P Z {.{.{.{.{.{.{.{.{.{.{.{.",
"{.{.{.{.{.{.{.{.{.{.{.G $.3.4.4.7.f.7.7.s.f.a.s.7.7.s.7.7.s.7.7.3.$.E I R D C Z N a t t r e r t B D B {.{.{.{.{.{.{.{.{.{.{.{.{.",
"{.{.{.{.{.{.{.{.{.{.{.{.K E $.2.5.5.7.5.a.a.a.a.a.7.7.7.7.7.$.$.$.$.I K K C C s N r r i t t t N P P {.{.{.{.{.{.{.{.{.{.{.{.{.{.",
"{.{.{.{.{.{.{.{.{.{.{.{.{.K E $.&.&.&.2.5.a.a.a.a.5.$.2.&.&.$.$.$.I K G C C z t r r i r t N B F S {.{.{.{.{.{.{.{.{.{.{.{.{.{.{.",
"{.{.{.{.{.{.{.{.{.{.{.{.{.{.D K R $.$.$.&.2.2.2.2.2.$.$.$.$.Q R I K G C B a t a r r r r t N F N {.{.{.{.{.{.{.{.{.{.{.{.{.{.{.{.",
"{.{.{.{.{.{.{.{.{.{.{.{.{.{.{.d D I E E Q ! ! ! ! ! ! E %.Q I G G G C C N r t t r w r t t N S {.{.{.{.{.{.{.{.{.{.{.{.{.{.{.{.{.",
"{.{.{.{.{.{.{.{.{.{.{.{.{.{.{.{.{.Z C C D K K K I K I G K G K D B B N a a r e e e e t N B {.{.{.{.{.{.{.{.{.{.{.{.{.{.{.{.{.{.{.",
"{.{.{.{.{.{.{.{.{.{.{.{.{.{.{.{.{.{.r t t a B C B C C C C C C N a a r r r e 6 6 e e e r {.{.{.{.{.{.{.{.{.{.{.{.{.{.{.{.{.{.{.{.",
"{.{.{.{.{.{.{.{.{.{.{.{.{.{.{.{.{.{.{.{.{.5 r r t t t a a t t p t e e 5 5 e w 5 w {.{.{.{.{.{.{.{.{.{.{.{.{.{.{.{.{.{.{.{.{.{.{.",
"{.{.{.{.{.{.{.{.{.{.{.{.{.{.{.{.{.{.{.{.{.{.{.{.{.5 5 5 5 5 e 5 5 5 5 5 r {.{.{.{.{.{.{.{.{.{.{.{.{.{.{.{.{.{.{.{.{.{.{.{.{.{.{."
};
