/* XPM */
static char *_683750f92004383d93d504042d0873aw6T7y8DkskqipkLS[] = {
/* columns rows colors chars-per-pixel */
"64 64 24 1 ",
"  c None",
". c black",
"X c #020100",
"o c #070301",
"O c #080301",
"+ c #0D0501",
"@ c #0F0601",
"# c #140702",
"$ c #6F2808",
"% c #702808",
"& c #702908",
"* c #6C3A05",
"= c #8B330A",
"- c #8D340A",
"; c #A1461B",
": c #A3481D",
"> c #A54A1E",
", c #A64B1F",
"< c #A96922",
"1 c #A7773F",
"2 c #A87439",
"3 c #A77740",
"4 c #A77841",
"5 c #A77842",
/* pixels */
"                                                                ",
"                                                                ",
"                                                                ",
"                                                                ",
"                                                                ",
"                                                                ",
"                                                                ",
"                                                                ",
"                                                                ",
"                                                                ",
"                                                                ",
"                                                                ",
"                                                                ",
"                                                                ",
"                                                                ",
"                                                                ",
"                                                                ",
"                         ooooo                                  ",
"                        o$$$$$o                                 ",
"                        o$---$o                                 ",
"                        o$---$o                                 ",
"                 oooooooo&---$o                                 ",
"                o<3555555o---$o                                 ",
"                o<5555555o---$o                                 ",
"                o<5555555o---$o                                 ",
"                o<<<<<<<<o---$o                                 ",
"                oooooooooo---&o                                 ",
"                o$$$$$$$$$----$o                                ",
"                o$------------,$o                               ",
"                o$------------,oOo                              ",
"                o$-----------;oO,$o                             ",
"                o$----------:o#-,,oo                            ",
"                o$---------,+O--,oo$o                           ",
"                o&-------------,oo-,$o                          ",
"                o$------------,Oo--,Ooo                         ",
"                ........----------,oo-$o                        ",
"               o<<<<<<<<.--------,+o---$oooooooo                ",
"               o<555552<.---------------$$$$$$$$o               ",
"               o<555555<.---------------------=$o               ",
"               o<555555<.----------------------$o               ",
"               o<155555<.----------------------$o               ",
"               o<<<<<<<<.$$$$$$$$$$$$$&$$$$$$$$$o               ",
"                Oooooooooooooooooooooooooooooooo                ",
"                O******************************o                ",
"                oooooooooooooooooooooooooooooooo                ",
"                                                                ",
"                                                                ",
"                                                                ",
"                                                                ",
"                                                                ",
"                                                                ",
"                                                                ",
"                                                                ",
"                                                                ",
"                                                                ",
"                                                                ",
"                                                                ",
"                                                                ",
"                                                                ",
"                                                                ",
"                                                                ",
"                                                                ",
"                                                                ",
"                                                                "
};
