/* XPM */
static char *ee29443f042f4277fe59363fb401be0cleq4VJVpmD8LpRqJ[] = {
/* columns rows colors chars-per-pixel */
"64 64 124 2 ",
"   c None",
".  c gray13",
"X  c #222222",
"o  c #232323",
"O  c gray14",
"+  c #252525",
"@  c gray15",
"#  c #272727",
"$  c #282828",
"%  c #2A2A2A",
"&  c gray17",
"*  c #2C2C2C",
"=  c #2D2D2D",
"-  c gray18",
";  c #2F2F2F",
":  c gray19",
">  c #313131",
",  c #323232",
"<  c gray20",
"1  c #343434",
"2  c #353535",
"3  c gray21",
"4  c #373737",
"5  c gray22",
"6  c #393939",
"7  c #3A3A3A",
"8  c gray23",
"9  c #3C3C3C",
"0  c gray24",
"q  c #3E3E3E",
"w  c #3F3F3F",
"e  c gray25",
"r  c #414141",
"t  c gray26",
"y  c #434343",
"u  c #444444",
"i  c gray27",
"p  c #464646",
"a  c gray28",
"s  c #484848",
"d  c #494949",
"f  c gray29",
"g  c #4B4B4B",
"h  c #4C4C4C",
"j  c gray30",
"k  c #4E4E4E",
"l  c gray31",
"z  c #505050",
"x  c #515151",
"c  c gray32",
"v  c #535353",
"b  c gray33",
"n  c #555555",
"m  c #565656",
"M  c gray34",
"N  c #585858",
"B  c #5A5A5A",
"V  c #5B5B5B",
"C  c gray36",
"Z  c #5D5D5D",
"A  c gray37",
"S  c #5F5F5F",
"D  c #606060",
"F  c gray38",
"G  c #626262",
"H  c gray39",
"J  c #646464",
"K  c #656565",
"L  c #6D6D6D",
"P  c gray43",
"I  c gray44",
"U  c #717171",
"Y  c #727272",
"T  c gray45",
"R  c #747474",
"E  c gray46",
"W  c #767676",
"Q  c #777777",
"!  c gray48",
"~  c #7B7B7B",
"^  c #7C7C7C",
"/  c gray49",
"(  c #7E7E7E",
")  c #808080",
"_  c #848484",
"`  c gray52",
"'  c #868686",
"]  c gray53",
"[  c #8B8B8B",
"{  c gray58",
"}  c gray",
"|  c gray75",
" . c #C8C8C8",
".. c gray79",
"X. c gray80",
"o. c gray82",
"O. c gray83",
"+. c #D5D5D5",
"@. c #D8D8D8",
"#. c gray85",
"$. c #DADADA",
"%. c #DDDDDD",
"&. c gray87",
"*. c #E1E1E1",
"=. c #E2E2E2",
"-. c gray89",
";. c gray90",
":. c #E6E6E6",
">. c gray91",
",. c #E9E9E9",
"<. c gray92",
"1. c #ECECEC",
"2. c gray93",
"3. c #EFEFEF",
"4. c gray95",
"5. c #F3F3F3",
"6. c gray96",
"7. c #F6F6F6",
"8. c gray97",
"9. c #F9F9F9",
"0. c #FBFBFB",
"q. c gray99",
"w. c #FDFDFD",
"e. c #FEFEFE",
/* pixels */
"                                                                                                                                ",
"                                                                                                                                ",
"                                                                                                                                ",
"                                                                                                                                ",
"                                                                                                                                ",
"                                                                                                                                ",
"                                                                                                                                ",
"                                                                                                                                ",
"                                                                                                                                ",
"                                                                                                                                ",
"                                                                                                                                ",
"                                                                                                                                ",
"                                                                                                                                ",
"                                                                                                                                ",
"                                                                                                                                ",
"                                                                                                                                ",
"                                                                                                                                ",
"                                                                                                                                ",
"                                                                                                                                ",
"                                                                                                                                ",
"                                                                                                                                ",
"                                                                                                                                ",
"                                                                                                                                ",
"                                                                                                                                ",
"                                                                                                                                ",
"                                                                                                                                ",
"                                                                                                                                ",
"                                                                                                                                ",
"                                                                                                                                ",
"                                                                                                                                ",
"                                                                                                                                ",
"                                                                                                                                ",
"                                                                                                                                ",
"                                                                                                                                ",
"                                                                                                                                ",
"                                                                                                                                ",
"                r r                             g 1                             r u                             l 1             ",
"                7 7                             q =                             1 7                             r %             ",
"                7 7                             q =                             1 7                             r %             ",
"                < 7                             q %                             < 7                             q %             ",
"            g < O q                         n 1 O %                         g 1 . 7                         n 1 O %             ",
"            7 O 1 l                         u O 7 r                         7 O 7 l                         u O 1 r             ",
"            7 7 ....A A                     u 1 | o.u l                     7 q ....D A                     u 1 | O.u z         ",
"            7 r ,.:.u q                     r 7 &.7.O =                     7 r ,.:.u q                     u 1 &.7.O =         ",
"            7 r ,.:.u 7                     u 1 &.7.. =                     7 r ,.:.g 7                     u 7 &.7.O =         ",
"            q u ,.:.u q                     r 7 &.7.O =                     q u ,.:.u 7                     r 7 &.7.O =         ",
"        r 7 q V 2.:.u 7                 l 7 q z :.7.O =                 u 7 q V ,.:.u 7                 l 1 q z *.7.O =         ",
"        = . q A 2.:.u q                 7 O q n *.7.O =                 = . q A 2.:.u q                 q . q n *.7.O =         ",
"        % . q A 2.:.u q                 7 O q n *.7.. =                 = . q A 2.:.u 7                 7 O q n *.9.. =         ",
"        = . q A ,.:.z g                 q O q n :.7.< 7                 = . q A ,.:.z g                 q O q z *.7.< 7         ",
"        = . q A 2.9.:.X.V z             q O q n *.w.*.O.q r             = . q A 2.9.:.X.n l             q O q n *.w.&.O.r r     ",
"        = . q V $.2.w.*.r 1             q . q z o.,.w.7.. O             = . q V $.2.9.:.r 1             q . q n o.2.9.4.. O     ",
"        = . q g ) { ,.*.r 1             q O 7 g ^ [ w.4.. O             = . q l ) { 2.*.r 1             q O q u ! [ w.4.. O     ",
"        = O q g T ` ,.:.r 1             q O q g L ^ w.4.. O             = O q g T ) :.:.r 1             q O 7 g L ! w.7.O O     ",
"    z r q q r g L ` ,.*.r 1         A r q q r u L ! w.7.. O         z r q q q g T ` ,.*.u 1         A r q q r u L ^ w.4.. O     ",
"    < . r r u l T ` :.:.u 1         q O q r u g T ! w.4.O O         < . r r u g T ` :.:.r 1         q O q r u l L ! w.7.. O     ",
"    < . r r V A T ` :.*.r <         q O r u V A T ! w.7.. .         < . q r V D T ` :.*.r 1         q % q u V A T ! w.4.. O     ",
"    = . r r A K R ) :.&.g 7         r O q u A D T ! 7.2.= =         = . r r A K T ` :.&.u q         q O q u V K T ! 9.2.% =     ",
"    = . r r A K R R R ` ,.,.7 7     r O q u A K T T ! ^ w.9.= %     < . r r A K T R R [ ,.,.7 7     q O q u A D T R R ) w.9.= O ",
"    < O r r D K T R R [ ,.,.7 1     q % q u V D T T R ^ w.9.= O     < . r r A K T R R ` 2.,.7 1     r O q u A D T T R ^ w.w.= . ",
"O . r r r r A D D D R ` 2.,.7 . O O q r r u A K D D R ) w.w.= . . . r r r u A D D K T ` ,.2.7 . . O q r r u A D D D R ^ w.w.= . ",
". . r r u u A D D K T ` ,.2.7 . . . q r u u V D D D R ^ w.w.% . . . r r r r A D D K T ` 2.,.7 . . O q r r u A D K K R ^ w.w.= . ",
". . r r D D D D K K T ` 2.,.7 . . O q g A A D D D D R ) w.w.= . . O r r D D D D D K T ` ,.2.1 . . O q u A D D D D D ! ^ w.9.% . ",
". . r u D D D D D K R ` ,.,.7 . . . q u A D D K D K R ^ w.w.% . . . r r D D K D D D T ` 2.,.7 . O . q g A D K D D K R ^ w.w.= . "
};
