/* XPM */
static char *_3428861efb8420bf48849f3c96c0e3f1t3TJHGILLxBgJ7h[] = {
/* columns rows colors chars-per-pixel */
"64 64 111 2 ",
"   c None",
".  c #343535",
"X  c #353535",
"o  c #373635",
"O  c #363637",
"+  c #373737",
"@  c #383736",
"#  c #3F3F3E",
"$  c #3E3E3F",
"%  c #3F3F3F",
"&  c #403F3F",
"*  c #40403F",
"=  c #41403F",
"-  c #42413F",
";  c #44423F",
":  c #44433F",
">  c #664F2C",
",  c #67502C",
"<  c #67512E",
"1  c #68502C",
"2  c #68512C",
"3  c #69512D",
"4  c #69522D",
"5  c #69522E",
"6  c #6A532E",
"7  c #7C6137",
"8  c #7D6137",
"9  c #7D6237",
"0  c #7E6237",
"q  c #7F6237",
"w  c #7F6337",
"e  c #7D6238",
"r  c #7E6338",
"t  c #7F6338",
"y  c #7E6239",
"u  c #7E6339",
"i  c #7F6438",
"p  c #424140",
"a  c #434140",
"s  c #434240",
"d  c #444340",
"f  c #666767",
"g  c #676767",
"h  c #696866",
"j  c #696867",
"k  c #6A6967",
"l  c #676868",
"z  c #676869",
"x  c #686868",
"c  c #686869",
"v  c #686969",
"b  c DimGray",
"n  c #6A6968",
"m  c #6A6A68",
"M  c #6B6A68",
"N  c #806337",
"B  c #806338",
"V  c #806438",
"C  c #947341",
"Z  c #957341",
"A  c #957441",
"S  c #967441",
"D  c #977441",
"F  c #977541",
"G  c #957442",
"H  c #967442",
"J  c #977542",
"K  c #987542",
"L  c #9B814C",
"P  c #9D824C",
"I  c #9C824D",
"U  c #9E834C",
"Y  c #9E834D",
"T  c #9F834D",
"R  c #9D834E",
"E  c #9E834E",
"W  c #9F844D",
"Q  c #9E844E",
"!  c #9F854E",
"~  c #A0854D",
"^  c #A0844E",
"/  c #A0854E",
"(  c #AD8D53",
")  c #AB8B54",
"_  c #AC8D54",
"`  c #AD8D54",
"'  c #AC8D55",
"]  c #AD8E54",
"[  c #AD8E55",
"{  c #AE8E54",
"}  c #AE8F54",
"|  c #AE8E55",
" . c #AF8F55",
".. c #AD8E56",
"X. c #B09055",
"o. c #B09056",
"O. c #B3905D",
"+. c #B5925D",
"@. c #B4925E",
"#. c #B5925E",
"$. c #B6925E",
"%. c #B6935E",
"&. c #B7935E",
"*. c #B7945E",
"=. c #B7945F",
"-. c #B8945F",
";. c #B9945F",
":. c #B8955F",
">. c #B9955F",
",. c #B99560",
"<. c #BA9560",
/* pixels */
", , , > ` o.` ` ~ ~ W / 4 , , , P P ~ ~ Z A K K 1 1 1 , `  . . .^ ^ R ~ 4 1 > 1 Z Z A Z ~ ^ W ~ 4 , , , ` o.o.o.W W W ~ 4 , , , ",
", , > ` o.` o.~ W W / 4 , , > R ^ ~ ~ Z K A K 6 1 1 > (  . . .^ ~ P W 4 4 > , Z K A A ~ P ^ ~ 4 , , > ` ` o.` ~ W W ~ 4 , , ,   ",
", > ` ` o.o.W W W / 4 , > 1 R ^ ^ R A A V K 6 6 , > ( `  . .~ ~ ~ ~ 4 4 , 1 C A A A R R ~ ~ 4 , , > ` ` ` o.W W W ~ 4 , , ,     ",
"> ( o.o.` W W W ~ 4 , , 1 P ~ R ~ &.&.-.<.V V V 9 *.-.,.,.~ ~ ~ ~ 9 e 9 9 P W W W &.&.,.-.4 , , > ` o.o.o.W W W W 4 , , ,       ",
"` ` o.o.W W W ~ 4 , , , P W W W &.,.&.,.B N 9 9 &.&.-.-.~ ^ ~ / N 9 9 N R ~ ~ P ,.&.,.,.5 > 1 1 ` ` o.o.U W W ~ 4 , , ,         ",
"o.o.` W W W ~ 4 , , , L U ~ W *.,.&.,.e 9 9 9 &.&.,.&.^ ^ ^ _ V 9 N 9 P ~ R ~ -.,.,.,., 1 1 > ` o.o.` W W W ~ 4 , , ,           ",
"` ` ~ W W ~ 4 , , > &.&.*.*.-.-.,.,.4 1 4 1 &.,.,.,.^ ^ P ~ Z V Z A ~ R ~ P ^ ^ / / 4 > > > `  .` o.W W W ~ 4 , , ,             ",
"o.~ ~ W ~ 4 , , > &.,.&.,.-.-.-.,.4 1 > > &.&.,.&.~ R ^ ~ A A K Z ~ ~ P ^ ~ ~ R ~ 4 > 4 > `  . .o.W W W ~ 4 , , ,               ",
"W W W ~ 4 , , > &.&.-.-.-.-.-.,.4 , , > &.,.,.&.~ R ^ ~ A Z A Z ~ ^ R ~ ^ ^ R ~ 4 1 , , `  . . .W W W W 4 , , ,                 ",
"~ ~ ~ 4 , , > &.,.,.,.,.-.-.,.6 , , , ,.,.,.,.~ ~ ~ ~ A K D K ~ ~ ~ ~ ~ ~ ~ ~ 1 1 1 , (  . . .~ ~ ~ W 4 4 , 4                   ",
"n n 4 > , , p p p p n n m n 4 , , , d d p p g n k k B N N N p p - - g k n n 9 9 9 e - d d d g g n n o o o o                     ",
"n , > > 4 % % % % f n f n , , , 4 $ $ $ # f n f b e 9 9 N & % % & g g k b e 9 9 N = % # & g g b n + . o o                       ",
"< , , , # # # % z z z z < , , , % # % $ f z f b e 9 N N # # # % g g n z e e N N & # % % f f b b O . . .                         ",
"e e e _ _ _ _ _ ` ` ` B u e e O.O.&.O.` ` ..` B B e V K P R L ` ` ` ` V 9 e 9 ) _ _ ` E E E R e e e e                           ",
"9 e ` ` o.o.` o.o.o.B 9 9 e *.*.-.-.o.` o.o.B 9 e e ! ! R ~  . .o.o.V 9 9 9  . .` ` / ~ E / e e 9 9                             ",
"9 ` o.o.( o.o.o.o.u N 9 9 &.&.,.,.` o.o.o.u N e e ! ! ! ~  . . .o.u u 9 N `  . . .~ ~ R / B B B N                               ",
"` o.}  .~ R ~ ~ 4 1 1 , ` o.` o.*.-.-.-.V 9 N 9 `  . . . . .o.o.K A A Z &.-.-.-.o.o.o.o.6 1 1 4                                 ",
" . .o.P ~ ^ ~ 4 , 1 , ( o.` o.-.-.-.-.V w 9 N `  . . . . . .o.K Z A A &.-.-.-. .( ` o.4 , , ,                                   ",
" . .^ ^ ~ ~ 4 1 4 > ( o.o.o.*.-.-.,.V 9 9 9 ` o. . . . . .o.K A A K &.-.-.-. . .o.o.4 , , ,                                     ",
"-.~ R ~ ~ 9 9 9 9 ( ` o.` -.-.-.-.6 4 1 1 R W ~ ~  . . .o.V B 9 9 &.-.-.-.-.-.-.-.w 9 9 9                                       ",
"^ ^ R ^ e 9 9 N ` o.o.( &.,.,.,.4 , > 1 P ^ P ~  . . .o.N 8 N N &.-.-.-.,.&.,.,.V 9 N 9                                         ",
"R ^ ~ N e B 9 ` ` o.o.-.,.&.,.4 , , 1 P ~ ~ ~  . . .o.V 9 N N &.-.-.-.-.&.,.,.B 9 9 9                                           ",
"~ ~ N 9 N 9  . .` o.&.,.&.,.4 , , , P ~ R ~ ` o. . .N N N 8 ;.;.-.-.-.-.&.,.V 9 9 N                                             ",
"~ N N 9 9 P ^ ^ R &.,.,.,.4 , , , P P ~ ~  . . . .4 1 1 1 ~ ~ ~ ~ -.-.-.,.K A A Z                                               ",
"e 9 9 9 P ~ R ~ &.-.-.,.4 , , , P W W W o.` o.o.4 , , , K ~ ~ ~ &.,.-.,.K K A A                                                 ",
"N N 9 ^ ^ ~ ~ &.-.,.,.4 , , , P W W ~ ` o.` o.4 4 > > R ~ ~ ~ >.,.,.-.K A A K                                                   ",
"1 1 Z Z K A K K A K 4 4 > 1 P P W W ~ W W ~ 4 , > 1 P ~ ~ ~ K K K K A Z A A                                                     ",
"1 Z Z D A A A A K 4 1 > 1 P ~ ~ W W W W ~ 4 , , 1 P ~ R ( ~ V ~ Z A A K K                                                       ",
"A A A A A K A K 4 1 4 > P R ~ ^ W W W / 4 , , , P W ~ ~ A A K V K A A A                                                         ",
"W ~ ~ ( ` ` ` 4 1 > > `  . .} R W W ~ 4 , , > ` o.` ` W ^ ~ ( K Z Z K                                                           ",
"W ~ o.o.o.o.4 , > > `  . . .^ ~ W ~ 4 , , > ` o.o.o.W W R _ K K A K                                                             ",
"W ` ` o.o.4 1 1 > `  . . .~ P ~ ~ 4 , , > ` ` o.( ~ W W ~ V K V A                                                               ",
" . . .o.N 9 9 9 &.&.,.&.~ R ~ ~ 9 9 9 9 W W W U `  . . .V N N N                                                                 ",
" . .o.N 9 9 9 -.,.,.&.~ ^ ^ ~ N N 9 9 R W W W o.o. .o.B 9 9 9                                                                   ",
" .o.N 9 N 9 -.-.&.,.^ R ^ ~ N 9 9 9 W W W W o.}  .o.B 9 9 N                                                                     ",
"o.V N 9 9 &.-.-.&.^ ^ ~ ~ e 9 9 9 ^ W W U o.o.o.o.V N 9 N                                                                       ",
"A Z A Z -.-.-.>.~ ^ ^ ^ K Z A Z ~ ^ ~ P -.-.-.-.4 1 1 1                                                                         ",
"A K A &.-.-.-.~ ^ ^ ) V A A A ~ ~ P ~ -.-.-.>.6 4 1 ,                                                                           ",
"K A -.-.>.>./ ~ / ( K K A K ~ ~ ~ ~ &.-.-.-.6 1 , 4                                                                             ",
"N d d ; : M M M M K K V A ; - p - k n k M @ o o o                                                                               ",
"& & % % f z g n A A K K - # & # k z f n O o . .                                                                                 ",
"# # % z z z z A A K K & # # # g n z n o O . o                                                                                   ",
"O.&.` ..` ` u e 9 N O.&.O.&.R R R W e 9 e e                                                                                     ",
",.` ` o.o.V N 9 e &.&.-.,.R ~ R W e e e e                                                                                       ",
" . . .o.V e e 9 &.&.-.&.^ ^ R ~ B 9 9 9                                                                                         ",
"-.-.,.4 4 4 4 `  . . .~ R ~ ~ B 9 N 9                                                                                           ",
"-.,.4 > 4 > ( `  . .^ ~ ~ ~ B 9 9 N                                                                                             ",
",.4 4 > > `  . . .~ R R ~ B N 9 9                                                                                               ",
"4 > 4 > ( o.o.o.U ~ U ~ V V 9 N                                                                                                 ",
"4 > > ) ( o.` o.o.` o.6 1 1 4                                                                                                   ",
"4 > `  .` o.o.o.o.o.4 , , ,                                                                                                     ",
"> `  . .o.o.` ` o.1 1 , ,                                                                                                       ",
"                                                                                                                                ",
"                                                                                                                                ",
"                                                                                                                                ",
"                                                                                                                                ",
"                                                                                                                                ",
"                                                                                                                                ",
"                                                                                                                                ",
"                                                                                                                                ",
"                                                                                                                                ",
"                                                                                                                                ",
"                                                                                                                                ",
"                                                                                                                                "
};
