/* XPM */
static char *e870c2513dce457bdd08472f8dcf1c1cSskIerA2fZ6LSQTz[] = {
/* columns rows colors chars-per-pixel */
"64 64 104 2 ",
"   c None",
".  c #343535",
"X  c #353535",
"o  c #373635",
"O  c #383735",
"+  c #3F3F3E",
"@  c #3E3E3F",
"#  c #3F3F3F",
"$  c #403F3F",
"%  c #41403F",
"&  c #42413F",
"*  c #43413F",
"=  c #44433F",
"-  c #664F2C",
";  c #67502C",
":  c #67512E",
">  c #68502C",
",  c #68512C",
"<  c #69522D",
"1  c #69522E",
"2  c #6A522E",
"3  c #6A532E",
"4  c #7C6137",
"5  c #7D6137",
"6  c #7D6237",
"7  c #7E6237",
"8  c #7F6237",
"9  c #7F6337",
"0  c #7E6338",
"q  c #7F6338",
"w  c #7E6239",
"e  c #7E6339",
"r  c #424140",
"t  c #434140",
"y  c #666767",
"u  c #676767",
"i  c #696866",
"p  c #696867",
"a  c #6A6967",
"s  c #676868",
"d  c #676869",
"f  c #686868",
"g  c #686869",
"h  c #686969",
"j  c #6A6968",
"k  c #6A6A68",
"l  c #806338",
"z  c #806438",
"x  c #816439",
"c  c #947341",
"v  c #957341",
"b  c #957441",
"n  c #967441",
"m  c #977441",
"M  c #977541",
"N  c #957442",
"B  c #967442",
"V  c #977542",
"C  c #9D824C",
"Z  c #9E834D",
"A  c #9F834D",
"S  c #9D834E",
"D  c #9E834E",
"F  c #9F844D",
"G  c #9E844E",
"H  c #A0854D",
"J  c #A0844E",
"K  c #A0854E",
"L  c #AD8D53",
"P  c #AA8B54",
"I  c #AB8B54",
"U  c #AC8D54",
"Y  c #AD8D54",
"T  c #AC8D55",
"R  c #AD8E54",
"E  c #AE8E54",
"W  c #AE8F54",
"Q  c #AF8F54",
"!  c #AE8E55",
"~  c #AF8F55",
"^  c #AD8E56",
"/  c #B08F55",
"(  c #B09055",
")  c #B09056",
"_  c #B3905D",
"`  c #B4925E",
"'  c #B5925E",
"]  c #B5935F",
"[  c #B6925E",
"{  c #B6935E",
"}  c #B7935E",
"|  c #B6935F",
" . c #B7945E",
".. c #B7945F",
"X. c #B8945F",
"o. c #B9945F",
"O. c #B9955F",
"+. c #B69360",
"@. c #B99560",
"#. c #BA9560",
"$. c #C29C62",
"%. c #C29D62",
"&. c #C39E62",
"*. c #C39E63",
/* pixels */
"                                                                                                                                ",
"                                                                                                                              ; ",
"                                                                                                                            ; ; ",
"                                                                                                                          ; ; ; ",
"                                                                                                                        ; ; ; - ",
"                                                                                                                      ; ; ; - Y ",
"                                                                                                                    ; ; ; - Y Y ",
"                                                                                                                  ; ; ; - L ) ) ",
"                                                                                                                ; ; , - Y Y ) ) ",
"                                                                                                              ; , , , Y ) ) ) H ",
"                                                                                                            o o o o r r r r i i ",
"                                                                                                          o . o o @ @ # # i f f ",
"                                                                                                        . . . . @ @ @ @ u f f f ",
"                                                                                                      8 4 4 4 P Y Y L S S S G e ",
"                                                                                                    8 8 8 8 L ) Y ) S H S H e e ",
"                                                                                                  4 8 8 8 L ) ) Y F J J H l 8 l ",
"                                                                                                b b b n ....o.o.) ) ) ) 3 ; ; ; ",
"                                                                                              V b b b } o.....Y ) Y ) ; ; ; ; W ",
"                                                                                            x V b b } o...o.) Y ) ) , ; ; - L ) ",
"                                                                                          x 0 8 8 } o.o.o...o.o...8 8 8 8 ......",
"                                                                                        8 8 8 8 } ....o...o.o.@.0 4 8 8 } ....o.",
"                                                                                      x 8 8 4 ....o.o...o...o.z 8 8 8 } ....o.F ",
"                                                                                    x z l 8 ..o.o.o.o.o...@.z e 8 8 } o.o.} H S ",
"                                                                                  > 3 3 > S H H H +.o...@.b b b c ..o.o.o.H S H ",
"                                                                                ; ; ; ; C F H H } o.o.$.V V V x } ..} @.J J A H ",
"                                                                              , ; ; ; C F F H o.o.o.o.M V V V } ....@.H S J H l ",
"                                                                            , ; ; ; A F F P M M M M M M V V ..o.o.o.H F H H , , ",
"                                                                          ; ; ; ; A F F F x M M M M M H x O...o.o.F F F H , ; , ",
"                                                                        ; ; ; ; A F F F n n n n m n n n } o.o.o.H F H H , ; ; ; ",
"                                                                      ; ; ; ; L / / L F S J J n m m n / ) ) L ) Y ) ) , , ; - S ",
"                                                                    ; ; ; ; Y ) ( / H H H J b M b M Y / ) L ) Y ) ) > > - - S J ",
"                                                                  ; ; ; ; L Y ) ) H H H P x M b M Y Y / ) Y ) ) ) , ; ; > A H S ",
"                                                                8 8 4 8 F F F F L ) ) ) z 8 0 0 F F F F ..o...o.e 8 4 4 L W ) L ",
"                                                              8 4 8 4 F F F F Y / ) ) 0 8 8 4 A F F F ....o.o.z 8 8 8 L ) ) ) ) ",
"                                                            8 8 8 8 S F F F ) ) Y ) z 8 8 4 F F F F ....o.@.z 8 8 0 L ) L ) L ) ",
"                                                          8 8 8 8 S F F F ) ) L ) z 8 e 8 F F F F ....o.o.e 8 8 4 L ) ) ) ) L ) ",
"                                                        b b b b F F F F ......o., , , ; b M b M L ( ) ) b b b b F F H H ) ) L ) ",
"                                                      b M b b H F F F ......o., ; ; , n b b M Y L ( ) M M b b H F F A ) L ) ) b ",
"                                                    M M b b F F H H o.o.@.@.3 ; > ; b M M M ) ) ) ) M M b M H H H H ) ) ) ) b M ",
"                                                  O O O O * * r r i k k k ; ; ; > * * * * i f i i b M b M t t r * i k f i e z z ",
"                                                . o . . @ @ # # s f f f ; ; ; ; # # # # s s s f b M b b * # # @ y i d d e 8 8 8 ",
"                                              o . . . @ @ @ # u f f f ; ; ; ; # # # @ u s s s b M M M @ @ @ @ d s s d e 8 8 8 @ ",
"                                            8 4 4 4 _ } } } S S F F e e 8 8 P Y P Y +.` ....0 0 l l ` ` ` ` P ) Y Y z 8 8 8 ` ` ",
"                                          8 4 8 e } } o.} F F F F 0 0 e 8 L ) L ) ....+.o.0 8 8 8 } ......) ) ) ) e e 8 8 } ....",
"                                        8 8 8 8 ..@...@.F F F F e e 8 4 L ) W ) o...o.o.z 0 8 8 } ..o...) ) ) ) 0 8 8 8 ` ....o.",
"                                      ; ; , ; P Y ) Y H F F F e 8 8 8 ......o.....o.o.z 8 0 8 ..} ..o.H F F F , ; ; ; L Y ) ) ..",
"                                    ; ; ; ; Y ) Y ) F F F H 8 8 8 8 ......o...o.o.o.z 0 8 8 ` ..o.} H S F K , ; ; ; L ) ) L ....",
"                                  ; ; ; ; P ) ) ) F F H H e 8 8 8 ` ....o...o...@.e 0 0 8 ......o.J J H H , ; ; ; L ) L ) o...o.",
"                                ; ; ; - Y Y ) ) F H F H l l 8 8 } ..o.@.+.@.@.@.0 8 8 0 ....o.o.H H J H , , - - Y Y ) ) ......o.",
"                              ; ; ; - Y ) ) L ) L ) ) , , , - } ..o...) / / / M b b b Y W ) ) F J S H , > - - } @.@.o.$.$.$.&.3 ",
"                            ; ; ; - Y Y Y Y ) ) ) ) , , - - } } o...Y ) Y ) M b b b Y ) ) L F F H H , , - - } @.} ..$.$.$.$.3 ; ",
"                          ; ; ; ; L ) ) ) ) ) L ) , , , - } +.@.@.Y / ) ) M M b M Y L ) ) F F H K , - , - } +.@.@.$.$.$.*.3 ; ; ",
"                                                                                                                                ",
"                                                                                                                                ",
"                                                                                                                                ",
"                                                                                                                                ",
"                                                                                                                                ",
"                                                                                                                                ",
"                                                                                                                                ",
"                                                                                                                                ",
"                                                                                                                                ",
"                                                                                                                                ",
"                                                                                                                                ",
"                                                                                                                                "
};
