/* XPM */
static char *_d9917db702d40148a34feb1fd71f3edsbukvj63PeeOkIMt[] = {
/* columns rows colors chars-per-pixel */
"64 64 105 2 ",
"   c None",
".  c #343535",
"X  c #353535",
"o  c #373635",
"O  c #383735",
"+  c #3F3F3E",
"@  c #3E3E3F",
"#  c #3F3F3F",
"$  c #403F3F",
"%  c #41403F",
"&  c #42413F",
"*  c #43413F",
"=  c #44433F",
"-  c #664F2C",
";  c #67502C",
":  c #67512E",
">  c #68502C",
",  c #68512C",
"<  c #69522D",
"1  c #69522E",
"2  c #6A522E",
"3  c #6A532E",
"4  c #7C6137",
"5  c #7D6137",
"6  c #7D6237",
"7  c #7E6237",
"8  c #7F6237",
"9  c #7F6337",
"0  c #7E6338",
"q  c #7F6338",
"w  c #7E6239",
"e  c #7E6339",
"r  c #7F6438",
"t  c #424140",
"y  c #434140",
"u  c #434240",
"i  c #444340",
"p  c #666767",
"a  c #676767",
"s  c #696866",
"d  c #696867",
"f  c #6A6967",
"g  c #676868",
"h  c #676869",
"j  c #686868",
"k  c #686869",
"l  c #686969",
"z  c #6A6968",
"x  c #6A6A68",
"c  c #806337",
"v  c #806338",
"b  c #806438",
"n  c #816439",
"m  c #947341",
"M  c #957341",
"N  c #957441",
"B  c #967441",
"V  c #977441",
"C  c #977541",
"Z  c #957442",
"A  c #967442",
"S  c #977542",
"D  c #9D824C",
"F  c #9E834D",
"G  c #9F834D",
"H  c #9D834E",
"J  c #9F844D",
"K  c #9E844E",
"L  c #A0854D",
"P  c #A0844E",
"I  c #A0854E",
"U  c #AD8D53",
"Y  c #AA8B54",
"T  c #AB8B54",
"R  c #AC8D54",
"E  c #AD8D54",
"W  c #AC8D55",
"Q  c #AD8E54",
"!  c #AE8E54",
"~  c #AE8F54",
"^  c #AF8F54",
"/  c #AE8E55",
"(  c #AF8F55",
")  c #AD8E56",
"_  c #B09055",
"`  c #B09056",
"'  c #B3905D",
"]  c #B4925E",
"[  c #B5925E",
"{  c #B5935F",
"}  c #B6925E",
"|  c #B6935E",
" . c #B7935E",
".. c #B6935F",
"X. c #B7945E",
"o. c #B7945F",
"O. c #B8945F",
"+. c #B9945F",
"@. c #B9955F",
"#. c #B69360",
"$. c #B99560",
"%. c #BA9560",
"&. c #C29C62",
"*. c #C29D62",
"=. c #C39E63",
/* pixels */
"                                                                                                                                ",
"                                                                                                                                ",
"                                                                                                                                ",
"                                                                                                                                ",
"      ; ; ;                                                                                                                     ",
"8 , , , ; ; , ,                                                                                                                 ",
"8 8 8 , , ` , ` ` ^                                                                                                             ",
"8 8 0 0 I ` ` ` ^ ^ ^ `                                                                                                         ",
"I I I K K K K ^ ^ ^ ` ^ ` `                                                                                                     ",
"I K G G I K ^ ^ ^ ` ^ ` T T ^ -                                                                                                 ",
"L P P P ^ ^ ^ ^ ` ^ ^ - - ; - -                                                                                                 ",
"P +.$.#.^ ^ T ^ ^ T - - ; ; ; - , ,                                                                                             ",
" .' +.X. . .0 - , ; ; ; ; ; 1 1 , =.=.*.                                                                                        ",
"@ $ ' 8 8 8 8 8 0 , 1 1 $.$.$.$.*.*.*.*.*.*.                                                                                    ",
"C $ C C 0 v 0 0 b ` ^ $.+.+.#.$.+.+.*.#.+.+.#.+.                                                                                ",
"C Z C C Z Z 0 ` ` ^ ^ ^ ^ +.+.#.+.#.^ ^ $.X. . . . .-                                                                           ",
"Z Z C Z g j g g ^ ^ ^ T #.#.^ ^ ^ ^ ^ ^ ^ W  .- - , - , ,                                                                       ",
"G L I s s j j a a @ #.#.$.X.#.^ ` ^ W ^ - - - - - , , , , I K                                                                   ",
"J G J L I s u @ @ $ @ @ X.$.X. .0 - - - , , - , , I I G I G K P I                                                               ",
"J I +.I +.$.$.i i i % $ ' '  .0 0 0 0 > , , I , I L K P I I I ~ ^ ^ ^                                                           ",
"I +.+.#.+.+. .$.#.i v c 8 8 0 0 4 0 0 0 ` I P P K K I P I $.^ ^ ^ ` ^ ` Z                                                       ",
"+.#.X.X.+. .Z C Z V c c 8 8 0 v 0 ` ` ^ ` ^ ^ G I G +.+.+.#.#.X.^ ^ W Z V Z S                                                   ",
"+.X.X.8 4 8 8 m C Z S v 0 0 j j g g W ` ^ ^ $.#.X.$.#.X.X. .X.8 8 8 Z Z Z Z S S `                                               ",
" .8 4 8 8 8 8 8 ^ S S S ^ j x j g g g @ ^  .#.$.$.X. . .8 0 8 8 8 5 0 0 Z ` ` ^ ^ ^ ^                                           ",
"; 4 4 0 0 v v ` ` ` ^ ` ^ ` ` j a y @ @ = = @.+.+. .8 8 8 8 8 8 0 #.b $.$.$.^ ^ ` ` X. .$.                                      ",
"; ; , ` ` ^ ^ ^ ^ ` ` ^ ^ ^ K K P y % % = i = C c c 8 8 0 8 0 0 $.$.X.+.$. .$.#.` +.X.$.X.+. .                                  ",
"^ ` ` ` ^ ^ ^ ~ ^ ` ^ ` ^ G K G G L I = L n C C Z C 8 c #.$.+.#.+.+.+.+.$. .+. .#.+.#.X. . .- - ,                               ",
"m ^ ^ ` ^ ^ I K ` ^ ` ^ ^ ^ ~ G n P C S n S C C Z g g a #.#. . .+.+.^ #. .$. .$.X.X.X.4 - , ; ; ; ; ,                           ",
"C C Z ^ G G J ~ W ^ ` ^ ^ T ^ 8 n S C C C C S _ j x j j j s  .^ T ^ ^ ^ ^ #. .0 8 8 8 8 v v b , ` ` ^ ` `                       ",
"C m C C C K K K I S ^ 0 0 0 8 8 n n b S ` ` _ _ ^ ^ j s a @ @ @ @ T T ^ ^ ^ 8 8 8 8 8 0 0 I v I K ^ ` ^ ^ W ^ `                 ",
"Z C m C m m D D 1 : ; ; 0 0 0 0 n @.@.+.$.` ` X.^ ^ V S u % $ @ @ # ; 4 4 8 8 8 c 0 c I I P K I G H ^ ` ^ ` ^ ` ^ ^             ",
"G G m ; - ; ; ; : : ; ; ; ` #.+.@.@.+.+.X.#.K n V Z V S C Z = > ; ; ; ; ; 4 0 0 I I K K G G K G G ^ ` ^ ` ^ W ^ W ^ - ,         ",
"H 8 8 8 , - - , , , , , ` ` ^ ^ +.+.@.%. .L L L G Z Z Z - , - , ; ; , ; : l l K K K K K K +.^ ^ ^ ^ ` ^ ^ ^ - - - - ; ; ; ;     ",
"8 8 8 8 c , , , I I I ^ ^ ^ ^ _ ^ _ L L L L L L G G 8 , , - , 1 1 $., j j j j l p K  .+.+.+.#. .^ ^ W - - ; - - ; ; ; ;         ",
"4 9 c I v I I I I I P P I ^ ` ` ^ ^ _ _ L L L c 8 8 0 0 v , 1 1 $.#.+.$.j j j g # @ @  . .#.#. .+.4 - , ; ; ; ;                 ",
"I K I K I G K K P P P +.%.#.+.` ^ ^ _ C C n n n 4 8 b v ` ` ^ $.$.$.+.X.+.K u u # # @ @ @ ` 0 8 5 0 0 0 , , ;                   ",
"K I J J G I P G P +.+.+.+.+. .&.V ^ V V C C n C 0 ^ ` ` ^ ^ ^ ^ ~ X.J J I L L L % % @ . . . . 8 5 8 8                           ",
"I K I J P P +.+.+.+.+. .+.+.n C V V V Z L n S ^ K K ^ ^ ^ ^ K ^ J J J J I K Y n C C O O O . . .                                 ",
"^ +.+.+. .$.#.X. . . .C V Z Z Z Z V Z V S Y G I I K I G ^ G K G J J G J J L C C C C C C O O                                     ",
"^ ~ +.+.$.X.X. .8 8 Z m Z Z Z C V S V Z n Z C K G ^ ^ ^ ^ ~ L G G G 8 8 8 9 b S m C C                                           ",
"^ ^ #. . . .8 8 8 8 4 b C $.C $.$.$.$.C C C G K K ~ ^ ~ ` ~ ~ - 4 4 4 8 8 8 8 8                                                 ",
"T ^ ^ ; - 0 4 8 8 0 0 b $.#.$. .+.+.$.+.G K I K G G G Y ~ - - - ; ; 9 4                                                         ",
"- , - , ; ; ; 0 $.$. .$.+.$. .$. .G K P J G G G G G ; ; - - , , ; ; ;                                                           ",
"0 8 , , , ` ` ` ^  .$. .+.X.$. .+.+.I P J D G - ; ; ; ; - - -                                                                   ",
"v 0 v I ` ` ` ^ ^ ^ $.+.X.$.+.#.X.] X.4 ; ; ; ; ; ; ; ;                                                                         ",
"K I K K K I ^ ^ ^ +.#.$.$.X.X.' X.X.8 8 8 8 , ; ;                                                                               ",
"j G H K H ^ ^ ^  .#.+. .X. .C 8 9 8 8 8 8 8 9                                                                                   ",
"g g @ T ^ ` ^ ^ ^ ^  .Z Z C C m C 9 9 8                                                                                         ",
"u @ @ @ @ W T ^ 0 5 8 8 m m C m                                                                                                 ",
"y y u @ @ y . 4 4 5 8 8 8 8 C                                                                                                   ",
"^ ^ u . . . . . . 8 4                                                                                                           ",
"- - > , , O O .                                                                                                                 ",
", - - , ,                                                                                                                       ",
"- , ,                                                                                                                           ",
"                                                                                                                                ",
"                                                                                                                                ",
"                                                                                                                                ",
"                                                                                                                                ",
"                                                                                                                                ",
"                                                                                                                                ",
"                                                                                                                                ",
"                                                                                                                                ",
"                                                                                                                                ",
"                                                                                                                                "
};
