/* XPM */
static char *_ce8618be2f24cd58a97563cd5118c78y9YaRtodDd7HWonm[] = {
/* columns rows colors chars-per-pixel */
"64 64 106 2 ",
"   c None",
".  c #343535",
"X  c #353535",
"o  c #373635",
"O  c #363637",
"+  c #373737",
"@  c #383736",
"#  c #3F3F3E",
"$  c #3E3E3F",
"%  c #3F3F3F",
"&  c #403F3F",
"*  c #40403F",
"=  c #41403F",
"-  c #42413F",
";  c #44423F",
":  c #44433F",
">  c #664F2C",
",  c #67502C",
"<  c #67512E",
"1  c #68502C",
"2  c #68512C",
"3  c #69512D",
"4  c #69522D",
"5  c #69522E",
"6  c #6A532E",
"7  c #7C6137",
"8  c #7D6137",
"9  c #7D6237",
"0  c #7E6237",
"q  c #7F6237",
"w  c #7F6337",
"e  c #7D6238",
"r  c #7E6338",
"t  c #7F6338",
"y  c #7E6239",
"u  c #7E6339",
"i  c #7F6438",
"p  c #424140",
"a  c #434140",
"s  c #434240",
"d  c #666767",
"f  c #676767",
"g  c #696866",
"h  c #696867",
"j  c #6A6967",
"k  c #676868",
"l  c #676869",
"z  c #686868",
"x  c #686869",
"c  c #686969",
"v  c DimGray",
"b  c #6A6968",
"n  c #6A6A68",
"m  c #6B6A68",
"M  c #806337",
"N  c #806338",
"B  c #806438",
"V  c #947341",
"C  c #957341",
"Z  c #957441",
"A  c #967441",
"S  c #977441",
"D  c #977541",
"F  c #967442",
"G  c #977542",
"H  c #987542",
"J  c #9B814C",
"K  c #9D824C",
"L  c #9C824D",
"P  c #9E834C",
"I  c #9E834D",
"U  c #9F834D",
"Y  c #9D834E",
"T  c #9E834E",
"R  c #9F844D",
"E  c #9E844E",
"W  c #9F854E",
"Q  c #A0854D",
"!  c #A0844E",
"~  c #A0854E",
"^  c #AD8D53",
"/  c #AB8B54",
"(  c #AC8D54",
")  c #AD8D54",
"_  c #AC8D55",
"`  c #AD8E54",
"'  c #AD8E55",
"]  c #AE8E54",
"[  c #AE8F54",
"{  c #AF8F55",
"}  c #AD8E56",
"|  c #B09055",
" . c #B09056",
".. c #B3905D",
"X. c #B4925E",
"o. c #B6925E",
"O. c #B6935E",
"+. c #B7935E",
"@. c #B7945E",
"#. c #B7945F",
"$. c #B8945F",
"%. c #B9945F",
"&. c #B8955F",
"*. c #B9955F",
"=. c #B99560",
"-. c #BA9560",
/* pixels */
"                                                                                                                                ",
"                                                                                                                                ",
"                                                                                                                                ",
"                                                                                                                                ",
"                                                                                                                                ",
"                                                                                                                                ",
"                                                                                                                            q q ",
"                                                                                                                      q q q q q ",
"                                                                                                                q 7 q q 7 e q i ",
"                                                                                                        o   o . . 7 q e i R R R ",
"                                                                                                      4 4 o @ o O . O e R R R R ",
"                                                                                              q , 4 , , 2 , 4 @ n n l l l l Y R ",
"                                                                                        q q q q q q 2 4 4 =.=.=.=.n n j l d % % ",
"                                                                                    D q q q q q B  .B  .$.@.=.@.@.@.R - a % % $ ",
"                                                                              D D C D C D q i 9  . . .{ { { @.@.=.R R ~ R - - - ",
"                                                                        D D D C C D C D R R R  .{ { { {  .R R R R R R R R R C D ",
"                                                                D   D C C D C C C D R P R R R R R ^ ~ R R R R R R P R D C D C D ",
"                                                              Z C D C D H C D H D C D D R R R { { {  .R R R P e e e q e D V D C ",
"                                                      q q q q q D V C H =.=.=.S D D D C D P { { { { ^ ^ ( P q q q q q i i R C R ",
"                                                , 7 q q q q 7 i i =.=.=.+.=.=.=.=.F R R R R R R { ^ > > , , , e e q i R R R R R ",
"                                            4 > 2 2 > q e $.=.=.=.=.@.=.$.$.~ Q P R R R R K K , , , , , , , 4 4 ~ ~ P ~ R P R ~ ",
"                                      e q q 2 2 4 > 4 4  .$.$.=.=.o.=.o.$.$.+.~ ! R P P , K , , , , , 4 4 ~ R ~ ~ P ~ P ~ =.=.=.",
"                                o . 7 7 q e q M ~  .{ {  . .{ o.$.$.$.$.$.$.+.+.o.P , > > , , 4 4 R 4 ~ ~ R R R P ~ { { { o.o.=.",
"                        4 o o o . . . o e R ~ R ~ ~ P { { { =.@.$.$.$.$.=.o.+.q e N e 4 4 , 4 4  .{ R R R R R R P { { { { { { o.",
"                      , , 4 , o o + + n z z P P P P P } { @.@.@.$.$.o.D e q q q e e M N  . .{ { { { { { R R R R ~ P P  .^ ^ > > ",
"              , , , , , , , 4 4 R n n l z d l l T { {  .{  .{ o.C o.C D D D q i i  . . .{ { { { { { R R R R R R P P P > > 4 > > ",
"        , , , , , , , 4 4 ~ ~ R ~ ~ ~ j j d % % $ $ { /  .( q q q D Z V D D D  . .{ { { { { R { R R P R R P P > 4 4 > 1 > 1 4 4 ",
"    , , , , , , 4 ~ ~ ~ ~ R R R P P {  . .a a & $ a & e q 7 q q q q i D  . .{ { { { { { { R R R R R P P P J , , > > > 4 4 4 H C ",
", , , , 4 , 4 4 ~ ~ R R R R P P ~ { { { {  .^ ; e e 9 q q q q i i  .{  .{ { { { { { { { P Q Q ~ R P > , , , , , , , , =.H H C D ",
"    , 4 ~ ~ R R R R R R R { { { { {  .^ { ^ > > , q q e e l e l } ( {  .{ { R { { { { {  .^ P 4 , , , , , , 4 4 =.=.=.=.=.=.D D ",
"        ~ R R R R R { { { { { { { ^ { > > > 2 2 , , 4 q n j l f l l } } J R R R P { ( ( { q e e , 4 , 5 =.=.=.=.=.=.=.o.=.~ P ~ ",
"            R { { { { { { { { > > > > > > > > 4 ~ ~ R ~ R n j j l $ $ $ J J J R P P q q q q e B B B 5 =.=.=.o.=.o.=.{ =.P P ~ P ",
"                { { { { > ( , , , , , , , =.R R ~ R R R R R R - - - % % % * J q q q q q q q e =.=.o.=.@.+.=.+.+. .{ { { { P P P ",
"                      > , , , , 6 , , =.=.=.=.=.~ R R R R R R R R R ; M q q q q e e e B  . .{ =.@.=.o.=.o.{  .{ { { { { { ^ e e ",
"                          , 6 4 R Y R R =.@.=.o.=.R R R R R R R R R D C 9 e q e e l l { (  .{ { { @. .{ { { { { { ^ 8 q q q e q ",
"                              R R R R R R Z R R R R R R R R Z Z D D D D H D e n n f l l l ( (  .=.$.$.{ { { ^ > { > 8 q q q e N ",
"                                  R D D D C D C R R P q q 7 q Z C C C C R ~ ~ Q m j j f l $ $ X.X.o.$.$.@.q 4 2 , , , 4 q e R R ",
"                                      D C D V V , , 7 7 q q q i Q Q Q Q R R R ~ ~ =.a a % $ $ $ % X.e e q q e e , 4 4 R R R R R ",
"                                          D , , , , , 4 q q e ~ Q Q Q Q Q ~ $.~ $.$.=.=.a - & 4 > , , e q e i i  . .R R R R R R ",
"                                              , , , 4 R ~ ~ ~ R Q P Q Q +.$.$.$.$.$.o.o.o.> , , , , , , l ( {  .{  .{  .R  . . .",
"                                                  ~ R R R R R R ! =.=.=.=.@.=.o.o.o., , , , , 5 , , , n n d l { (  .{ { { { { { ",
"                                                      R R R { { { { =.o.@.o.q q e , , , , 4 4 =.=.=.n m l l d d % ( ( { { { { { ",
"                                                          { { {  ./ / > o.q q q q q i 6 =.=.=.@.=.=.$.$.z - * * % % % { / ^ 7 q ",
"                                                              { ^ > > 1 , , q e i i =.=.@.=.o.=.=.=.$.$.=.$.a ; - % > > > 7 7 q ",
"                                                                  1 , , , 4 4 C @.@.o.=.=.o.=.o.o.@.=.o.$.o.o.o.s , , , , , < e ",
"                                                                      4 H C D C C D @.o.R R R R R =.@.=.o.> , , 4 , , , , , l i ",
"                                                                          D C D D R R R R R R R J P , > , , , , > 4 4 ~ n j n l ",
"                                                                                P R R R R P P > , , , , , , 4 ~ ~ R ~ P ~ ~ n l ",
"                                                                                    P P P , , , , , 4 4 ~ 4 ~ ~ R R R R R ~ j z ",
"                                                                                        > , , , , 4 ~ R R R R R R R R { { {  . .",
"                                                                                            4 ~ ~ R R R R R P P { { { { {  .^  .",
"                                                                                                R R R R R { { { { { { { { ^ ^ > ",
"                                                                                                    R  .{ { { { { ^ > { ^ ^ > > ",
"                                                                                                        { { { { > > > > > 4 4 > ",
"                                                                                                            > , > > , , > 4 > > ",
"                                                                                                                , > , ,         ",
"                                                                                                                    ,           ",
"                                                                                                                                ",
"                                                                                                                                ",
"                                                                                                                                ",
"                                                                                                                                ",
"                                                                                                                                ",
"                                                                                                                                ",
"                                                                                                                                "
};
