/* XPM */
static char *cd91387d3c494598bdfb7a04008dc69bKuUVHYiQHu0XvwkJ[] = {
/* columns rows colors chars-per-pixel */
"64 64 127 2 ",
"   c #2D1A1A",
".  c #341E1E",
"X  c #262524",
"o  c #3A2121",
"O  c #302F2D",
"+  c #343331",
"@  c #3E3D3B",
"#  c #441D1D",
"$  c #481F1F",
"%  c #45201D",
"&  c #48221F",
"*  c #4B2120",
"=  c #542323",
"-  c #5C2424",
";  c #5F2925",
":  c #5E2828",
">  c #403F3C",
",  c #622726",
"<  c #682723",
"1  c #622A26",
"2  c #6D2926",
"3  c #642928",
"4  c #6C2B2B",
"5  c #742C25",
"6  c #7B2C24",
"7  c #732E2C",
"8  c #782F2A",
"9  c #6E312C",
"0  c #74322D",
"q  c #7C322C",
"w  c #7E392F",
"e  c #763230",
"r  c #793332",
"t  c #41403D",
"y  c #474643",
"u  c #504E4C",
"i  c #53514E",
"p  c #6C6966",
"a  c #6E6D69",
"s  c #706E6B",
"d  c #74736F",
"f  c #802F27",
"g  c #83342C",
"h  c #8A362C",
"j  c #85382F",
"k  c #8E392F",
"l  c #9A3625",
"z  c #9D3927",
"x  c #953C2D",
"c  c #993E2E",
"v  c #833631",
"b  c #843B31",
"n  c #8A3A32",
"m  c #913B31",
"M  c #923D32",
"N  c #9C3F30",
"B  c #A23E2A",
"V  c #99402F",
"C  c #9C4332",
"Z  c #A5422D",
"A  c #A4422F",
"S  c #A7442F",
"D  c #A8452F",
"F  c #A64A2E",
"G  c #A04330",
"H  c #A34532",
"J  c #A74531",
"K  c #A74631",
"L  c #A44532",
"P  c #A44732",
"I  c #A94630",
"U  c #A84632",
"Y  c #A94632",
"T  c #AA4732",
"R  c #A74832",
"E  c #A64833",
"W  c #AA4831",
"Q  c #A94933",
"!  c #AB4832",
"~  c #AB4932",
"^  c #AA4933",
"/  c #AB4933",
"(  c #AB5132",
")  c #C3563F",
"_  c #C35E3F",
"`  c #846B66",
"'  c #856E69",
"]  c #87726C",
"[  c #89746E",
"{  c #8B7771",
"}  c #8B7772",
"|  c #8D7D77",
" . c #8E7C76",
".. c #8F7F79",
"X. c #90817B",
"o. c #91837D",
"O. c #938680",
"+. c #948983",
"@. c #958B84",
"#. c #958B85",
"$. c #958D87",
"%. c #978E88",
"&. c #97908A",
"*. c #99948D",
"=. c #9B9790",
"-. c #9B9891",
";. c #B49286",
":. c #B89E91",
">. c #B9A38F",
",. c #B9A592",
"<. c #B9A495",
"1. c #BAA799",
"2. c #BBAB9C",
"3. c #BCAE9F",
"4. c #BDB09F",
"5. c #BCB1A2",
"6. c #BEB3A3",
"7. c #BEB5A5",
"8. c #BEB4A7",
"9. c #BFB6A7",
"0. c #BEB7A9",
"q. c #BFB8AA",
"w. c #BFB9AA",
"e. c #BFB9AB",
"r. c #C0B9AB",
"t. c #C0BAAC",
"y. c #C0BBAD",
/* pixels */
"-.1 : r q r r r r r r r r r v r v r r r r r r r r r r r r r e.e.e.e.r r r r r r r r r r r e r r r r r r r r r r r v b b n n y.-.",
"1 : 3 / ! ! / / / / m m V V m r r r r v v r v e r m m m r n M e.y.r ) ) ) ) r r r r r r r r r r r r r r r / r v ^ n b n r r : -.",
"1 R / / / ! / / Y V / / m R E E / Y ^ ^ / / Y / M M V ^ n C C e.r ) ^ / / / / / ) / R / Y / / / / / Y r ^ / R R ^ H n r r r : y.",
": / / / ! / / / / / R I / m ^ ^ / / E E R / / / ^ m Y ^ E C n e.r _ ^ ^ ) / / / / / R / ) Y Y J / / / Y ^ ^ ^ n ^ R n n n r : y.",
": / D / I / m / ! ! ! Y V E M M M M T ^ T T P J ^ / J R m m M e.r / Y Y / / / / ^ / ^ ^ Y / Y Y Y J n J / / Y / Y J n n n r r e.",
": Y / Y S x m m Y ! m ! n V M n T M M T H T T J J J H R V r V e.r / / / / n U / ^ ^ J ^ J ^ Y J R / n H R n Y J J / / N n r r y.",
": / n m n x n n x n x m m n M M M m m M M ^ J J R R r m n r V e.r / / v / n n E J n n / n / n n b J n n b v n n n n n n n N v 0.",
"- V k k D k k k k k n k m M r n m n m m m n m m n m r r r r r e.r Y L L / n / n n n / v n n v n n n v n n n v n n v v n n v r 8.",
"= n k h h x 7 n k 7 k n k e 7 e e k k m B m m r n m r r r r r e.r L v / v v Y v n n v n n h v n r r r v v v v v v v v v v v v #.",
"= h h h h n 7 7 7 7 7 n k k k 7 v 7 h k 7 r 7 v q e 7 e 7 0 0 e.r H v v v v n v v n v j Y v v e 7 7 v 7 g v g g v r B f 8 f r #.",
"= 7 h h h h h h 7 7 7 7 h h h h e e e 4 7 7 e e 0 7 e = 7 7 0 r.e N v 7 v 7 v v g v g v v g 7 7 4 7 7 7 7 4 7 4 4 r 8 7 6 8 = #.",
"= 7 h 4 7 v 4 7 7 4 7 0 7 v 7 7 4 e 4 e 7 e 7 7 7 7 7 = - e = 9.e k g 7 7 7 f 4 7 4 g 8 8 r 4 4 4 4 4 3 = 3 3 3 3 3 8 , 8 , { +.",
"= 4 4 4 v h 4 7 4 4 4 9 h 4 7 4 = * = 4 4 7 4 9 4 4 4 7 4 = = w.7 8 8 4 q 4 4 4 4 4 4 8 8 4 3 3 3 3 * * , $ $ , , , , , , 2 , #.",
"= 4 4 g 4 4 4 4 4 4 = = = * = = = = = * = 4 4 4 7 7 7 7 0 - ; e.e 7 7 r 3 8 4 3 , , , , , , , * , $ $ $ : $ $ : - - : = , - # #.",
"<...7 4 9 = = = : = = = = = = o.@ @ > > : : : o o : = = = = o.a ..7 7 4 7 4 4 , , 3 , 3 3 3 4 3 = . . = = = . = 4 4 4 4 , = = ..",
"=.=.=.=.-.-.e.e.e.e.e.y.y.e.e.-.-.-.-.-.-.=.-.e.e.y.-.-.-.-.d d d =.r.q.y.r.=.=.=.=.=.y.y.y.r.y.y.y.y.0.y.y.e.y.y.y.y.y.+ + =.=.",
"e r r r r , + y -.r r r r r r r r r q r r e r r q r r r r / ~ ~ r q r n r r r -.r r ! ! r r r r Y / / / q r r r r r q r / / r r ",
"T T ! r r r r + -.r r ) ) ) ! ! ! ! ! ! / / / / ! ! / / / / ~ ! / / / n / n r =.r ! ! ! ! ! r ! Y / / Y ! ! r / / / ! ) / / / / ",
"T ^ / ! Y r r r =.r Y / / ) / ! ! / / ! / / / / ! ) / / / / I ! Y / / ) Y n r =.r ! ! ) ! ! r ! / / / / ! ! I / / I / ) ) ~ I / ",
"T ^ / ! Y Y r r =.q / ) ) Y ! ! ) ) / ! j j / / / / Y / I / / / / / / / ) / n d r ! ! ) ) ! ! ! / m / / ! / / Y / / / ! ~ ~ I / ",
"! m m m / ! r r r.r Y / / n Y ! / / / n n / / / Y n n n n n n n n n / / / n r d r ! ! ! ! ! ) ! Y Y Y M M / / / Y / Q R ~ / ! I ",
"k m m m m Y Y r r.Y / D j n D Y I n n n n n n k n n n n n n n n n n j V n n n d r / ! ! ! ! ! ! / Y / / / m / J / / F R / Q ~ I ",
"x k k m k k Y 8 9.D D D D ! Y Y D j j n n j n n n n r n n n n n n n b n n n j d r ! ! ! Y Y ! B m M M M m m Y Y S J R A R S I x ",
"k k k k k k J 0 r.D D D j D j D j j j j j j j j j j v n v v v e j v J / D D j s e J Y x m m m m m k k k m x c G k k k Z Z k k k ",
"h h h k h h h 7 r.2 B B v Z g Z j g g 0 7 g 7 v 7 7 7 7 8 7 7 7 g j j Z j g 0 a r B k k h h h n k k h k h h k h k h h k h h 7 k ",
"h 4 h h g h h 7 r.2 g B B g q Z g q q 7 g v q 7 q 7 7 7 8 7 7 7 q q g Z q q 4 p m k h h h h h h h h B h h h h h h h h h h h 3 h ",
"f h f f g g 3 4 r.4 8 f 6 q q 6 q q 2 4 4 6 2 4 7 2 4 3 2 7 4 4 q q 6 q q 6 3 +.7 f g g 6 4 8 g f f g g f 2 g f f g 2 g g f 3 4 ",
", f f f f f , , +.8 3 , < 3 , , < < 3 5 , , < 5 , 3 , , , , , , 1 , 5 5 ; , , #.7 , , - < , < , , < , f , , f f f f 6 1 , , , , ",
", 6 6 6 6 6 - , O 5 , , , # # # - - - , - , , - , , , 2 2 5 - - - - ; 2 - - - o.3 - - - - - - , , - - - - , - - , - - 6 f 6 - - ",
"= 6 5 6 5 6 = - O X - # # = # - - - # - = - - < - = = = = = = - = - = = = # # o.3 = - - = = = # = # # = = = = = = = 6 = 6 = = = ",
", f h h , , , ;.p X X $     - - # # - - - , - ; , , , , , , 4 4 4 4 4 4 4 = 1.*.&.e 7 e e , - = 4 = $ = $ = , , - - - = - = - - ",
"r.=.=.=.=.=.d d d d =.=.*.=.=.r.9.9.0.0.r.6.9.6.8.e.0.e.e.y.y.y.r.y.y.e.e.y.y.-.-.-.y.y.y.y.d y.r.r.r.r.y.y.e.r.y.r.r.r.r.r.r.r.",
"r r r q r r r q r r r r r r r r r r r r r C r e.y.1 t r e w r V r r r r w w r r i w w w r r r r w w r r w y d -.-.0 r r r r r r ",
"/ / R / ) ) ) ) ) ! / / / / / / / r r C C C r r y.1 w r w r r i ( ( r w r r ( w ( ( _ _ ( ( ( ( ( ( ( w w 9 y -.r r I / r / Q R ",
"/ / I / / / ! ! / ! / / / / / / / / / r C C r r y.w w ( ( ( ( ( ( ( ( ( w ( ( ( _ ( ( _ _ ( ( ( ( ( ( ( ( ( : -.r / r / / / ) ) ",
"/ / / / / / / / ! ! / / / / / / / e / r r C C r y.w ( w ( ( ( ( ( ( ( ( ( ( ( ( ( ( ( _ ( _ ( ( w w w w ( ( t -.r r / / I Q ) ) ",
"I ~ ~ ~ / / / / ! ! ! / C C C ^ ^ r ^ ^ ( R e r y.r ( ( ( ( ( ( ( ( ( _ ( ( ( ( ( ( _ ( ( _ ( ( _ ( b b b _ e -.q ! ! ! ~ ) / ! ",
"~ C ~ ~ / / / C ! ! C C C C C ^ ^ ^ / / R R C r y.r ( w ( _ w w ( ( ( ( ( ( ( ( ( _ ( ( ( ( ( ( ( w b b w i w -.r ! ! Q ) / ! V ",
"C ~ ~ C / C C C C C C C C C C / / / / / ( ( C 9 i r ( ( w w w _ ( ( ( ( ( _ w w ( w C w w V ( ( ( w w b w e r -.q Q I I ) I I ~ ",
"C C C ~ C / C C C n C C J C C C C C C C C ( C + + w ( V ( ( ( b w w w ( ( b w w w w w w w w w w w ( ( w V 9 e -.0 / I I D I V V ",
"b C C C C C C v C C v n v C C C C C C C C C C y d w ( ( w w b b w ` ( V ( w V w w V 9 w w w V w w w w w w 0 0 -.0 Y J B r q g x ",
"v v C C C C n v v C v C C C v C C C C C C C C r d V w ( ( V w w w b w w w w w w w w w w w 9 w w w ( w w w w 0 6.7 7 A c q S 8 Z ",
"g v v v C v v v v v v r v v C v n v C C C C C r d w V j w w w w w w w w w w w w w w i V 9 w w w w w w F w w 0 6.4 7 J q q 8 8 r ",
"q r q q q v v r r r r e r v v C v C r v m N C r a 9 0 w w w w w w w w w w w F w 9 9 0 9 9 9 9 9 w w 0 w 0 0 0 r.4 B B q 8 4 8 8 ",
"8 7 8 8 q q Z q 7 7 7 e 7 r v r r N q v r r x 7 p 0 9 w 0 w F q w 0 w w 0 w F w 9 0 w 9 9 9 9 w 9 w 9 w 0 4 = 3.:.B 4 5 3 4 8 8 ",
"7 5 8 8 7 7 8 7 4 = = 4 4 4 4 4 8 8 4 7 8 7 4 = X.9 9 1 9 9 1 9 9 1 1 9 1 ; 1 9 9 1 1 1 & 1 1 5 1 1 ; ; 3 & * %., z , < , , 4 2 ",
"< < < < 2 2 2 , * * * , , , < , , 3 , , , , * < { % & 1 ; ; 2 1 ; ; ; ; 1 ; ; ; ; ; ; ; & & ; ; ; ; ; ; #   { #., , - - $ - 2 2 ",
"= = < = = = - u u i u       # # $ $ # $ $ # $ ' ] ` % % % % % % % % % % % % % % % ` ` ` ` ` % ; ; = ; ;     { #.' - - # # - - = ",
"r.r.2.2.6.#.+.#.#.o.X. .X.o.@.@.%.3.3.3.3.3.3.#.2.2.2.3.5.9.e.r.r.r.e.r.9.9.r.r.r.=.&.&.#.#.#.#.p 4.a e.w.*.*.=.*.*.&.r.*.9.r.9.",
"8 r r r r r 1 1 r Q ! ! / I / r y.: 3 r r r r r r r r r r r r r r r r q r r r r r r r r r r r d d d + ; r r q r r r r r r r r q ",
"G C c C C C r / / / / / / / / q y.: 3 r ^ r Y / / ! Y / / I / r / / ! ! / / / Y ! v r v v v r d d + ; w r r r r / / / / Y ! 0 C ",
"C C C C / V / C / / Y / ) / / r 0.: r Y / / / ^ / ! ! ! / / / / / / ! / Y / / / ! Y / / v v n d d r r ( / I / / / Y / c ! Y ! Y ",
"/ / / / V / / / / / C / / / ! q y.3 r / / / v ) / / g ^ / / / / Y I / / / / v / n / / / ! ! v d e.r R / / / ) I C / Y J D D D D ",
"/ / / C / C / / / C / C I / / r -.r e r / / v / Y j / / / / / / / / ! ! / v v v v Y / / ! ! v *.=.r / / I I / V S S V c c S c S ",
"/ ! ! C / C C C I C / C C C / *.-.r r r v / v Y v v v j v v n v v n j j v / v / v ! / ! / ! e e *.e R J D D D S V V c c c x c Z ",
"/ ! ! C V H n n n C C C C C / r =.r r / n v v Y / v / n n v v v n v v v n / v n v v ! v / Y D e *.0 S S D V D V c c x x x Z B x ",
"Y v C C v v C C j C C C V C C 0 d r r v v v v v v v r v v v v v v v v v v v / Y Y v j v 8 D Y e %.7 D B B B x x x 7 q x z x B B ",
"g v v v c g r v v b V V V C N e s e g r g v v v v e v e r v g v v r q v r g r q r f 8 v v B B 4 O.7 8 8 r x 8 5 x 7 x h 5 B z B ",
"q r r q q q q g c x c q c m c 4 p 7 r f r f v 7 7 7 q e 7 B r 8 q q 4 q 7 6 q 7 8 8 8 8 7 B B = ..3 8 7 l 7 7 7 5 5 5 7 4 5 5 7 ",
"8 7 q 8 q q 8 q x x x k x x 7 4 O.- 8 r 8 r 8 4 e 4 4 7 4 4 4 7 4 4 7 4 7 7 4 7 7 7 7 2 8 z , $ { , 2 2 2 4 - 2 2 2 2 2 1 2 2 2 ",
"4 4 7 8 B 8 7 7 8 8 h x 4 4 4 4 ..= 4 7 7 4 3 4 3 4 3 4 , 3 3 , , , , , < 7 2 2 , 4 2 2 , - : , ] - $ - - - 2 2 l 2 2 , - - , - ",
"* < 3 < 4 < < 8 h h < < h < 1 < { = * 3 3 , , 3 , , , , * , , , , , , - 1 - , < 2 - - - - # # i ` $ - - - - < - = - = = - # # # ",
"$ $ * * & $ = &     . $ $ $ $ { [ [ $ $ - , , , - , - $ : - - ; - = #   # # - = = = = # # # # u u # $ $ $ $ $ * $ $ # # # # # # ",
"3.e.3.2.1.<.<.,.,.,.<.<.<.<.<.<.<.1.1.1.:.y.2.2.2.2.2.1.1.3.1.2.1.1.1.2.2.3.2.2.1.:.:.:.:.:.:.1.1.2.<.:.1.1.:.<.<.:.1.1.2.2.<.:."
};
