/* XPM */
static char *_856b1ab0921459ca72441b8a1a6e639glD4EKO6cHCZ9Hip[] = {
/* columns rows colors chars-per-pixel */
"64 64 199 2 ",
"   c None",
".  c #321F15",
"X  c #2B2117",
"o  c #2E2319",
"O  c #352115",
"+  c #3A2317",
"@  c #32251A",
"#  c #39271C",
"$  c #35291C",
"%  c #3A2C1E",
"&  c #3D2D21",
"*  c #3E3121",
"=  c #432D1C",
"-  c #4A2E1E",
";  c #422E22",
":  c #443124",
">  c #4A3326",
",  c #4E3825",
"<  c #44342A",
"1  c #4C3629",
"2  c #4E382B",
"3  c #543624",
"4  c #523A27",
"5  c #51362B",
"6  c #583629",
"7  c #533A2C",
"8  c #5A3B2D",
"9  c #553630",
"0  c #543D33",
"q  c #5B3D31",
"w  c #613C2F",
"e  c #5B442C",
"r  c #4E4037",
"t  c #5B4234",
"y  c #524339",
"u  c #5E453A",
"i  c #5C4C3E",
"p  c #554232",
"a  c #604328",
"s  c #66492D",
"d  c #6A4C2F",
"f  c #624335",
"g  c #664934",
"h  c #6C4B35",
"j  c #644439",
"k  c #6C4739",
"l  c #634C3D",
"z  c #6D4B3B",
"x  c #734C3A",
"c  c #6E5533",
"v  c #74533E",
"b  c #78513C",
"n  c #775938",
"m  c #7D5B3F",
"M  c #715334",
"N  c #7C603F",
"B  c #5E4C40",
"V  c #634C42",
"C  c #6C4D44",
"Z  c #704C40",
"A  c #6A5042",
"S  c #6E5841",
"D  c #6B5649",
"F  c #6D5B4C",
"G  c #645C48",
"H  c #735241",
"J  c #7B5444",
"K  c #7C5B43",
"L  c #735B4D",
"P  c #7C5C4B",
"I  c #7A534A",
"U  c #7F6145",
"Y  c #7D6555",
"T  c #7A6658",
"R  c #766A58",
"E  c #86613F",
"W  c #8A663E",
"Q  c #825645",
"!  c #835C46",
"~  c #83574B",
"^  c #845B4B",
"/  c #8B5C4F",
"(  c #915E4F",
")  c #815C52",
"_  c #826347",
"`  c #8B6545",
"'  c #8B6D46",
"]  c #856149",
"[  c #8A644C",
"{  c #8E6A4F",
"}  c #90644E",
"|  c #836355",
" . c #8D6352",
".. c #846B54",
"X. c #8B6A55",
"o. c #876659",
"O. c #846D5B",
"+. c #8B6B5B",
"@. c #88645A",
"#. c #936253",
"$. c #9A6755",
"%. c #936C53",
"&. c #9B6A56",
"*. c #90675D",
"=. c #956D5A",
"-. c #9C6A5A",
";. c #8D715C",
":. c #947256",
">. c #9A7252",
",. c #9D7851",
"<. c #94725B",
"1. c #9C745E",
"2. c #94795F",
"3. c #9D7C5B",
"4. c #A26E5C",
"5. c #A36C57",
"6. c #A17B54",
"7. c #A3735D",
"8. c #A8755F",
"9. c #A77B5F",
"0. c #A97D5D",
"q. c #8D6D61",
"w. c #936E62",
"e. c #9F6F60",
"r. c #8F7463",
"t. c #947164",
"y. c #9D7563",
"u. c #977867",
"i. c #9C7A64",
"p. c #9D7C6C",
"a. c #957C6D",
"s. c #A46F60",
"d. c #A86E60",
"f. c #A47462",
"g. c #A97563",
"h. c #A57A63",
"j. c #AB7B65",
"k. c #A77669",
"l. c #AB7669",
"z. c #A57D69",
"x. c #AD7D6B",
"c. c #B27B67",
"v. c #B27D6B",
"b. c #B87F6E",
"n. c #AD815F",
"m. c #A28061",
"M. c #AD8365",
"N. c #AD826B",
"B. c #AA8C65",
"V. c #B08264",
"C. c #B4836D",
"Z. c #B9836E",
"A. c #B48A6C",
"S. c #B98A6F",
"D. c #BA966A",
"F. c #A98270",
"G. c #AF8B76",
"H. c #B68471",
"J. c #BB8572",
"K. c #B58A72",
"L. c #BC8A74",
"P. c #BE8B79",
"I. c #AD907D",
"U. c #B69077",
"Y. c #BD9275",
"T. c #BE927A",
"R. c #BD9B79",
"E. c #C18B76",
"W. c #C38E7A",
"Q. c #C19276",
"!. c #C1957A",
"~. c #C3957C",
"^. c #C4967D",
"/. c #C4927C",
"(. c #C9947E",
"). c #C5997E",
"_. c #C99A7F",
"`. c #C49A75",
"'. c #C4A17A",
"]. c #C1A376",
"[. c #C69681",
"{. c #CA9681",
"}. c #C59B81",
"|. c #CA9D85",
" X c #CC9B84",
".X c #CF9E88",
"XX c #D09D86",
"oX c #D19E89",
"OX c #CDA185",
"+X c #C6A089",
"@X c #CEA28A",
"#X c #D1A287",
"$X c #D3A48B",
"%X c #D6A98E",
"&X c #D7A690",
"*X c #D7AD91",
"=X c #D9AD93",
"-X c #DCB395",
";X c #DEB699",
/* pixels */
"                                                                                                                                ",
"                                                                                                                                ",
"                                                                                                                                ",
"                                                                                                                                ",
"                                                                                                                                ",
"                                                                                                                                ",
"                                                                                                                                ",
"                                                                                                                                ",
"                                                                                                                                ",
"                                                                                                                                ",
"                                                                                                                                ",
"                                                                                                                                ",
"                                                                                                  R y B                         ",
"                                                                              R Y O.X.<.! ; 8 6 6 3 t x x                       ",
"                                                          O...;.;.<.<.y.1.1.9.h.9.j.M.j.j.7.7.1.7.f.7.8.f.                      ",
"                                    G G F o.P X.i.m.U.+XR.A.C.M.M.M.M.V.M.C.N.C.N.C.A.C.C.C.8.&./ ! &.S.E.                      ",
"                2.X.<.#.&.&.5.7.M H K y.1.f.h.N.L.P.Y.T.).).R.Y.Y.T.S.A.A.S.K.Y.K.K.Y V F h.Q.Q.P.P.Q.Q.E.                      ",
"          m 8.7.5.7.7.7.8.8.j.j.h.j.N.H.H.A.K.K.K.A.K.L.U.R.}.O.+.'.2 l ).D.: _.p 1 ).R.i.O.N.!.!.!.Q.Q.E.[                     ",
"          ! g.j.j.h.9.7.7.7.9.h.h.h.h.N.K.o.l B N.i.: z.A.H K.c ; !.: A.d l : <.W = O.m.Y 4 7 [.^.~.^.^.!.A.                    ",
"          j.S.j.j.1.7.j.j.1.h.X.1 N.% M.$ D D D +.A...<.=.e * ,.& Y.: U _.`.[ N.OXOX+X}.OX[.^.^.}.|. X X X|.                    ",
"          }.%XOX!.S.J.L.c e 1.= % 1.# P A L q.i 4 L.U S ..B.).OX|.).}.).[.).}.T.R.}.[.).Y.!.~.!.}. XOX|.}. X                    ",
"          OX}.).).Q.C.j._ z % 7 a K K *.U.P.K.L.T.T.T.T.Y.).T.T.!.).[.R.I.a.R B 0 < * * = R.}.OX#X|.OX#X|.|.]                   ",
"          |.|.)._._.Y.L.C.j.V.C.Y.T.T.K.K.K.A.H.x.F.u.R i < & % % % % % % $ % % % % : 1 p X.@XOX$XOX|.).}.Q.j.                  ",
"          #X XOX X^.^.Q.L.K.C.A.F.t.L r * & $ & $ $ % & & @ $ $ $ % * * : % * : : : : : 1 1 OXT.L.Y.Q.!././.[.                  ",
"          |.#X$X@X#X X!./.^.M.% % % $ $ $ % % $ $ i * $ % % $ $ $ $ @ $ $ : : < : 1 2 : 1 2 T.T.Q.^._. XXX#X#X                  ",
"          $X$X#X|.#X X XQ.Y.M.% $ % $ * $ $ $ $ $ $ > p 7 7 7 > $ o @ $ $ & * $ @ @ $ $ : e &.|. X^._._._././.h                 ",
"          $X#XOX$X#X XOX_.).R.% % $ $ $ $ $ o $ & f g v Q ( Q J M 4 $ @ @ : % % & & : ; > 1 5 /.%X#X#X_._._._.1.                ",
"          #XOXOXOX_.OX#X X|.D.% : % * $ $ $ $ o t Z ! !  . .x Q Q J $ $ $ % 1 1 1 1 7 q f k z #XOX#X%X%X$X#XXX X                ",
"          $X$X#X#X#X%X#X_.#Xm.% $ $ $ $ $ o $ $ : > k j.&.Q x 5.j.&.> 7 k 7 % > 1 1 7 f 8 f q k.!.P.Q.^.(.^.!.Q.                ",
"          $X#X#X#X#X#X$X$X`.3.% % $ % $ $ * [ p f.-.#.g.C.J.L.V.&./ #.7.b $ $ : = : > 1 7 5 t Z !.|. X(.Q.Q.(./.s               ",
"        N %X-X-X;X-X%X#X#X#XB.* * * * * * * * v $. .4.d.g.l.l.g.$.k % % @ $ @ % : : ; > 1 7 j j ~.Q.L.Q.E.E.E./.[               ",
"        _ %X@X$X%X%X#X-X*X%XD.: * % $ % % % % $ z t J ( #.c.g.-.x 2 % @ @ o o & > 5 2 5 5 5 q f P.L.L.Q.!.L.Z.c.j.              ",
"        :.&X;X;X;X;X;X;X-X*X].> > : * & * & * $ # I s.J.J.l.d.4.t = ; @ % @ @ @ ; < < 9 q j w w k.[.W.L.E.W.E.Z.E.              ",
"        X.[..X$X%X=X=X;X;X-X]., 1 : > : * & * & % $ & k ( l.b.W.{.Q.C.7 @ @ % @ @ # ; ; 1 9 9 9 w [.W./.E.Z.Z.Z.Z.              ",
"        3.|.[.W.W.{.XX$X*X*X].< < < 1 1 < : : * : ^ P.#.4.d.{.W.W.Z < : Z.x 7.% @ @ @ ; < < 9 5 5 /.W.J.b.Z.E.Z.E.!             ",
"        M.*X|..X(./.(.(.}.|.Y.7 , 7 2 2 1 2 1 : ; % ( Q -.W.q C 7 & ; : 4.0./ x @ X X X # ; . & : Q.W. XE.E.E.W.W.c.            ",
"        K.*X=X&X$XoX{.{.(.{.Q.: : > 2 1 2 2 2 1 1 1 J W.G.: : ; & & & ; Z.X.f.! # @ < @ ; & < & & I /.{.(.(./.(./.(.            ",
"        [.&X&X&X&X&XXXXXXX(.Q.= * : 2 1 : < 1 2 7 / @Xt.q 5 5 > ; ; : 8 (.6 Q.> # @ . 9 ; 5 & . . @ P.W./.(.(.J.b.v.            ",
"        .X$X&XoXoXoXXXXX{.{.A.: : : * : ; : < ; > w.2 -.~ > 5 1 < < 9  X=.H.N.1 < # # @ # < @ @ @ @ /.W.W./.(._.W.Z.b           ",
"        .X.XoXoXoXXX{.XXXX_.Y.: * * * * ; < ; ; ; ; C x.j 5 1 7 9 > w W.q P.> ; # & & # ; ; ; o X @ -.W././.W.E.(.W.f.          ",
"        $X.XoXoXoX&XXX{.{.XX[.: : & & & & ; & ; s.k.P.W.L.[.-.l.b.[.{.{.W.J.b.x > 1 5 1 7 x I %.^  .j.J.E.W.W.E.(.W.(.          ",
"        oX.X XoXXXXXXXoXXX X^.h.K.K.P.[. X}.[.[.[.[.{. X|. X[. X{..X{.{.{./.(.{.(./.E.Z.c.b.H.J.J.W./.P.E.E.E.W.(.E.(.          ",
"        {.oXoX$XoXoXoXoXoX|.oXoX X.X{./.{.{. X[.[.[./.^.[.[.[..X.X[..X{.[.[.[.W.W.E.J.J.J.J.E.J.J.L.W.W.E.W.W.(.(.(.E.h         ",
"        &X&X$X&X$X$X&X&XoXoX&X$X&X.X{.[.{.[.[. X[.W.P.P.P.P.P.P.[.[.[.P.P.K.J.k.H.J.w.x.H.w.J.S.@.L.$.j q &.E.E.E.W.E.#.        ",
"        W./.W.[.{.(.(.(.[.P x K |.6 |.u .X1 v.I ; F.^ X.h P.L.+ q.P 7 C.O : >.j V %.1 q N.# # S.= 3 + L.. E.E.W.(.E.W.E.        ",
"         X{.{.{.{.{.XX X).t.f J [.- 7 b.k w Y.I k L.P k T.Q /.J [.W.j.C :.} J.J ^ J.%.h.H.H.L.j.c.C.C.Z.E.E.W.W.(.(.(.W.        ",
"        [.[.{..X{.{.(.E.E.W.[.(.W.[.P.P.[.J.J.J.b.b.*.x.k.) f.e.) ) v.v.w.J.p.y.P.J.L.J.J.Z.L.L.S.P.L.J.b.E.E.E.E.(.W.W.d       ",
"      M W.E.W.W.E.W.W./.W.E.W.W.W.P.[.P.E.[.P.J.J...../ + M.0 %.j C v.v.h C.. 7 j.J.J.L.L.L.Z.L.J.Z.J.J.E.Z.b.E.b.W.(.(.#.      ",
"      ] (.(./.(.[.(.W.E.E.E.b.J.E.W.P.P.J.P.P.P.P.l.J.J.J.N.C.v.l.j.c.l.c.x.b.g.v.c.v.b.J.J.E.J.E.E.Z.E.W.W.E.E.E.E.W.(.J.      ",
"      %. X{.[.(.(.(.W.W.W.W.E.(.W.Q.P.E.J.P.P.W.W.[.W.P.J.J.J.J.J.v.C.H.J.b.H.H.J.H.b.J.b.v.b.J.E.E.E.(.(.(.W.(.(.(.(././.      ",
"      %./.Q./.Q.l.{.W.(.t.(.W.W.W.o.| H.b.H.H.b.H.J.H.J.L.P.L.N.u C Z.H.L.9 C J.J.V I H.| g.C C e.b.y.V N.j 0 N.f 8 =.% [.      ",
"        j.V.V.V.n ' ' ` s a 6.7.n.6 1 6. .C = H 5 ] 2  .4 1 L.K K.x.C.l . ; _ H.v.P p [ H : C.= J.q x.[ = K.j Q.u t Y.m ).]     ",
"                                                                                                                                ",
"                                                                                                                                ",
"                                                                                                                                ",
"                                                                                                                                ",
"                                                                                                                                ",
"                                                                                                                                ",
"                                                                                                                                ",
"                                                                                                                                ",
"                                                                                                                                ",
"                                                                                                                                ",
"                                                                                                                                ",
"                                                                                                                                "
};
