/* XPM */
static char *result[] = {
/* columns rows colors chars-per-pixel */
"64 64 8 1 ",
"  c red",
". c #F6F6F6",
"X c #F8F8F8",
"o c #F9F8F8",
"O c #FBFBFB",
"+ c #FDFDFD",
"@ c white",
"# c None",
/* pixels */
"################################################################",
"################################################################",
"################################################################",
"################################################################",
"################################################################",
"################################################################",
"################################################################",
"################################################################",
"################################################################",
"################################################################",
"################################################################",
"################################################################",
"################################################################",
"################################################################",
"################################################################",
"################################################################",
"################################################################",
"################################################################",
"################################################################",
"################################################################",
"################################################################",
"################################################################",
"################################################################",
"################################################################",
"################################################################",
"################################################################",
"################################################################",
"################################################################",
"################################################################",
"################################################################",
"################################################################",
"################################################################",
"################################################################",
"################################################################",
"################################################################",
"################################################################",
"################################################################",
"################################################################",
"################################################################",
"################################################################",
"################################################################",
"################################################################",
"################################################################",
"################################################################",
"####@@@.######@@@@##############################################",
"####@@@.######@@@@##############################################",
"##@@    @@##@@    @@############################################",
"##@@    @@##@@    @@############################################",
"@@  @@@@  @@        OO##########################################",
"@@  @@@@  @@        @@##########################################",
"@@  @@              @@##########################################",
"@@  @@              @@##########################################",
"@@                  @@##########################################",
"@+                  oX##########################################",
"##@@              @@############################################",
"##@@              @@############################################",
"####@@          @@##############################################",
"####@@          @@##############################################",
"######@@      @@################################################",
"######@@      @@################################################",
"########++  ++##################################################",
"########@@  @@##################################################",
"##########@@####################################################",
"##########@@####################################################"
};
